<svg width="19" height="20" viewBox="0 0 19 20" fill="none" xmlns="http://www.w3.org/2000/svg">
<g id="acai (1) 1">
<g id="Group">
<path id="Vector" d="M11.0672 8.52503C11.6722 8.17608 12.3429 7.95625 13.037 7.87937C13.0401 7.87419 13.0433 7.86916 13.0463 7.86395C14.1759 5.90737 13.5031 3.39653 11.5466 2.26687C9.58998 1.13726 7.07911 1.81002 5.94949 3.76663C5.18943 5.08313 5.24538 6.65049 5.95935 7.87925C6.65381 7.95603 7.32482 8.17591 7.93004 8.52503C8.54676 8.88108 9.0708 9.3532 9.47977 9.91163C9.48351 9.91163 9.48726 9.91182 9.49097 9.91182C9.49987 9.91182 9.50874 9.91143 9.51764 9.9114C9.9266 9.35308 10.4506 8.88105 11.0672 8.52503ZM9.38585 7.92582L9.08937 8.12067C9.01123 8.17218 8.9197 8.19963 8.82611 8.19961C8.66984 8.19961 8.51663 8.12345 8.42438 7.98309C8.28901 7.7771 8.33293 7.50552 8.51772 7.35126C8.33293 7.19701 8.28901 6.92546 8.42438 6.71944C8.57 6.49783 8.86763 6.43615 9.08933 6.58186L9.38582 6.77671L9.6823 6.58186C9.90394 6.43621 10.2016 6.49783 10.3473 6.71944C10.4826 6.92543 10.4387 7.19701 10.2539 7.35126C10.4387 7.50552 10.4826 7.77707 10.3473 7.98309C10.255 8.12342 10.1018 8.19961 9.94552 8.19961C9.85506 8.19961 9.76354 8.1741 9.68227 8.12067L9.38585 7.92582ZM8.96212 10.8806C8.61436 10.2665 8.10399 9.73432 7.44988 9.35669C5.49331 8.22704 2.98243 8.89981 1.85281 10.8564C0.723194 12.813 1.39596 15.3238 3.35254 16.4535C3.99621 16.8251 4.69957 17.0016 5.3943 17.0016C6.81134 17.0016 8.19157 16.2667 8.94958 14.9538C8.9538 14.9465 8.95777 14.939 8.96196 14.9317C8.50201 13.8844 8.41167 12.7196 8.71257 11.5966C8.77804 11.3521 8.86145 11.1128 8.96212 10.8806ZM5.26734 14.6448C5.33213 14.8634 5.23373 15.1036 5.02285 15.2096C4.95607 15.2433 4.88233 15.2609 4.80754 15.2609C4.63177 15.2609 4.4625 15.164 4.37815 14.9963L4.23548 14.7125L3.91836 14.7308C3.90891 14.7314 3.89953 14.7316 3.89019 14.7316C3.63769 14.7316 3.42603 14.5345 3.41128 14.2792C3.39767 14.0435 3.55651 13.8382 3.77821 13.785C3.71342 13.5664 3.81183 13.3262 4.02271 13.2201C4.25959 13.101 4.54823 13.1965 4.66737 13.4335L4.81004 13.7173L5.12717 13.699C5.39231 13.6843 5.61895 13.8859 5.63425 14.1506C5.64792 14.3862 5.48908 14.5916 5.26734 14.6448ZM15.9853 8.45153C16.0156 8.42256 16.0457 8.39327 16.0754 8.36353C17.2355 7.20344 17.8168 5.59975 17.6703 3.96372C17.6619 3.8703 17.621 3.78279 17.5547 3.71647C17.4884 3.65015 17.4009 3.60924 17.3075 3.60088C16.2491 3.50603 15.2046 3.71621 14.2846 4.19023C14.683 5.366 14.6503 6.68212 14.1165 7.87617C14.7708 7.94513 15.4055 8.14054 15.9853 8.45153ZM17.1445 10.8564C16.0148 8.89977 13.504 8.22704 11.5474 9.35666C9.59081 10.4863 8.91805 12.9971 10.0477 14.9537C10.8057 16.2668 12.1857 17.0016 13.6029 17.0016C14.2975 17.0016 15.0012 16.825 15.6447 16.4534C17.6013 15.3238 18.2741 12.813 17.1445 10.8564ZM15.586 14.2792C15.5712 14.5345 15.3596 14.7316 15.1071 14.7316C15.0977 14.7316 15.0884 14.7314 15.0789 14.7308L14.7618 14.7125L14.6191 14.9963C14.5348 15.164 14.3655 15.2609 14.1897 15.2609C14.1172 15.2609 14.0436 15.2444 13.9744 15.2096C13.7635 15.1036 13.6651 14.8634 13.7299 14.6448C13.5082 14.5916 13.3494 14.3862 13.363 14.1506C13.3783 13.8859 13.6055 13.6838 13.8701 13.699L14.1872 13.7173L14.3299 13.4335C14.449 13.1965 14.7376 13.101 14.9745 13.2201C15.1854 13.3261 15.2838 13.5664 15.219 13.785C15.4408 13.8382 15.5996 14.0435 15.586 14.2792Z" fill="#0000FD"/>
</g>
</g>
</svg>
