<svg width="20" height="20" viewBox="0 0 20 20" fill="none" xmlns="http://www.w3.org/2000/svg">
<g id="acorn 1" clip-path="url(#clip0_1248_21330)">
<g id="Group">
<path id="Vector" d="M11.1875 2.95604V0.5H8.81252V2.95604C5.58067 3.36997 2.875 5.40683 2.875 7.625V8.81251C2.875 9.46831 3.40671 10 4.06251 10H15.9375C16.5933 10 17.125 9.46831 17.125 8.81251V7.625C17.125 5.40683 14.4194 3.36997 11.1875 2.95604ZM8.48955 18.8199C8.79107 18.9776 9.08097 19.1272 9.34132 19.3005C9.54077 19.4333 9.77038 19.5 10 19.5C10.2297 19.5 10.4593 19.4333 10.6587 19.3005C10.9191 19.1272 11.209 18.9776 11.5105 18.8199C13.2876 17.8895 15.6844 16.6223 15.9147 11.1875H4.08536C4.31569 16.6223 6.71251 17.8894 8.48955 18.8199Z" fill="#CA3C3D"/>
</g>
</g>
<defs>
<clipPath id="clip0_1248_21330">
<rect width="19" height="19" fill="white" transform="translate(0.5 0.5)"/>
</clipPath>
</defs>
</svg>
