<svg width="20" height="20" viewBox="0 0 20 20" fill="none" xmlns="http://www.w3.org/2000/svg">
<g id="almond 1">
<g id="Group">
<path id="Vector" d="M6.00488 3.27109C5.49837 3.73696 4.94557 4.38899 4.42773 5.17047C3.39394 6.73344 2.5 8.81142 2.5 10.9121C2.5 13.695 3.83902 15.6454 5.48042 16.6698C5.23857 16.2341 5.02703 15.7823 4.84729 15.3175C4.32851 13.9898 3.86169 12.1046 3.99966 9.75166C4.00301 9.68797 4.03045 9.62792 4.07643 9.58371C4.1224 9.53949 4.18346 9.5144 4.24724 9.51353C4.28157 9.51359 4.31552 9.52068 4.347 9.53436C4.37848 9.54804 4.40683 9.56803 4.43029 9.59308C4.45375 9.61814 4.47183 9.64774 4.48342 9.68005C4.495 9.71236 4.49985 9.7467 4.49766 9.78096C4.36442 12.0527 4.82178 13.8698 5.30749 15.12C5.79226 16.3702 6.30632 17.0525 6.30632 17.0525C6.32144 17.0714 6.32616 17.0903 6.33467 17.1101C6.78816 17.2999 7.26641 17.424 7.75495 17.4786C7.47146 16.9873 6.92149 15.9374 6.45468 14.4396C5.59098 11.6784 5.43629 8.74425 6.00488 5.90754C6.01519 5.85128 6.04496 5.80044 6.08898 5.76391C6.12878 5.7305 6.178 5.71031 6.22979 5.70612C6.28159 5.70194 6.33341 5.71397 6.37806 5.74056C6.42271 5.76714 6.45799 5.80696 6.479 5.85449C6.50001 5.90202 6.50571 5.9549 6.49531 6.00582C5.94372 8.75495 6.09255 11.5987 6.92811 14.2752C7.54989 16.2748 8.32098 17.4531 8.35217 17.5004C8.59691 17.4928 8.83599 17.4654 9.06467 17.4144C9.2565 17.3662 9.43604 17.3057 9.60708 17.2386C9.59763 17.2216 8.2331 15.0444 7.67652 12.82C7.66687 12.7843 7.66535 12.7468 7.67206 12.7105C7.67878 12.6741 7.69355 12.6397 7.71531 12.6098C7.73706 12.5799 7.76524 12.5552 7.79777 12.5376C7.83031 12.52 7.86637 12.51 7.90331 12.5081C7.96187 12.5038 8.02006 12.5204 8.06749 12.5551C8.11491 12.5897 8.14849 12.64 8.16223 12.6971C8.69141 14.8167 10.0352 16.9806 10.0352 16.9806C10.0446 16.995 10.0529 17.0102 10.0597 17.026C11.1408 16.4326 11.7418 15.4252 12.0158 14.3603C12.3626 13.0033 12.2209 11.5462 11.9686 10.5776C11.635 9.28674 10.8639 7.31082 10.0096 5.63539C9.58157 4.79816 9.13555 4.03935 8.70275 3.47615C8.51586 3.22247 8.29952 2.99186 8.05828 2.78916C7.84378 2.61812 7.62171 2.5 7.37413 2.5C6.93945 2.5 6.51043 2.80617 6.00393 3.27204L6.00488 3.27109ZM12.8417 17.3794C12.8389 17.3652 12.8313 17.3539 12.8294 17.3369C12.8256 17.2745 12.7633 16.2568 12.9003 14.8422C13.0364 13.4257 13.3709 11.6123 14.1968 9.95861C14.2157 9.91803 14.2453 9.88338 14.2824 9.8584C14.3195 9.83342 14.3628 9.81906 14.4075 9.81687C14.4513 9.81459 14.495 9.82384 14.5342 9.84368C14.5733 9.86353 14.6066 9.89328 14.6307 9.92998C14.6548 9.96668 14.6688 10.009 14.6714 10.0529C14.6741 10.0967 14.6652 10.1404 14.6456 10.1797C13.8613 11.7493 13.5287 13.5306 13.3954 14.9187C13.3175 15.6825 13.2935 16.4507 13.3236 17.2178C13.8975 16.9743 14.4158 16.6164 14.8469 16.1661C15.8259 15.1644 16.4307 13.8339 16.6972 12.8682C17.0525 11.584 17.3738 9.48707 17.4711 7.60943C17.5193 6.67013 17.5127 5.78848 17.4191 5.08448C17.3845 4.77156 17.3128 4.46387 17.2055 4.16786C17.1054 3.91272 16.9712 3.69822 16.7567 3.57443C16.5999 3.48862 16.4251 3.44102 16.2464 3.43552C16.0301 3.42773 15.8135 3.44198 15.6001 3.47804C15.121 3.54797 14.5483 3.70672 13.9275 3.94674C12.7511 4.40667 11.6489 5.03709 10.656 5.81777C11.4375 7.41476 12.1301 9.20831 12.4533 10.4519C12.717 11.4677 12.8767 13.0127 12.4996 14.484C12.219 15.5783 11.6208 16.6064 10.6069 17.2793L10.7656 17.336C11.5244 17.5524 12.218 17.5438 12.8417 17.3804V17.3794ZM7.64345 4.73673C7.80409 4.7339 7.92127 4.87848 7.89197 5.03629C7.62738 6.36491 7.62455 7.66896 8.16034 9.54377C8.16982 9.57535 8.17286 9.60851 8.1693 9.64128C8.16574 9.67406 8.15565 9.70579 8.13962 9.7346C8.12358 9.76341 8.10194 9.78871 8.07596 9.80901C8.04998 9.8293 8.02019 9.84419 7.98836 9.85277C7.87118 9.88774 7.73038 9.84332 7.67841 9.68268C7.40248 8.71504 7.26073 7.87685 7.22672 7.10671C7.19525 6.37936 7.25397 5.65092 7.40153 4.93801C7.41193 4.88145 7.44183 4.83034 7.48604 4.79356C7.53024 4.75678 7.58594 4.73667 7.64345 4.73673ZM16.5044 5.47664C15.8996 6.19954 15.2599 7.19081 14.8885 8.19247C14.7723 8.49958 14.3121 8.33988 14.4207 8.0186C14.8176 6.94323 15.4819 5.91794 16.1198 5.15535C16.1426 5.1273 16.1715 5.10469 16.2042 5.08916C16.2368 5.07363 16.2726 5.06558 16.3088 5.06558C16.3565 5.06529 16.4034 5.07863 16.4439 5.10401C16.4843 5.1294 16.5167 5.16579 16.5373 5.20893C16.5578 5.25206 16.5656 5.30015 16.5598 5.34757C16.5539 5.39498 16.5347 5.43975 16.5044 5.47664ZM14.6239 6.01244C13.6326 7.0519 13.0978 8.45234 12.8993 9.07318C12.7907 9.3888 12.3324 9.24327 12.4212 8.92198C12.6319 8.2624 13.18 6.80243 14.262 5.66752C14.2854 5.64287 14.3135 5.62315 14.3447 5.60951C14.3758 5.59588 14.4094 5.58862 14.4434 5.58815C14.6721 5.5976 14.7713 5.85463 14.6239 6.01244ZM16.5356 8.69803C16.5356 8.69803 15.4838 10.8062 15.2202 13.712C15.2013 14.056 14.6806 14.0097 14.7212 13.6676C14.8386 12.4005 15.1018 11.1512 15.5056 9.94444C15.8146 9.02215 16.0886 8.47501 16.0886 8.47501C16.1079 8.43456 16.1379 8.40019 16.1754 8.37569C16.2129 8.35118 16.2564 8.33749 16.3012 8.3361C16.493 8.32665 16.6225 8.53171 16.5356 8.69803ZM9.48991 8.97396C9.55242 8.97087 9.61377 8.99157 9.66164 9.03189C9.7095 9.07222 9.74031 9.12917 9.74788 9.1913C9.74788 9.1913 10.0257 11.3477 10.8119 12.9201C10.9537 13.231 10.5105 13.4351 10.364 13.1431C9.51731 11.4517 9.25178 9.25556 9.25178 9.25556C9.24728 9.22114 9.25002 9.18616 9.25981 9.15286C9.26961 9.11956 9.28624 9.08867 9.30866 9.06217C9.33107 9.03567 9.35877 9.01413 9.38998 8.99894C9.42119 8.98375 9.45522 8.97524 9.48991 8.97396Z" fill="#CA3C3D"/>
</g>
</g>
</svg>
