<svg width="19" height="19" viewBox="0 0 19 19" fill="none" xmlns="http://www.w3.org/2000/svg">
<g id="apple-black-silhouette-with-a-leaf 1">
<g id="Group">
<g id="Group_2">
<path id="Vector" d="M9.85629 6.13603C10.1376 5.6663 10.5827 4.99401 11.1449 4.34892H11.1455C11.6217 3.80143 12.5541 3.09874 12.5541 3.09874C12.6943 2.99283 12.6792 2.84532 12.5199 2.77108L11.3929 2.24439C11.2335 2.16983 11.0169 2.22423 10.9113 2.3647C10.9113 2.3647 10.0777 3.56048 9.09663 6.10595C6.06312 4.73386 3.17969 6.65569 3.17969 9.9976C3.17969 13.4883 5.86537 18.7908 9.49726 17.1902C13.3224 18.8455 15.8168 13.4886 15.8168 9.9976C15.8168 6.62689 13.2248 4.65067 9.85629 6.13603Z" fill="#CA3C3D"/>
<path id="Vector_2" d="M9.17763 5.00548C9.35299 4.99076 9.50786 4.83557 9.52194 4.66054C9.52194 4.66054 9.63458 3.29548 8.68324 2.34321C7.72903 1.39062 6.36651 1.50421 6.36651 1.50421C6.19116 1.51893 6.03628 1.67412 6.02188 1.84916C6.02188 1.84916 5.90733 3.21485 6.85994 4.16744C7.81191 5.11907 9.17763 5.00548 9.17763 5.00548Z" fill="#CA3C3D"/>
</g>
</g>
</g>
</svg>
