<svg width="20" height="20" viewBox="0 0 20 20" fill="none" xmlns="http://www.w3.org/2000/svg">
<g id="Apricotes">
<g id="Group">
<path id="Vector" d="M15.0666 8.91771C14.8683 8.74492 14.6362 8.61514 14.3851 8.53657C14.3038 8.5101 14.2205 8.49048 14.1359 8.47791C13.7874 8.43473 13.4337 8.48363 13.11 8.61972C12.7616 8.75842 12.44 8.95684 12.1598 9.20604C12.1145 9.24949 12.0541 9.27375 11.9913 9.27375C11.9286 9.27375 11.8682 9.24949 11.8229 9.20604C11.813 9.1985 11.0314 8.46095 10.0958 8.46095C10.0132 8.4606 9.93066 8.46627 9.84889 8.47791C9.18696 8.57567 8.60064 9.06682 8.10737 9.93629C7.70566 10.6265 7.49097 11.4096 7.48452 12.2081C7.47808 13.0067 7.6801 13.7931 8.07063 14.4897C8.18106 14.6796 8.30688 14.8601 8.44682 15.0294C9.26752 16.036 10.5257 16.6001 11.9913 16.6001C13.7011 16.6001 15.1302 15.8306 15.9118 14.4895C16.3029 13.7931 16.5053 13.0067 16.4989 12.208C16.4925 11.4094 16.2775 10.6263 15.8753 9.93629C15.6688 9.55113 15.3949 9.20614 15.0666 8.91771ZM12.0597 15.2174C11.0338 15.2174 10.2006 14.1279 10.2006 12.7892C10.2006 11.4531 11.0338 10.3636 12.0597 10.3636C13.0832 10.3636 13.9185 11.4531 13.9185 12.7892C13.9185 14.1279 13.0832 15.2174 12.0597 15.2174Z" fill="#FF7F01"/>
<path id="Vector_2" d="M12.06 10.8516C11.3052 10.8516 10.6895 11.721 10.6895 12.7886C10.6895 13.8585 11.3052 14.7282 12.06 14.7282C12.8147 14.7282 13.4302 13.8585 13.4302 12.7886C13.4302 11.721 12.8147 10.8516 12.06 10.8516Z" fill="#FF7F01"/>
<path id="Vector_3" d="M8.13205 15.4091C7.95126 15.1982 7.78943 14.9718 7.64844 14.7325C5.73189 11.7833 8.38292 5.90268 11.9918 8.70376C12.3912 8.38329 12.8554 8.15328 13.3524 8.02958C13.5237 7.98909 13.6991 7.96854 13.8751 7.96833C13.7597 7.74495 13.6308 7.52884 13.489 7.32124C13.1242 6.74584 12.6168 6.2746 12.016 5.95332C11.0361 5.45393 9.92351 5.7856 9.10493 6.44612C8.81589 5.56394 9.84931 4.27093 10.0107 4.15291C10.056 4.1069 10.0812 4.04475 10.0808 3.98014C10.0803 3.91554 10.0542 3.85376 10.0082 3.8084C9.98541 3.78594 9.95843 3.76819 9.92878 3.75616C9.89914 3.74413 9.86742 3.73806 9.83543 3.73829C9.77082 3.73875 9.70904 3.76486 9.66368 3.81087C9.27147 4.15079 8.19259 5.67277 8.69929 6.79311C8.50437 6.97283 8.31956 7.16323 8.14571 7.36341C8.10274 7.4109 8.04282 7.43957 7.97888 7.44324C7.91494 7.44691 7.85213 7.42527 7.80401 7.383C7.7559 7.34074 7.72634 7.28124 7.72174 7.21736C7.71714 7.15348 7.73785 7.09035 7.77941 7.04163C7.8997 6.90343 8.02133 6.77269 8.1443 6.64941C8.07968 6.36087 8.06644 6.06319 8.1052 5.77006C8.11925 5.66308 8.13971 5.55704 8.16644 5.45252C7.36091 5.29406 6.52531 5.42468 5.80657 5.82141C3.78897 6.98415 3.5103 10.0693 3.49805 10.2208C3.49805 14.183 6.66402 15.1674 8.13205 15.4091Z" fill="#FF7F01"/>
<path id="Vector_4" d="M5.11303 3.77093C5.07023 3.79538 5.03601 3.83242 5.01502 3.87702C4.99403 3.92161 4.98729 3.97159 4.99572 4.02015C5.06454 4.52391 5.23311 5.00889 5.49158 5.44673C5.51608 5.42953 5.80441 5.27076 5.92643 5.21941C6.68071 4.90144 7.5135 4.81892 8.31551 4.98267C8.32282 4.95817 8.50114 4.57467 8.58665 4.42556C8.2598 4.01023 7.81936 3.69876 7.31885 3.529C6.58049 3.31507 5.78747 3.40205 5.11303 3.77093Z" fill="#FF7F01"/>
</g>
</g>
</svg>
