<svg width="20" height="20" viewBox="0 0 20 20" fill="none" xmlns="http://www.w3.org/2000/svg">
<g id="Artichoke" clip-path="url(#clip0_1248_24003)">
<g id="Group">
<path id="Vector" d="M7.73116 6.18675C7.9756 5.39476 8.34134 4.64544 8.81536 3.9655C8.62484 3.50445 8.3836 3.06602 8.09611 2.65832C8.01019 2.53149 7.91796 2.40905 7.81976 2.29147C7.80017 2.25754 7.77202 2.22935 7.73813 2.2097C7.70424 2.19005 7.66578 2.17964 7.6266 2.1795C7.58743 2.17937 7.5489 2.18951 7.51487 2.20893C7.48084 2.22834 7.4525 2.25634 7.43268 2.29014C6.7776 3.11058 6.30816 4.06329 6.05672 5.08262L6.66964 6.06327C6.83621 5.96657 7.0296 5.92634 7.22092 5.94859C7.41224 5.97085 7.59123 6.05439 7.73116 6.18675ZM4.78866 9.74926C5.02236 8.60156 5.49834 7.51695 6.18477 6.56792L4.98874 4.65461C4.4871 6.071 4.23123 7.56271 4.23219 9.06531V9.44856L4.33459 9.49978C4.48896 9.57733 4.64042 9.66055 4.78866 9.74926ZM9.83138 3.89339C9.79239 3.89339 9.75407 3.90357 9.72021 3.92292C9.68635 3.94227 9.65814 3.97013 9.63835 4.00373C8.96906 4.84277 8.49277 5.81891 8.24331 6.8628C8.5602 7.36616 8.8342 7.89528 9.0624 8.44456C9.18466 8.77608 9.28754 9.11442 9.37053 9.45787C9.56289 9.34957 9.77991 9.29265 10.0007 9.29261C10.2214 9.29257 10.4385 9.34941 10.6309 9.45765C10.8188 8.68528 11.1138 7.94299 11.5075 7.2524C11.4186 6.81629 11.2964 6.38761 11.1422 5.97011C10.8807 5.25743 10.503 4.59297 10.0244 4.00369C10.0046 3.9701 9.9764 3.94226 9.94255 3.92291C9.90869 3.90357 9.87037 3.89339 9.83138 3.89339ZM14.8315 8.44594C14.9905 8.87039 15.1181 9.30592 15.2134 9.74904C15.3615 9.66023 15.5128 9.57706 15.6672 9.4997L15.7696 9.44852V9.06527C15.7705 7.56267 15.5147 6.07097 15.013 4.65458L14.6604 5.2188L14.659 5.22095L13.8157 6.57004C14.2398 7.14507 14.5817 7.77645 14.8315 8.44594ZM11.1133 4.37662C11.377 4.80615 11.5994 5.25972 11.7774 5.73124C11.8683 5.97334 11.9492 6.2238 12.0209 6.48007C12.0701 6.41579 12.117 6.34909 12.1684 6.28663C12.4463 5.93229 12.9428 5.83698 13.3321 6.06327L14.0008 4.99333C13.7461 4.01321 13.2872 3.09793 12.6543 2.3074C12.6346 2.2737 12.6064 2.24574 12.5726 2.22629C12.5387 2.20685 12.5004 2.19661 12.4613 2.19658C12.4223 2.19655 12.3839 2.20674 12.3501 2.22612C12.3162 2.24551 12.288 2.27343 12.2682 2.3071C12.154 2.4465 12.0459 2.59091 11.9445 2.7399C11.6187 3.2177 11.3517 3.73309 11.1495 4.27489L11.1133 4.37662ZM10.5477 3.5716C10.5834 3.6148 10.615 3.66276 10.6498 3.70711C10.8265 3.29067 11.039 2.89038 11.285 2.51078C11.0258 1.82285 10.6574 1.18117 10.1941 0.610392C10.1743 0.576779 10.1461 0.548914 10.1123 0.529552C10.0784 0.51019 10.0401 0.500004 10.0011 0.5C9.96208 0.499996 9.92376 0.510176 9.8899 0.529531C9.85604 0.548886 9.82782 0.576746 9.80804 0.610354C9.36531 1.15669 9.01018 1.7685 8.75535 2.4239C8.9638 2.73355 9.14813 3.05877 9.30673 3.39668C9.70018 3.11208 10.2482 3.18932 10.5477 3.5716ZM4.8522 10.6029C4.84522 10.5987 4.83984 10.5932 4.83323 10.5886C4.5785 10.4078 4.31032 10.2467 4.03103 10.1068L3.70898 9.94575C4.1753 11.6371 5.237 13.103 6.69855 14.0735C6.75003 13.7421 6.82371 13.4145 6.91909 13.0929L6.60291 12.5395C6.16628 11.7749 5.56897 11.1142 4.8522 10.6029ZM14.6031 10.1658C14.5118 9.66119 14.3757 9.16569 14.1965 8.68518C13.9551 8.03506 13.6178 7.42468 13.1958 6.87427C13.1449 6.83644 13.1059 6.78471 13.0836 6.72529L13.0785 6.71843C13.0587 6.68482 13.0304 6.65697 12.9966 6.63762C12.9627 6.61827 12.9244 6.60809 12.8854 6.60809C12.8464 6.60809 12.8081 6.61827 12.7742 6.63762C12.7404 6.65697 12.7122 6.68482 12.6924 6.71843C12.4959 6.95758 12.3171 7.21065 12.1572 7.47564C11.7055 8.24265 11.3859 9.08008 11.2117 9.95299C11.8744 10.615 12.4064 11.396 12.7799 12.255L12.8097 12.2029C13.2637 11.4096 13.8738 10.7166 14.6031 10.1658ZM15.9707 10.1068C15.6914 10.2467 15.4233 10.4078 15.1685 10.5886C15.1619 10.5932 15.1565 10.5988 15.1496 10.6029C14.4328 11.1142 13.8355 11.7749 13.3989 12.5395L13.0827 13.0929C13.1781 13.4145 13.2519 13.7421 13.3033 14.0736C14.765 13.1031 15.8267 11.6371 16.2929 9.94568L15.9707 10.1068ZM12.3869 13.1236C12.0376 12.0502 11.4253 11.0812 10.6057 10.305L10.5357 10.2414C10.495 10.2039 10.4539 10.1661 10.4115 10.1297C10.4022 10.1217 10.3933 10.1131 10.385 10.1045C10.2757 10.0176 10.1402 9.97028 10.0005 9.97034C9.86089 9.9704 9.7254 10.0178 9.61619 10.1048C9.60798 10.1135 9.59936 10.1218 9.59036 10.1297C9.54793 10.1661 9.50685 10.2039 9.4661 10.2414L9.38953 10.311C8.573 11.0859 7.96301 12.0526 7.61495 13.1232C7.61139 13.1377 7.60683 13.152 7.6013 13.1659C7.46958 13.5792 7.37737 14.0042 7.3259 14.4349C8.15414 14.859 9.07044 15.0826 10.0009 15.0875C10.9314 15.0826 11.8478 14.8591 12.6761 14.435C12.6246 14.0041 12.5324 13.5791 12.4005 13.1657C12.395 13.152 12.3905 13.138 12.3869 13.1236ZM8.93921 15.6702L8.66145 19.2301C9.08554 19.4083 9.54091 19.5 10.0009 19.5C10.4609 19.5 10.9163 19.4083 11.3404 19.2301L11.0626 15.6702C10.3606 15.7982 9.64122 15.7981 8.93921 15.6702ZM8.42781 8.68585C8.19365 8.12716 7.91204 7.58956 7.58608 7.07896C7.50157 6.959 7.40715 6.83441 7.31169 6.72106C7.29234 6.68677 7.26428 6.6582 7.23034 6.63823C7.19641 6.61826 7.15781 6.60761 7.11843 6.60734C7.07906 6.60707 7.04032 6.6172 7.00612 6.63671C6.97192 6.65621 6.94347 6.6844 6.92365 6.71843L6.91779 6.72615C6.89499 6.78696 6.8548 6.83972 6.80221 6.87783C6.08423 7.84948 5.60388 8.97583 5.39968 10.1666C6.12854 10.7173 6.73826 11.41 7.19207 12.2029L7.2218 12.2549C7.59498 11.3956 8.12699 10.6145 8.7899 9.95262C8.70213 9.52164 8.58107 9.09811 8.42781 8.68585Z" fill="#3DCA6C"/>
</g>
</g>
<defs>
<clipPath id="clip0_1248_24003">
<rect width="19" height="19" fill="white" transform="translate(0.5 0.5)"/>
</clipPath>
</defs>
</svg>
