<svg width="20" height="20" viewBox="0 0 20 20" fill="none" xmlns="http://www.w3.org/2000/svg">
<g id="Asparagus" clip-path="url(#clip0_1248_24006)">
<g id="Group">
<path id="Vector" d="M14.1843 1.98067C13.9255 1.56071 13.616 1.17418 13.2629 0.829792C13.24 0.806735 13.2127 0.788489 13.1826 0.776129C13.1526 0.763769 13.1204 0.757544 13.0879 0.757821C13.0225 0.75797 12.9598 0.783818 12.9132 0.829792C12.56 1.17541 12.2507 1.56316 11.9921 1.9843C12.3827 2.13629 12.7521 2.33767 13.0915 2.58351C13.4311 2.3408 13.7979 2.13849 14.1843 1.98067ZM14.2391 5.39962C14.9779 4.73075 14.9443 3.48512 14.5098 2.59407C14.0441 2.7769 13.6078 3.0273 13.215 3.33722C13.1576 3.36122 13.0943 3.36721 13.0334 3.35439C12.9738 3.34472 12.918 3.31866 12.8723 3.27911C12.5119 2.98525 12.1057 2.75259 11.6699 2.59044C11.6287 2.67628 11.5947 2.75848 11.5673 2.83375C11.2206 3.68354 11.2698 4.79678 11.937 5.39962C12.2506 5.68878 12.6615 5.84932 13.0881 5.84932C13.5146 5.84932 13.9255 5.68878 14.2391 5.39962ZM14.9687 14.5016C14.8512 14.3661 14.6851 14.2823 14.5063 14.2681C14.3275 14.254 14.1503 14.3107 14.0129 14.426V9.65746C15.5828 9.90275 15.9218 8.19922 14.9687 7.10216C14.8515 6.96609 14.6853 6.88184 14.5063 6.86774C14.3273 6.85364 14.15 6.91084 14.0129 7.02689V6.34844C13.7205 6.47297 13.4059 6.53716 13.0881 6.53716C12.7702 6.53716 12.4556 6.47297 12.1632 6.34844V10.7261C12.0258 10.6108 11.8485 10.5542 11.6697 10.5684C11.4909 10.5826 11.3249 10.6665 11.2074 10.8021C10.7336 11.4838 10.5781 11.8836 10.7142 12.5386C10.806 12.8339 11.0071 13.0831 11.2763 13.2353C11.5456 13.3874 11.8628 13.4311 12.1632 13.3574V18.3313C12.1677 18.5735 12.2672 18.8043 12.4401 18.9741C12.6131 19.1438 12.8457 19.2389 13.0881 19.2389C13.3304 19.2389 13.563 19.1438 13.736 18.9741C13.9089 18.8043 14.0084 18.5735 14.0129 18.3313V17.0569C15.5854 17.2999 15.9212 15.603 14.9687 14.5016ZM8.01823 1.9876C7.76258 1.56335 7.45284 1.17415 7.0968 0.829792C7.0502 0.783738 6.98734 0.757883 6.92183 0.757821C6.88939 0.757588 6.85724 0.763835 6.82725 0.776193C6.79726 0.788552 6.77004 0.806775 6.74718 0.829792C6.39387 1.17539 6.0844 1.56314 5.82576 1.9843C6.21715 2.13688 6.58774 2.33821 6.92876 2.58351C7.26427 2.33805 7.63056 2.1377 8.01823 1.9876ZM8.07303 5.39962C8.81387 4.72943 8.7759 3.4838 8.34375 2.59044C7.87305 2.78295 7.42963 3.03634 7.02483 3.34415C6.97894 3.35928 6.93027 3.36405 6.88232 3.35812C6.83436 3.35218 6.78832 3.33568 6.74751 3.30982C6.37408 3.00316 5.95268 2.76011 5.50024 2.59044C5.4626 2.67628 5.42826 2.75848 5.40119 2.83375C5.05454 3.68354 5.10373 4.79678 5.77095 5.39962C6.08417 5.68949 6.49522 5.85051 6.92199 5.85051C7.34876 5.85051 7.75982 5.68949 8.07303 5.39962ZM8.12453 9.68816C8.31279 9.68996 8.49891 9.64814 8.6683 9.56598C8.8377 9.48381 8.98576 9.36353 9.10089 9.21457C9.21602 9.06561 9.29508 8.892 9.33189 8.70737C9.3687 8.52273 9.36225 8.33208 9.31304 8.15036C9.20806 7.66769 8.68412 6.40391 7.84688 7.02689V6.34844C7.55443 6.47297 7.23985 6.53716 6.92199 6.53716C6.60413 6.53716 6.28955 6.47297 5.9971 6.34844V10.7261C5.8597 10.6108 5.68248 10.5542 5.50367 10.5684C5.32486 10.5826 5.15881 10.6665 5.04134 10.8021C4.56527 11.4848 4.4111 11.8816 4.54778 12.5386C4.63912 12.8343 4.84015 13.0839 5.10964 13.2362C5.37913 13.3884 5.69666 13.4318 5.9971 13.3574V18.3313C6.00168 18.5735 6.10113 18.8043 6.27409 18.9741C6.44704 19.1438 6.67968 19.2389 6.92199 19.2389C7.16431 19.2389 7.39695 19.1438 7.5699 18.9741C7.74285 18.8043 7.84231 18.5735 7.84688 18.3313V17.0569C7.93789 17.0775 8.03091 17.0878 8.1242 17.0876C8.3125 17.0894 8.49866 17.0476 8.66808 16.9654C8.8375 16.8833 8.98559 16.7629 9.10072 16.6139C9.21586 16.4649 9.29492 16.2913 9.3317 16.1066C9.36848 15.9219 9.36198 15.7312 9.31271 15.5495C9.20377 15.0573 8.6871 13.8103 7.84688 14.426V9.65746C7.93788 9.6781 8.0309 9.68851 8.1242 9.68849L8.12453 9.68816Z" fill="#3DCA6C"/>
</g>
</g>
<defs>
<clipPath id="clip0_1248_24006">
<rect width="19" height="19" fill="white" transform="translate(0.5 0.5)"/>
</clipPath>
</defs>
</svg>
