<svg width="19" height="20" viewBox="0 0 19 20" fill="none" xmlns="http://www.w3.org/2000/svg">
<g id="Astragalus" clip-path="url(#clip0_1248_21504)">
<g id="Group">
<path id="Vector" d="M14.8972 3.93419C14.3617 4.26602 14.0918 4.88616 13.9637 5.31235C13.4747 5.58778 13.0114 5.9065 12.5793 6.26467C12.4797 5.79425 12.283 5.04946 11.9957 4.81269C11.789 4.64208 11.5229 4.56057 11.2561 4.5861C10.9893 4.61164 10.7436 4.74211 10.573 4.94883C10.4023 5.15555 10.3208 5.42158 10.3464 5.6884C10.3719 5.95521 10.5024 6.20095 10.7091 6.37156C10.972 6.58849 11.6384 6.65012 12.1183 6.66614C11.3996 7.33259 10.7833 8.08887 10.2547 8.8744C10.2923 8.4604 10.2941 8.00704 10.1624 7.77758C10.0291 7.5451 9.80884 7.37511 9.55016 7.30501C9.29148 7.23491 9.01554 7.27044 8.78306 7.40379C8.55057 7.53714 8.38058 7.75739 8.31048 8.01607C8.24038 8.27475 8.27592 8.55069 8.40927 8.78317C8.60008 9.1157 9.33965 9.44544 9.78325 9.61919C8.4312 11.894 7.76858 14.2554 7.51858 15.315C6.32566 14.292 5.68428 12.9048 5.27619 11.9629C5.6317 12.2345 6.07287 12.5211 6.36431 12.5277C6.63225 12.5339 6.89168 12.4334 7.08553 12.2483C7.27937 12.0632 7.39174 11.8087 7.39793 11.5407C7.40412 11.2728 7.30361 11.0133 7.11852 10.8195C6.93343 10.6257 6.67891 10.5133 6.41097 10.5071C6.02099 10.498 5.342 10.9751 4.96699 11.2641C4.93348 11.1928 4.89725 11.1229 4.85836 11.0545C4.74972 10.8448 4.72987 9.84343 4.75912 8.83784C5.11533 9.1547 5.74452 9.66411 6.12753 9.68291C6.26007 9.68954 6.39261 9.67001 6.5176 9.62541C6.64258 9.58082 6.75756 9.51204 6.85597 9.42301C6.95437 9.33398 7.03428 9.22644 7.09112 9.10653C7.14797 8.98662 7.18064 8.85669 7.18727 8.72416C7.1939 8.59162 7.17436 8.45907 7.12977 8.33409C7.08517 8.20911 7.0164 8.09413 6.92737 7.99572C6.83834 7.89732 6.7308 7.81741 6.61089 7.76056C6.49098 7.70372 6.36105 7.67105 6.22851 7.66442C5.84306 7.64527 5.16094 8.09444 4.77618 8.3737C4.7915 8.02585 4.8117 7.69227 4.83607 7.40815C4.87716 6.93878 4.95968 6.46627 5.07702 5.9976C5.44681 6.30401 6.06869 6.76955 6.443 6.77652C6.71099 6.78155 6.97001 6.67992 7.16307 6.49398C7.35612 6.30804 7.46741 6.05302 7.47244 5.78503C7.47748 5.51704 7.37584 5.25802 7.1899 5.06496C7.00396 4.8719 6.74895 4.76062 6.48095 4.75558C6.15992 4.74966 5.64389 5.07418 5.26296 5.351C5.41108 4.89522 5.59264 4.45099 5.80615 4.02193C6.22607 3.87708 6.80791 3.59261 7.11467 3.06579C7.62791 2.1838 7.17143 0.960938 7.17143 0.960938C7.17143 0.960938 5.88206 1.16742 5.36881 2.0494C5.05892 2.58179 5.10279 3.23675 5.18601 3.67374C5.18392 3.67757 5.18009 3.68 5.178 3.68418C4.96281 4.11346 4.77748 4.55707 4.62332 5.01186C4.5126 4.57522 4.34198 4.06824 4.11426 3.88022C3.90754 3.70961 3.64151 3.6281 3.3747 3.65363C3.10788 3.67917 2.86214 3.80964 2.69153 4.01636C2.52092 4.22308 2.43941 4.48911 2.46494 4.75592C2.49048 5.02274 2.62095 5.26848 2.82767 5.43909C3.12364 5.68318 3.9325 5.73158 4.40918 5.7375C4.27054 6.2652 4.17597 6.80351 4.12645 7.34686C4.12575 7.35313 4.116 7.47779 4.10277 7.67974C3.92867 7.33816 3.71627 7.00354 3.50526 6.88655C3.38921 6.82214 3.26161 6.78123 3.12975 6.76614C2.99788 6.75104 2.86434 6.76207 2.73673 6.79859C2.60913 6.83511 2.48997 6.89641 2.38606 6.97898C2.28214 7.06155 2.19551 7.16378 2.13111 7.27984C2.0667 7.39589 2.02579 7.52349 2.0107 7.65535C1.9956 7.78722 2.00663 7.92076 2.04315 8.04837C2.07967 8.17597 2.14097 8.29513 2.22354 8.39904C2.30611 8.50296 2.40834 8.58959 2.52439 8.65399C2.8416 8.82983 3.57595 8.7501 4.05228 8.67245C4.02269 9.46773 4.01746 10.4298 4.12018 11.0102C3.7591 10.7435 3.30888 10.4618 3.01535 10.4601C2.74731 10.4588 2.48976 10.5641 2.29934 10.7528C2.10893 10.9414 2.00126 11.198 2.00001 11.466C1.99876 11.7341 2.10405 11.9916 2.2927 12.182C2.48135 12.3725 2.73791 12.4801 3.00595 12.4814C3.3827 12.4831 4.02129 12.0263 4.39734 11.7289C4.44296 11.8306 4.49171 11.9434 4.54428 12.0653C4.7532 12.5514 5.02445 13.1809 5.40851 13.8369C4.67764 13.8606 3.24238 14.1827 2.93979 16.3032C2.93979 16.3032 3.98682 15.5803 5.06275 15.666C5.4966 15.7008 5.99278 15.3383 6.28701 15.081C6.61919 15.4728 6.99474 15.8257 7.40646 16.1329C7.42526 16.4985 7.4082 17.5247 6.7428 18.4822C6.71495 18.5205 6.69503 18.5641 6.68422 18.6102C6.67341 18.6564 6.67192 18.7042 6.67984 18.751C6.68776 18.7977 6.70492 18.8424 6.73033 18.8824C6.75574 18.9224 6.78889 18.957 6.82782 18.984C6.86675 19.0111 6.91069 19.0301 6.95706 19.0399C7.00343 19.0498 7.0513 19.0502 7.09786 19.0414C7.14442 19.0325 7.18874 19.0144 7.22822 18.9881C7.2677 18.9619 7.30154 18.928 7.32777 18.8885C8.21079 17.618 8.13767 16.2645 8.10773 15.9592C8.13976 15.799 8.26233 15.2262 8.50537 14.417C9.90582 13.8843 11.9017 14.3014 11.9017 14.3014C11.1304 12.8842 9.74565 12.7596 9.06214 12.793C9.37342 11.9887 9.77071 11.1049 10.2693 10.2292C10.4191 10.6871 10.6725 11.3327 10.9612 11.5273C11.1834 11.6772 11.4561 11.7327 11.7192 11.6815C11.8495 11.6562 11.9735 11.6054 12.0842 11.5321C12.1949 11.4589 12.29 11.3645 12.3643 11.2545C12.4385 11.1445 12.4903 11.0209 12.5167 10.8908C12.5432 10.7608 12.5438 10.6268 12.5184 10.4965C12.4931 10.3662 12.4424 10.2422 12.3691 10.1315C12.2958 10.0208 12.2015 9.92565 12.0914 9.85144C11.7937 9.65088 11.0674 9.66446 10.5858 9.69963C11.1579 8.77969 11.8449 7.88901 12.6688 7.13342C12.6956 7.61497 12.775 8.33365 13.0114 8.60281C13.099 8.70247 13.2055 8.78389 13.3246 8.84242C13.4437 8.90094 13.5732 8.93544 13.7056 8.94392C13.8381 8.95241 13.9709 8.93473 14.0965 8.89188C14.2222 8.84904 14.3381 8.78187 14.4378 8.69421C14.5374 8.60655 14.6188 8.50013 14.6774 8.381C14.7359 8.26188 14.7704 8.1324 14.7789 7.99995C14.7874 7.86749 14.7697 7.73467 14.7268 7.60905C14.684 7.48343 14.6168 7.36748 14.5292 7.26782C14.2941 7.00076 13.5995 6.83049 13.1249 6.74205C13.5031 6.43441 13.9071 6.15995 14.3324 5.92169C14.3498 5.91195 14.3613 5.89628 14.3763 5.88409C14.815 5.95094 15.4508 5.96766 15.9613 5.65149C16.829 5.11388 17.0003 3.81963 17.0003 3.81963C17.0003 3.81963 15.7649 3.39657 14.8972 3.93419Z" fill="#CA3C3D"/>
</g>
</g>
<defs>
<clipPath id="clip0_1248_21504">
<rect width="19" height="19" fill="white" transform="translate(0 0.5)"/>
</clipPath>
</defs>
</svg>
