<svg width="20" height="20" viewBox="0 0 20 20" fill="none" xmlns="http://www.w3.org/2000/svg">
<g id="Avocado">
<g id="Group">
<path id="Vector" d="M4.24662 4.68288C4.36888 4.75346 4.496 4.8076 4.62455 4.84879C5.12708 4.45955 5.72541 4.18864 6.37762 4.07796C6.21314 3.66944 5.89797 3.09906 5.34525 2.77996C4.6179 2.35999 3.71872 2.51386 3.36587 2.59955C3.2689 2.62308 3.1847 2.68606 3.13486 2.77237C3.08503 2.85868 3.07258 2.96313 3.10067 3.05887C3.20289 3.40727 3.51921 4.26288 4.24662 4.68288ZM7.5954 4.06059C7.71194 3.75801 7.91283 3.48962 8.17978 3.29389C8.37551 3.15036 8.41782 2.87535 8.27432 2.67962C8.13077 2.48386 7.85576 2.44164 7.66006 2.58508C7.17162 2.94329 6.82846 3.46167 6.68163 4.03852C6.80005 4.0278 6.91987 4.02203 7.04101 4.02203C7.22749 4.022 7.4127 4.03501 7.5954 4.06059ZM7.83048 14.5503C7.42011 13.4228 7.35575 12.2239 7.64435 11.0831C7.77393 10.5709 7.76016 10.0742 7.60454 9.64671C7.24272 8.65255 7.28933 7.57779 7.73579 6.62034C7.96214 6.13498 8.27755 5.70918 8.66274 5.36005C8.18529 5.06374 7.6278 4.90091 7.04101 4.90091C5.34481 4.90091 3.96484 6.28088 3.96484 7.9793C3.96484 8.61121 3.75537 9.25351 3.35904 9.83673C2.79707 10.6638 2.5 11.6416 2.5 12.6646C2.5 15.33 4.53707 17.4986 7.04101 17.4986C7.84835 17.4986 8.63752 17.2661 9.32579 16.8401C8.66634 16.2165 8.15283 15.436 7.83048 14.5503Z" fill="#3DCA6C"/>
<path id="Vector_2" d="M17.1902 11.1443C16.8403 10.183 16.2268 9.36575 15.4158 8.7808C14.8439 8.36833 14.4274 7.83645 14.2113 7.2426L14.2105 7.24052C13.9295 6.4684 13.3646 5.85194 12.6199 5.50465C11.8752 5.15743 11.0398 5.12098 10.2678 5.40197C9.49565 5.68301 8.87919 6.24789 8.5319 6.99258C8.18465 7.73725 8.14817 8.57262 8.42998 9.34685C8.64613 9.94064 8.66892 10.6158 8.49598 11.2994C8.25074 12.2687 8.30608 13.2892 8.65594 14.2505C9.0956 15.4585 9.94981 16.4353 11.0612 17.001C11.7138 17.3332 12.4092 17.5008 13.1024 17.5008C13.6005 17.5008 14.0975 17.4142 14.5764 17.2399C16.9293 16.3835 18.1018 13.649 17.1902 11.1443ZM15.3407 14.0877C15.1043 14.8208 14.6193 15.3536 13.9751 15.5881C13.331 15.8225 12.617 15.7261 11.9647 15.3165C11.3474 14.9289 10.8567 14.3012 10.583 13.5491C10.3092 12.797 10.2817 12.0008 10.5054 11.3071C10.7418 10.574 11.2268 10.0412 11.8709 9.80675C12.5151 9.57232 13.229 9.66873 13.8814 10.0783C14.4986 10.4659 14.9894 11.0936 15.2631 11.8457C15.5368 12.5978 15.5644 13.394 15.3407 14.0877Z" fill="#3DCA6C"/>
<path id="Vector_3" d="M13.4143 10.8236C12.9968 10.5615 12.5555 10.494 12.1718 10.6336C11.7882 10.7732 11.4935 11.1085 11.3422 11.5778C11.1781 12.0864 11.202 12.6801 11.4092 13.2494C11.6164 13.8188 11.9798 14.2889 12.4324 14.5731C12.8499 14.8352 13.2912 14.9027 13.6748 14.7631C14.0585 14.6235 14.3532 14.2881 14.5045 13.8189C14.6685 13.3103 14.6448 12.7166 14.4375 12.1472C14.2303 11.5779 13.8669 11.1078 13.4143 10.8236Z" fill="#3DCA6C"/>
</g>
</g>
</svg>
