<svg width="20" height="20" viewBox="0 0 20 20" fill="none" xmlns="http://www.w3.org/2000/svg">
<g id="avocado 1" clip-path="url(#clip0_1248_21319)">
<g id="Group">
<path id="Vector" d="M15.4893 7.67777C15.1999 7.12345 14.9065 6.5639 14.6555 5.97307C14.4368 5.45875 14.2565 4.96011 14.0872 4.49275C13.4082 2.62102 12.6388 0.5 10 0.5C7.37278 0.5 6.55985 2.72541 5.84318 4.68814C5.6646 5.17636 5.47789 5.68952 5.25579 6.20497C4.99834 6.80045 4.69857 7.331 4.40809 7.84415C3.65432 9.1766 2.875 10.5543 2.875 12.9096C2.875 16.6669 5.93828 19.5 10 19.5C14.0617 19.5 17.125 16.6669 17.125 12.9096C17.125 10.8106 16.2935 9.21779 15.4893 7.67777ZM9.99996 15.9375C8.03549 15.9375 6.43746 14.3395 6.43746 12.375C6.43746 10.4105 8.03549 8.81251 9.99996 8.81251C11.9644 8.81251 13.5625 10.4105 13.5625 12.375C13.5625 14.3395 11.9645 15.9375 9.99996 15.9375Z" fill="#CA3C3D"/>
</g>
</g>
<defs>
<clipPath id="clip0_1248_21319">
<rect width="19" height="19" fill="white" transform="translate(0.5 0.5)"/>
</clipPath>
</defs>
</svg>
