<svg width="20" height="20" viewBox="0 0 20 20" fill="none" xmlns="http://www.w3.org/2000/svg">
<g id="banana 1">
<g id="Group">
<path id="Vector" d="M12.3437 7.89606C12.5653 7.66778 12.9341 7.9364 12.7813 8.21547C11.2524 11.0082 8.17453 12.4303 4.90801 12.0517C4.66887 12.0239 4.42658 12.0562 4.20309 12.1457C3.9796 12.2352 3.78197 12.379 3.62811 12.5642C3.53343 12.6783 3.36213 12.6926 3.248 12.598C2.79267 12.2204 2.37442 11.7961 1.99736 11.3288C1.74204 11.0126 1.72939 10.5632 1.96625 10.2354L2.16073 9.96673C2.40101 9.63485 2.83577 9.50771 3.21823 9.65741C6.44224 10.9219 9.99214 10.319 12.3437 7.89606ZM14.0474 8.08542C14.0722 7.78133 13.6531 7.67206 13.5265 7.94962C12.0008 11.2919 8.51961 13.0211 4.84512 12.5948C4.43702 12.5476 4.04909 12.7818 3.90178 13.1642L3.78249 13.4735C3.63723 13.8509 3.76438 14.2822 4.09181 14.5225C4.79737 15.0406 5.5771 15.4528 6.39193 15.7417C6.80064 15.8865 6.72869 15.1457 7.66592 14.9542C11.0702 14.2574 13.7546 11.6686 14.0474 8.08542ZM16.4147 4.91921C16.1214 4.5268 16.4756 4.34452 16.4202 3.07081C16.3837 2.27638 15.5466 1.77303 14.824 2.11037L14.4511 2.28435C13.9039 2.54001 13.6534 3.1771 13.8807 3.73525C16.122 9.23674 13.1092 14.3972 7.77563 15.4901C7.373 15.5725 7.07769 15.916 7.05719 16.3251L7.04044 16.6563C7.01993 17.0603 7.27525 17.4304 7.66147 17.5566C10.7255 18.5582 13.9735 17.8248 16.0162 15.7649C18.716 13.0427 18.9913 8.36326 16.4147 4.91921Z" fill="#FEDD4B"/>
</g>
</g>
</svg>
