<svg width="19" height="20" viewBox="0 0 19 20" fill="none" xmlns="http://www.w3.org/2000/svg">
<g id="Basil" clip-path="url(#clip0_1248_21451)">
<g id="Group">
<g id="Group_2">
<path id="Vector" fill-rule="evenodd" clip-rule="evenodd" d="M9.01926 8.239C8.65266 8.17615 8.28907 8.09684 7.9296 8.0013C7.47008 8.20161 7.02449 8.43246 6.5958 8.69229L6.93909 11.0967C6.94542 11.1409 6.94298 11.1859 6.93192 11.2291C6.92085 11.2724 6.90137 11.313 6.87459 11.3487C6.84782 11.3844 6.81427 11.4145 6.77586 11.4372C6.73745 11.4599 6.69495 11.4748 6.65077 11.4811C6.6348 11.4833 6.61869 11.4843 6.60257 11.4842C6.52091 11.4841 6.44202 11.4546 6.38034 11.4011C6.31866 11.3476 6.27833 11.2737 6.26673 11.1928L5.96756 9.09364C5.32871 9.52249 4.74166 10.0239 4.21812 10.5877C4.24055 10.624 4.25577 10.6642 4.26296 10.7062L4.64529 12.9993C4.65263 13.0433 4.65123 13.0883 4.64118 13.1318C4.63113 13.1752 4.61261 13.2162 4.58669 13.2525C4.56078 13.2888 4.52797 13.3197 4.49013 13.3433C4.4523 13.3669 4.41018 13.3828 4.36619 13.3902C4.34767 13.3931 4.32892 13.3946 4.31017 13.3946C4.22985 13.3945 4.15218 13.3659 4.09094 13.3139C4.02971 13.2619 3.98887 13.1899 3.97569 13.1107L3.66397 11.2408C3.11398 11.949 2.66594 12.7308 2.3329 13.5634C2.3077 13.6264 2.26417 13.6805 2.20793 13.7186C2.1517 13.7566 2.08534 13.777 2.01743 13.777C1.97469 13.7767 1.93238 13.7683 1.8928 13.7522C1.85136 13.7356 1.81358 13.7111 1.78163 13.68C1.74968 13.6488 1.72417 13.6117 1.70657 13.5707C1.68897 13.5297 1.67962 13.4857 1.67906 13.441C1.6785 13.3964 1.68673 13.3522 1.70329 13.3107C2.01591 12.5274 2.42323 11.7852 2.91619 11.1009H2.01717C1.92712 11.1009 1.84075 11.0651 1.77708 11.0014C1.7134 10.9377 1.67763 10.8514 1.67763 10.7613C1.67763 10.6713 1.7134 10.5849 1.77708 10.5212C1.84075 10.4575 1.92712 10.4218 2.01717 10.4218H3.45284C3.96833 9.8201 4.55044 9.27888 5.18799 8.8085H3.54587C3.45582 8.8085 3.36946 8.77272 3.30578 8.70905C3.2421 8.64537 3.20633 8.55901 3.20633 8.46895C3.20633 8.3789 3.2421 8.29254 3.30578 8.22886C3.36946 8.16518 3.45582 8.12941 3.54587 8.12941H6.21278C6.63176 7.87495 7.06546 7.64558 7.51161 7.4425C7.45423 7.17731 7.40633 6.91787 7.36966 6.66523C6.64046 6.46569 5.87452 6.44062 5.13382 6.59205C4.39313 6.74348 3.69849 7.06715 3.10612 7.53689C2.475 8.05804 1.94548 8.69117 1.54414 9.4045C0.758073 10.7542 0.757053 13.6517 0.782494 14.6538C0.783426 14.6994 0.793651 14.7444 0.812543 14.786C0.831436 14.8276 0.8586 14.8649 0.89238 14.8956C0.926159 14.9263 0.965844 14.9498 1.00901 14.9647C1.05218 14.9796 1.09793 14.9855 1.14347 14.9821C2.20017 14.9074 5.38086 14.6005 6.78224 13.5465C7.31397 13.1506 7.76315 12.6546 8.10451 12.0863V12.0843C8.76847 10.9154 9.08577 9.58163 9.01926 8.239ZM13.0207 8.00232C12.272 8.27204 11.4813 8.40635 10.6855 8.39894H10.6682C11.2041 8.7893 11.7107 9.2183 12.184 9.6825L15.4302 10.0431C15.4746 10.048 15.5175 10.0616 15.5566 10.0832C15.5957 10.1047 15.6301 10.1337 15.658 10.1685C15.6859 10.2034 15.7066 10.2434 15.719 10.2862C15.7315 10.3291 15.7353 10.374 15.7304 10.4183C15.7255 10.4627 15.7118 10.5056 15.6903 10.5447C15.6688 10.5838 15.6398 10.6182 15.6049 10.6461C15.5701 10.674 15.5301 10.6947 15.4872 10.7071C15.4444 10.7196 15.3995 10.7234 15.3552 10.7185L12.9137 10.4468C13.3539 10.9403 13.7671 11.4571 14.1514 11.9952L16.5963 12.4027C16.7813 12.4337 16.9062 12.6087 16.8752 12.7937C16.8442 12.9787 16.6692 13.1036 16.4842 13.0726L14.6774 12.7705C14.9565 13.2031 15.218 13.6373 15.455 14.0686C15.4961 14.1426 15.5348 14.2149 15.5742 14.2876L17.306 14.7885C17.3916 14.8142 17.4636 14.8727 17.5064 14.9512C17.5491 15.0297 17.5592 15.1219 17.5345 15.2078C17.5097 15.2937 17.4521 15.3663 17.3741 15.41C17.2961 15.4537 17.204 15.4649 17.1179 15.4411L16.0004 15.1179C16.3284 15.7772 16.6161 16.4559 16.8618 17.1501C16.8788 17.2012 16.8833 17.2555 16.8752 17.3086C16.867 17.3618 16.8464 17.4122 16.8149 17.4558C16.7834 17.4994 16.7421 17.5349 16.6942 17.5594C16.6463 17.5839 16.5934 17.5967 16.5396 17.5967C16.4682 17.5967 16.3987 17.5744 16.3408 17.5327C16.2829 17.491 16.2396 17.4321 16.217 17.3644C15.9889 16.7244 15.7244 16.0981 15.4248 15.4883L15.165 16.5535C15.147 16.6274 15.1047 16.6931 15.045 16.74C14.9852 16.787 14.9114 16.8126 14.8353 16.8126C14.8081 16.8127 14.7809 16.8094 14.7545 16.8028C14.667 16.7815 14.5915 16.7262 14.5446 16.6492C14.4978 16.5722 14.4835 16.4798 14.5049 16.3923L14.9515 14.5634C14.9213 14.5077 14.8917 14.4527 14.8605 14.3963C14.6054 13.9325 14.3172 13.4656 14.0116 13.001L13.4642 14.8707C13.4436 14.9411 13.4006 15.003 13.3419 15.047C13.2831 15.0911 13.2116 15.1148 13.1382 15.1148C13.1059 15.1147 13.0738 15.1102 13.0428 15.1012C13 15.0887 12.9601 15.0679 12.9253 15.0399C12.8905 15.012 12.8616 14.9774 12.8402 14.9383C12.8188 14.8992 12.8053 14.8562 12.8005 14.8118C12.7957 14.7675 12.7997 14.7226 12.8122 14.6798L13.5168 12.2744C13.0955 11.6936 12.6382 11.1397 12.1477 10.616L11.5172 13.1369C11.4988 13.2102 11.4565 13.2753 11.397 13.3218C11.3374 13.3684 11.2641 13.3938 11.1885 13.3939C11.1607 13.394 11.1329 13.3906 11.106 13.3838C11.0186 13.3619 10.9435 13.3063 10.8972 13.2292C10.8508 13.152 10.837 13.0596 10.8588 12.9722L11.5881 10.054C11.0098 9.49534 10.3784 8.99438 9.70288 8.55824C9.71344 9.86799 9.38859 11.1586 8.75925 12.3073C10.1256 17.7145 14.5966 19.141 17.3328 19.4972C17.4125 19.5076 17.4932 19.4891 17.5604 19.445C17.6275 19.4008 17.6765 19.3341 17.6985 19.2568C17.9824 18.2605 18.6571 14.7287 17.8137 12.0085C16.7426 8.55749 14.3599 8.01555 13.0207 8.00232ZM12.3354 6.51538C12.2988 6.5153 12.2625 6.50934 12.2278 6.49773L9.93609 5.7337C9.36578 6.23966 8.85062 6.80455 8.39922 7.41894C9.87734 7.77682 11.4332 7.88755 12.8475 7.34527C15.9222 6.17546 16.7089 2.53706 16.9032 1.05217C16.9093 1.00863 16.9067 0.964311 16.8957 0.921754C16.8846 0.879196 16.8653 0.83923 16.8388 0.804137C16.8123 0.769045 16.7792 0.739512 16.7413 0.717227C16.7034 0.694941 16.6615 0.680339 16.618 0.674254C11.3911 -0.0503865 7.19955 1.39409 8.06308 6.72659C8.56327 6.11657 9.11161 5.54768 9.70281 5.02539V2.73639C9.70281 2.64634 9.73858 2.55998 9.80226 2.4963C9.86594 2.43262 9.9523 2.39685 10.0424 2.39685C10.1324 2.39685 10.2188 2.43262 10.2824 2.4963C10.3461 2.55998 10.3819 2.64634 10.3819 2.73639V4.43419C10.8983 4.01362 11.437 3.62109 11.9955 3.2583V1.58969C11.9955 1.49963 12.0313 1.41327 12.095 1.34959C12.1586 1.28591 12.245 1.25014 12.3351 1.25014C12.4251 1.25014 12.5115 1.28591 12.5751 1.34959C12.6388 1.41327 12.6746 1.49963 12.6746 1.58969V2.82807C13.3838 2.3954 14.1184 2.00567 14.8743 1.66098C14.9154 1.64149 14.9599 1.63045 15.0054 1.62853C15.0508 1.6266 15.0962 1.63382 15.1388 1.64976C15.1814 1.6657 15.2203 1.69004 15.2534 1.72132C15.2864 1.75261 15.3127 1.79021 15.3309 1.83189C15.3491 1.87357 15.3588 1.91849 15.3593 1.96396C15.3598 2.00944 15.3512 2.05456 15.3339 2.09664C15.3167 2.13872 15.2911 2.1769 15.2588 2.20891C15.2265 2.24093 15.1881 2.26614 15.1459 2.28303C14.417 2.6171 13.7082 2.99352 13.0233 3.41038L14.3713 3.9496C14.4447 3.97885 14.5055 4.03274 14.5434 4.10202C14.5814 4.17129 14.5939 4.25161 14.579 4.32915C14.5641 4.40669 14.5226 4.47662 14.4617 4.52689C14.4009 4.57717 14.3243 4.60465 14.2454 4.60461C14.2022 4.60464 14.1594 4.59633 14.1194 4.58015L12.3174 3.85925C11.6883 4.26987 11.0871 4.72168 10.5177 5.21172L12.443 5.8535C12.5196 5.87895 12.5845 5.93082 12.6263 5.99982C12.6681 6.06882 12.684 6.15044 12.6711 6.23007C12.6582 6.30969 12.6173 6.38212 12.5559 6.43439C12.4944 6.48665 12.4164 6.51534 12.3357 6.51531H12.3354V6.51538Z" fill="#CA3C3D"/>
</g>
</g>
</g>
<defs>
<clipPath id="clip0_1248_21451">
<rect width="19" height="19" fill="white" transform="translate(0 0.5)"/>
</clipPath>
</defs>
</svg>
