<svg width="20" height="20" viewBox="0 0 20 20" fill="none" xmlns="http://www.w3.org/2000/svg">
<g id="beet 1">
<g id="Group">
<path id="Vector" d="M10.3777 9.00201C9.05932 7.66607 7.08421 7.09132 5.4045 7.79402L7.45768 9.8484C7.51343 9.90406 7.54478 9.97959 7.54483 10.0584C7.54489 10.1372 7.51365 10.2127 7.45798 10.2685C7.40231 10.3242 7.32678 10.3556 7.248 10.3556C7.16922 10.3557 7.09365 10.3244 7.0379 10.2688L4.83984 8.06893C4.44102 8.30037 4.07406 8.5828 3.74823 8.90908C3.10759 9.55282 2.60175 10.3178 2.26029 11.1594L4.20423 13.1045C4.25998 13.1602 4.29131 13.2358 4.29134 13.3146C4.29136 13.3934 4.26008 13.469 4.20438 13.5247C4.14867 13.5805 4.0731 13.6118 3.9943 13.6119C3.91549 13.6119 3.8399 13.5806 3.78415 13.5249L2.03556 11.7748C1.49174 13.5886 1.5949 15.5349 2.32739 17.281C2.40605 17.4436 2.53475 17.5768 2.69462 17.661C5.39826 18.7303 8.11971 18.4922 10.3718 16.8609L8.09418 14.5815C8.04162 14.525 8.01307 14.4504 8.01459 14.3733C8.01611 14.2962 8.04756 14.2227 8.1023 14.1684C8.15705 14.1141 8.23077 14.0832 8.30788 14.0823C8.38499 14.0813 8.45943 14.1105 8.51545 14.1635L10.8352 16.4847C13.3343 14.2148 12.843 11.1187 10.3777 9.00201ZM10.3234 8.15324C10.4808 8.28565 10.6381 8.42637 10.7937 8.57777L10.8943 8.67871L12.7248 6.84669C12.7805 6.79103 12.8561 6.75977 12.9348 6.7598C13.0136 6.75983 13.0891 6.79114 13.1448 6.84684C13.2004 6.90255 13.2317 6.97809 13.2317 7.05684C13.2316 7.13559 13.2003 7.21111 13.1446 7.26677L11.3182 9.09433C11.5029 9.276 11.6761 9.46895 11.8369 9.67205C12.8205 9.46509 13.7434 9.03513 14.5347 8.41528C15.3259 7.79543 15.9643 7.00223 16.4007 6.09679C16.6278 5.74895 16.7283 5.33361 16.6855 4.92043C16.6426 4.50726 16.459 4.1214 16.1654 3.82757C15.8717 3.53374 15.486 3.34983 15.0729 3.30667C14.6597 3.26352 14.2443 3.36376 13.8963 3.59057C12.9909 4.02647 12.1978 4.66466 11.5783 5.45584C10.9588 6.24702 10.5295 7.16972 10.3234 8.15324Z" fill="#CA3C3D"/>
<path id="Vector_2" d="M18.2483 7.43412C18.1733 7.13422 18.0195 6.85981 17.8028 6.63932C17.5862 6.41884 17.3145 6.2603 17.0159 6.18012C16.9862 6.25137 16.9557 6.31995 16.9215 6.38793C16.4601 7.32638 15.8001 8.15328 14.9874 8.81133C14.1746 9.46938 13.2285 9.94285 12.2146 10.1989C12.29 10.3165 12.3594 10.4323 12.4224 10.5498C13.3306 10.7192 14.2644 10.6945 15.1624 10.4772C16.0604 10.26 16.9022 9.85513 17.6325 9.28929C17.9096 9.0777 18.1164 8.78758 18.2262 8.45673C18.336 8.12588 18.3436 7.76964 18.248 7.43442L18.2483 7.43412ZM9.80067 7.77434C10.256 5.95384 11.4069 4.3844 13.0063 3.40285C13.2647 3.24339 13.5333 3.10098 13.8103 2.97654C13.5045 1.61745 11.5139 1.20865 10.7055 2.35667C10.1412 3.08656 9.73713 3.92727 9.51972 4.82392C9.30232 5.72056 9.27645 6.65298 9.44383 7.56029C9.56377 7.62412 9.6837 7.69774 9.80067 7.77434Z" fill="#CA3C3D"/>
</g>
</g>
</svg>
