<svg width="20" height="20" viewBox="0 0 20 20" fill="none" xmlns="http://www.w3.org/2000/svg">
<g id="brazil-nuts 1">
<g id="Group">
<path id="Vector" d="M9.76042 3.83153C10.4883 4.62834 10.8915 5.6688 10.8906 6.74803C10.8904 6.80873 10.8708 6.86776 10.8345 6.91644C10.7982 6.96512 10.7473 7.00088 10.6892 7.01846C10.6311 7.03604 10.5689 7.03452 10.5118 7.01411C10.4546 6.9937 10.4055 6.95548 10.3717 6.90508L10.1437 6.56337C10.0572 6.43316 9.93984 6.3264 9.80204 6.25263C9.66424 6.17886 9.51031 6.14038 9.354 6.14062C9.22124 6.14098 9.08972 6.11501 8.96707 6.0642C8.84441 6.0134 8.73305 5.93877 8.63942 5.84464C8.45134 5.65549 8.2276 5.50553 7.98116 5.40346C7.73472 5.30139 7.47048 5.24923 7.20373 5.25C6.86025 5.25 6.52092 5.30522 6.19525 5.41388C5.93055 5.502 5.65338 5.54691 5.37439 5.54688C5.31114 5.54672 5.24944 5.52732 5.19747 5.49126C5.14551 5.4552 5.10574 5.40419 5.08345 5.345L4.71355 4.35938H4.85248C6.50341 4.35938 8.14869 4.18006 9.76042 3.83153ZM2.04583 5.01458C2.25307 4.80622 2.49958 4.64103 2.77109 4.52857C3.04259 4.41611 3.3337 4.3586 3.62758 4.35938H4.07912L4.52711 5.5537C4.59236 5.72578 4.70828 5.87401 4.85956 5.9788C5.01084 6.0836 5.19036 6.14002 5.37439 6.14062C5.71788 6.14062 6.0572 6.08541 6.38287 5.97675C6.64758 5.88862 6.92475 5.84372 7.20373 5.84375C7.58759 5.84375 7.9483 5.99308 8.21964 6.26442C8.36824 6.41389 8.54502 6.53239 8.73973 6.61306C8.93445 6.69373 9.14324 6.73496 9.354 6.73438C9.47305 6.73438 9.58348 6.79345 9.64969 6.89261L9.87769 7.23431C9.95764 7.35459 10.0661 7.45321 10.1934 7.52138C10.3208 7.58954 10.463 7.62514 10.6074 7.625C10.8399 7.62476 11.0628 7.53229 11.2273 7.36788C11.3917 7.20347 11.4841 6.98055 11.4844 6.74803C11.4844 5.62258 11.1076 4.55056 10.4159 3.68042C10.5979 3.63559 10.7802 3.59077 10.961 3.54148C11.1375 3.49315 11.3197 3.46869 11.5028 3.46875C12.0489 3.4693 12.5725 3.68648 12.9586 4.07264C13.3448 4.45879 13.5619 4.98237 13.5625 5.52847C13.5625 6.30242 13.2727 7.05084 12.7612 7.625H11.9297C11.6533 7.62565 11.3808 7.69029 11.1336 7.81385C10.8864 7.93741 10.6711 8.11654 10.5047 8.3372C10.3938 8.48438 10.2503 8.60389 10.0855 8.68635C9.92065 8.76881 9.73898 8.81198 9.55469 8.8125C9.21581 8.813 8.88163 8.89184 8.57827 9.04287L8.51117 9.07613C8.11605 8.90298 7.68945 8.81323 7.25806 8.8125C7.05299 8.81196 6.84985 8.85209 6.66039 8.93056C6.47093 9.00904 6.29891 9.1243 6.15428 9.26969C6.06611 9.35786 5.94914 9.40625 5.82475 9.40625C5.62668 9.40691 5.43301 9.34787 5.269 9.23682C5.10499 9.12576 4.97825 8.96786 4.90533 8.7837C4.80425 8.52881 4.62875 8.31027 4.40168 8.15655C4.17462 8.00283 3.90653 7.92105 3.63233 7.92188C3.29508 7.92188 2.96169 7.9762 2.64136 8.08278L1.91016 8.32652C1.57176 7.81288 1.39116 7.21141 1.39062 6.59633C1.39062 5.99872 1.62337 5.43733 2.04583 5.01458ZM6.43423 10.5938C4.87445 10.5938 3.38355 9.94567 2.31123 8.81873L2.82928 8.64625C3.08813 8.55952 3.35934 8.5154 3.63233 8.51562C3.95177 8.51562 4.23528 8.70741 4.35403 9.00428C4.47066 9.29887 4.67339 9.55145 4.93575 9.72908C5.19811 9.9067 5.50792 10.0011 5.82475 10C6.10767 10 6.37397 9.88986 6.57406 9.68947C6.6637 9.59939 6.7703 9.52799 6.8877 9.47937C7.00511 9.43076 7.13099 9.40591 7.25806 9.40625C7.64638 9.40625 8.03528 9.49828 8.38292 9.67195C8.42417 9.69259 8.46965 9.70334 8.51577 9.70334C8.56189 9.70334 8.60738 9.69259 8.64862 9.67195L8.84397 9.57428C9.06465 9.46395 9.30796 9.40642 9.55469 9.40625C9.83107 9.4056 10.1036 9.34096 10.3508 9.2174C10.598 9.09384 10.8133 8.91471 10.9797 8.69405C11.0906 8.54687 11.2341 8.42736 11.3989 8.3449C11.5637 8.26244 11.7454 8.21927 11.9297 8.21875H12.1443L11.8964 8.44883C10.4131 9.82976 8.46091 10.5963 6.43423 10.5938ZM14.7788 6.43127L14.7794 6.42978L14.8744 6.54853C15.1777 6.92873 15.3431 7.4005 15.3438 7.88684C15.3438 8.2048 15.5204 8.49069 15.8048 8.63289C15.8448 8.65267 15.8784 8.68327 15.9019 8.72121C15.9253 8.75916 15.9377 8.80292 15.9375 8.84753C15.9379 9.29375 15.7977 9.72875 15.5368 10.0907C15.2758 10.4527 14.9075 10.7232 14.484 10.8639C13.7787 11.0984 13.1207 11.4563 12.5407 11.9211C12.0701 12.2964 11.7286 12.8095 11.5642 13.3885L11.4591 13.7558C11.4013 13.9563 11.28 14.1326 11.1134 14.2584C10.9468 14.3841 10.744 14.4524 10.5353 14.4531C10.2995 14.4531 10.081 14.3359 9.95012 14.1399C9.85287 13.9943 9.72699 13.8699 9.58016 13.7744C9.43333 13.6789 9.26861 13.6143 9.09602 13.5845C11.5949 11.7502 13.5571 9.28026 14.7788 6.43127ZM8.51562 14.7257C8.51562 14.527 8.56016 14.3341 8.63883 14.1562H8.87098C9.1067 14.1562 9.3252 14.2735 9.45613 14.4695C9.57445 14.6472 9.73489 14.793 9.92317 14.8937C10.1115 14.9944 10.3217 15.0471 10.5353 15.0469C10.873 15.0458 11.2012 14.9354 11.4708 14.732C11.7404 14.5287 11.9368 14.2434 12.0306 13.919L12.1357 13.5518C12.2663 13.0913 12.5377 12.6832 12.912 12.3848C13.4372 11.9637 14.0331 11.6394 14.6719 11.4271C15.2136 11.2471 15.6849 10.901 16.0186 10.4379C16.3524 9.97484 16.5318 9.41836 16.5312 8.84753C16.5318 8.69252 16.4889 8.54046 16.4074 8.40859C16.3259 8.27673 16.2091 8.17033 16.0702 8.10148C16.0302 8.08171 15.9966 8.05111 15.9731 8.01316C15.9497 7.97522 15.9373 7.93145 15.9375 7.88684C15.9375 7.26756 15.7243 6.66075 15.3378 6.17773L15.0445 5.81109L15.119 5.63742C15.2436 5.34606 15.451 5.09773 15.7156 4.92329C15.9801 4.74885 16.2901 4.65599 16.607 4.65625C16.8923 4.6566 17.1725 4.73218 17.4193 4.87536C17.666 5.01853 17.8707 5.22425 18.0127 5.47177C18.4032 6.15641 18.6089 6.93091 18.6094 7.71911C18.6094 8.73472 18.4345 9.73578 18.1085 10.6828C17.2126 10.8817 16.4161 11.4188 15.9051 12.1853C15.8663 12.2437 15.8136 12.2917 15.7518 12.3248C15.6899 12.3579 15.6208 12.3751 15.5507 12.375C15.2597 12.3752 14.9806 12.4909 14.7748 12.6967C14.5691 12.9025 14.4534 13.1815 14.4531 13.4725C14.4531 13.6667 14.3964 13.8549 14.2884 14.0164C14.199 14.1509 14.0778 14.2612 13.9354 14.3374C13.793 14.4136 13.634 14.4534 13.4725 14.4531C12.998 14.4514 12.5326 14.5828 12.1289 14.8323C11.7253 15.0817 11.3997 15.4393 11.189 15.8645L10.8651 16.512C10.2499 16.4539 9.65879 16.2441 9.1447 15.9013C8.95101 15.7724 8.7922 15.5976 8.68244 15.3925C8.57268 15.1874 8.51537 14.9583 8.51562 14.7257ZM15.7493 14.3546L15.0576 15.0077C14.0974 15.9145 12.8455 16.4496 11.5265 16.517L11.7201 16.1299C11.8818 15.8037 12.1318 15.5293 12.4415 15.3379C12.7513 15.1464 13.1084 15.0456 13.4725 15.0469C13.7317 15.0472 13.987 14.9833 14.2155 14.861C14.4441 14.7387 14.6388 14.5618 14.7824 14.346C14.9552 14.0875 15.0473 13.7835 15.0469 13.4725C15.0471 13.339 15.1003 13.211 15.1947 13.1166C15.2891 13.0221 15.4171 12.969 15.5507 12.9688C15.8921 12.9688 16.2094 12.7992 16.3988 12.5148C16.748 11.9941 17.2518 11.5962 17.8393 11.3772C17.3494 12.4998 16.6386 13.5123 15.7493 14.3546Z" fill="#CA3C3D"/>
</g>
</g>
</svg>
