<svg width="20" height="20" viewBox="0 0 20 20" fill="none" xmlns="http://www.w3.org/2000/svg">
<g id="Broccoli">
<g id="Group">
<path id="Vector" d="M16.812 5.47927C16.7434 4.42418 15.8233 3.60136 14.7106 3.60004C14.3889 3.60054 14.0719 3.6722 13.7845 3.80937C13.1103 2.69037 11.8572 2 10.5 2C9.14279 2 7.88966 2.69037 7.21553 3.80937C6.92814 3.6722 6.61107 3.60054 6.28945 3.60004C5.17681 3.60136 4.25673 4.42418 4.18796 5.47927C3.16027 5.93939 2.50308 6.92054 2.5 7.99997C2.5 11.1324 4.34661 11.6 5.4474 11.6C5.61031 11.5997 5.77292 11.5866 5.93356 11.5608C6.65797 12.1333 8.21962 13.8554 8.36765 16.8914C8.40712 17.517 8.95501 18.0039 9.61477 18H11.3852C12.045 18.0039 12.5929 17.517 12.6324 16.8914C12.7804 13.8554 14.342 12.1333 15.0664 11.5608C15.2271 11.5866 15.3897 11.5997 15.5526 11.6C16.6534 11.6 18.5 11.1324 18.5 7.99997C18.4969 6.92054 17.8399 5.93936 16.812 5.47927ZM9.65795 12.789L7.49587 10.8092C7.828 10.5048 8.08041 10.1306 8.23288 9.71675C8.65104 10.0207 9.13975 10.2251 9.65811 10.3128L9.65795 12.789ZM11.342 12.789V10.3128C11.8605 10.2252 12.3492 10.0209 12.7674 9.71694C12.9198 10.1308 13.1722 10.5049 13.5044 10.8092L11.342 12.789Z" fill="#3DCA6C"/>
</g>
</g>
</svg>
