<svg width="20" height="20" viewBox="0 0 20 20" fill="none" xmlns="http://www.w3.org/2000/svg">
<g id="Brussel-sprouts">
<g id="Group">
<path id="Vector" d="M6.52422 3.86121C6.77433 3.60607 7.10872 3.46559 7.46579 3.46559C7.82286 3.46559 8.15725 3.60607 8.40733 3.86118C8.46034 3.91531 8.51255 3.97022 8.56395 4.02589C8.81443 3.56643 9.06298 3.16785 9.2588 2.87101C8.73952 2.62445 8.14008 2.5 7.46579 2.5C6.7915 2.5 6.19206 2.62445 5.67274 2.87101C5.86856 3.16791 6.11712 3.56646 6.3676 4.02589C6.419 3.97023 6.47121 3.91533 6.52422 3.86121ZM4.85059 3.22222C4.85056 3.22222 4.85056 3.22222 4.85059 3.22222C4.76645 3.09765 4.62612 3.02397 4.47644 3.02863C4.40296 3.03008 4.33104 3.05003 4.26731 3.08664C4.20358 3.12325 4.15011 3.17533 4.11185 3.23807C3.62722 4.02861 2.5 6.04021 2.5 7.64157C2.5 7.83589 2.52317 8.03253 2.56814 8.23072C2.77536 7.96744 3.05101 7.75515 3.37676 7.62487L3.86933 7.42785C4.12787 7.32429 4.39939 7.25667 4.6763 7.22687C4.84625 6.24479 5.31362 5.39454 5.76514 4.76598C5.43658 4.1228 5.08578 3.57056 4.85059 3.22222ZM6.83928 9.89982C6.85584 9.87932 6.87283 9.85918 6.89025 9.83941C6.98374 9.5131 7.10556 9.21287 7.25421 8.93929C6.94147 8.9008 6.63655 8.77667 6.37411 8.56673C5.76031 8.07569 4.92562 7.95194 4.19569 8.24391L3.70313 8.44093C3.25873 8.61867 2.98322 9.0723 3.03317 9.54404C3.18493 10.9769 4.22601 11.9518 5.07266 12.5173C5.33908 12.6952 5.60785 12.8474 5.86598 12.975C5.8443 11.9849 6.05841 10.8657 6.83928 9.89982ZM7.7797 4.47644C7.69629 4.39136 7.58482 4.34449 7.46579 4.34449C7.34676 4.34449 7.23528 4.39136 7.15187 4.47644C6.72822 4.90866 5.82889 5.95346 5.56355 7.26089C6.05855 7.35253 6.52812 7.56437 6.92318 7.88042C7.08104 8.00669 7.26865 8.07346 7.46576 8.07346C7.6629 8.07346 7.85057 8.00669 8.00845 7.88039C8.18817 7.73686 8.38361 7.6142 8.59102 7.51477C8.82307 7.35417 9.06955 7.20607 9.32393 7.06987C9.01485 5.85224 8.1825 4.88736 7.7797 4.47644ZM10.8197 3.23807C10.7815 3.17533 10.728 3.12325 10.6643 3.08664C10.6005 3.05003 10.5286 3.03008 10.4551 3.02863C10.3055 3.02485 10.1651 3.09765 10.081 3.22222C9.84579 3.57053 9.49499 4.12277 9.1664 4.76601C9.53261 5.2758 9.90922 5.93143 10.1292 6.68494C10.8416 6.3802 11.5564 6.15763 12.1344 6.004C11.7659 4.86023 11.1467 3.77133 10.8197 3.23807ZM7.8695 16.3743C7.60076 16.1055 7.09483 15.1641 6.86248 13.9969C6.66367 12.9984 6.61686 11.5729 7.52274 10.4524C7.82101 10.0835 8.33654 9.95756 8.77649 10.1461L9.26411 10.3551C9.98671 10.6648 10.4894 11.3425 10.5762 12.1238C10.6671 12.9418 11.302 13.5767 12.1201 13.6676C12.9013 13.7544 13.579 14.2572 13.8887 14.9797L14.0977 15.4673C14.2862 15.9072 14.1603 16.4228 13.7914 16.7211C12.6709 17.6269 11.2454 17.5801 10.2469 17.3813C9.07968 17.1489 8.13824 16.643 7.8695 16.3743Z" fill="#3DCA6C"/>
<path id="Vector_2" d="M11.6954 12.5452C11.8348 12.6846 12.0147 12.7701 12.2157 12.7924C12.7184 12.8483 13.2002 13.0305 13.615 13.3158C14.3519 12.2036 14.4548 10.8289 14.4608 10.2237C14.462 10.1046 14.4163 9.99258 14.3322 9.90844C14.248 9.8243 14.1361 9.7786 14.0169 9.77977C13.4117 9.7858 12.037 9.88869 10.9249 10.6255C11.2101 11.0404 11.3923 11.5222 11.4482 12.025C11.4706 12.2259 11.556 12.4058 11.6954 12.5452ZM14.0081 8.9009C14.3654 8.89732 14.7012 9.03446 14.9537 9.28694C15.2062 9.53945 15.3433 9.87522 15.3397 10.2324C15.3389 10.3082 15.337 10.3839 15.334 10.4597C15.8361 10.3119 16.2936 10.2058 16.642 10.1344C16.4491 9.59283 16.1133 9.08096 15.6365 8.60418C15.1597 8.12738 14.6478 7.79152 14.1063 7.59866C14.0348 7.94706 13.9287 8.40464 13.781 8.90664C13.8619 8.90342 13.938 8.9016 14.0081 8.9009ZM17.4862 11.4977C17.5035 11.4262 17.5025 11.3516 17.4833 11.2806C17.4641 11.2097 17.4274 11.1447 17.3764 11.0917C17.2733 10.9832 17.1226 10.9355 16.975 10.9641C16.5624 11.0441 15.9238 11.1865 15.2366 11.409C15.1115 12.1728 14.8407 13.1044 14.2664 13.9191C14.4412 14.1359 14.5854 14.3757 14.695 14.6317L14.904 15.1194C15.0422 15.4418 15.087 15.7869 15.0474 16.1195C15.2193 16.0112 15.3747 15.8885 15.5122 15.7511C16.6445 14.6188 17.2699 12.3994 17.4862 11.4977ZM13.2765 7.26565C13.3051 7.11808 13.258 6.96676 13.1489 6.86419C13.0959 6.81326 13.0309 6.77651 12.96 6.75733C12.889 6.73816 12.8144 6.73717 12.743 6.75448C11.8413 6.97077 9.62182 7.59614 8.4895 8.72846C8.3521 8.86586 8.2294 9.02128 8.12109 9.19325C8.45379 9.15358 8.79881 9.19844 9.12125 9.33663L9.60887 9.54563C9.86492 9.65522 10.1047 9.7994 10.3216 9.97415C11.1362 9.39991 12.0679 9.12915 12.8316 9.00396C13.0541 8.31681 13.1965 7.67826 13.2765 7.26565Z" fill="#3DCA6C"/>
</g>
</g>
</svg>
