<svg width="20" height="20" viewBox="0 0 20 20" fill="none" xmlns="http://www.w3.org/2000/svg">
<g id="butternut-squash 1">
<g id="Group">
<path id="Vector" d="M11.4284 11.5497C11.0885 10.1685 10.9203 8.75055 10.9279 7.32812C10.9279 5.13659 10.2385 3.98828 10.0001 3.98828C9.76176 3.98828 9.07241 5.13659 9.07241 7.32812C9.07994 8.75055 8.91183 10.1685 8.57188 11.5497C8.38236 12.3208 8.28873 13.1123 8.29312 13.9063C8.29312 16.6821 9.28735 18.3867 10.0001 18.3867C10.7129 18.3867 11.7072 16.6821 11.7072 13.9063C11.7116 13.1123 11.6179 12.3208 11.4284 11.5497Z" fill="#FF7F01"/>
<path id="Vector_2" d="M14.7434 10.9406C14.0886 10.0217 13.7282 8.89494 13.717 7.73228C13.717 5.80775 12.2465 4.2206 10.3706 4.03439C10.279 3.46504 10.0059 2.94902 9.59934 2.57697C9.19277 2.20492 8.6787 2.00064 8.14745 2C8.03996 2 7.93688 2.04646 7.86087 2.12915C7.78487 2.21184 7.74217 2.324 7.74217 2.44094C7.74217 2.55789 7.78487 2.67005 7.86087 2.75274C7.93688 2.83543 8.03996 2.88189 8.14745 2.88189C8.46535 2.88255 8.77424 2.99694 9.02651 3.20743C9.27877 3.41793 9.46041 3.71285 9.54343 4.04674C7.70906 4.27301 6.2832 5.83798 6.2832 7.73228C6.27206 8.89494 5.91159 10.0217 5.25682 10.9406C4.77297 11.621 4.50716 12.4551 4.5 13.3154C4.5 15.8986 6.96637 18 10.0001 18C8.77897 18 7.85797 15.986 7.85797 13.3154C7.85472 12.5676 7.93639 11.8221 8.10113 11.0961C8.34943 9.9954 8.47194 8.8656 8.46587 7.73228C8.46587 5.88535 8.99296 4.01575 10.0001 4.01575C11.0073 4.01575 11.5344 5.88535 11.5344 7.73228C11.5283 8.86568 11.6508 9.99556 11.8991 11.0963C12.0638 11.8223 12.1454 12.5676 12.142 13.3154C12.142 15.9863 11.2213 18 10.0001 18C13.0339 18 15.5 15.8986 15.5 13.3154C15.4929 12.4552 15.2272 11.6211 14.7434 10.9406Z" fill="#FF7F01"/>
</g>
</g>
</svg>
