<svg width="20" height="20" viewBox="0 0 20 20" fill="none" xmlns="http://www.w3.org/2000/svg">
<g id="cantaloupe 1">
<g id="Group">
<path id="Vector" d="M7.89766 10.5386C7.916 10.5572 7.93469 10.5753 7.95328 10.5935V3.41872C6.40306 4.84928 5.4375 7.31778 5.4375 9.98588C5.4375 10.0311 5.43847 10.0762 5.43903 10.1213H6.89781C7.27091 10.1213 7.63531 10.2734 7.89766 10.5386ZM11.441 10.0015C11.441 7.31044 10.4617 4.8275 8.89078 3.40234V11.3087C9.60034 11.7224 10.4119 11.9494 11.2639 11.9642C11.3799 11.3317 11.441 10.6731 11.441 10.0015Z" fill="#FF7F01"/>
<path id="Vector_2" d="M12.9997 4.38416C11.7845 2.84669 10.1588 2 8.42203 2C6.68531 2 5.05963 2.84669 3.84441 4.38416C2.65503 5.889 2 7.88341 2 10C2 12.1166 2.65503 14.111 3.84441 15.6158C4.84797 16.8856 6.13162 17.6836 7.52644 17.9232C5.27991 16.6355 3.76806 14.2511 3.76806 11.5279C3.76806 10.9951 4.06594 10.5306 4.50391 10.292C4.50132 10.1901 4.50002 10.0882 4.5 9.98628C4.5 8.30806 4.84747 6.67844 5.50487 5.27359C6.15466 3.88494 7.07406 2.77897 8.16362 2.07522C8.24114 2.02507 8.33175 1.99896 8.42406 2.00019L8.42491 2.00016L8.42972 2.00028C8.52127 1.99899 8.61119 2.02458 8.68834 2.07388C9.78509 2.77388 10.711 3.88009 11.366 5.27294C12.0283 6.68163 12.3785 8.31688 12.3785 10.0019C12.3785 10.6413 12.3279 11.2736 12.2292 11.889C13.2088 11.7155 14.1034 11.2513 14.808 10.539C14.8153 10.5316 14.823 10.5246 14.8305 10.5173C14.8392 10.3458 14.8441 10.1733 14.8441 10C14.8441 7.88341 14.1891 5.889 12.9997 4.38416Z" fill="#FF7F01"/>
<path id="Vector_3" d="M11.2637 11.9633C11.2933 11.9638 11.3229 11.9644 11.3525 11.9644C11.3365 11.9394 11.2933 11.9638 11.2637 11.9633Z" fill="#FF7F01"/>
<path id="Vector_4" d="M11.3523 17.9994C7.68702 17.9994 4.70508 15.0961 4.70508 11.5273C4.70508 11.2685 4.91495 11.0586 5.17383 11.0586H6.89733C6.95931 11.0586 7.02068 11.0709 7.07788 11.0948C7.13509 11.1186 7.18699 11.1536 7.23058 11.1977C8.31811 12.2971 9.78189 12.9026 11.3523 12.9026C12.9227 12.9026 14.3865 12.2971 15.474 11.1977C15.5176 11.1536 15.5695 11.1186 15.6267 11.0947C15.6839 11.0709 15.7453 11.0586 15.8073 11.0586H17.5308C17.7896 11.0586 17.9995 11.2685 17.9995 11.5273C17.9995 15.0961 15.0176 17.9994 11.3523 17.9994Z" fill="#FF7F01"/>
</g>
</g>
</svg>
