<svg width="20" height="20" viewBox="0 0 20 20" fill="none" xmlns="http://www.w3.org/2000/svg">
<g id="carrot 1" clip-path="url(#clip0_1248_21380)">
<g id="Group">
<path id="Vector" d="M12.593 7.08877C12.0451 6.65839 10.1127 5.39803 8.27503 7.23539C8.21042 7.3 8.14169 7.37315 8.07489 7.44217L8.25381 7.49094C8.29084 7.49632 9.80616 7.77406 10.5412 8.50874C10.6647 8.63254 10.6647 8.83302 10.5412 8.95652C10.5118 8.98601 10.4768 9.00939 10.4383 9.02532C10.3999 9.04124 10.3586 9.04939 10.317 9.0493C10.2754 9.04935 10.2342 9.04118 10.1957 9.02526C10.1573 9.00934 10.1224 8.98598 10.0931 8.95652C9.59871 8.4622 8.49762 8.17652 8.11509 8.10813L7.58685 7.96529C7.21347 8.37982 6.81353 8.85517 6.39392 9.38656L6.58329 9.42772C7.01872 9.53508 8.07326 9.84132 8.6411 10.4088C8.7646 10.5326 8.7646 10.7331 8.6411 10.8566C8.61169 10.8861 8.57674 10.9094 8.53825 10.9254C8.49977 10.9413 8.45852 10.9494 8.41687 10.9493C8.37528 10.9494 8.33409 10.9412 8.29567 10.9253C8.25724 10.9094 8.22235 10.886 8.19298 10.8566C7.8215 10.4851 7.04406 10.1934 6.44016 10.0446L5.9648 9.94137C5.62594 10.3885 5.27665 10.8705 4.92009 11.3851L5.13637 11.4506C5.54174 11.5767 6.28689 11.855 6.74098 12.3088C6.86448 12.4327 6.86448 12.6331 6.74098 12.7566C6.71157 12.7861 6.67662 12.8095 6.63814 12.8254C6.59965 12.8413 6.5584 12.8495 6.51675 12.8494C6.47516 12.8494 6.43397 12.8413 6.39555 12.8253C6.35712 12.8094 6.32223 12.7861 6.29286 12.7566C6.03539 12.4991 5.53346 12.2372 4.95015 12.0561L4.54575 11.9329C4.1765 12.4827 3.80186 13.0673 3.42441 13.6832L3.67331 13.7919C4.03147 13.9413 4.56572 14.2507 4.8409 14.5256C4.9644 14.6495 4.9644 14.8499 4.8409 14.9734C4.81149 15.0029 4.77654 15.0263 4.73806 15.0422C4.69957 15.0581 4.65832 15.0663 4.61667 15.0662C4.57508 15.0662 4.53389 15.0581 4.49547 15.0421C4.45704 15.0262 4.42215 15.0029 4.39278 14.9734C4.19264 14.7733 3.73061 14.5019 3.42437 14.3742L3.09219 14.2292C2.22955 15.6761 1.36089 17.288 0.530234 19.0481C0.507474 19.0964 0.497286 19.1497 0.500617 19.2029C0.503949 19.2562 0.520691 19.3077 0.549289 19.3528C0.577886 19.3978 0.61741 19.4349 0.664187 19.4606C0.710965 19.4863 0.763476 19.4998 0.816842 19.4997C0.863475 19.4997 0.909536 19.4895 0.951741 19.4696C6.63109 16.7895 10.778 13.7117 12.7645 11.7249C14.6019 9.88753 13.3415 7.95545 12.9112 7.40695C12.8183 7.28845 12.7115 7.18161 12.593 7.08877ZM18.9855 3.82022C18.9438 3.77864 18.8997 3.73953 18.8534 3.70306C19.1232 3.05606 18.9839 2.28846 18.4753 1.77986C17.9417 1.24624 17.1449 1.12466 16.4875 1.43595C16.4061 1.27982 16.3026 1.13732 16.1797 1.01444C15.4935 0.328519 14.3772 0.328519 13.6912 1.01444C13.2064 1.4993 13.0623 2.21721 13.2815 2.84075C12.9553 2.9104 12.6548 3.07128 12.4159 3.31005C11.7297 3.99631 11.73 5.11261 12.4159 5.79853C12.6572 6.03982 12.96 6.19944 13.2836 6.2685L14.4338 5.11832V4.29939C14.4338 4.2578 14.442 4.21662 14.4579 4.17819C14.4738 4.13977 14.4971 4.10485 14.5265 4.07544C14.5559 4.04603 14.5909 4.02271 14.6293 4.0068C14.6677 3.99089 14.7089 3.98271 14.7505 3.98273C14.7921 3.98269 14.8333 3.99085 14.8717 4.00675C14.9102 4.02265 14.9451 4.04597 14.9745 4.07539C15.0039 4.1048 15.0272 4.13973 15.0431 4.17816C15.059 4.2166 15.0672 4.2578 15.0672 4.29939V4.48499L15.7005 3.85161V3.03261C15.7005 2.99102 15.7087 2.94984 15.7246 2.91141C15.7405 2.87298 15.7638 2.83807 15.7932 2.80866C15.8227 2.77925 15.8576 2.75593 15.896 2.74002C15.9344 2.72411 15.9756 2.71593 16.0172 2.71594C16.0588 2.7159 16.1 2.72407 16.1384 2.73997C16.1769 2.75587 16.2118 2.77919 16.2412 2.80861C16.2706 2.83802 16.2939 2.87294 16.3098 2.91138C16.3257 2.94982 16.3339 2.99101 16.3339 3.03261V3.66598H16.6505C16.6921 3.66594 16.7333 3.67411 16.7718 3.69001C16.8102 3.70591 16.8451 3.72923 16.8745 3.75865C16.9039 3.78806 16.9273 3.82298 16.9432 3.86142C16.9591 3.89986 16.9672 3.94105 16.9672 3.98265C16.9672 4.02424 16.959 4.06543 16.9431 4.10385C16.9272 4.14228 16.9039 4.17719 16.8745 4.2066C16.8451 4.23601 16.8102 4.25934 16.7717 4.27524C16.7333 4.29115 16.6921 4.29933 16.6505 4.29932H16.1486L15.5152 4.93269H16.0172C16.0588 4.93265 16.1 4.94082 16.1384 4.95672C16.1768 4.97262 16.2118 4.99594 16.2412 5.02535C16.2706 5.05477 16.2939 5.08969 16.3098 5.12813C16.3257 5.16657 16.3339 5.20776 16.3338 5.24936C16.3338 5.29095 16.3257 5.33213 16.3098 5.37056C16.2938 5.40899 16.2705 5.4439 16.2411 5.47331C16.2117 5.50272 16.1768 5.52604 16.1384 5.54195C16.0999 5.55786 16.0587 5.56604 16.0172 5.56603H14.8819L13.7345 6.71305C13.8036 7.03766 13.9594 7.34197 14.2013 7.58394C14.5443 7.92721 14.9949 8.09855 15.4456 8.09855C15.8962 8.09855 16.3469 7.92692 16.6898 7.58394C16.9286 7.34516 17.0894 7.04464 17.1591 6.71843C17.783 6.93728 18.5006 6.79347 18.9854 6.30865C19.6714 5.62273 19.6717 4.50644 18.9855 3.82022Z" fill="#CA3C3D"/>
</g>
</g>
<defs>
<clipPath id="clip0_1248_21380">
<rect width="19" height="19" fill="white" transform="translate(0.5 0.5)"/>
</clipPath>
</defs>
</svg>
