<svg width="20" height="20" viewBox="0 0 20 20" fill="none" xmlns="http://www.w3.org/2000/svg">
<g id="Cashews" clip-path="url(#clip0_1248_21342)">
<g id="Group">
<path id="Vector" d="M7.19476 4.92549C7.82473 4.93677 8.40233 5.20218 8.82111 5.67272L8.84237 5.69662C9.31236 6.22472 9.87545 6.44615 10.4241 6.44611C10.9822 6.44608 11.5254 6.21685 11.9396 5.84821C12.7611 5.11716 13.0967 3.81968 12.1484 2.75406L12.1274 2.73053C11.4973 2.02249 10.7433 1.46841 9.88632 1.08366C9.0615 0.713353 8.18257 0.51738 7.27395 0.501089C6.3656 0.484909 5.48047 0.649117 4.64329 0.989519C3.77308 1.34328 2.99962 1.87012 2.34435 2.55537C0.534574 4.44794 0.0027636 7.23809 0.989383 9.66354L1.00144 9.69323C1.38779 10.6429 2.17465 11.0503 2.96496 11.0503C3.27393 11.0503 3.58346 10.988 3.86979 10.8716C4.8884 10.4572 5.63845 9.34656 5.10107 8.02551L5.08901 7.99605C4.75837 7.18328 4.9366 6.24828 5.543 5.61413C5.97844 5.15876 6.56602 4.9141 7.19476 4.92549ZM18.9582 10.434C18.3425 9.67356 17.3199 9.28117 16.3538 9.43425C15.4693 9.57433 14.7667 10.1637 14.426 11.0512L14.4118 11.0881C14.3355 11.2872 14.2168 11.4674 14.064 11.6162C13.9112 11.765 13.728 11.8788 13.5269 11.9498C13.3261 12.021 13.1123 12.0477 12.9002 12.0282C12.6881 12.0087 12.4827 11.9433 12.2983 11.8366C11.959 11.6407 11.7273 11.338 11.6097 10.9369C11.3421 10.0248 10.6895 9.38044 9.81927 9.1691C8.86853 8.93821 7.81775 9.24644 7.1424 9.95444C6.52428 10.6024 6.32322 11.4972 6.59085 12.4094C7.08555 14.0953 8.18372 15.5006 9.68315 16.3662C10.7146 16.9618 11.8697 17.2647 13.0323 17.2647C13.7862 17.2647 14.5435 17.1372 15.2717 16.8793C17.1249 16.2231 18.5912 14.7954 19.2948 12.9624L19.2949 12.9623L19.309 12.9255C19.6496 12.038 19.5218 11.1299 18.9582 10.434Z" fill="#CA3C3D"/>
</g>
</g>
<defs>
<clipPath id="clip0_1248_21342">
<rect width="19" height="19" fill="white" transform="translate(0.5 0.5)"/>
</clipPath>
</defs>
</svg>
