<svg width="20" height="20" viewBox="0 0 20 20" fill="none" xmlns="http://www.w3.org/2000/svg">
<g id="Celery">
<g id="Group">
<path id="Vector" d="M11.2112 5.07251L11.2206 5.89056C11.3018 5.91242 11.3736 5.95301 11.4298 6.01546C11.5703 5.93115 11.7296 5.84373 11.8576 5.84373C11.8451 5.58457 11.8326 5.33791 11.817 5.10685C11.5797 5.1412 11.4173 5.17867 11.2112 5.07251ZM12.8442 6.61495C12.7537 6.61495 12.6663 6.59309 12.5882 6.5525C12.5788 6.73984 12.5695 6.92718 12.5601 7.11765C12.6319 6.95529 12.7256 6.78356 12.8536 6.61495H12.8442ZM12.4602 8.87553C12.3509 10.5179 12.1948 12.0916 11.8982 13.2312C11.8607 13.378 11.8201 13.5185 11.7795 13.6527C11.8295 12.7067 11.842 11.7543 11.8794 10.8083C11.9075 10.1463 11.92 9.50001 11.92 8.87866C11.6827 8.83494 11.5703 8.7038 11.5578 8.54144C11.3736 8.46963 11.2674 8.27604 11.333 8.06372C11.3236 8.05435 11.3174 8.04187 11.308 8.0325C11.2799 8.03874 11.2518 8.04499 11.2237 8.05436C11.2144 9.17216 11.1831 10.2868 11.1145 11.4046C11.0863 11.8137 11.0177 12.7223 10.8709 13.7995C10.7242 11.9979 10.6274 9.8622 10.5618 8.12929C10.5462 8.11992 10.2152 8.15739 10.0216 7.8233C10.0185 7.82642 10.0154 7.82955 10.0091 7.83267C10.0279 7.96381 9.9623 8.11992 9.8218 8.20111C9.8499 10.3306 9.92171 12.9658 10.0216 14.9298C9.55952 13.2125 9.40964 10.5679 9.37218 8.33849C9.23167 8.36035 9.11614 8.36347 8.98813 8.36347C8.67589 8.36347 8.45108 8.09495 8.47294 7.81393C8.48231 7.63284 8.50728 7.41115 8.63218 7.10516C8.6072 6.10913 8.59471 5.3098 8.58222 4.89453C8.47918 4.96635 8.35429 5.00694 8.22627 5.0163C8.30433 5.07563 8.3699 5.15056 8.41361 5.23799C8.49792 5.40035 8.51041 5.59082 8.45108 5.76255C8.33243 6.10288 8.19193 6.50567 7.90467 6.92094C7.89842 7.0271 7.89842 7.13638 7.8953 7.24879C8.05766 7.28313 8.20442 7.3768 8.30433 7.51107C8.41674 7.66094 8.46669 7.85765 8.43235 8.04811C8.36678 8.42279 8.26998 8.85992 7.96712 9.32828C7.94214 9.36262 7.91716 9.39385 7.88281 9.41882C7.88906 9.8622 7.89842 10.3149 7.91716 10.777C8.01395 13.2375 8.09513 16.6752 9.22543 17.6369C9.23479 17.6462 9.24104 17.6525 9.25353 17.6618C9.39091 17.7836 9.56888 17.8679 9.76559 17.9241C9.7812 17.9304 9.79682 17.9335 9.81243 17.9366C9.85302 17.946 9.89673 17.9553 9.93732 17.9647H9.94669C10.6586 18.0927 11.5516 17.8679 11.8576 17.4526C12.9254 16.007 12.7943 13.0689 12.8786 11.6763C12.9285 10.8582 12.966 9.69671 12.9879 8.57579C12.8817 8.79435 12.7006 8.83807 12.4602 8.87553Z" fill="#3DCA6C"/>
<path id="Vector_2" d="M6.30045 7.04571C6.25674 7.13314 6.35977 7.22368 6.44096 7.16748C6.7126 6.98326 6.95614 6.78031 7.16222 6.54613C7.14661 6.69288 7.16846 6.84588 7.20905 7.002C7.22779 7.07693 7.32146 7.09879 7.37454 7.04259C7.81479 6.5555 7.98652 6.06217 8.13327 5.64689C8.19572 5.46892 8.0958 5.27533 7.91471 5.22538C7.53066 5.11297 7.09977 4.99432 6.35041 5.04116C6.27235 5.0474 6.23176 5.14107 6.28171 5.2004C6.38163 5.31905 6.49091 5.42208 6.61581 5.4939C6.30669 5.52512 5.99758 5.6063 5.69159 5.72183C5.59792 5.75618 5.61353 5.89356 5.71032 5.90605C5.90391 5.93727 6.08188 5.97786 6.23176 6.03407C5.84771 6.23702 5.51362 6.47432 5.25758 6.76157C5.19826 6.82714 5.25134 6.93018 5.33876 6.92081C5.72281 6.8771 6.10686 6.74284 6.49404 6.54925C6.45657 6.70225 6.38788 6.87086 6.30045 7.04571ZM7.78981 7.57027C7.48382 7.53592 7.12787 7.51406 6.57522 7.64208C6.51277 7.65769 6.49091 7.73887 6.54087 7.78259C6.63766 7.86689 6.7407 7.93558 6.85311 7.97617C6.60644 8.04486 6.3629 8.15102 6.12872 8.28528C6.05691 8.32587 6.08813 8.43516 6.16931 8.43516C6.33167 8.43203 6.48155 8.44452 6.61268 8.4695C6.32543 8.68807 6.08501 8.92537 5.91328 9.19389C5.87581 9.25321 5.93201 9.33127 6.0007 9.31254C6.30669 9.22511 6.60332 9.06275 6.8937 8.85355C6.88121 8.98781 6.84686 9.13144 6.80003 9.28756C6.77505 9.36562 6.87184 9.42494 6.93116 9.36874C7.12787 9.1814 7.2996 8.98157 7.43699 8.763C7.44323 8.88478 7.4807 9.00655 7.5369 9.12832C7.56188 9.18764 7.64306 9.19389 7.67741 9.14081C7.94905 8.72241 8.03336 8.32587 8.09268 7.98554C8.13327 7.78259 7.99589 7.59212 7.78981 7.57027ZM6.67825 3.35821C6.50652 3.37382 6.30982 3.36757 6.10062 3.3426C5.99446 3.33011 5.94138 3.46749 6.0288 3.52994C6.31606 3.73601 6.61268 3.90774 6.9218 4.02951C6.76568 4.06698 6.61893 4.14504 6.47842 4.24496C6.40973 4.29179 6.42222 4.39483 6.49716 4.42605C7.15285 4.69145 7.71488 4.68209 8.18635 4.67584C8.38931 4.67272 8.54542 4.50099 8.53293 4.29804C8.50483 3.87027 8.46736 3.38943 8.13952 2.65256C8.10517 2.5745 7.99589 2.56825 7.9553 2.64319C7.87099 2.78682 7.80855 2.93669 7.78357 3.08968C7.63994 2.78994 7.44635 2.50893 7.2153 2.2404C7.14661 2.15922 7.01547 2.22479 7.0342 2.32783C7.07479 2.53703 7.09977 2.72749 7.09665 2.90234C6.75007 2.59011 6.38788 2.34032 6.00383 2.18732C5.9164 2.15298 5.8321 2.24353 5.87269 2.32783C6.06003 2.69627 6.33792 3.03661 6.67825 3.35821ZM9.22297 4.62588C9.55394 4.58217 9.93175 4.51972 10.4813 4.23559C10.5437 4.20437 10.5437 4.11382 10.4813 4.08259C10.3595 4.02015 10.2346 3.97643 10.1066 3.96394C10.347 3.82968 10.5687 3.65795 10.7748 3.45812C10.8372 3.3988 10.7779 3.29264 10.6936 3.31449C10.525 3.35821 10.3689 3.38631 10.2253 3.39255C10.4657 3.09281 10.653 2.78682 10.7592 2.46521C10.7842 2.3934 10.703 2.32783 10.6374 2.3653C10.3439 2.53391 10.0785 2.77745 9.83183 3.07095C9.80998 2.93044 9.80685 2.7712 9.81934 2.59635C9.82559 2.50893 9.71006 2.47146 9.66323 2.5464C9.50711 2.78994 9.38221 3.03973 9.29479 3.30201C9.25732 3.17711 9.18551 3.06158 9.09808 2.94918C9.05749 2.8961 8.97319 2.90859 8.94821 2.97416C8.77023 3.48935 8.79209 3.92648 8.81707 4.29804C8.8358 4.50411 9.02002 4.65399 9.22297 4.62588ZM10.7248 5.29719C10.5812 5.33466 10.4469 5.35964 10.3252 5.36276C10.5312 5.10673 10.6905 4.84445 10.781 4.56968C10.8029 4.50723 10.7342 4.45103 10.678 4.48538C10.4251 4.62901 10.2003 4.8382 9.98795 5.08799C9.96922 4.96934 9.96922 4.83196 9.97546 4.68209C9.97858 4.60715 9.88179 4.57593 9.8412 4.63837C9.70694 4.84757 9.60078 5.05989 9.52896 5.2847C9.49462 5.17854 9.43529 5.07863 9.36036 4.98495C9.32289 4.93812 9.25108 4.95061 9.23234 5.00681C9.09184 5.41896 9.09808 5.77491 9.11681 6.0809C9.1293 6.28698 9.3104 6.43997 9.51648 6.41187C9.78812 6.3744 10.0972 6.31196 10.5375 6.08715C10.5906 6.05905 10.5906 5.98411 10.5375 5.95601C10.4344 5.90293 10.3283 5.86546 10.219 5.85297C10.422 5.73744 10.6124 5.59069 10.7904 5.41896C10.8466 5.36588 10.7966 5.27846 10.7248 5.29719ZM11.5429 4.80074C11.9831 4.74453 12.4702 4.69145 13.2165 4.3074C13.2914 4.26994 13.2914 4.16065 13.2165 4.12006C13.0666 4.04513 12.9167 3.99205 12.7606 3.97331C13.051 3.80783 13.3226 3.59863 13.5755 3.35509C13.6536 3.28015 13.5818 3.15213 13.4787 3.18023C13.2727 3.23331 13.0822 3.26766 12.9105 3.27703C13.204 2.91171 13.4319 2.53703 13.563 2.14361C13.5943 2.05306 13.4975 1.975 13.4163 2.02184C13.0541 2.22791 12.7294 2.52766 12.4296 2.88361C12.4047 2.71188 12.4015 2.51829 12.414 2.30597C12.4203 2.19981 12.2798 2.1561 12.2236 2.24353C12.0331 2.54015 11.8801 2.84614 11.7771 3.16462C11.7302 3.01163 11.6428 2.87112 11.5366 2.73374C11.4867 2.66817 11.3836 2.68378 11.3555 2.76496C11.1182 3.46125 11.1713 4.03888 11.2057 4.52285C11.215 4.6977 11.3712 4.81947 11.5429 4.80074ZM10.6093 6.4993C10.5812 6.45558 10.5156 6.45871 10.4938 6.50554C10.3158 6.88335 10.2908 7.21744 10.2783 7.5047C10.2565 7.97929 11.1276 7.76073 11.546 7.60149C11.596 7.58275 11.6022 7.51406 11.5585 7.48596C11.4711 7.42976 11.3805 7.38292 11.2837 7.36107C11.4773 7.27989 11.6615 7.16748 11.8395 7.03322C11.8926 6.99263 11.8582 6.90833 11.7896 6.91769C11.6584 6.93643 11.5366 6.94579 11.4274 6.93643C11.6366 6.73035 11.8052 6.51179 11.9176 6.27449C11.9425 6.22141 11.8863 6.16521 11.8333 6.18706C11.5928 6.2901 11.3712 6.45246 11.1557 6.65542C11.1526 6.54613 11.1651 6.42436 11.1869 6.29322C11.1994 6.22765 11.1151 6.19018 11.0714 6.24014C10.9309 6.41187 10.8123 6.59297 10.7248 6.78343C10.7092 6.68664 10.6686 6.59297 10.6093 6.4993ZM14.5403 6.77406C14.2843 6.81466 14.0314 6.91769 13.7754 7.06132C13.7972 6.95516 13.8378 6.83963 13.894 6.72098C13.9221 6.66166 13.8503 6.60233 13.7972 6.64293C13.6193 6.77406 13.4631 6.92081 13.332 7.08318C13.3382 6.98326 13.3195 6.88022 13.2852 6.78031C13.2695 6.73035 13.2071 6.71786 13.1728 6.75845C12.9105 7.08006 12.8043 7.39541 12.7231 7.67018C12.6794 7.82005 12.7668 7.97617 12.9198 8.01052C13.1696 8.06984 13.4538 8.12292 13.9221 8.06984C13.9752 8.0636 13.9971 8.00115 13.9627 7.96056C13.8909 7.8825 13.816 7.82005 13.7285 7.77634C13.9346 7.74512 14.1407 7.67955 14.3405 7.59212C14.403 7.56714 14.3874 7.47659 14.3218 7.46723C14.1906 7.45474 14.072 7.43288 13.969 7.39854C14.2187 7.24866 14.4373 7.08006 14.5997 6.88022C14.6371 6.83339 14.5997 6.7647 14.5403 6.77406ZM11.9301 8.53195C12.1705 8.57879 12.7793 8.58503 12.7013 8.29777C12.6576 8.14166 12.6045 7.9668 12.4328 7.72326C12.414 7.69516 12.3703 7.7014 12.3609 7.73263C12.3391 7.79507 12.3266 7.85752 12.3297 7.91997C12.2485 7.81381 12.1517 7.72014 12.0425 7.63271C12.0081 7.60773 11.9644 7.64208 11.98 7.67955C12.0112 7.75761 12.0362 7.82942 12.0487 7.89811C11.8895 7.80444 11.7302 7.73263 11.571 7.70453C11.5335 7.69828 11.5085 7.73887 11.5304 7.7701C11.6303 7.90123 11.7646 8.01052 11.9207 8.11043C11.8551 8.12917 11.7802 8.14166 11.6959 8.1479C11.6553 8.15102 11.6428 8.20723 11.6834 8.22596C11.8114 8.28528 11.9394 8.329 12.0674 8.35085C12.0112 8.37896 11.9582 8.41955 11.9113 8.46638C11.8863 8.48824 11.8988 8.52571 11.9301 8.53195ZM9.8412 6.98951C9.68508 7.05508 9.53833 7.15811 9.3947 7.28925C9.3947 7.21744 9.40095 7.13938 9.41656 7.05508C9.42593 7.01136 9.36972 6.98638 9.34162 7.02073C9.24795 7.13314 9.16989 7.24866 9.11057 7.37043C9.09808 7.30799 9.0731 7.24866 9.03876 7.18934C9.02002 7.15811 8.97631 7.16124 8.96382 7.19558C8.84205 7.47972 8.82331 7.67018 8.81395 7.83567C8.8077 7.9387 8.88888 8.02301 8.99192 8.02301C9.17926 8.02301 9.39783 8.01676 9.64761 7.91372C9.67884 7.90123 9.68196 7.85752 9.65386 7.83879C9.59453 7.7982 9.53521 7.76697 9.47276 7.75136C9.60078 7.69828 9.71943 7.62959 9.83808 7.54216C9.87242 7.51718 9.85057 7.46098 9.80685 7.46723C9.71943 7.47972 9.64137 7.48284 9.56956 7.47659C9.70694 7.34233 9.81934 7.20183 9.89428 7.05195C9.91301 7.01136 9.87555 6.9739 9.8412 6.98951ZM14.6465 4.18563C14.3343 4.31989 14.0439 4.53221 13.766 4.79449C13.7598 4.65398 13.7754 4.49474 13.8066 4.32302C13.8222 4.23559 13.7129 4.18875 13.6567 4.25432C13.4725 4.47913 13.3195 4.71331 13.2071 4.9631C13.1821 4.83508 13.1259 4.71019 13.051 4.59154C13.0166 4.53534 12.9292 4.53846 12.9011 4.59778C12.6388 5.14732 12.6326 5.63128 12.6139 6.03094C12.6076 6.16521 12.7138 6.27137 12.848 6.27137C13.2165 6.26824 13.6193 6.27137 14.2749 6.0247C14.3405 5.99972 14.3499 5.91229 14.2906 5.8717C14.175 5.79677 14.0595 5.73744 13.9346 5.70934C14.1875 5.60318 14.4279 5.45643 14.6559 5.28158C14.7246 5.2285 14.6777 5.11609 14.5934 5.12858C14.4217 5.15356 14.2625 5.16293 14.122 5.15356C14.3936 4.88504 14.6153 4.6009 14.7589 4.29179C14.7901 4.22934 14.7183 4.15753 14.6465 4.18563Z" fill="#3DCA6C"/>
</g>
</g>
</svg>
