<svg width="19" height="20" viewBox="0 0 19 20" fill="none" xmlns="http://www.w3.org/2000/svg">
<g id="Chamomile" clip-path="url(#clip0_1248_21458)">
<g id="Group">
<path id="Vector" d="M12.2282 9.44261H16.816C18.0054 9.44261 18.8584 8.29901 18.5287 7.16294C18.1444 5.8384 16.7048 5.45372 15.7472 6.14945L12.0293 8.85038C12.1152 9.0386 12.1859 9.23483 12.2282 9.44261Z" fill="#CA3C3D"/>
<path id="Vector_2" d="M9.5 11.668C10.4223 11.668 11.1699 10.9203 11.1699 9.99805C11.1699 9.07577 10.4223 8.32812 9.5 8.32812C8.57773 8.32812 7.83008 9.07577 7.83008 9.99805C7.83008 10.9203 8.57773 11.668 9.5 11.668Z" fill="#CA3C3D"/>
<path id="Vector_3" d="M6.77398 10.5566H2.18619C1.02069 10.5566 0.101345 11.6821 0.499491 12.9213C0.900384 14.1583 2.30631 14.5393 3.25527 13.8499L6.97296 11.1489C6.88698 10.9607 6.81629 10.7644 6.77398 10.5566ZM15.7143 13.8265C16.7059 14.547 18.1169 14.0935 18.5004 12.9263L18.5017 12.9224C18.9074 11.6834 17.9887 10.5566 16.8245 10.5566H12.2278C12.1854 10.7644 12.1148 10.9607 12.0288 11.1489L15.7143 13.8265ZM6.97293 8.85113L3.2873 6.17336C2.29584 5.45303 0.88502 5.90621 0.501346 7.07315L0.500048 7.07712C0.0927722 8.32121 1.01802 9.44336 2.17784 9.44336H6.77398C6.81629 9.23558 6.88698 9.03939 6.97293 8.85113ZM15.0578 2.3453C14.0668 1.62315 12.6589 2.08171 12.2808 3.24543L10.8687 7.59105C11.0497 7.69421 11.2185 7.81344 11.3712 7.95308L15.0709 5.2654C16.0605 4.54652 16.0589 3.06622 15.0649 2.35038C15.0625 2.34871 15.0602 2.34701 15.0578 2.3453ZM11.3712 12.0469C11.2185 12.1866 11.0496 12.3058 10.8687 12.409L12.2806 16.7539C12.6492 17.8885 14.0516 18.4264 15.13 17.6012C16.073 16.8796 16.0558 15.4503 15.0943 14.7518L11.3712 12.0469ZM9.8096 12.752C9.70685 12.7635 9.60658 12.7832 9.50085 12.7832C9.39513 12.7832 9.29482 12.7635 9.1921 12.752L7.76922 17.131C7.38963 18.2991 8.29535 19.5 9.50085 19.5H9.50527C10.6474 19.4984 11.6153 18.3089 11.2215 17.0971L9.8096 12.752ZM7.63047 7.95308C7.78321 7.81344 7.95206 7.69421 8.13296 7.59105L6.709 3.20895C6.3424 2.08079 4.98898 1.62185 4.01197 2.29684C2.89019 3.07187 2.97487 4.57064 3.9376 5.27008L7.63047 7.95308ZM6.70989 16.7887L8.13296 12.409C7.95209 12.3058 7.78325 12.1866 7.63047 12.0469L3.93077 14.7348C2.94132 15.4536 2.94285 16.9337 3.93678 17.6496L3.94038 17.6522C4.98509 18.4158 6.34667 17.9065 6.70989 16.7887ZM9.19207 7.24804C9.29482 7.2365 9.39509 7.2168 9.50082 7.2168C9.60654 7.2168 9.70685 7.2365 9.80957 7.24804L11.2325 2.86906C11.6121 1.70093 10.7064 0.5 9.50085 0.5C8.29777 0.5 7.38848 1.69763 7.76918 2.86914L9.19207 7.24804Z" fill="#CA3C3D"/>
</g>
</g>
<defs>
<clipPath id="clip0_1248_21458">
<rect width="19" height="19" fill="white" transform="translate(0 0.5)"/>
</clipPath>
</defs>
</svg>
