<svg width="19" height="20" viewBox="0 0 19 20" fill="none" xmlns="http://www.w3.org/2000/svg">
<g id="cherries 1">
<g id="Group">
<path id="Vector" d="M9.87369 15.0281C8.87781 17.4848 7.12319 18.0005 5.82663 18.0005C5.45579 18.0005 5.07183 17.9591 4.68535 17.8776C3.29774 17.5847 0.985658 16.5842 1.09139 13.1743C1.15032 11.2851 2.36819 10.0839 3.47485 9.76745C3.69389 9.70482 3.91386 9.67302 4.1287 9.67302C4.89733 9.67302 5.59404 10.0832 6.09042 10.828C6.10116 10.8439 6.11566 10.857 6.13264 10.8659C6.14961 10.8749 6.16855 10.8796 6.18775 10.8794C6.20944 10.8795 6.23069 10.8733 6.24899 10.8617C6.71227 10.5667 7.18506 10.4173 7.6544 10.4173C8.16323 10.4173 8.65288 10.6011 9.0704 10.949C9.95495 11.6857 10.5835 13.2764 9.87369 15.0281ZM17.8538 12.6787C17.6088 10.8042 16.278 9.72976 15.1453 9.52472C15.0009 9.49823 14.8544 9.48474 14.7076 9.48439C13.8432 9.48439 13.1113 9.96563 12.6468 10.8397C12.637 10.8582 12.6223 10.8736 12.6044 10.8843C12.5864 10.895 12.5659 10.9005 12.545 10.9004C12.5268 10.9004 12.5094 10.8962 12.4926 10.8876C12.0798 10.6795 11.6676 10.5741 11.2674 10.5741C10.6972 10.5741 10.169 10.7937 9.73986 11.2093C9.72542 11.2233 9.71652 11.242 9.71482 11.2621C9.71312 11.2821 9.71873 11.3021 9.73061 11.3183C10.4833 12.3479 10.6205 13.8028 10.0884 15.1153C9.96984 15.4086 9.83323 15.6897 9.68249 15.951C9.67467 15.9646 9.67083 15.98 9.67141 15.9957C9.67199 16.0113 9.67697 16.0265 9.68577 16.0394C10.5582 17.3215 11.7251 17.9716 13.154 17.9716C13.6702 17.9716 14.2047 17.8851 14.7429 17.7144C16.0946 17.2861 18.2963 16.0622 17.8538 12.6787ZM5.91378 10.1757C5.90937 10.1898 5.90881 10.2048 5.91213 10.2192C5.91546 10.2336 5.92256 10.2469 5.9327 10.2576C6.01947 10.3497 6.10091 10.4466 6.1766 10.548C6.18872 10.5642 6.20634 10.5755 6.22615 10.5797C6.24597 10.5838 6.26664 10.5806 6.28428 10.5707C6.44355 10.4807 6.61027 10.4046 6.78259 10.3432C6.79465 10.3389 6.80556 10.3319 6.81448 10.3227C6.82339 10.3136 6.83007 10.3025 6.83399 10.2903C7.62554 7.8355 8.8718 6.07477 10.7555 4.74962C10.7754 4.7361 10.7989 4.72891 10.823 4.72896C10.8437 4.72896 10.8636 4.73422 10.8811 4.74448C10.9003 4.75552 10.9158 4.7719 10.9259 4.79162C10.9359 4.81135 10.94 4.83356 10.9376 4.85556C10.7529 6.77868 11.0496 8.58436 11.8446 10.3757C11.8551 10.3994 11.876 10.4168 11.9013 10.4229C12.077 10.4651 12.2546 10.5253 12.4292 10.6019C12.4477 10.61 12.4686 10.6112 12.4879 10.605C12.5072 10.5989 12.5236 10.5859 12.534 10.5685C12.5978 10.4627 12.6675 10.3606 12.7429 10.2627C12.7522 10.2506 12.758 10.2362 12.7597 10.2211C12.7614 10.2059 12.7589 10.1906 12.7524 10.1768C11.795 8.11603 11.5617 6.08664 12.0182 3.78999C12.0523 3.61562 11.9817 3.43573 11.8384 3.3318C11.7604 3.27496 11.6663 3.24447 11.5698 3.24478C11.492 3.24478 11.4151 3.26472 11.3472 3.30249C8.62802 4.82318 6.90154 7.00719 5.91378 10.1757ZM6.58172 4.99099C7.00294 5.21744 7.44179 5.33226 7.88606 5.33226C8.05203 5.33235 8.2176 5.31596 8.38034 5.28335C8.39716 5.27998 8.41251 5.27149 8.42433 5.25904C8.6655 5.00511 8.91856 4.76274 9.18266 4.53276C9.19564 4.52146 9.2048 4.50641 9.20888 4.48969C9.21295 4.47297 9.21175 4.4554 9.20544 4.43939C9.19912 4.42338 9.188 4.40972 9.1736 4.40029C9.1592 4.39086 9.14224 4.38612 9.12504 4.38673C9.07558 4.38845 9.02527 4.38976 8.97476 4.39018H8.9547C8.47972 4.39018 7.98044 4.3183 7.51156 4.18249C7.49684 4.17822 7.48311 4.17107 7.47116 4.16146C7.45921 4.15185 7.44929 4.13997 7.44196 4.12651C7.43453 4.11324 7.42986 4.0986 7.42822 4.08348C7.42659 4.06837 7.42803 4.05307 7.43245 4.03852C7.43661 4.02374 7.44373 4.00996 7.45336 3.998C7.463 3.98605 7.47496 3.97617 7.48851 3.96896C7.5051 3.95965 7.5238 3.95478 7.54281 3.95482C7.55379 3.95482 7.56489 3.95642 7.57575 3.95958C8.01089 4.08613 8.50353 4.15587 8.9629 4.15587C9.21096 4.15587 9.44271 4.13614 9.65158 4.09719C9.67121 4.09353 9.68888 4.08294 9.70136 4.06734C9.71384 4.05175 9.72031 4.03219 9.71959 4.01223C9.70327 3.57309 9.45373 2.92008 8.80379 2.5251C8.18018 2.14678 7.64153 2.09829 7.24196 2.09829C7.01922 2.09829 6.09774 2.16928 5.84943 2.16928C5.44053 2.16928 5.08466 2.11642 4.72813 2.0071C4.70045 1.99861 4.66941 2.00862 4.65515 2.01875C4.64471 2.02618 4.63612 2.03591 4.63005 2.04719C4.62398 2.05848 4.62059 2.07101 4.62016 2.08382C4.61747 2.1647 4.62571 2.34396 4.71164 2.63547C4.93977 3.41125 5.55089 4.43741 6.58172 4.99099Z" fill="#CA3C3D"/>
</g>
</g>
</svg>
