<svg width="20" height="20" viewBox="0 0 20 20" fill="none" xmlns="http://www.w3.org/2000/svg">
<g id="Chestnut">
<g id="Group">
<path id="Vector" d="M15.1915 14.1242C15.0613 14.1405 14.9352 14.148 14.8126 14.148C14.1581 14.148 13.6003 13.9347 13.015 13.7109C12.2489 13.418 11.3805 13.0859 9.99927 13.0859C8.61729 13.0859 7.74905 13.4182 6.98299 13.7114C6.28912 13.9769 5.63359 14.2278 4.81049 14.1241C4.18971 14.0459 3.52806 13.7758 2.74023 13.2705C3.37555 15.2117 5.20372 16.6179 7.35448 16.6179C7.8519 16.6179 8.92846 16.6171 10.0044 16.6163C11.079 16.6156 12.153 16.6148 12.6487 16.6148C14.7951 16.6148 16.6199 15.2135 17.2574 13.2779C16.4716 13.7787 15.8112 14.0465 15.1915 14.1242Z" fill="#CA3C3D"/>
<path id="Vector_2" d="M4.92161 13.2529C5.52655 13.3293 6.03127 13.1359 6.67024 12.8914C7.46595 12.5869 8.45623 12.2079 10.0006 12.2079C11.5441 12.2079 12.5345 12.5866 13.3303 12.8909C13.9705 13.1357 14.4761 13.3291 15.0836 13.253C15.7267 13.1724 16.4966 12.7878 17.4924 12.0475C17.4978 11.954 17.5009 11.8598 17.5009 11.7649C17.5009 10.9835 17.2139 10.0806 16.6927 9.22263C16.1568 8.34033 15.4228 7.56868 14.5701 6.99111C14.2797 6.79442 13.9958 6.60831 13.7213 6.42829C12.4226 5.57687 11.3011 4.84154 10.3553 3.56133C10.3143 3.506 10.261 3.46102 10.1995 3.43002C10.1381 3.39901 10.0702 3.38285 10.0014 3.38281C9.93255 3.38285 9.86468 3.39901 9.80322 3.43002C9.74177 3.46102 9.68843 3.506 9.6475 3.56133C8.70166 4.84152 7.58011 5.57687 6.28144 6.42832C6.00692 6.60834 5.72303 6.79442 5.43269 6.99111C4.57995 7.56868 3.84594 8.34033 3.31002 9.22263C2.78895 10.0806 2.50195 10.9835 2.50195 11.7649C2.50195 11.8568 2.50477 11.948 2.50983 12.0386C3.50788 12.7847 4.2783 13.1719 4.92161 13.2529Z" fill="#CA3C3D"/>
</g>
</g>
</svg>
