<svg width="20" height="20" viewBox="0 0 20 20" fill="none" xmlns="http://www.w3.org/2000/svg">
<g id="Chia-Seeds">
<g id="Group">
<path id="Vector" d="M12.0781 17.2242C12.0781 17.4246 12.0333 17.6137 11.9564 17.7859C11.3235 17.538 10.8906 16.9237 10.8906 16.2344H10.2969C10.2969 17.1114 10.8111 17.904 11.5835 18.276C11.3419 18.4808 11.0337 18.6094 10.6929 18.6094C10.4459 18.6092 10.2035 18.5431 9.99059 18.4179C9.7777 18.2927 9.60211 18.113 9.48195 17.8972L9.17647 17.3468C8.74356 16.5666 8.51616 15.6891 8.51562 14.7969C8.51562 14.6173 8.54116 14.4421 8.58747 14.2735C8.98442 14.4057 9.33214 14.6548 9.58497 14.9881L9.7625 15.225L10.2375 14.8691L10.0603 14.6324C9.74815 14.2173 9.32175 13.9022 8.83328 13.7258C8.9075 13.6121 8.9933 13.5046 9.09156 13.4064C9.22999 13.2672 9.39466 13.1568 9.57602 13.0817C9.75738 13.0066 9.95184 12.9682 10.1481 12.9688C10.6831 12.9688 11.1801 13.2573 11.4455 13.7216C11.8597 14.4474 12.0778 15.2686 12.0781 16.1044V17.2242ZM6.14062 13.461C6.14137 13.7366 6.08744 14.0097 5.98196 14.2644C5.87647 14.5191 5.72153 14.7503 5.52609 14.9448C5.39985 15.0716 5.24971 15.1722 5.08435 15.2407C4.919 15.3092 4.74171 15.3442 4.56273 15.3438C4.32632 15.3438 4.094 15.2821 3.88871 15.1648C3.68343 15.0476 3.51227 14.8788 3.39216 14.6752C3.72844 14.342 4.18288 14.1555 4.65625 14.1563V13.5625C4.1092 13.5621 3.57867 13.75 3.15377 14.0945C2.96978 13.5469 2.87564 12.9732 2.875 12.3955V11.5203C2.875 11.1931 3.00236 10.8862 3.23333 10.6552C3.4643 10.4242 3.77186 10.2969 4.09842 10.2969C4.62152 10.2969 5.11106 10.5175 5.459 10.8951C4.35403 10.9417 3.46875 11.8525 3.46875 12.9688H4.0625C4.0625 12.1503 4.72839 11.4844 5.54688 11.4844H5.84612C6.03994 11.8854 6.14061 12.325 6.14062 12.7704V13.461ZM7.625 9.7058C7.625 9.26791 7.86814 8.87455 8.26002 8.67862L9.47572 8.07091C10.0621 7.77837 10.7083 7.62574 11.3635 7.62501C11.553 7.62524 11.7346 7.7006 11.8686 7.83456C12.0025 7.96852 12.0779 8.15014 12.0781 8.33958C12.0781 8.94818 11.8412 9.52026 11.4107 9.95073C11.1042 10.2578 10.7383 10.4992 10.3355 10.6603L10.2868 10.6214C10.1042 10.4759 9.95692 10.291 9.85585 10.0806C9.75478 9.87021 9.70257 9.63968 9.70312 9.40626H9.10938C9.10938 9.94568 9.31036 10.4527 9.66542 10.8449C9.49353 10.8728 9.31897 10.8906 9.14144 10.8906C8.94372 10.8906 8.74422 10.871 8.54828 10.8321C8.28825 10.7794 8.05438 10.6385 7.88617 10.4333C7.71796 10.2281 7.62572 9.97114 7.625 9.7058ZM6.68212 7.12388C6.56119 7.28036 6.40591 7.40693 6.22826 7.49382C6.05061 7.58072 5.85537 7.6256 5.65761 7.62501C5.31339 7.62469 4.98336 7.48781 4.73997 7.24442C4.49657 7.00102 4.35969 6.67099 4.35938 6.32677C4.35938 6.29501 4.36264 6.26354 4.36412 6.23177C4.63218 6.17326 4.90558 6.14271 5.17994 6.14063C5.47622 6.14063 5.74252 6.3054 5.87492 6.57021L6.40603 6.30451C6.29283 6.0763 6.11797 5.88436 5.90127 5.75046C5.68456 5.61655 5.43468 5.54603 5.17994 5.54688C4.94452 5.54688 4.70939 5.56737 4.47694 5.60358C4.58909 5.26239 4.77987 4.95233 5.03387 4.69841L6.21692 3.51537C6.32555 3.40613 6.45477 3.31953 6.5971 3.26057C6.73943 3.20161 6.89204 3.17146 7.04609 3.17188C7.29458 3.17188 7.52406 3.25055 7.71406 3.38296L7.28894 3.74752C7.11494 3.89653 6.97528 4.08144 6.87955 4.28956C6.78382 4.49767 6.73429 4.72405 6.73438 4.95313H7.32812C7.32812 4.66249 7.45459 4.38729 7.67517 4.19848L8.09792 3.83629C8.17303 3.99037 8.21875 4.16166 8.21875 4.34454C8.21875 4.86288 8.04359 5.37351 7.72534 5.7826L6.68212 7.12388ZM11.1186 2.35251L11.5429 1.84337C11.6609 1.70149 11.8087 1.58737 11.9758 1.50912C12.1429 1.43087 12.3252 1.39042 12.5098 1.39063C12.7614 1.38981 13.0075 1.46483 13.2159 1.60591C13.4242 1.74698 13.5853 1.94756 13.678 2.18151C13.798 2.48126 13.8596 2.8012 13.8594 3.12408V4.07587C13.8588 4.29204 13.8025 4.50442 13.6961 4.69255C13.5896 4.88067 13.4364 5.0382 13.2514 5.14996C13.2318 5.16183 13.2104 5.16985 13.1908 5.18113C12.8504 4.56616 12.6718 3.87478 12.6719 3.17188V2.87501H12.0781V3.17188C12.0781 3.95919 12.2732 4.7278 12.6431 5.41715C12.3762 5.50172 12.098 5.54546 11.8181 5.54688C11.6684 5.54648 11.5209 5.51146 11.387 5.44456C11.2532 5.37766 11.1366 5.28069 11.0465 5.16124C10.7535 4.7687 10.5948 4.29225 10.5938 3.80244C10.5938 3.27371 10.7802 2.75863 11.1186 2.35251ZM16.6883 13.3977C16.5274 13.5055 16.3381 13.5629 16.1444 13.5625C16.0349 13.5625 15.9256 13.5563 15.817 13.5483L15.8084 13.5313C15.6985 13.3116 15.6406 13.0658 15.6406 12.8203C15.6406 12.5748 15.6985 12.329 15.8084 12.1093L15.906 11.914L15.3749 11.6483L15.2773 11.8436C15.1262 12.1471 15.0474 12.4813 15.0469 12.8203C15.0469 13.0305 15.0813 13.2401 15.1413 13.4417C14.481 13.2872 13.8656 12.9814 13.3437 12.5484L13.2879 12.5021C13.1818 12.4138 13.0977 12.302 13.0425 12.1756C12.9872 12.0491 12.9623 11.9115 12.9696 11.7737C12.977 11.6359 13.0164 11.5017 13.0848 11.3818C13.1532 11.262 13.2487 11.1597 13.3636 11.0833C13.5518 10.9575 13.7731 10.8905 13.9995 10.8906H15.304C15.6644 10.8906 16.0185 10.9886 16.3279 11.1741C16.5704 11.3207 16.7711 11.5271 16.9107 11.7737C17.0503 12.0202 17.1241 12.2986 17.125 12.5819C17.125 12.9106 16.9617 13.2155 16.6883 13.3977Z" fill="#CA3C3D"/>
</g>
</g>
</svg>
