<svg width="19" height="20" viewBox="0 0 19 20" fill="none" xmlns="http://www.w3.org/2000/svg">
<g id="cinnamon 1" clip-path="url(#clip0_1248_21463)">
<g id="Group">
<path id="Vector" d="M17.969 2.80521C18.1177 2.87654 18.2493 2.97913 18.3547 3.10599C18.46 3.23284 18.5368 3.38096 18.5797 3.54022C18.8227 4.28988 18.5093 4.78121 18.131 5.21121C17.9692 5.13395 17.7971 5.0804 17.62 5.05222C16.8127 4.92455 16.011 5.31255 15.5017 5.63988C14.9973 4.52455 13.3433 4.11621 12.2247 4.93988L6.454 9.33988C6.59629 8.99274 6.64891 8.61538 6.60703 8.24256C6.56514 7.86974 6.4301 7.51346 6.21434 7.20655C6.06814 7.01977 5.89048 6.85992 5.68934 6.73421C6.57934 6.40921 16.1227 2.92421 16.0823 2.94021C16.8087 2.64455 17.5147 2.59388 17.969 2.80521ZM4.60167 13.5575C4.1005 13.6587 3.65124 13.9338 3.33334 14.3342C3.00743 13.9231 2.54378 13.6438 2.028 13.5479L12.624 5.47288C13.393 4.90822 14.611 5.14188 14.9433 6.03955L4.60167 13.5575ZM13.7627 1.36021C14.579 1.05621 15.5477 1.58621 15.6167 2.40055L4.65567 6.40055C4.20345 6.36651 3.7531 6.48735 3.37867 6.74321C3.19896 6.32707 2.88393 5.98385 2.48467 5.76922L13.7627 1.36021ZM2.23934 10.7239C1.02634 10.3742 -0.182329 8.99621 0.0226708 7.57855C0.135004 6.80355 0.640671 6.16255 1.44934 6.16255C1.71901 6.16046 1.9838 6.2344 2.21338 6.37589C2.44295 6.51739 2.62801 6.72071 2.74734 6.96255C2.7992 7.07 2.82749 7.18729 2.83029 7.30657C2.8331 7.42585 2.81036 7.54435 2.7636 7.65411C2.71685 7.76388 2.64716 7.86238 2.55921 7.943C2.47126 8.02362 2.36708 8.0845 2.25367 8.12155C2.06874 8.18921 1.86536 8.18629 1.68245 8.11335C1.49954 8.04041 1.34996 7.90257 1.26234 7.72621C1.2243 7.64725 1.1567 7.58645 1.07417 7.55696C0.991631 7.52748 0.900803 7.53168 0.821346 7.56867C0.74189 7.60566 0.680198 7.67246 0.649627 7.7546C0.619056 7.83674 0.622066 7.92761 0.658004 8.00755C0.81866 8.33358 1.09365 8.58912 1.43058 8.72546C1.76751 8.86181 2.14282 8.86943 2.485 8.74688C2.61812 8.6979 2.7443 8.63179 2.86034 8.55021C2.91567 8.68121 2.98734 8.80455 3.07434 8.91688C3.29862 9.20282 3.62031 9.39621 3.97806 9.46014C4.3358 9.52408 4.70456 9.4541 5.014 9.26355C5.08567 9.21441 5.13531 9.13923 5.15236 9.05403C5.16941 8.96882 5.15251 8.88033 5.10527 8.8074C5.05803 8.73447 4.98417 8.68288 4.89945 8.6636C4.81472 8.64433 4.72581 8.6589 4.65167 8.70422C4.48345 8.80614 4.28364 8.84268 4.09024 8.80692C3.89683 8.77115 3.72331 8.66556 3.60267 8.51021C3.52616 8.41861 3.47007 8.31174 3.43815 8.19673C3.40624 8.08172 3.39923 7.96123 3.41759 7.8433C3.43595 7.72536 3.47926 7.6127 3.54463 7.51284C3.61001 7.41298 3.69593 7.32822 3.79667 7.26421C4.09917 7.07985 4.45893 7.01326 4.80738 7.07713C5.15582 7.141 5.46857 7.33088 5.686 7.61055C5.84306 7.85003 5.93439 8.1266 5.95083 8.41251C5.96727 8.69843 5.90824 8.98364 5.77967 9.23955C5.20367 10.5509 3.45067 11.0735 2.23934 10.7239ZM3.33334 18.8342C1.938 18.8342 0.235004 17.7442 0.0213374 16.1802C-0.0373763 15.8678 -0.0126703 15.5454 0.0929638 15.2456C0.198598 14.9458 0.381424 14.6792 0.623004 14.4725C0.899671 14.2725 1.23334 14.1655 1.575 14.1675C1.79814 14.1649 2.01926 14.21 2.22356 14.2997C2.42787 14.3894 2.61065 14.5218 2.75967 14.6879C2.84932 14.7882 2.91645 14.9065 2.95653 15.0349C2.99662 15.1633 3.00873 15.2988 2.99205 15.4322C2.97538 15.5657 2.9303 15.6941 2.85986 15.8087C2.78941 15.9232 2.69524 16.0214 2.58367 16.0965C2.40297 16.2278 2.1804 16.2882 1.95812 16.2664C1.73585 16.2445 1.52932 16.1419 1.37767 15.9779C1.31892 15.9137 1.2374 15.8751 1.15053 15.8702C1.06367 15.8653 0.978333 15.8946 0.912755 15.9517C0.847178 16.0089 0.806555 16.0895 0.799564 16.1762C0.792573 16.2629 0.819766 16.3489 0.875337 16.4159C1.13837 16.7034 1.49775 16.8844 1.88535 16.9247C2.27295 16.9649 2.66185 16.8616 2.97834 16.6342C3.11259 16.5358 3.23213 16.4187 3.33334 16.2865C3.43467 16.4189 3.554 16.5359 3.68834 16.6342C4.00477 16.8617 4.39371 16.9651 4.78135 16.9249C5.16899 16.8847 5.52838 16.7035 5.79134 16.4159C5.84691 16.3489 5.8741 16.2629 5.86711 16.1762C5.86012 16.0895 5.8195 16.0089 5.75392 15.9517C5.68834 15.8946 5.60301 15.8653 5.51614 15.8702C5.42927 15.8751 5.34776 15.9137 5.289 15.9779C5.13738 16.142 4.93078 16.2448 4.70841 16.2666C4.48603 16.2885 4.26337 16.228 4.08267 16.0965C3.97113 16.0214 3.87698 15.9232 3.80657 15.8086C3.73616 15.694 3.69111 15.5656 3.67447 15.4322C3.65783 15.2987 3.66997 15.1632 3.71008 15.0348C3.75019 14.9064 3.81734 14.7881 3.907 14.6879C4.17534 14.3971 4.54097 14.2147 4.93471 14.1752C5.32845 14.1358 5.72299 14.242 6.04367 14.4739C6.28495 14.6807 6.46746 14.9474 6.5728 15.2472C6.67813 15.547 6.70258 15.8693 6.64367 16.1815C6.43334 17.7442 4.72867 18.8342 3.33334 18.8342ZM18.3683 8.35188C18.009 9.07088 16.8703 9.83821 16.1903 10.2969C14.8183 11.2209 10.0607 14.8092 7.20767 16.7159C7.251 16.5699 7.28367 16.4212 7.30567 16.2705C7.38368 15.8393 7.3444 15.3951 7.19193 14.9843C7.03947 14.5735 6.77943 14.2111 6.439 13.9352C6.2167 13.773 5.96607 13.6538 5.7 13.5835C10.1493 10.3482 15.5953 6.38622 15.5387 6.43021C16.227 5.89288 16.9663 5.62488 17.5167 5.71088C17.8827 5.77288 18.2033 5.99088 18.3953 6.30855C18.9233 7.08855 18.6717 7.74555 18.3683 8.35188Z" fill="#CA3C3D"/>
</g>
</g>
<defs>
<clipPath id="clip0_1248_21463">
<rect width="19" height="19" fill="white" transform="translate(0 0.5)"/>
</clipPath>
</defs>
</svg>
