<svg width="19" height="20" viewBox="0 0 19 20" fill="none" xmlns="http://www.w3.org/2000/svg">
<g id="cloves 1" clip-path="url(#clip0_1248_21466)">
<g id="Group">
<path id="Vector" d="M16.1647 17.6357L7.8377 15.2029C7.01574 16.4048 5.599 17.107 4.27725 17.107C4.0666 17.107 3.86008 17.0905 3.65768 17.0533C3.47181 17.0203 3.40573 16.7807 3.54616 16.6485L5.00834 15.3061L4.04595 12.927C4.02526 12.876 4.02347 12.8192 4.04088 12.767C4.0583 12.7147 4.09378 12.6704 4.14095 12.642L6.32595 11.2913L5.94182 9.34176C5.90465 9.15176 6.10291 8.99893 6.27226 9.08154C7.61465 9.74242 8.5977 11.3533 8.54401 13.0385L8.52335 13.0303L8.54401 13.0426L15.1403 15.4424L16.1647 17.6357Z" fill="#CA3C3D"/>
<path id="Vector_2" d="M3.28177 13.2399L4.02938 15.0904L3.04633 15.9908C2.82329 15.966 2.60024 15.9164 2.3772 15.8462C0.563932 15.2556 -0.419115 13.3101 0.17154 11.501C0.330861 11.016 0.595859 10.5724 0.947413 10.2022C1.29897 9.83198 1.72831 9.54445 2.20446 9.36031C2.68062 9.17617 3.19171 9.10002 3.70086 9.13735C4.21001 9.17469 4.70453 9.32458 5.14873 9.5762L5.40482 10.8938L3.7072 11.943C3.49323 12.0728 3.33275 12.2749 3.25473 12.5128C3.17671 12.7506 3.1863 13.0085 3.28177 13.2399ZM18.5025 18.8078C18.3063 18.8903 18.0858 18.8943 17.8868 18.819C17.6877 18.7437 17.5251 18.5947 17.4327 18.403L13.327 9.60925C13.1577 9.6299 12.9883 9.63816 12.819 9.63816C11.2833 9.63816 9.81077 8.81207 9.12842 7.61011C9.11154 7.58091 9.10305 7.54762 9.10387 7.5139C9.10469 7.48019 9.11479 7.44735 9.13306 7.419C9.15133 7.39065 9.17707 7.36789 9.20744 7.35322C9.23781 7.33855 9.27164 7.33254 9.3052 7.33585L11.3816 7.55642L12.5563 5.22312C12.5755 5.18497 12.6076 5.15482 12.6469 5.13797C12.6862 5.12112 12.7301 5.11866 12.7711 5.13102L15.2683 5.89184C15.2939 5.86045 16.1481 4.75308 16.5488 4.2343C16.6405 4.11493 16.8255 4.15499 16.8685 4.29956C17.298 5.74604 16.7706 7.60185 15.417 8.71707L18.9486 17.7504C19.096 18.1271 18.9271 18.6268 18.5025 18.8078Z" fill="#CA3C3D"/>
<path id="Vector_3" d="M15.7803 3.8773C15.5366 4.19121 15.2103 4.61252 14.9625 4.93056L13.0088 4.33578C12.9138 4.30686 12.8188 4.29447 12.7196 4.29447C12.3355 4.29447 11.9885 4.50513 11.8192 4.84795L10.9022 6.66948L9.57223 6.52905C9.44419 6.34731 9.33267 6.14491 9.2418 5.93426C8.49006 4.17882 9.29962 2.1549 11.0468 1.40729C12.8022 0.659679 14.8262 1.46925 15.5738 3.22056C15.6646 3.43534 15.7349 3.65425 15.7803 3.8773Z" fill="#CA3C3D"/>
</g>
</g>
<defs>
<clipPath id="clip0_1248_21466">
<rect width="19" height="19" fill="white" transform="translate(0 0.5)"/>
</clipPath>
</defs>
</svg>
