<svg width="20" height="20" viewBox="0 0 20 20" fill="none" xmlns="http://www.w3.org/2000/svg">
<g id="coconut 1" clip-path="url(#clip0_1248_21322)">
<g id="Group">
<path id="Vector" d="M9.71133 0.5C9.32343 1.8938 9.37033 3.06057 9.63638 3.99021C9.76436 4.43728 9.94319 4.83 10.1483 5.16661C11.0359 5.18415 11.9156 5.36385 12.7439 5.6974C12.7659 4.23434 12.3035 1.89205 9.71133 0.5ZM9.25155 3.86178C8.4271 3.62466 7.41067 3.56812 6.15625 3.8311C6.44422 4.46314 6.85885 5.12585 7.33178 5.66759C8.10622 5.36522 8.92643 5.19671 9.75735 5.16924C9.53019 4.7584 9.36003 4.31854 9.25155 3.86178Z" fill="#CA3C3D"/>
<path id="Vector_2" d="M3.94077 9.00362C5.87281 5.65718 10.152 4.51014 13.4988 6.44261C16.8453 8.37465 17.9923 12.6542 16.0599 16.0011C14.1278 19.3476 9.84822 20.4942 6.50134 18.5621C3.1549 16.6297 2.00829 12.3505 3.94077 9.00362ZM8.4439 7.76059C8.42205 7.76468 8.40123 7.77303 8.38261 7.78516C8.364 7.7973 8.34795 7.81298 8.3354 7.83132C8.32284 7.84965 8.31402 7.87028 8.30943 7.89202C8.30485 7.91377 8.30459 7.9362 8.30868 7.95805C8.31277 7.97989 8.32112 8.00072 8.33325 8.01933C8.34539 8.03795 8.36107 8.05399 8.37941 8.06655C8.39774 8.07911 8.41837 8.08793 8.44011 8.09251C8.46186 8.0971 8.48429 8.09735 8.50614 8.09326L8.5149 8.09151C8.55908 8.08326 8.59816 8.05779 8.62356 8.02072C8.64896 7.98365 8.65859 7.93801 8.65034 7.89384C8.64209 7.84966 8.61662 7.81058 8.57955 7.78518C8.54248 7.75978 8.49684 7.75015 8.45266 7.7584L8.4439 7.76059ZM9.98716 7.46868C9.96532 7.47277 9.9445 7.48112 9.92588 7.49325C9.90726 7.50539 9.89122 7.52107 9.87866 7.53941C9.8661 7.55774 9.85728 7.57837 9.8527 7.60011C9.84812 7.62186 9.84786 7.64429 9.85195 7.66614C9.85603 7.68798 9.86438 7.70881 9.87652 7.72742C9.88865 7.74604 9.90434 7.76208 9.92267 7.77464C9.94101 7.7872 9.96164 7.79602 9.98338 7.8006C10.0051 7.80519 10.0276 7.80544 10.0494 7.80135L10.0582 7.7996C10.1023 7.79135 10.1413 7.76591 10.1667 7.72888C10.192 7.69185 10.2016 7.64626 10.1934 7.60215C10.1851 7.55803 10.1597 7.519 10.1227 7.49364C10.0856 7.46828 10.04 7.45868 9.99593 7.46693L9.98716 7.46868ZM7.47481 6.97033C7.4307 6.97858 7.39167 7.00402 7.36631 7.04106C7.34095 7.07809 7.33134 7.12367 7.33959 7.16779C7.34785 7.2119 7.37329 7.25093 7.41032 7.27629C7.44735 7.30165 7.49293 7.31126 7.53705 7.303L7.54582 7.30125C7.58999 7.293 7.62907 7.26753 7.65447 7.23046C7.67987 7.19339 7.6895 7.14775 7.68125 7.10358C7.673 7.0594 7.64753 7.02032 7.61046 6.99492C7.57339 6.96952 7.52775 6.95989 7.48358 6.96814L7.47481 6.97033ZM8.99835 6.68193C8.97648 6.68601 8.95563 6.69437 8.93698 6.70652C8.91834 6.71866 8.90227 6.73436 8.88969 6.75272C8.86429 6.78979 8.85466 6.83543 8.86292 6.8796C8.87117 6.92378 8.89663 6.96286 8.9337 6.98826C8.97078 7.01366 9.01642 7.02329 9.06059 7.01504L9.06936 7.01329C9.11353 7.00503 9.15262 6.97957 9.17801 6.9425C9.20341 6.90543 9.21305 6.85978 9.20479 6.81561C9.19654 6.77144 9.17108 6.73235 9.134 6.70695C9.09693 6.68155 9.05129 6.67192 9.00712 6.68017L8.99835 6.68193ZM10.5219 6.39396C10.5 6.39805 10.4792 6.4064 10.4605 6.41855C10.4419 6.4307 10.4258 6.44639 10.4132 6.46475C10.3878 6.50182 10.3782 6.54746 10.3865 6.59164C10.3947 6.63581 10.4202 6.6749 10.4572 6.7003C10.4943 6.72569 10.54 6.73533 10.5841 6.72707L10.5929 6.72488C10.6155 6.72171 10.6373 6.71397 10.6569 6.70215C10.6765 6.69032 10.6934 6.67465 10.7068 6.65607C10.7201 6.6375 10.7296 6.61641 10.7346 6.59409C10.7395 6.57176 10.7399 6.54866 10.7357 6.52618C10.7315 6.5037 10.7228 6.48231 10.7101 6.4633C10.6973 6.44428 10.6809 6.42804 10.6617 6.41556C10.6426 6.40308 10.6211 6.39462 10.5985 6.39068C10.576 6.38674 10.5529 6.38741 10.5307 6.39265L10.5219 6.39396ZM5.38717 14.7379C5.34104 14.8179 5.3111 14.9061 5.29906 14.9976C5.28702 15.0891 5.29313 15.182 5.31702 15.2712C5.34091 15.3603 5.38212 15.4439 5.4383 15.5171C5.49449 15.5903 5.56454 15.6517 5.64446 15.6978C5.72438 15.744 5.8126 15.7739 5.90409 15.7859C5.99558 15.798 6.08855 15.7919 6.17768 15.768C6.26682 15.7441 6.35037 15.7029 6.42358 15.6467C6.49678 15.5905 6.55821 15.5205 6.60434 15.4405C6.69751 15.2791 6.72275 15.0873 6.6745 14.9073C6.62625 14.7273 6.50846 14.5738 6.34706 14.4807C6.26714 14.4345 6.17891 14.4046 6.08742 14.3925C5.99593 14.3805 5.90296 14.3866 5.81383 14.4105C5.63382 14.4587 5.48034 14.5765 5.38717 14.7379ZM7.72377 15.5457C7.63054 15.7072 7.60527 15.8991 7.65352 16.0792C7.70177 16.2593 7.81959 16.4128 7.98105 16.5061C8.14252 16.5993 8.3344 16.6246 8.5145 16.5763C8.69459 16.5281 8.84814 16.4102 8.94137 16.2488C8.98753 16.1688 9.0175 16.0806 9.02955 15.989C9.0416 15.8975 9.03551 15.8045 9.01162 15.7153C8.98773 15.6261 8.94651 15.5426 8.89031 15.4693C8.83411 15.3961 8.76404 15.3346 8.68409 15.2884C8.60414 15.2423 8.51588 15.2123 8.42435 15.2003C8.33282 15.1882 8.23982 15.1943 8.15064 15.2182C8.06147 15.2421 7.97787 15.2833 7.90463 15.3395C7.83139 15.3957 7.76993 15.4658 7.72377 15.5457ZM6.9392 13.1995C6.89307 13.2794 6.86314 13.3677 6.85111 13.4592C6.83908 13.5507 6.8452 13.6437 6.86911 13.7329C6.89302 13.822 6.93426 13.9056 6.99047 13.9788C7.04668 14.052 7.11676 14.1135 7.19671 14.1596C7.27666 14.2057 7.36491 14.2357 7.45643 14.2477C7.54794 14.2597 7.64094 14.2536 7.73009 14.2297C7.81924 14.2058 7.90281 14.1645 7.97603 14.1083C8.04925 14.0521 8.11068 13.982 8.15681 13.9021C8.24998 13.7406 8.27519 13.5488 8.2269 13.3687C8.17861 13.1887 8.06077 13.0352 7.89931 12.942C7.73784 12.8488 7.54598 12.8236 7.36592 12.8719C7.18587 12.9202 7.03237 13.038 6.9392 13.1995Z" fill="#CA3C3D"/>
</g>
</g>
<defs>
<clipPath id="clip0_1248_21322">
<rect width="19" height="19" fill="white" transform="translate(0.5 0.5)"/>
</clipPath>
</defs>
</svg>
