<svg width="19" height="20" viewBox="0 0 19 20" fill="none" xmlns="http://www.w3.org/2000/svg">
<g id="cranberry 1">
<g id="Group">
<path id="Vector" d="M13.2502 6.58984C11.914 6.58984 10.7442 7.29106 10.0796 8.34371C10.2745 8.76514 10.4064 9.21292 10.4711 9.67271C12.7245 9.80854 14.5575 11.5119 14.8936 13.7072C16.1402 13.0976 17.0005 11.821 17.0005 10.34C17.0005 8.26905 15.3217 6.58984 13.2502 6.58984ZM14.955 10.34C14.578 10.34 14.273 10.0352 14.273 9.65819C14.273 9.28119 14.578 8.9762 14.955 8.9762C15.3317 8.9762 15.6367 9.28119 15.6367 9.65798C15.6367 10.0348 15.3317 10.34 14.955 10.34ZM5.75013 6.58984C3.67941 6.58984 2 8.26905 2 10.34C2 12.3025 3.50778 13.9095 5.42713 14.0741C5.59303 11.8555 7.27816 10.0591 9.44482 9.72078C9.14924 7.94564 7.61016 6.58984 5.75013 6.58984ZM4.04536 12.0447C3.9558 12.0448 3.86711 12.0271 3.78437 11.9929C3.70163 11.9586 3.62645 11.9084 3.56313 11.845C3.49981 11.7817 3.4496 11.7065 3.41536 11.6238C3.38111 11.541 3.36352 11.4523 3.36357 11.3628C3.36357 10.986 3.66836 10.681 4.04536 10.681C4.42235 10.681 4.72714 10.986 4.72714 11.3628C4.72725 11.4523 4.70969 11.541 4.67547 11.6238C4.64125 11.7066 4.59103 11.7818 4.52771 11.8452C4.46438 11.9085 4.38918 11.9587 4.30641 11.993C4.22364 12.0272 4.13493 12.0448 4.04536 12.0447Z" fill="#CA3C3D"/>
<path id="Vector_2" d="M10.1834 10.6808C8.11249 10.6808 6.43329 12.3602 6.43329 14.4307C6.43329 16.5022 8.11249 18.181 10.1834 18.181C12.255 18.181 13.9335 16.5022 13.9335 14.4307C13.9335 12.3602 12.255 10.6808 10.1834 10.6808ZM10.1834 16.4762C9.80662 16.4762 9.50163 16.1715 9.50163 15.7945C9.50163 15.4175 9.80662 15.1127 10.1834 15.1127C10.5604 15.1127 10.8654 15.4175 10.8654 15.7945C10.8654 16.1715 10.5604 16.4762 10.1834 16.4762ZM5.7515 5.56686C7.27299 5.56686 8.62674 6.28526 9.50163 7.39723C10.3765 6.28526 11.7305 5.56686 13.2516 5.56686C13.3442 5.56686 13.4348 5.57545 13.5267 5.58077C14.0546 4.71386 14.333 3.66244 14.2643 2.50854C11.9972 2.37414 10.1196 3.56548 9.28644 5.40853C8.64392 3.18316 6.59345 1.6762 4.05716 1.82675C3.96961 3.30692 4.44582 4.62263 5.30025 5.58956C5.45022 5.57488 5.60081 5.5673 5.7515 5.56686Z" fill="#CA3C3D"/>
</g>
</g>
</svg>
