<svg width="20" height="20" viewBox="0 0 20 20" fill="none" xmlns="http://www.w3.org/2000/svg">
<g id="Cucumber">
<g id="Group">
<g id="15 cucumber">
<path id="Vector" d="M13.8416 10.6914C13.7741 10.6914 13.7092 10.694 13.6418 10.699C13.5891 10.7014 13.5365 10.7064 13.4843 10.7138C13.4607 10.7138 13.4373 10.7164 13.4143 10.7214C13.4075 10.7212 13.4007 10.722 13.3942 10.724C13.3446 10.7298 13.2955 10.7383 13.2468 10.7494C13.1206 10.7721 12.9962 10.8037 12.8745 10.8441C12.8295 10.8591 12.787 10.8741 12.7445 10.8891C12.687 10.9092 12.632 10.9342 12.577 10.9566C12.5019 10.9884 12.4285 11.0242 12.3572 11.064C12.3431 11.0693 12.3296 11.076 12.317 11.0841L12.2722 11.1095L12.2671 11.1172C11.617 11.4906 11.1222 12.0847 10.8725 12.7917L10.87 12.7942L10.8524 12.8418C10.8499 12.8492 10.8473 12.8591 10.845 12.8672C10.8412 12.8753 10.8387 12.8839 10.8374 12.8927C10.793 13.0254 10.7595 13.1616 10.7374 13.2999L10.7348 13.3024C10.7275 13.3472 10.7198 13.3897 10.715 13.4347L10.7 13.5699C10.6923 13.6597 10.6875 13.7546 10.6875 13.8473C10.6876 14.4714 10.8727 15.0816 11.2195 15.6005C11.5664 16.1194 12.0593 16.5239 12.636 16.7626C13.2127 17.0014 13.8473 17.0637 14.4594 16.9418C15.0716 16.8199 15.6338 16.5192 16.0751 16.0777C16.5163 15.6362 16.8167 15.0738 16.9383 14.4616C17.0598 13.8494 16.9971 13.2149 16.758 12.6383C16.5189 12.0617 16.1142 11.569 15.5951 11.2225C15.076 10.8759 14.4657 10.6911 13.8416 10.6914ZM13.8416 16.1226C13.4742 16.1224 13.1124 16.0332 12.787 15.8627C12.4615 15.6923 12.1822 15.4456 11.9729 15.1437C11.7635 14.8418 11.6304 14.4938 11.5848 14.1292C11.5392 13.7647 11.5825 13.3946 11.711 13.0504C11.8396 12.7063 12.0495 12.3984 12.3229 12.153C12.5963 11.9076 12.925 11.7321 13.281 11.6414C13.637 11.5507 14.0096 11.5475 14.3671 11.6321C14.7246 11.7167 15.0563 11.8866 15.3339 12.1272C15.3463 12.138 15.3565 12.1512 15.3639 12.166C15.3713 12.1808 15.3757 12.1968 15.3768 12.2133C15.378 12.2298 15.3759 12.2463 15.3707 12.262C15.3654 12.2776 15.3572 12.2921 15.3463 12.3046C15.3355 12.317 15.3223 12.3273 15.3076 12.3346C15.2928 12.342 15.2767 12.3464 15.2602 12.3475C15.2438 12.3487 15.2272 12.3466 15.2116 12.3414C15.1959 12.3361 15.1814 12.3279 15.169 12.317C14.8193 12.0144 14.3767 11.8405 13.9145 11.8243C13.4524 11.808 12.9986 11.9504 12.6286 12.2277C12.2586 12.505 11.9946 12.9006 11.8805 13.3488C11.7664 13.7969 11.8091 14.2706 12.0015 14.6911C12.1939 15.1116 12.5244 15.4536 12.938 15.6603C13.3517 15.867 13.8236 15.9259 14.2754 15.8273C14.7272 15.7286 15.1316 15.4784 15.4214 15.1181C15.7113 14.7578 15.8692 14.3092 15.8688 13.8467C15.8692 13.726 15.8583 13.6054 15.8362 13.4867C15.8303 13.4542 15.8376 13.4207 15.8563 13.3936C15.8751 13.3665 15.9038 13.3479 15.9362 13.3419C15.9523 13.3386 15.969 13.3385 15.9851 13.3418C16.0012 13.3451 16.0165 13.3516 16.0301 13.361C16.0436 13.3703 16.0551 13.3823 16.0639 13.3962C16.0727 13.4101 16.0786 13.4256 16.0813 13.4419C16.1062 13.5754 16.1187 13.7109 16.1187 13.8467C16.1175 14.4502 15.8771 15.0286 15.4503 15.4552C15.0235 15.8818 14.445 16.1217 13.8416 16.1226ZM15.44 13.847C15.44 14.0669 15.1901 14.2394 14.8702 14.2394C14.5503 14.2394 14.3027 14.0669 14.3027 13.847C14.3027 13.6271 14.5529 13.4546 14.8702 13.4546C15.1875 13.4546 15.44 13.6259 15.44 13.847ZM13.8416 13.3836C13.6217 13.3836 13.4494 13.1337 13.4494 12.8161C13.4494 12.4985 13.6217 12.2488 13.8416 12.2488C14.0614 12.2488 14.234 12.4987 14.234 12.8161C14.234 13.1334 14.0604 13.3836 13.8416 13.3836ZM14.234 14.8756C14.234 15.1955 14.0617 15.4454 13.8416 15.4454C13.6214 15.4454 13.4494 15.1955 13.4494 14.8756C13.4494 14.5557 13.6217 14.3084 13.8416 14.3084C14.0614 14.3084 14.2327 14.5596 14.2327 14.8756H14.234ZM13.3782 13.847C13.3782 14.0669 13.128 14.2394 12.8107 14.2394C12.4933 14.2394 12.2434 14.0659 12.2434 13.847C12.2434 13.6281 12.4933 13.4546 12.8107 13.4546C13.128 13.4546 13.3782 13.6259 13.3782 13.847ZM15.555 12.5397C15.5826 12.5215 15.6162 12.515 15.6485 12.5216C15.6809 12.5282 15.7093 12.5473 15.7275 12.5748C15.7861 12.6658 15.8395 12.76 15.8874 12.8571C15.8952 12.8714 15.9 12.8871 15.9017 12.9033C15.9034 12.9195 15.9018 12.9359 15.897 12.9515C15.8923 12.9671 15.8845 12.9815 15.8741 12.9941C15.8637 13.0066 15.8509 13.017 15.8365 13.0245C15.8179 13.0342 15.7973 13.0394 15.7764 13.0395C15.7539 13.0399 15.7317 13.0341 15.7123 13.0226C15.6929 13.0112 15.677 12.9946 15.6665 12.9746C15.6314 12.9097 15.5614 12.7746 15.5191 12.7148C15.5006 12.6867 15.4939 12.6523 15.5007 12.6193C15.5074 12.5863 15.5269 12.5573 15.555 12.5387V12.5397Z" fill="#3DCA6C"/>
<path id="Vector_2" d="M13.9639 12.6685C13.9611 12.6548 13.9569 12.6414 13.9514 12.6286C13.9422 12.5988 13.9278 12.5709 13.9089 12.5461C13.902 12.5371 13.8944 12.5286 13.8862 12.5207C13.8749 12.508 13.8593 12.4999 13.8425 12.498C13.826 12.4997 13.8109 12.5077 13.8002 12.5204C13.7911 12.5282 13.7826 12.5367 13.7748 12.5459C13.7576 12.5717 13.7433 12.5993 13.7323 12.6283C13.7267 12.6411 13.7225 12.6545 13.7198 12.6683C13.7148 12.681 13.7123 12.6945 13.7124 12.7082C13.6958 12.7789 13.6958 12.8525 13.7124 12.9233C13.7123 12.9369 13.7148 12.9505 13.7198 12.9632C13.7225 12.9769 13.7267 12.9903 13.7323 13.0032C13.7388 13.0223 13.7473 13.0408 13.7577 13.0581C13.7647 13.0708 13.7733 13.0825 13.7832 13.093C13.7898 13.1035 13.7986 13.1124 13.8089 13.1193C13.8192 13.1263 13.8308 13.131 13.843 13.1332C13.8603 13.1315 13.8764 13.1235 13.888 13.1106C13.8962 13.1027 13.9038 13.0942 13.9107 13.0851C13.9296 13.0604 13.944 13.0324 13.9532 13.0027C13.9587 12.9898 13.9629 12.9764 13.9656 12.9627C13.9706 12.95 13.9732 12.9364 13.973 12.9227C13.9896 12.852 13.9896 12.7784 13.973 12.7077C13.9725 12.6942 13.9694 12.6809 13.9639 12.6685ZM13.9639 14.7281C13.9611 14.7143 13.9569 14.7009 13.9514 14.6881C13.9422 14.6582 13.9278 14.6303 13.9089 14.6054C13.9019 14.5964 13.8944 14.5879 13.8862 14.5799C13.8746 14.568 13.8591 14.5607 13.8425 14.5593C13.826 14.561 13.8109 14.569 13.8002 14.5817C13.7912 14.5896 13.7827 14.5981 13.7748 14.6072C13.7576 14.6331 13.7434 14.6608 13.7323 14.6899C13.7267 14.7027 13.7225 14.7161 13.7198 14.7298C13.7148 14.7426 13.7123 14.7561 13.7124 14.7698C13.7028 14.8047 13.6986 14.841 13.7 14.8772C13.6996 14.9271 13.7063 14.9768 13.7198 15.0248C13.7225 15.0385 13.7267 15.0519 13.7323 15.0647C13.7374 15.0811 13.7442 15.097 13.7524 15.1121C13.7636 15.1361 13.7798 15.1574 13.8 15.1747C13.8106 15.1873 13.8258 15.1954 13.8422 15.1971C13.8523 15.1969 13.862 15.1934 13.87 15.1871C13.8816 15.181 13.8918 15.1723 13.8997 15.1617C13.9115 15.1494 13.9209 15.135 13.9272 15.1192C13.9329 15.1115 13.9373 15.1029 13.9399 15.0937C13.9459 15.0846 13.9501 15.0744 13.9524 15.0637C13.958 15.0509 13.9621 15.0375 13.9649 15.0238C13.9784 14.9757 13.9851 14.9261 13.9847 14.8762C13.9859 14.8399 13.9817 14.8037 13.9723 14.7688C13.9722 14.7548 13.9693 14.7409 13.9639 14.7281ZM15.106 13.7557C15.0909 13.7476 15.075 13.7409 15.0586 13.7358C15.0458 13.7301 15.0323 13.7259 15.0184 13.7234C14.9705 13.7096 14.9209 13.7028 14.8711 13.7032C14.8485 13.7036 14.826 13.7053 14.8037 13.7083C14.79 13.7081 14.7764 13.7106 14.7637 13.7157C14.7499 13.7156 14.7363 13.7182 14.7235 13.7234C14.7097 13.7259 14.6963 13.7301 14.6835 13.7358C14.6546 13.747 14.627 13.7612 14.6011 13.7783C14.5919 13.7861 14.5834 13.7946 14.5756 13.8038C14.563 13.8145 14.555 13.8297 14.5532 13.8463C14.5548 13.8635 14.5628 13.8796 14.5756 13.8913C14.5836 13.8993 14.5921 13.9068 14.6011 13.9137C14.6258 13.9327 14.6537 13.9471 14.6835 13.9562C14.6964 13.9618 14.7098 13.966 14.7235 13.9687C14.7363 13.9738 14.7499 13.9763 14.7637 13.9761C14.7764 13.9813 14.79 13.9839 14.8037 13.9837C14.826 13.9867 14.8485 13.9884 14.8711 13.9888C14.9209 13.9891 14.9705 13.9823 15.0184 13.9687C15.0323 13.966 15.0457 13.9618 15.0586 13.9562C15.0697 13.9539 15.0801 13.9495 15.0894 13.9432C15.0986 13.9406 15.1072 13.9363 15.1149 13.9308C15.1428 13.919 15.1663 13.8989 15.1823 13.8732C15.1849 13.8682 15.1897 13.8633 15.1897 13.8582C15.1917 13.8544 15.1926 13.8501 15.1923 13.8458C15.1905 13.8292 15.1825 13.814 15.1699 13.8033C15.1523 13.783 15.1305 13.7667 15.106 13.7557ZM12.7441 13.7083C12.7175 13.7132 12.6908 13.7182 12.6642 13.7234C12.6504 13.7259 12.6369 13.7301 12.624 13.7358C12.5951 13.747 12.5674 13.7612 12.5416 13.7783C12.5324 13.7861 12.5239 13.7946 12.5161 13.8038C12.5035 13.8145 12.4954 13.8297 12.4937 13.8463C12.4953 13.8635 12.5033 13.8796 12.5161 13.8913C12.5241 13.8993 12.5326 13.9068 12.5416 13.9137C12.5662 13.9327 12.5942 13.9471 12.624 13.9562C12.6369 13.9618 12.6504 13.966 12.6642 13.9687C12.6909 13.9735 12.7175 13.9785 12.7441 13.9837C12.7888 13.9905 12.8343 13.9905 12.879 13.9837C12.8927 13.9839 12.9063 13.9813 12.919 13.9761C12.9327 13.9763 12.9464 13.9738 12.9592 13.9687C12.9729 13.966 12.9863 13.9618 12.9991 13.9562C13.0289 13.9471 13.0569 13.9327 13.0816 13.9137C13.0905 13.9068 13.0991 13.8993 13.107 13.8913C13.1199 13.8798 13.1281 13.8639 13.1299 13.8468C13.1277 13.8346 13.123 13.823 13.1161 13.8126C13.1093 13.8023 13.1004 13.7935 13.09 13.7867C13.0794 13.7768 13.0677 13.7683 13.0551 13.7613C13.0377 13.7508 13.0193 13.7423 13.0001 13.7358C12.9874 13.7301 12.9739 13.7259 12.9602 13.7234C12.9474 13.7182 12.9337 13.7156 12.92 13.7157C12.9073 13.7106 12.8937 13.7081 12.88 13.7083C12.8353 13.7016 12.7898 13.7016 12.7451 13.7083H12.7441ZM12.6566 10.654C12.764 10.6141 12.8716 10.5815 12.9816 10.5522C13.0141 10.5097 13.0439 10.4672 13.0739 10.4222C13.673 9.46692 14.1834 8.45877 14.5985 7.41038C14.996 6.40822 15.0861 5.55596 14.8685 4.87852C14.7792 4.59904 14.6458 4.33557 14.4736 4.09802C14.1981 4.22804 13.9574 4.42168 13.7715 4.66297L13.7565 4.71794C13.7239 4.8576 13.6744 4.99273 13.6089 5.12028C13.5594 5.21378 13.5013 5.30247 13.4353 5.3852C13.4234 5.39965 13.4086 5.41138 13.3917 5.41959C13.3749 5.4278 13.3565 5.4323 13.3378 5.43279C13.309 5.43198 13.2811 5.42239 13.2579 5.4053C13.2321 5.38391 13.2158 5.3532 13.2125 5.31984C13.2092 5.28649 13.2192 5.25318 13.2404 5.22716C13.2959 5.15795 13.3445 5.08346 13.3854 5.00474C13.4414 4.89439 13.4841 4.77779 13.5127 4.65737C13.5177 4.63193 13.5251 4.60979 13.5302 4.59248C13.5877 4.395 13.9524 4.10006 14.3173 3.89749C13.9842 3.49432 13.5361 3.20226 13.0327 3.06024C12.9681 3.04156 12.902 3.02819 12.8352 3.02028C12.72 3.39059 12.5584 3.74484 12.3543 4.07461C12.2594 4.19834 12.1584 4.31724 12.0517 4.43088C11.9893 4.49832 11.9267 4.56831 11.8669 4.63829C11.7566 4.76516 11.6602 4.90345 11.5793 5.05081C11.5302 5.15095 11.4908 5.2556 11.4618 5.36331C11.4465 5.41628 11.4296 5.46873 11.4109 5.52058C11.2905 5.89167 11.0985 6.23559 10.8459 6.53292C10.8338 6.54583 10.819 6.55605 10.8027 6.56293C10.7863 6.56981 10.7687 6.5732 10.751 6.57287C10.7204 6.57265 10.691 6.56103 10.6686 6.5403C10.6444 6.5182 10.6299 6.48756 10.628 6.4549C10.6262 6.42224 10.6372 6.39015 10.6586 6.36547C10.8892 6.09391 11.0641 5.77969 11.1734 5.44067C11.191 5.38825 11.206 5.33888 11.2243 5.28799C11.2579 5.16678 11.3023 5.04882 11.3569 4.93553C11.4464 4.77154 11.5537 4.61793 11.6768 4.47745C11.7394 4.40493 11.8018 4.3324 11.8669 4.26242C11.9687 4.14739 12.0667 4.04 12.1542 3.92243C12.3343 3.63727 12.4763 3.3298 12.5767 3.00781C12.1636 3.02041 11.7632 3.15354 11.4249 3.39081C10.9951 3.69314 10.7976 4.17055 10.6052 4.6304C10.5627 4.73041 10.5202 4.83399 10.4751 4.93273C9.87922 6.2439 9.09945 7.46343 8.15935 8.55454C7.47182 9.3621 6.70447 10.0982 5.86899 10.7515L5.74404 10.849C5.44497 11.0971 5.12842 11.3234 4.79685 11.5261C4.27904 11.7909 3.81732 12.1533 3.43715 12.5934C3.12971 12.9628 2.9746 13.4354 3.0034 13.9151C3.03219 14.3948 3.24272 14.8455 3.59213 15.1754C3.65193 15.2378 3.71708 15.2953 3.78197 15.3554C4.1097 15.6428 4.49866 15.8516 4.91926 15.9661C4.97168 15.9137 5.03429 15.8488 5.10427 15.7788C5.36774 15.4732 5.67481 15.208 6.01558 14.992C6.07563 14.9665 6.13315 14.9411 6.19066 14.9194C6.29669 14.881 6.40021 14.8359 6.50062 14.7845C6.65176 14.6943 6.7819 14.5728 6.88235 14.4283C7.01903 14.264 7.18792 14.1295 7.37859 14.0331C7.40766 14.0185 7.44125 14.0158 7.47228 14.0255C7.50331 14.0352 7.52936 14.0566 7.54493 14.0851C7.56051 14.1137 7.56439 14.1471 7.55577 14.1785C7.54714 14.2098 7.52669 14.2366 7.49871 14.2532C7.33703 14.3327 7.19395 14.4454 7.07881 14.584C6.95813 14.7567 6.80108 14.9009 6.6187 15.0065C6.51045 15.0629 6.39857 15.1121 6.2838 15.1538C6.22883 15.1765 6.17132 15.1988 6.11635 15.2238C5.80779 15.43 5.52722 15.6754 5.28165 15.9536C5.2562 15.9791 5.23406 16.0045 5.21166 16.0262C5.25785 16.0363 5.30458 16.0438 5.35163 16.0486C5.46615 16.0609 5.58127 16.0667 5.69645 16.0661C6.63372 16.0661 7.69848 15.6689 8.86834 14.879C9.02332 14.7739 9.17372 14.6665 9.3231 14.554C9.47248 14.4415 9.62313 14.3265 9.76565 14.2117C9.91476 14.0924 10.0606 13.969 10.2028 13.8417L10.2079 13.8366C10.2878 13.7603 10.368 13.6793 10.4479 13.5992C10.4554 13.4834 10.4705 13.3682 10.493 13.2543C10.5954 12.6698 10.849 12.1223 11.2285 11.6661C11.6081 11.2099 12.1004 10.861 12.6566 10.654ZM7.5804 11.3528C7.53281 11.4228 7.49031 11.4928 7.44526 11.5653C7.3839 11.6735 7.31591 11.7778 7.24168 11.8776C6.76622 12.4484 6.175 12.9119 5.50712 13.2373L5.47709 13.2523C4.97487 13.4829 4.51686 13.7996 4.12375 14.188C4.11169 14.2005 4.09731 14.2104 4.08141 14.2172C4.06552 14.2241 4.04842 14.2278 4.03111 14.228C3.99977 14.2281 3.9695 14.2165 3.94612 14.1957C3.92214 14.1727 3.90798 14.1413 3.90661 14.1081C3.90523 14.0749 3.91675 14.0424 3.93874 14.0175C4.35062 13.6086 4.83108 13.2752 5.35824 13.0324L5.38573 13.0149C6.02296 12.7093 6.58707 12.2703 7.03987 11.7277C7.10896 11.6335 7.17325 11.5359 7.23252 11.4353C7.27731 11.3589 7.32235 11.2854 7.37477 11.2103C7.49573 11.0383 7.63956 10.8836 7.8023 10.7505C8.03458 10.5568 8.2629 10.3584 8.48712 10.1555C8.71754 9.94005 8.91242 9.68951 9.06454 9.41316C9.07248 9.39826 9.08336 9.38512 9.09652 9.37454C9.10968 9.36395 9.12484 9.35615 9.1411 9.35159C9.15736 9.34703 9.17438 9.34582 9.19112 9.34802C9.20786 9.35022 9.22398 9.35579 9.23851 9.3644C9.25304 9.37301 9.26567 9.38447 9.27565 9.39809C9.28562 9.41172 9.29273 9.42723 9.29655 9.44368C9.30036 9.46013 9.3008 9.47718 9.29784 9.4938C9.29488 9.51043 9.28859 9.52628 9.27933 9.5404C9.11426 9.83741 8.90439 10.1072 8.65711 10.3402C8.42961 10.5438 8.19726 10.7426 7.96467 10.9401C7.81891 11.0601 7.68969 11.1989 7.5804 11.3528ZM9.76234 11.6353C9.64731 11.7328 9.5249 11.8252 9.4025 11.9152C9.27246 12.0127 9.14242 12.1125 9.01746 12.2176C8.89919 12.3163 8.78961 12.425 8.68994 12.5425C8.65548 12.5858 8.62459 12.6317 8.59757 12.68C8.548 12.7657 8.48752 12.8447 8.41765 12.9149C8.39342 12.937 8.36139 12.9487 8.32858 12.9473C8.29577 12.9459 8.26484 12.9316 8.24256 12.9075C8.23113 12.8954 8.22224 12.8811 8.21642 12.8656C8.2106 12.85 8.20797 12.8334 8.20868 12.8168C8.20939 12.8002 8.21344 12.7839 8.22057 12.7689C8.2277 12.7538 8.23777 12.7404 8.2502 12.7293C8.30259 12.6744 8.3479 12.6131 8.38507 12.5469C8.42019 12.4919 8.4576 12.4344 8.49755 12.382C8.60613 12.2539 8.72531 12.1352 8.85383 12.0272C8.98107 11.9196 9.1162 11.8173 9.25108 11.7147C9.3712 11.6272 9.48851 11.5366 9.60099 11.4422C10.0975 11.0593 10.523 10.5924 10.8581 10.0626C10.9915 9.81876 11.1052 9.56466 11.1981 9.30272C11.3216 9.02514 11.4982 8.77443 11.718 8.56471C12.0662 8.21954 12.3375 7.80465 12.5141 7.34727C12.5198 7.33199 12.5285 7.318 12.5397 7.30609C12.5508 7.29418 12.5642 7.28458 12.5791 7.27785C12.5939 7.27112 12.61 7.26737 12.6263 7.26684C12.6426 7.26631 12.6589 7.26899 12.6741 7.27474C12.6894 7.28049 12.7034 7.28919 12.7153 7.30034C12.7272 7.3115 12.7368 7.32489 12.7436 7.33975C12.7503 7.35462 12.754 7.37066 12.7546 7.38697C12.7551 7.40328 12.7524 7.41954 12.7467 7.43481C12.5601 7.92364 12.2722 8.36743 11.9018 8.737C11.7055 8.92444 11.5461 9.14706 11.432 9.39331C11.3344 9.66721 11.2152 9.93295 11.0757 10.1881C10.7249 10.7431 10.2805 11.2331 9.76234 11.6363V11.6353Z" fill="#3DCA6C"/>
</g>
</g>
</g>
</svg>
