<svg width="19" height="20" viewBox="0 0 19 20" fill="none" xmlns="http://www.w3.org/2000/svg">
<g id="Cumin" clip-path="url(#clip0_1248_21455)">
<g id="Group">
<path id="Vector" d="M4.41602 0.5C4.21811 0.763662 3.84026 1.5119 3.46973 3.23878C3.09715 4.97513 2.88347 6.99314 2.88347 8.77539C2.88347 10.5576 3.09715 12.5757 3.46973 14.312C3.84026 16.0389 4.21811 16.7871 4.41602 17.0508C4.61392 16.7871 4.99177 16.0389 5.3623 14.312C5.73488 12.5757 5.94856 10.5576 5.94856 8.77539C5.94856 6.99314 5.73488 4.97513 5.3623 3.23878C4.99177 1.5119 4.61392 0.763662 4.41602 0.5ZM5.9552 1.16526C6.5363 2.85181 7.06184 5.87956 7.06184 8.77539C7.06184 11.7114 6.52613 14.7285 5.9552 16.3855C6.6035 15.8215 7.13602 14.988 7.51929 14.219C8.3413 12.5695 8.83203 10.5345 8.83203 8.77539C8.83203 7.01626 8.3413 4.98129 7.51929 3.33182C7.13602 2.56269 6.60347 1.72921 5.9552 1.16526ZM2.87683 1.16526C2.22853 1.72925 1.69601 2.56276 1.31274 3.33182C0.490734 4.98129 0 7.01626 0 8.77539C0 10.5345 0.490734 12.5695 1.31274 14.219C1.69601 14.9881 2.22857 15.8216 2.87683 16.3855C2.29573 14.699 1.77019 11.6712 1.77019 8.77539C1.77019 5.83941 2.3059 2.8223 2.87683 1.16526ZM14.584 2.94922C14.3861 3.21288 14.0082 3.96112 13.6377 5.688C13.2651 7.42435 13.0514 9.44236 13.0514 11.2246C13.0514 13.0069 13.2651 15.0249 13.6377 16.7612C14.0082 18.4881 14.3861 19.2363 14.584 19.5C14.7819 19.2363 15.1597 18.4881 15.5303 16.7612C15.9029 15.0249 16.1165 13.0069 16.1165 11.2246C16.1165 9.44236 15.9029 7.42435 15.5303 5.688C15.1597 3.96112 14.7819 3.21288 14.584 2.94922ZM17.6873 5.78103C17.304 5.01194 16.7714 4.17843 16.1232 3.61448C16.7043 5.30103 17.2298 8.32878 17.2298 11.2246C17.2298 14.1606 16.6941 17.1777 16.1232 18.8347C16.7715 18.2708 17.304 17.4372 17.6873 16.6682C18.5093 15.0187 19 12.9837 19 11.2246C19 9.46548 18.5093 7.43051 17.6873 5.78103ZM13.0448 3.61448C12.3965 4.17847 11.864 5.01198 11.4807 5.78103C10.6587 7.43051 10.168 9.46548 10.168 11.2246C10.168 12.9837 10.6587 15.0187 11.4807 16.6682C11.864 17.4373 12.3965 18.2708 13.0448 18.8347C12.4637 17.1482 11.9382 14.1204 11.9382 11.2246C11.9382 8.28863 12.4739 5.27152 13.0448 3.61448Z" fill="#CA3C3D"/>
</g>
</g>
<defs>
<clipPath id="clip0_1248_21455">
<rect width="19" height="19" fill="white" transform="translate(0 0.5)"/>
</clipPath>
</defs>
</svg>
