<svg width="14" height="14" viewBox="0 0 14 14" fill="none" xmlns="http://www.w3.org/2000/svg">
<g id="apple 1" clip-path="url(#clip0_1797_2838)">
<g id="Group">
<path id="Vector" d="M13.0288 0.354842C12.6744 0.433756 12.0399 0.494842 11.3846 0.176124C10.427 -0.291537 7.85941 0.109104 7.39476 2.14353C7.39325 2.15245 7.39476 2.16142 7.39476 2.17033C7.0537 2.38927 6.80649 2.65437 6.62777 2.92392C6.50117 2.11225 6.07969 1.4093 5.25311 1.00715L5.23075 0.995233C4.95077 0.85969 4.61417 0.975874 4.47715 1.25587C4.34013 1.53587 4.45779 1.87245 4.73779 2.00947C4.87927 2.07947 5.19353 2.08989 5.52415 2.3937C5.79075 2.63944 5.96498 2.99239 6.06924 3.38262C6.1869 3.4288 6.30158 3.48092 6.41626 3.53749C6.49937 3.49603 6.58381 3.45728 6.66944 3.42131C6.66944 3.39749 6.66944 3.37217 6.66793 3.34833C6.82877 3.01621 7.09387 2.66175 7.52579 2.38476C7.53175 2.38774 7.53621 2.3922 7.54367 2.39367C7.81175 2.46961 8.32111 2.63941 8.7098 2.92239C10.427 4.17044 12.938 2.21944 13.2805 0.603506C13.3118 0.453143 13.1793 0.322085 13.0288 0.354842Z" fill="#CA3C3D"/>
<path id="Vector_2" d="M6.41691 3.8746C3.74321 2.41776 0.45318 4.51904 0.729161 7.61247C0.918625 9.73587 3.05116 14.1844 5.17454 13.995C5.40131 13.9747 5.61872 13.9021 5.82604 13.7862C6.18979 13.5827 6.64397 13.5827 7.00778 13.7862C7.21507 13.9021 7.43248 13.9747 7.65924 13.995C9.78265 14.1844 11.9152 9.73587 12.1046 7.61247C12.3806 4.51888 9.09036 2.41784 6.41691 3.8746Z" fill="#CA3C3D"/>
</g>
</g>
<defs>
<clipPath id="clip0_1797_2838">
<rect width="14" height="14" fill="white"/>
</clipPath>
</defs>
</svg>
