<svg width="14" height="14" viewBox="0 0 14 14" fill="none" xmlns="http://www.w3.org/2000/svg">
<g id="fruits 1" clip-path="url(#clip0_1797_414)">
<g id="Group">
<path id="Vector" d="M11.5564 6.41797C11.4699 6.87418 11.2813 7.30502 10.9979 7.6859L9.88596 9.17915H12.7354C12.8903 8.0975 12.4294 7.03907 11.5564 6.41797ZM4.25933 7.36667C4.05543 7.23118 3.83914 7.17614 3.70845 7.22637C3.57773 7.2765 3.45398 7.46207 3.39315 7.69911C3.26833 8.18524 3.41228 8.75924 3.67976 9.17915H5.0494C5.13554 8.53757 4.80726 7.73073 4.25933 7.36667Z" fill="#CA3C3D"/>
<path id="Vector_2" d="M2.7541 9.17912C2.53049 8.64635 2.45428 8.04232 2.59502 7.49426C2.72591 6.98455 3.024 6.60666 3.41295 6.45752C3.80182 6.30816 4.27629 6.38952 4.7146 6.68072C5.48254 7.19087 5.95642 8.22995 5.87569 9.17914H7.58018C7.67719 7.30803 6.5274 5.48556 4.91606 4.88406C4.67004 4.79223 4.4475 4.62453 4.27239 4.39908C3.75724 3.7357 3.00679 3.46726 2.36048 3.71516C1.71418 3.96302 1.33601 4.66467 1.39701 5.50272C1.41782 5.78758 1.36467 6.06115 1.24325 6.29388C0.807031 7.13051 0.71142 8.17716 0.964408 9.17912H2.7541ZM0 10.0026V10.2772C0 11.9422 1.3546 13.2968 3.01961 13.2968H10.9804C12.6454 13.2968 14 11.9422 14 10.2772V10.0026H0ZM8.4045 9.17912H8.85873L10.3368 7.19422C11.0466 6.24033 10.9018 4.90346 10.0165 4.12838L10.0355 4.09668C10.5038 3.31614 11.5146 3.06329 12.2952 3.53174L12.719 2.82556C12.1925 2.50968 11.5809 2.40246 10.9828 2.51786L11.5185 1.62507L10.8123 1.20137L10.2759 2.09536C10.1025 1.53416 9.73025 1.0323 9.18812 0.707031L8.76438 1.41321C9.54317 1.88045 9.79662 2.89422 9.32935 3.67297L9.30989 3.70536C8.20246 3.29129 6.97477 3.79315 6.46547 4.84313C7.7386 5.87841 8.47587 7.53014 8.4045 9.17912Z" fill="#CA3C3D"/>
</g>
</g>
<defs>
<clipPath id="clip0_1797_414">
<rect width="14" height="14" fill="white"/>
</clipPath>
</defs>
</svg>
