<svg width="20" height="20" viewBox="0 0 20 20" fill="none" xmlns="http://www.w3.org/2000/svg">
<g id="Edamame">
<g id="Group">
<path id="Vector" d="M14.3024 6.37303C14.5444 6.13104 14.7986 5.62774 14.6131 5.44092C14.4321 5.25784 13.9457 5.48688 13.681 5.75161C13.4457 5.98743 13.1817 6.49755 13.3703 6.68332C13.4956 6.81205 13.9231 6.7524 14.3024 6.37303ZM6.36046 14.3154C6.73297 13.9425 6.79391 13.5077 6.67115 13.3833C6.48699 13.2011 6.0035 13.4287 5.73816 13.694C5.35879 14.0738 5.30128 14.4999 5.42747 14.6265C5.55192 14.7501 5.9871 14.6888 6.36046 14.3154ZM10.6383 10.659C11.1438 10.1535 11.2863 9.44193 10.949 9.10504C10.5662 8.72233 9.82311 8.98809 9.39546 9.41574C8.88991 9.92129 8.74744 10.6328 9.08476 10.9697C9.42206 11.307 10.1344 11.1637 10.6383 10.659Z" fill="#3DCA6C"/>
<path id="Vector_2" d="M2.97535 17.4989L5.88094 17.3383C6.7341 17.2675 7.56666 16.8365 8.22499 16.1778C8.66618 15.7362 8.9992 15.2066 9.18802 14.6452C9.34938 14.1625 9.72529 13.8182 10.1699 13.747C11.0334 13.6088 11.8393 13.1852 12.5011 12.5231C13.1646 11.86 13.5886 11.0524 13.7259 10.1885C13.7972 9.74127 14.143 9.36319 14.628 9.20183V9.20139C15.1919 9.01342 15.7232 8.67996 16.1652 8.23751C16.8236 7.57962 17.2253 6.74706 17.2965 5.89305L17.4986 2.96203C17.5141 2.77834 17.4016 2.61527 17.2351 2.53802C17.0678 2.46035 16.8584 2.50582 16.7287 2.63672C16.3983 2.96804 15.9258 3.08681 15.4091 2.90742C14.2298 2.49973 12.8196 2.88296 11.8153 3.88717C11.3716 4.3305 11.0377 4.86265 10.8506 5.42527C10.6892 5.90978 10.3116 6.25525 9.8644 6.32691C9.00008 6.46467 8.19242 6.88824 7.52978 7.55129C6.86717 8.21349 6.444 9.01942 6.30496 9.88245C6.23459 10.3271 5.89041 10.7034 5.40715 10.8648C4.84667 11.0527 4.3171 11.3854 3.87506 11.8274C2.87173 12.8308 2.48721 14.2414 2.8949 15.4211C3.07514 15.9395 2.98136 16.3976 2.63205 16.747C2.56755 16.8102 2.52406 16.8918 2.50748 16.9806C2.4909 17.0694 2.50203 17.1612 2.53936 17.2435C2.61295 17.404 2.77988 17.5129 2.97535 17.4989ZM13.0582 5.13001C13.7559 4.43307 14.7113 4.29745 15.2331 4.81932C15.8192 5.40543 15.5309 6.38659 14.9224 6.99427C14.3121 7.60452 13.3289 7.88633 12.7475 7.30496C12.1789 6.73724 12.4243 5.76376 13.0582 5.13001ZM8.77261 8.79413C9.63093 7.93754 10.884 7.79935 11.569 8.48343C12.2548 9.16881 12.1149 10.4237 11.2583 11.2802C10.4781 12.059 9.20334 12.3324 8.46192 11.5909C7.77611 10.9056 7.91603 9.65074 8.77261 8.79413ZM5.11535 13.0728C5.81315 12.375 6.76931 12.239 7.29118 12.7617V12.7621C7.81302 13.2848 7.67656 14.2401 6.98049 14.9367C6.36771 15.5494 5.38527 15.8276 4.80466 15.2482C4.28279 14.7255 4.41841 13.7702 5.11535 13.0728Z" fill="#3DCA6C"/>
</g>
</g>
</svg>
