<svg width="19" height="20" viewBox="0 0 19 20" fill="none" xmlns="http://www.w3.org/2000/svg">
<g id="eggplant 1">
<g id="Group">
<path id="Vector" d="M14.1156 7.02963C14.0623 7.05512 14.0029 7.0646 13.9444 7.05692C13.8858 7.04924 13.8308 7.02473 13.786 6.98637C13.7411 6.948 13.7084 6.89744 13.6918 6.84082C13.6751 6.7842 13.6753 6.72397 13.6922 6.66744C13.8264 6.22034 14.0096 5.53189 14.1073 5.01562C13.4868 5.29647 12.7936 5.29528 12.3052 5.24006C11.1504 7.52452 8.93332 8.56417 6.90299 9.27994C6.47134 9.43194 6.04324 9.55158 5.62881 9.66736C4.58974 9.958 3.60857 10.2323 2.74081 10.9683C1.81218 11.7559 1.22229 12.9835 1.16321 14.2517C1.10918 15.4051 1.49364 16.4634 2.24503 17.2323C3.85914 18.883 6.1427 19.3404 8.51117 18.4869C15.3532 16.0214 16.4956 7.9538 16.6212 6.84467L15.8404 5.79552C15.2185 6.49614 14.1672 7.00498 14.1156 7.02963Z" fill="#0000FD"/>
<path id="Vector_2" d="M17.8215 1.51368C17.8374 1.47638 17.8457 1.4363 17.8458 1.39577C17.846 1.35524 17.8381 1.31508 17.8226 1.27765C17.807 1.24022 17.7842 1.20627 17.7553 1.17778C17.7265 1.14929 17.6923 1.12685 17.6547 1.11175C17.6171 1.09666 17.5768 1.08922 17.5363 1.08988C17.4958 1.09054 17.4558 1.09928 17.4187 1.11559C17.3816 1.1319 17.3481 1.15545 17.3202 1.18486C17.2923 1.21427 17.2706 1.24895 17.2563 1.28686C16.9033 2.16769 16.4212 2.66733 16.1757 2.841C15.4706 2.57233 14.5886 2.86238 13.8992 3.37419C13.7146 3.51105 12.9804 4.15289 12.4297 4.63888C12.9644 4.69261 13.7457 4.6656 14.2757 4.19C14.3182 4.15168 14.3707 4.12615 14.4271 4.11634C14.4836 4.10653 14.5416 4.11284 14.5946 4.13455C14.6476 4.15626 14.6934 4.19248 14.7267 4.23905C14.7601 4.28562 14.7796 4.34065 14.783 4.39782C14.8062 4.77485 14.6286 5.54821 14.4766 6.128C14.8727 5.87714 15.3515 5.51763 15.5786 5.1311C15.6041 5.08773 15.6399 5.05134 15.6828 5.02517C15.7258 4.99901 15.7745 4.98389 15.8248 4.98115C15.875 4.97842 15.9251 4.98816 15.9706 5.00951C16.0161 5.03085 16.0557 5.06314 16.0857 5.10349L17.1812 6.57599C17.2919 6.23904 17.4148 5.80382 17.4383 5.46983C17.4801 4.874 17.4006 4.0098 16.7828 3.27622C16.746 3.23362 16.7071 3.19299 16.6661 3.1545C16.9995 2.87841 17.4935 2.33216 17.8215 1.51368Z" fill="#0000FD"/>
</g>
</g>
</svg>
