<svg width="20" height="20" viewBox="0 0 20 20" fill="none" xmlns="http://www.w3.org/2000/svg">
<g id="fennel (1) 1" clip-path="url(#clip0_1248_21386)">
<g id="Group">
<g id="Group_2">
<path id="Vector" d="M7.28885 7.40152C6.67802 7.30488 6.05634 7.29824 5.44359 7.3818C5.359 6.56655 4.93735 3.26175 3.48438 1.44279L4.75633 0.714769C5.18674 1.41562 7.06882 4.62136 7.28972 7.40152H7.28885ZM11.2936 7.51329C11.902 7.29414 12.5402 7.16264 13.1915 7.13722C13.3212 6.40964 13.9909 3.05662 15.6083 1.32357L14.3964 0.5C13.8827 1.20874 11.4992 4.63495 11.2936 7.51373V7.51329ZM9.1547 19.2572C9.01532 19.2883 8.8698 19.3168 8.71684 19.3426L8.71333 19.3431H8.71202C8.46043 19.3685 4.4894 19.7047 3.58475 15.7464C3.41162 14.989 3.48394 14.0764 3.72062 13.1963C3.97352 12.254 4.41314 11.3546 4.93823 10.723C5.36163 10.2141 5.70087 9.77274 5.83149 9.27044C5.95071 8.81198 5.89373 8.32064 5.56588 7.71447C6.21559 7.63549 6.8738 7.66213 7.51501 7.79336C8.18912 7.92836 8.84526 8.16987 9.45845 8.49815C9.0718 8.78223 8.71179 9.10088 8.38285 9.45015C7.10651 10.8036 6.29916 12.6046 6.32721 14.4429L6.32896 14.5218C6.39646 16.9044 7.59171 18.4726 9.1547 19.2572Z" fill="#CA3C3D"/>
<path id="Vector_2" d="M14.0369 13.6718C14.0145 13.6319 13.9771 13.6026 13.933 13.5902C13.889 13.5779 13.8418 13.5836 13.802 13.606C13.7621 13.6284 13.7328 13.6658 13.7204 13.7099C13.7081 13.7539 13.7138 13.8011 13.7362 13.8409C14.8618 15.8339 14.8127 17.293 14.2008 18.2284C13.7616 18.8985 13.031 19.304 12.2381 19.4451C12.3038 19.353 12.3661 19.2457 12.4239 19.1225C12.8907 18.1284 13.1222 15.9974 12.569 12.7412C12.5593 12.6981 12.5334 12.6602 12.4967 12.6355C12.46 12.6108 12.4152 12.6011 12.3716 12.6084C12.3279 12.6157 12.2887 12.6395 12.262 12.6748C12.2353 12.7101 12.2232 12.7542 12.228 12.7982C12.768 15.9777 12.5541 18.0329 12.1114 18.9761C11.9488 19.3224 11.7687 19.4977 11.6004 19.5021L11.578 19.5012C11.4123 19.4907 11.2361 19.3153 11.077 18.9761C10.6343 18.0329 10.42 15.9777 10.96 12.7982C10.9649 12.7542 10.9527 12.7101 10.926 12.6748C10.8993 12.6395 10.8601 12.6157 10.8165 12.6084C10.7728 12.6011 10.728 12.6108 10.6913 12.6355C10.6546 12.6602 10.6287 12.6981 10.619 12.7412C10.0659 15.9974 10.2977 18.128 10.7641 19.1225C10.8219 19.2457 10.8846 19.3535 10.9504 19.4451C10.157 19.304 9.42639 18.8985 8.98764 18.2279C8.37534 17.293 8.32624 15.8339 9.45225 13.8405C9.46333 13.8208 9.47041 13.799 9.47309 13.7765C9.47577 13.7541 9.474 13.7313 9.46787 13.7095C9.46175 13.6877 9.45139 13.6673 9.43739 13.6495C9.42339 13.6317 9.40602 13.6169 9.38628 13.6058C9.36654 13.5947 9.34481 13.5876 9.32233 13.5849C9.29985 13.5823 9.27706 13.584 9.25526 13.5902C9.23347 13.5963 9.21309 13.6066 9.1953 13.6206C9.17751 13.6346 9.16265 13.652 9.15157 13.6718C7.95062 15.7984 8.02075 17.3837 8.69793 18.4177C8.77551 18.536 8.86141 18.6474 8.9539 18.7513C7.67405 17.9676 6.73214 16.5628 6.67472 14.5137C6.67384 14.4893 6.6731 14.4649 6.67253 14.4405C6.64623 12.6952 7.41677 10.9806 8.63437 9.68846C9.01231 9.28704 9.43311 8.92827 9.88923 8.61856C10.0324 8.52155 10.179 8.42974 10.3289 8.34331C10.604 8.18446 10.8899 8.04504 11.1844 7.92604C11.7918 7.67855 12.4352 7.53112 13.0897 7.48949C12.8785 8.14563 12.9126 8.63872 13.1143 9.06738C13.3356 9.53856 13.7498 9.9098 14.2591 10.3319C14.8929 10.857 15.4899 11.6599 15.9115 12.5387C16.3056 13.3601 16.5444 14.2437 16.5133 15.0209C16.4357 16.9766 15.3895 18.3046 14.0067 18.98C14.1914 18.8143 14.3539 18.6252 14.4901 18.4177C15.1673 17.3833 15.2378 15.7984 14.0369 13.6718ZM8.2925 7.63632C8.35649 7.23133 8.4871 6.28197 8.50726 5.17043C8.52962 3.94625 8.41741 2.52746 7.93353 1.42075L9.34924 1.04688C9.58111 1.82705 10.5546 5.35539 10.079 8.08909C9.97626 8.15005 9.87498 8.21348 9.77527 8.27931C9.30522 8.01299 8.80816 7.79745 8.2925 7.63632Z" fill="#CA3C3D"/>
</g>
</g>
</g>
<defs>
<clipPath id="clip0_1248_21386">
<rect width="19" height="19" fill="white" transform="translate(0.5 0.5)"/>
</clipPath>
</defs>
</svg>
