<svg width="19" height="20" viewBox="0 0 19 20" fill="none" xmlns="http://www.w3.org/2000/svg">
<g id="figs 1" clip-path="url(#clip0_1236_9010)">
<g id="Group">
<path id="Vector" d="M13.4174 6.18415C12.009 4.72453 10.891 2.9323 10.0944 0.857141L9.95727 0.5H9.04508L8.90726 0.855396C8.10262 2.93037 6.97976 4.72513 5.56994 6.18983C3.88317 7.94229 2.23633 9.85264 2.23633 12.2358C2.23633 16.2413 5.49501 19.5 9.50049 19.5C13.506 19.5 16.7646 16.2413 16.7646 12.2358C16.7646 9.86039 15.1113 7.94396 13.4174 6.18415ZM9.50049 17.2642C6.72534 17.2642 4.46757 15.1956 4.46757 12.6529C4.46757 10.8143 6.07329 9.10481 6.76363 8.45514C7.72673 7.54885 9.02415 5.60636 9.03714 5.58688L9.50145 4.88948L9.96447 5.58781C9.97742 5.60733 11.2725 7.55442 12.2281 8.4515C12.9216 9.10407 14.5334 10.8189 14.5334 12.6529C14.5334 15.1956 12.2756 17.2642 9.50049 17.2642Z" fill="#0000FD"/>
<path id="Vector_2" d="M11.4648 9.26429C10.7846 8.62571 9.98945 7.56535 9.49875 6.875C9.00676 7.56442 8.20935 8.62419 7.5258 9.26744C6.58519 10.1526 5.58008 11.5072 5.58008 12.6545C5.58008 14.5832 7.33839 16.1524 9.49972 16.1524C11.661 16.1524 13.4194 14.5832 13.4194 12.6545C13.4193 11.5109 12.4097 10.1534 11.4648 9.26429ZM9.49968 8.99183L10.2869 9.77903L9.49968 10.5662L8.71248 9.77903L9.49968 8.99183ZM6.47664 12.0147L7.26384 11.2275L8.05104 12.0147L7.26384 12.8019L6.47664 12.0147ZM8.38176 15.0378L7.59456 14.2506L8.38176 13.4634L9.16896 14.2506L8.38176 15.0378ZM8.71248 12.0147L9.49968 11.2275L10.2869 12.0147L9.49968 12.8019L8.71248 12.0147ZM10.6176 15.0378L9.8304 14.2506L10.6176 13.4634L11.4048 14.2506L10.6176 15.0378ZM12.5227 12.0147L11.7355 12.8019L10.9483 12.0147L11.7355 11.2275L12.5227 12.0147Z" fill="#0000FD"/>
</g>
</g>
<defs>
<clipPath id="clip0_1236_9010">
<rect width="19" height="19" fill="white" transform="translate(0 0.5)"/>
</clipPath>
</defs>
</svg>
