<svg width="14" height="14" viewBox="0 0 14 14" fill="none" xmlns="http://www.w3.org/2000/svg">
<g id="weightlifting 1" clip-path="url(#clip0_1797_267)">
<g id="Group">
<path id="Vector" d="M1.52036 7.15381C1.3719 7.24731 1.4121 7.22199 0.329279 8.30478C-0.10976 8.74382 -0.10976 9.45817 0.329279 9.89719L1.37723 10.9451L0.868869 11.4535C0.537491 11.7849 0.537491 12.3242 0.868897 12.6556L1.57584 13.3625C1.90799 13.6947 2.44577 13.6948 2.778 13.3625L3.28633 12.8542L4.10283 13.6707C4.54184 14.1097 5.2562 14.1097 5.69524 13.6707C6.79134 12.5746 6.75511 12.6243 6.8462 12.4796L1.52036 7.15381ZM13.6707 4.1028L12.6228 3.05485L13.1311 2.54652C13.4625 2.21508 13.4625 1.67582 13.1311 1.34436L12.4242 0.637441C12.092 0.305242 11.5542 0.30516 11.222 0.637441L10.7137 1.14575L9.89719 0.329279C9.45815 -0.10976 8.74379 -0.10976 8.30478 0.329279C7.20867 1.42541 7.2449 1.37567 7.15381 1.52039L12.4796 6.8462C12.6281 6.7527 12.5879 6.77803 13.6707 5.69524C14.1098 5.2562 14.1098 4.54184 13.6707 4.1028ZM3.9431 8.33989L8.33838 3.9446L10.0765 5.68274L5.68126 10.078L3.9431 8.33989Z" fill="#999999"/>
</g>
</g>
<defs>
<clipPath id="clip0_1797_267">
<rect width="14" height="14" fill="white"/>
</clipPath>
</defs>
</svg>
