<svg width="20" height="20" viewBox="0 0 20 20" fill="none" xmlns="http://www.w3.org/2000/svg">
<g id="Flax-Seeds">
<g id="Group">
<path id="Vector" d="M5.79622 12.5388C5.76264 12.5206 5.7252 12.5109 5.68704 12.5103C5.64619 12.5133 5.60656 12.5256 5.57106 12.546C5.53557 12.5665 5.50512 12.5947 5.48198 12.6285C5.29606 12.8531 4.7867 13.1935 4.23644 13.5521C4.18256 13.5871 4.12719 13.62 4.06863 13.6548C3.66777 13.8928 3.16888 14.1889 2.80439 15.4089C2.47612 16.5077 2.96693 17.1065 3.30878 17.2872C3.44611 17.3565 3.59814 17.3916 3.75194 17.3895C4.06633 17.3895 4.55113 17.2541 5.07511 16.6091C5.87786 15.6206 5.84149 15.0416 5.81233 14.5762C5.80802 14.5083 5.80394 14.4441 5.80268 14.3805C5.78895 13.7231 5.78338 13.1106 5.86406 12.8304C5.92803 12.6085 5.83897 12.5615 5.79622 12.5388ZM4.68494 14.2417C4.6174 14.2858 4.55194 14.3246 4.48863 14.3622C4.16793 14.5526 3.86505 14.7324 3.59267 15.6444L3.27969 15.5509C3.58873 14.5167 3.97816 14.2855 4.32186 14.0814C4.38426 14.0449 4.44588 14.0071 4.50667 13.9681C4.68361 13.8527 4.87108 13.7298 5.04297 13.6125L5.22704 13.8824C5.04759 14.004 4.86688 14.1238 4.68494 14.2417ZM12.9756 9.06205C12.6197 8.94546 12.2486 8.88201 11.8742 8.87376C11.3803 8.87376 11.0799 9.01871 10.815 9.14658C10.7536 9.17627 10.6956 9.20418 10.6373 9.22941C10.0339 9.49014 9.46864 9.72668 9.17867 9.75763C9.02629 9.77381 8.94265 9.84521 8.93033 9.96989C8.92551 10.0181 8.91556 10.1183 9.13592 10.1876C9.41424 10.2752 9.92189 10.6184 10.4618 10.9929C10.5153 11.0305 10.5679 11.0693 10.6198 11.1092C10.9337 11.3468 11.3246 11.6426 12.2359 11.6426C12.3876 11.6426 12.5509 11.6342 12.7213 11.6177C14.0975 11.4842 14.2466 10.68 14.2625 10.5202C14.3008 10.1355 14.0728 9.39551 12.9755 9.06205H12.9756ZM13.361 10.1818C13.2472 10.0262 13.0325 9.89701 12.7404 9.80824C11.8298 9.53141 11.5125 9.68452 11.1766 9.84662L11.0347 9.55249C11.3947 9.37881 11.8026 9.18184 12.8354 9.49578C13.2009 9.60689 13.4664 9.77277 13.6245 9.98897L13.361 10.1818ZM11.1755 13.905C11.1492 13.8467 11.1251 13.787 11.0995 13.7239C10.9251 13.2915 10.7079 12.7535 9.55718 12.2083C9.26794 12.0624 8.94996 11.9824 8.62611 11.9741C8.13255 11.9741 7.78491 12.2056 7.62423 12.4222C7.52849 12.5512 7.09802 13.2467 8.02679 14.2709C8.88216 15.214 9.46003 15.2659 9.92434 15.3076C9.98951 15.313 10.0546 15.3198 10.1195 15.3278C10.7709 15.4138 11.3775 15.501 11.6423 15.6234C11.695 15.6504 11.7527 15.6659 11.8118 15.6689C11.8374 15.6697 11.8627 15.6638 11.8853 15.6518C11.908 15.6398 11.9271 15.6221 11.9408 15.6005C12.0155 15.4999 12.0016 15.3908 11.8997 15.2763C11.706 15.0586 11.4466 14.5034 11.1755 13.905ZM10.3613 13.9987C10.2216 13.6529 10.0897 13.3263 9.22943 12.9188C8.95356 12.788 8.70782 12.7393 8.51894 12.7779L8.45362 12.458C8.71599 12.4043 9.02407 12.4601 9.36926 12.6236C10.3448 13.0858 10.5144 13.5058 10.664 13.8764L10.3613 13.9987ZM6.91715 10.3262C6.69865 10.133 6.37468 9.61283 6.03394 9.05099C6.00084 8.99651 5.96982 8.94018 5.93694 8.88051C5.71198 8.47216 5.43203 7.96391 4.22442 7.56038C3.9837 7.47614 3.73099 7.43118 3.47599 7.42723C2.87371 7.42723 2.48272 7.73791 2.33087 8.00391C2.25131 8.14344 1.90708 8.88533 2.95171 9.7911C3.77094 10.5015 4.3301 10.5973 4.76896 10.5973C4.83494 10.5973 4.8984 10.5954 4.9597 10.5936C5.01586 10.5916 5.07205 10.5904 5.12825 10.5901L5.15571 10.5902C5.8127 10.5976 6.42537 10.6117 6.70295 10.7015C6.74945 10.7178 6.79816 10.7267 6.84738 10.7281C6.87788 10.7304 6.90836 10.7235 6.93493 10.7084C6.96151 10.6932 6.98296 10.6705 6.99656 10.6431C7.05868 10.5343 7.03196 10.4277 6.91715 10.3262ZM5.23683 9.24173C5.05685 8.91517 4.88689 8.60664 3.98402 8.3048C3.69449 8.20809 3.44475 8.18909 3.26187 8.25002L3.15856 7.94023C3.41269 7.85562 3.72522 7.87403 4.08756 7.99515C5.1114 8.3373 5.32998 8.73408 5.52287 9.08417L5.23683 9.24173ZM17.5437 11.1064C17.3369 10.9514 17.0842 10.8701 16.8258 10.8755C16.4283 10.8755 16.0222 11.0462 15.6186 11.3828C14.6409 12.1986 14.5652 12.7739 14.5045 13.2362C14.4955 13.3037 14.4872 13.3674 14.4763 13.43C14.3634 14.0779 14.2512 14.6801 14.1181 14.9394C14.0482 15.0757 14.0621 15.1848 14.1595 15.2635C14.1867 15.2885 14.2222 15.3026 14.2591 15.3033C14.3325 15.2946 14.401 15.2622 14.4543 15.211C14.6801 15.0262 15.2455 14.79 15.8548 14.5438C15.9137 14.5199 15.9743 14.4983 16.0386 14.4755C16.4777 14.3189 17.0243 14.1241 17.6164 12.997C18.2593 11.773 17.6686 11.2073 17.5436 11.1064H17.5437ZM16.1137 11.9886C15.3828 12.5984 15.3368 12.9475 15.2882 13.3173L14.9644 13.2749C15.0166 12.8785 15.0757 12.4294 15.9044 11.7379C16.1978 11.4932 16.4821 11.3622 16.7496 11.3485L16.7663 11.6746C16.5737 11.6845 16.348 11.7931 16.1137 11.9886ZM13.6008 7.18669C14.0252 7.68878 14.4151 8.16133 14.5287 8.42985C14.5802 8.5518 14.6539 8.6111 14.7541 8.6111C14.7708 8.61107 14.7875 8.60943 14.8039 8.6062C14.8514 8.59685 14.9502 8.57733 14.9527 8.34643C14.9559 8.05475 15.1375 7.46954 15.3395 6.84447C15.3592 6.78361 15.3815 6.72334 15.4051 6.65944C15.5669 6.22214 15.7682 5.67797 15.2836 4.50049C14.8482 3.44243 14.2038 3.32813 13.9469 3.32813C13.8932 3.32792 13.8396 3.33292 13.7869 3.34305C13.4076 3.41779 12.7653 3.85019 12.7637 4.99694C12.7619 6.27024 13.1546 6.69729 13.4701 7.04055C13.5162 7.09072 13.5598 7.13815 13.6008 7.18669H13.6008ZM13.4631 4.1075L13.7239 4.30389C13.608 4.45789 13.5464 4.70073 13.546 5.00599C13.5447 5.95792 13.7831 6.21724 14.0354 6.49185L13.7951 6.71273C13.5246 6.41845 13.218 6.08499 13.2195 5.00547C13.22 4.62355 13.302 4.3214 13.4632 4.10743L13.4631 4.1075ZM8.95467 8.00042C10.0809 7.40667 10.275 6.8599 10.4309 6.42053C10.4537 6.35626 10.4752 6.29562 10.4989 6.23662C10.7442 5.62706 10.9797 5.06114 11.1641 4.83514C11.3101 4.65628 11.2467 4.57798 11.2162 4.54035C11.1965 4.51433 11.1711 4.49316 11.142 4.47843C11.1129 4.46371 11.0809 4.45582 11.0482 4.45537C10.9934 4.45752 10.9399 4.47263 10.892 4.49945C10.6328 4.63297 10.0305 4.74601 9.38351 4.85971C9.32057 4.87077 9.25674 4.87923 9.1892 4.88821C8.72704 4.94966 8.15185 5.02618 7.3376 6.00505C6.60431 6.88662 6.82051 7.63015 7.06395 7.93044C7.13312 8.01579 7.39964 8.29433 7.92452 8.29433C8.23809 8.29433 8.58462 8.19547 8.95467 8.00042ZM7.30486 7.136C7.31822 6.86844 7.44892 6.58389 7.6931 6.29028C8.38356 5.46036 8.83258 5.40069 9.22876 5.34799L9.27181 5.67166C8.9022 5.72087 8.553 5.76726 7.94418 6.49913C7.74899 6.73381 7.6407 6.95965 7.63106 7.15225L7.30486 7.136Z" fill="#CA3C3D"/>
</g>
</g>
</svg>
