<svg width="19" height="20" viewBox="0 0 19 20" fill="none" xmlns="http://www.w3.org/2000/svg">
<g id="flower 1">
<g id="Group">
<g id="Layer 6">
<path id="Vector" d="M10.3906 9.40625C10.3119 9.40625 10.2364 9.37497 10.1807 9.3193C10.125 9.26362 10.0938 9.18811 10.0938 9.10938C10.0938 8.9519 10.0312 8.80088 9.91985 8.68953C9.8085 8.57818 9.65747 8.51562 9.5 8.51562C9.34253 8.51562 9.19151 8.57818 9.08016 8.68953C8.96881 8.80088 8.90625 8.9519 8.90625 9.10938C8.90625 9.18811 8.87497 9.26362 8.8193 9.3193C8.76362 9.37497 8.68811 9.40625 8.60938 9.40625C8.4519 9.40625 8.30088 9.46881 8.18953 9.58016C8.07818 9.69151 8.01562 9.84253 8.01562 10C8.01562 10.1575 8.07818 10.3085 8.18953 10.4198C8.30088 10.5312 8.4519 10.5938 8.60938 10.5938C8.68811 10.5938 8.76362 10.625 8.8193 10.6807C8.87497 10.7364 8.90625 10.8119 8.90625 10.8906C8.90625 11.0481 8.96881 11.1991 9.08016 11.3105C9.19151 11.4218 9.34253 11.4844 9.5 11.4844C9.65747 11.4844 9.8085 11.4218 9.91985 11.3105C10.0312 11.1991 10.0938 11.0481 10.0938 10.8906C10.0938 10.8119 10.125 10.7364 10.1807 10.6807C10.2364 10.625 10.3119 10.5938 10.3906 10.5938C10.5481 10.5938 10.6991 10.5312 10.8105 10.4198C10.9218 10.3085 10.9844 10.1575 10.9844 10C10.9844 9.84253 10.9218 9.69151 10.8105 9.58016C10.6991 9.46881 10.5481 9.40625 10.3906 9.40625Z" fill="#CA3C3D"/>
<path id="Vector_2" d="M12.1169 9.47942C12.1043 9.41491 12.1134 9.34802 12.1428 9.28925C12.1722 9.23047 12.2204 9.18312 12.2796 9.15464C12.7445 8.95723 13.17 8.67766 13.5357 8.32933C13.0307 8.34271 12.5322 8.44637 12.0638 8.63541C12.0016 8.65725 11.934 8.6578 11.8715 8.63697C11.809 8.61615 11.7552 8.57514 11.7186 8.52039C11.682 8.46564 11.6646 8.40027 11.6692 8.33456C11.6738 8.26885 11.7001 8.20654 11.744 8.15744C12.0969 7.79641 12.3822 7.37513 12.5866 6.91353C12.125 7.11812 11.7038 7.40378 11.343 7.75695C11.2939 7.80079 11.2316 7.82707 11.166 7.83166C11.1003 7.83626 11.035 7.81891 10.9803 7.78234C10.9256 7.74577 10.8845 7.69206 10.8637 7.62964C10.8428 7.56722 10.8433 7.49964 10.865 7.43752C11.0537 6.96825 11.1572 6.46912 11.1708 5.96353C10.8225 6.32919 10.543 6.7547 10.3458 7.21961C10.3173 7.27897 10.2699 7.32718 10.211 7.35666C10.1522 7.38614 10.0852 7.39523 10.0206 7.38248C9.95602 7.36973 9.8975 7.33588 9.85425 7.28624C9.81101 7.23661 9.78549 7.17401 9.7817 7.10828C9.7751 6.60365 9.67942 6.10416 9.49908 5.63281C9.31863 6.10444 9.22295 6.60425 9.21645 7.10917C9.21267 7.1749 9.18715 7.2375 9.1439 7.28713C9.10066 7.33677 9.04214 7.37062 8.97755 7.38337C8.91297 7.39612 8.84598 7.38703 8.78711 7.35755C8.72825 7.32807 8.68086 7.27986 8.65239 7.2205C8.45528 6.75527 8.17579 6.32945 7.82737 5.96353C7.84118 6.46874 7.94482 6.96745 8.13345 7.43633C8.15518 7.49845 8.15564 7.56603 8.13478 7.62845C8.11391 7.69087 8.0729 7.74458 8.01818 7.78115C7.96346 7.81772 7.89814 7.83507 7.83249 7.83048C7.76684 7.82588 7.70457 7.7996 7.65548 7.75577C7.29448 7.40299 6.87319 7.11774 6.41158 6.91353C6.6163 7.37505 6.90194 7.79623 7.255 8.15714C7.29883 8.20623 7.32511 8.26849 7.32971 8.33415C7.33431 8.3998 7.31695 8.46512 7.28039 8.51983C7.24382 8.57455 7.1901 8.61557 7.12769 8.63643C7.06527 8.6573 6.99769 8.65683 6.93556 8.63511C6.46645 8.44594 5.96723 8.34238 5.46158 8.32933C5.82729 8.67766 6.25278 8.95723 6.71766 9.15464C6.77701 9.18311 6.82523 9.2305 6.85471 9.28936C6.88419 9.34823 6.89327 9.41522 6.88053 9.4798C6.86778 9.54439 6.83393 9.60291 6.78429 9.64615C6.73465 9.6894 6.67205 9.71492 6.60633 9.7187C6.10174 9.72537 5.60227 9.82094 5.13086 10.001C5.60253 10.1813 6.10231 10.277 6.60722 10.2837C6.67294 10.2874 6.73554 10.313 6.78518 10.3562C6.83482 10.3995 6.86867 10.458 6.88142 10.5226C6.89416 10.5871 6.88508 10.6541 6.8556 10.713C6.82612 10.7719 6.77791 10.8192 6.71855 10.8477C6.25346 11.045 5.82768 11.3243 5.46158 11.6724C5.96682 11.6592 6.46562 11.5557 6.93438 11.3667C6.9965 11.3449 7.06408 11.3445 7.1265 11.3653C7.18892 11.3862 7.24263 11.4272 7.2792 11.4819C7.31577 11.5366 7.33312 11.602 7.32852 11.6676C7.32393 11.7333 7.29765 11.7955 7.25381 11.8446C6.90114 12.2057 6.61591 12.627 6.41158 13.0885C6.87317 12.8839 7.29436 12.5983 7.65519 12.2451C7.70428 12.2013 7.76654 12.175 7.83219 12.1704C7.89785 12.1658 7.96316 12.1832 8.01788 12.2197C8.0726 12.2563 8.11361 12.31 8.13448 12.3724C8.15535 12.4348 8.15488 12.5024 8.13316 12.5645C7.94449 13.0338 7.84094 13.5329 7.82737 14.0385C8.17578 13.6729 8.45527 13.2474 8.65239 12.7825C8.67662 12.7322 8.71454 12.6897 8.7618 12.66C8.80906 12.6303 8.86375 12.6145 8.91958 12.6144C8.93882 12.6144 8.95801 12.6163 8.97688 12.6201C9.04113 12.6331 9.09927 12.667 9.14224 12.7165C9.1852 12.766 9.21056 12.8283 9.21438 12.8938C9.22165 13.3985 9.31803 13.898 9.49908 14.3693C9.67952 13.8976 9.7752 13.3978 9.7817 12.8929C9.78549 12.8272 9.81101 12.7646 9.85425 12.7149C9.8975 12.6653 9.95602 12.6314 10.0206 12.6187C10.0852 12.6059 10.1522 12.615 10.211 12.6445C10.2699 12.674 10.3173 12.7222 10.3458 12.7816C10.5428 13.2468 10.8223 13.6727 11.1708 14.0385C11.157 13.5333 11.0533 13.0346 10.8647 12.5657C10.843 12.5036 10.8425 12.436 10.8634 12.3736C10.8842 12.3112 10.9253 12.2575 10.98 12.2209C11.0347 12.1843 11.1 12.167 11.1657 12.1716C11.2313 12.1762 11.2936 12.2025 11.3427 12.2463C11.7037 12.5991 12.125 12.8843 12.5866 13.0885C12.3818 12.627 12.0961 12.2058 11.7429 11.8449C11.699 11.7958 11.6726 11.7335 11.668 11.6678C11.6634 11.6021 11.6808 11.5367 11.7174 11.482C11.754 11.4272 11.8078 11.3862 11.8703 11.3654C11.9328 11.3446 12.0004 11.3451 12.0626 11.367C12.5318 11.5556 13.031 11.6591 13.5366 11.6724C13.1708 11.3243 12.7453 11.0449 12.2805 10.8474C12.2211 10.819 12.1729 10.7716 12.1434 10.7127C12.114 10.6538 12.1049 10.5868 12.1176 10.5223C12.1304 10.4577 12.1642 10.3992 12.2139 10.3559C12.2635 10.3127 12.3261 10.2871 12.3918 10.2834C12.8964 10.2767 13.3959 10.1811 13.8673 10.001C13.3956 9.82074 12.8958 9.72506 12.3909 9.71841C12.3252 9.71458 12.2627 9.68903 12.2131 9.64577C12.1635 9.60251 12.1296 9.544 12.1169 9.47942ZM10.6569 11.1588C10.5971 11.4212 10.45 11.6555 10.2396 11.8233C10.0293 11.9911 9.76816 12.0825 9.49908 12.0825C9.22999 12.0825 8.96889 11.9911 8.75853 11.8233C8.54818 11.6555 8.40106 11.4212 8.34127 11.1588C8.07891 11.0991 7.84464 10.9519 7.67683 10.7416C7.50902 10.5312 7.41763 10.2701 7.41763 10.001C7.41763 9.73195 7.50902 9.47084 7.67683 9.26049C7.84464 9.05013 8.07891 8.90301 8.34127 8.84322C8.40106 8.58086 8.54818 8.34659 8.75853 8.17878C8.96889 8.01098 9.22999 7.91959 9.49908 7.91959C9.76816 7.91959 10.0293 8.01098 10.2396 8.17878C10.45 8.34659 10.5971 8.58086 10.6569 8.84322C10.9192 8.90301 11.1535 9.05013 11.3213 9.26049C11.4891 9.47084 11.5805 9.73195 11.5805 10.001C11.5805 10.2701 11.4891 10.5312 11.3213 10.7416C11.1535 10.9519 10.9192 11.0991 10.6569 11.1588Z" fill="#CA3C3D"/>
<path id="Vector_3" d="M15.1368 10.8292C17.3969 10.6407 18.1094 10.1283 18.1094 10C18.1094 9.87175 17.3969 9.35934 15.1368 9.17083C15.0725 9.16553 15.0117 9.13944 14.9635 9.0965C14.9154 9.05356 14.8826 8.99612 14.87 8.93285C14.8574 8.86959 14.8658 8.80395 14.8938 8.74586C14.9219 8.68778 14.9681 8.64041 15.0254 8.61092C17.0406 7.57245 17.5037 6.82344 17.4562 6.70469C17.4088 6.58594 16.5538 6.38703 14.3946 7.0737C14.3332 7.09328 14.267 7.09234 14.2062 7.071C14.1453 7.04967 14.0931 7.00911 14.0574 6.95546C14.0216 6.9018 14.0043 6.83797 14.008 6.77361C14.0118 6.70924 14.0364 6.64785 14.0781 6.5987C15.539 4.8703 15.678 4.00312 15.5859 3.91406C15.4939 3.825 14.6288 3.96186 12.8998 5.42397C12.8507 5.4657 12.7893 5.49029 12.7249 5.49404C12.6605 5.49778 12.5967 5.48047 12.5431 5.44473C12.4894 5.40898 12.4488 5.35674 12.4275 5.2959C12.4062 5.23506 12.4052 5.16893 12.4248 5.1075C13.113 2.94773 12.912 2.09392 12.7953 2.04375C12.6786 1.99358 11.9284 2.45789 10.8903 4.47367C10.8607 4.5309 10.8133 4.57697 10.7553 4.60492C10.6973 4.63287 10.6317 4.64119 10.5686 4.62862C10.5054 4.61606 10.448 4.58328 10.4051 4.53525C10.3622 4.48722 10.3361 4.42653 10.3307 4.36234C10.1404 2.10313 9.62825 1.39062 9.5 1.39062C9.37175 1.39062 8.85964 2.10312 8.67053 4.36323C8.66513 4.42742 8.639 4.48811 8.59609 4.53614C8.55317 4.58417 8.4958 4.61695 8.43263 4.62951C8.36945 4.64208 8.30391 4.63376 8.24587 4.60581C8.18784 4.57786 8.14048 4.53179 8.11092 4.47456C7.07186 2.45759 6.32492 1.99862 6.20439 2.04523C6.08386 2.09184 5.88703 2.94773 6.574 5.10661C6.59358 5.16804 6.59263 5.23417 6.5713 5.29501C6.54997 5.35585 6.50941 5.40809 6.45575 5.44384C6.4021 5.47958 6.33827 5.49689 6.2739 5.49315C6.20954 5.4894 6.14815 5.46481 6.099 5.42308C4.3703 3.96097 3.50312 3.82233 3.41406 3.91406C3.325 4.0058 3.46186 4.87119 4.92427 6.59989C4.96599 6.64904 4.99059 6.71043 4.99433 6.77479C4.99808 6.83916 4.98077 6.90299 4.94502 6.95664C4.90928 7.0103 4.85703 7.05086 4.79619 7.07219C4.73535 7.09352 4.66922 7.09447 4.6078 7.07489C2.44803 6.38733 1.59422 6.58831 1.54375 6.70617C1.49328 6.82403 1.9573 7.57245 3.97367 8.61092C4.03104 8.64041 4.07724 8.68778 4.10529 8.74586C4.13334 8.80395 4.1417 8.86959 4.12913 8.93285C4.11655 8.99612 4.08371 9.05356 4.03557 9.0965C3.98744 9.13944 3.92663 9.16553 3.86234 9.17083C1.60313 9.35934 0.890625 9.87175 0.890625 10C0.890625 10.1283 1.60312 10.6407 3.86323 10.8292C3.92752 10.8345 3.98833 10.8606 4.03646 10.9035C4.0846 10.9464 4.11744 11.0039 4.13002 11.0671C4.1426 11.1304 4.13423 11.1961 4.10618 11.2541C4.07813 11.3122 4.03193 11.3596 3.97456 11.3891C1.95937 12.4275 1.49625 13.1766 1.54523 13.2953C1.59422 13.4141 2.44744 13.6127 4.60691 12.9263C4.66833 12.9067 4.73446 12.9077 4.7953 12.929C4.85614 12.9503 4.90839 12.9909 4.94413 13.0445C4.97988 13.0982 4.99719 13.162 4.99344 13.2264C4.9897 13.2908 4.9651 13.3522 4.92338 13.4013C3.46097 15.1297 3.32203 15.9969 3.41406 16.0859C3.50609 16.175 4.37119 16.0381 6.10019 14.576C6.14933 14.5343 6.21073 14.5097 6.27509 14.506C6.33945 14.5022 6.40329 14.5195 6.45694 14.5553C6.51059 14.591 6.55115 14.6433 6.57249 14.7041C6.59382 14.7649 6.59477 14.8311 6.57519 14.8925C5.88703 17.0523 6.08802 17.9061 6.20469 17.9562C6.32759 18.0055 7.07186 17.5421 8.10973 15.5263C8.13929 15.4691 8.18666 15.423 8.24469 15.3951C8.30272 15.3671 8.36827 15.3588 8.43144 15.3714C8.49461 15.3839 8.55199 15.4167 8.5949 15.4648C8.63781 15.5128 8.66394 15.5735 8.66934 15.6377C8.85964 17.8969 9.37175 18.6094 9.5 18.6094C9.62825 18.6094 10.1404 17.8969 10.3295 15.6368C10.3349 15.5726 10.361 15.5119 10.4039 15.4639C10.4468 15.4158 10.5042 15.3831 10.5674 15.3705C10.6305 15.3579 10.6961 15.3662 10.7541 15.3942C10.8122 15.4221 10.8595 15.4682 10.8891 15.5254C11.9281 17.5424 12.6766 18.0014 12.7956 17.9548C12.9147 17.9082 13.113 17.0523 12.426 14.8934C12.4064 14.832 12.4074 14.7658 12.4287 14.705C12.45 14.6442 12.4906 14.5919 12.5442 14.5562C12.5979 14.5204 12.6617 14.5031 12.7261 14.5069C12.7905 14.5106 12.8519 14.5352 12.901 14.5769C14.63 16.0387 15.4957 16.1777 15.5871 16.0868C15.6786 15.996 15.5393 15.1297 14.0769 13.401C14.0352 13.3519 14.0106 13.2905 14.0069 13.2261C14.0031 13.1617 14.0204 13.0979 14.0562 13.0442C14.0919 12.9906 14.1442 12.95 14.205 12.9287C14.2658 12.9074 14.332 12.9064 14.3934 12.926C16.5523 13.6127 17.4061 13.412 17.4562 13.2953C17.5064 13.1786 17.0427 12.429 15.0263 11.3906C14.969 11.3611 14.9228 11.3137 14.8947 11.2556C14.8667 11.1975 14.8583 11.1319 14.8709 11.0686C14.8835 11.0054 14.9163 10.9479 14.9644 10.905C15.0126 10.862 15.0734 10.836 15.1377 10.8307L15.1368 10.8292ZM13.3594 10.7668C13.8837 11.1079 14.3248 11.5313 14.1609 11.9291C13.9971 12.3269 13.3846 12.315 12.7704 12.1856C13.1242 12.7028 13.3698 13.2641 13.0672 13.5678C12.7647 13.8715 12.2025 13.6272 11.6853 13.271C11.8147 13.8855 11.8272 14.4985 11.4291 14.6615C11.031 14.8245 10.6076 14.3831 10.2665 13.86C10.1502 14.4763 9.9272 15.0475 9.4997 15.0475C9.0722 15.0475 8.84925 14.4769 8.73287 13.86C8.39206 14.3845 7.96783 14.8254 7.57031 14.6615C7.1728 14.4977 7.18437 13.8858 7.31411 13.2713C6.79695 13.6248 6.23645 13.8707 5.93216 13.5681C5.62786 13.2656 5.87278 12.7033 6.22903 12.1862C5.61509 12.3159 5.00175 12.3281 4.83847 11.93C4.67519 11.5319 5.11694 11.1085 5.64003 10.7674C5.02402 10.6513 4.45253 10.4284 4.45253 10.0006C4.45253 9.5728 5.02342 9.34984 5.64003 9.23377C5.11575 8.89266 4.67459 8.46931 4.83847 8.0715C5.00234 7.67369 5.6148 7.68556 6.22903 7.8147C5.87516 7.29755 5.62964 6.73645 5.93216 6.43275C6.23467 6.12905 6.79695 6.37337 7.31411 6.72962C7.18467 6.11539 7.1722 5.50205 7.57031 5.33906C7.96842 5.17608 8.39147 5.61753 8.73287 6.14062C8.84925 5.52431 9.0722 4.95312 9.4997 4.95312C9.9272 4.95312 10.1502 5.52372 10.2665 6.14062C10.607 5.61664 11.0283 5.17548 11.4291 5.33906C11.8299 5.50264 11.815 6.11539 11.6853 6.72962C12.2025 6.37575 12.763 6.13053 13.0672 6.43275C13.3715 6.73497 13.1266 7.29725 12.7704 7.81441C13.3849 7.68497 13.9974 7.6728 14.1609 8.07091C14.3245 8.46902 13.8825 8.89236 13.3594 9.23347C13.9754 9.34955 14.5469 9.5725 14.5469 10.0003C14.5469 10.4281 13.976 10.6508 13.3594 10.7668Z" fill="#CA3C3D"/>
</g>
</g>
</g>
</svg>
