<svg width="20" height="20" viewBox="0 0 20 20" fill="none" xmlns="http://www.w3.org/2000/svg">
<g id="ginger 1">
<g id="Group">
<path id="Vector" d="M5.39678 11.135C5.68811 10.7835 5.87811 10.3117 5.92244 9.88419C5.53611 9.23186 5.06111 8.82019 4.48478 8.64603C3.93378 8.47819 3.35744 8.61436 3.02178 8.99119C2.39161 9.69736 2.92678 10.6727 3.34161 11.135C3.57911 11.4042 3.85461 11.6354 4.14594 11.8824C4.63361 11.7874 5.08644 11.5214 5.39678 11.135ZM8.21163 6.19819C8.25596 5.88469 8.15463 5.55219 7.93296 5.26403C7.67646 4.93153 7.28696 4.70353 6.89746 4.65603C6.15329 4.56736 5.34579 4.99803 4.88663 5.72636C4.73463 5.96703 4.63013 6.22036 4.55413 6.47686C5.72263 6.13486 6.97663 6.10953 8.16413 6.39453C8.17996 6.32803 8.20213 6.26153 8.21163 6.19819ZM8.58561 16.7685C8.09794 16.6134 7.66728 16.4835 7.23661 16.4994C6.91678 16.5152 6.62861 16.6324 6.43228 16.8065C6.56844 17.0725 6.74894 17.31 6.97694 17.4969C7.16694 17.652 7.36961 17.7629 7.59444 17.8389C8.25311 18.051 9.15561 17.8357 9.45011 17.1707C9.46594 17.1359 9.48178 17.0979 9.49444 17.0567C9.26961 16.9839 9.04478 16.9142 8.81994 16.8414L8.58561 16.7685ZM9.74746 14.3587C9.23446 14.3587 8.65813 14.2795 8.29079 14.1624C8.18629 14.1275 8.07863 14.0927 7.97413 14.0579C7.59096 13.928 7.22679 13.8045 6.85629 13.776C6.53646 13.7475 6.13113 13.8077 5.85879 14.0357C6.06146 14.5519 6.17229 15.1124 6.16913 15.6729C6.16913 15.8439 6.18496 16.0085 6.21663 16.17C6.49529 15.9927 6.84046 15.885 7.21096 15.8692C7.74296 15.847 8.23379 15.9895 8.77529 16.1637L9.00963 16.2397C9.24079 16.3125 9.47196 16.3854 9.70629 16.4582C9.74113 16.379 9.78546 16.2999 9.83929 16.2239C9.97229 16.0465 10.1401 15.923 10.327 15.8344C10.1686 15.4702 10.0546 14.9255 10.0451 14.346C9.95013 14.3524 9.85196 14.3587 9.74746 14.3587ZM11.847 13.8235C11.6633 13.339 11.6031 12.807 11.6665 12.2909C11.4575 12.427 11.2548 12.6012 11.0553 12.807C10.8241 13.1585 10.7133 13.5892 10.6816 14.0135C10.6816 14.023 10.6816 14.0325 10.6785 14.0389C10.6341 14.7007 10.7766 15.3435 10.9381 15.6539C11.125 15.6222 11.3118 15.6064 11.4828 15.5937L11.6886 15.5747C12.1383 15.5335 12.5563 15.4164 12.9205 15.2422C12.4423 14.8812 12.0591 14.3809 11.847 13.8235Z" fill="#CA3C3D"/>
<path id="Vector_2" d="M13.2213 9.28433C12.9458 9.126 12.702 8.91066 12.4645 8.70483C12.1541 8.4325 11.8596 8.176 11.5176 8.062C11.3878 8.02083 11.2485 7.9955 11.0996 7.97333C10.9255 7.94483 10.7481 7.91316 10.5676 7.853C10.441 7.80866 10.3048 7.739 10.1813 7.64716C10.0863 7.853 9.97547 8.0525 9.83614 8.23933C9.5923 8.56866 9.2028 8.87583 8.77214 8.87583C8.67714 8.87583 8.57897 8.86 8.4808 8.82833C7.9013 8.63516 7.71764 7.94166 7.8348 7.3875C7.86647 7.24816 7.90764 7.11833 7.95514 6.99483C6.78664 6.7225 5.54847 6.79216 4.41164 7.188C4.38314 7.46666 4.38314 7.73583 4.3958 7.97333C4.48764 7.98916 4.57947 8.01133 4.66814 8.03666C5.67514 8.34066 6.44464 9.20833 6.95764 10.6112C6.98632 10.6897 6.98277 10.7764 6.94777 10.8523C6.91276 10.9283 6.84915 10.9873 6.7708 11.0165C6.60614 11.0767 6.42247 10.9912 6.3623 10.8297C6.35684 10.81 6.34941 10.7909 6.34014 10.7727C6.22614 11.045 6.07414 11.3078 5.89047 11.5327C5.57999 11.9135 5.17325 12.2043 4.71247 12.375C4.84864 12.5048 4.98164 12.6347 5.1083 12.7772C5.2888 12.9862 5.44397 13.211 5.5833 13.4517C5.93797 13.2142 6.40347 13.1002 6.90697 13.1413C7.35664 13.1793 7.77464 13.3187 8.1768 13.4548C8.27814 13.4897 8.37947 13.5245 8.48397 13.5562C8.8703 13.6797 9.60814 13.7588 10.0831 13.7082C10.1465 13.2617 10.2826 12.8247 10.5296 12.4542C11.0901 11.1685 12.0496 10.057 13.2213 9.28433ZM13.6488 12.1312C13.3068 11.9063 12.835 11.8462 12.3726 11.9665C12.2206 12.4953 12.2428 13.0812 12.4391 13.5973C12.6386 14.123 13.025 14.579 13.5063 14.8735C13.6931 14.7183 13.8546 14.5473 13.975 14.351C14.3993 13.6828 14.3486 12.5935 13.6488 12.1312ZM14.3676 5.41466C13.8736 5.7915 13.5316 6.295 13.3575 6.59266C13.2688 6.74466 13.0756 6.79533 12.9236 6.70666C12.7748 6.618 12.7241 6.42483 12.8096 6.27283C13.2371 5.54133 13.766 4.99666 14.355 4.66416C14.6463 4.0245 14.5228 3.03333 14.0795 2.57733C13.6108 2.08966 12.7938 1.944 12.1826 2.23533C11.4416 2.58683 10.9698 3.46716 10.7766 4.84783C10.7513 5.01883 10.7291 5.193 10.707 5.37033C10.6405 5.91183 10.5708 6.45966 10.4251 6.98533C10.479 7.093 10.612 7.1975 10.7703 7.25133C10.9033 7.29883 11.049 7.321 11.2041 7.34633C11.3688 7.37483 11.543 7.40333 11.7171 7.46033C12.1795 7.61233 12.5373 7.92583 12.8793 8.22666C13.215 8.52116 13.5348 8.79983 13.9085 8.88533C13.9718 8.8505 14.0351 8.81566 14.1016 8.784C14.3708 8.65733 14.6495 8.5465 14.9186 8.43883C15.1245 8.3565 15.324 8.27733 15.5171 8.19183C15.172 7.83716 14.8933 7.37166 14.7001 6.82383C14.5355 6.3615 14.4436 5.88333 14.3676 5.41466ZM15.9861 4.927C15.6061 4.88583 15.2641 4.94916 14.9601 5.07266C15.0361 5.59516 15.1248 6.12083 15.2958 6.61166C15.489 7.15316 15.774 7.58383 16.1223 7.88466C16.1761 7.853 16.23 7.8245 16.2838 7.78966C17.028 7.29566 17.5885 6.39316 17.0596 5.56983C16.8348 5.21516 16.4326 4.9745 15.9861 4.927Z" fill="#CA3C3D"/>
</g>
</g>
</svg>
