<svg width="19" height="20" viewBox="0 0 19 20" fill="none" xmlns="http://www.w3.org/2000/svg">
<g id="grapes 1" clip-path="url(#clip0_1236_8884)">
<g id="Group">
<path id="Vector" d="M10.8263 0.921875L11.5948 1.65232C11.3372 1.74943 11.0797 1.90143 10.8305 2.10832C10.5392 2.34899 10.2563 2.66565 9.98188 3.04565C9.63566 3.53121 9.39922 3.99143 9.3021 4.20254C9.20499 4.21099 9.1121 4.22788 9.02344 4.24899C9.10366 3.93232 9.24722 3.4341 9.44988 2.91476C9.84677 1.88032 10.3239 1.1921 10.8263 0.921875ZM15.1879 6.36432C15.1879 6.62187 15.133 6.86676 15.0317 7.09054C14.7783 7.6521 14.2337 8.05743 13.5919 8.11654H13.5792C13.5285 8.12076 13.4779 8.12076 13.4272 8.12076C13.3765 8.12076 13.3259 8.11654 13.2752 8.11654H13.2625C12.3674 8.03632 11.6665 7.28054 11.6665 6.36854C11.6665 5.40165 12.4561 4.6121 13.423 4.6121C14.3983 4.60788 15.1879 5.39743 15.1879 6.36432ZM15.3948 7.37343C16.3659 7.37343 17.1512 8.16299 17.1512 9.12988C17.1512 10.0968 16.3617 10.8863 15.3948 10.8863C15.3441 10.8863 15.2934 10.8863 15.2428 10.8821H15.2301C14.3392 10.7977 13.6383 10.0461 13.6383 9.1341C13.6383 8.91876 13.6763 8.71187 13.7481 8.51765C14.4448 8.41632 15.0359 7.98143 15.3525 7.37765C15.3652 7.37343 15.3779 7.37343 15.3948 7.37343ZM13.1105 8.51343C13.1865 8.71188 13.2203 8.91876 13.2203 9.12988C13.2203 10.0419 12.5194 10.7977 11.6285 10.8779H11.6159C11.5652 10.8821 11.5145 10.8821 11.4639 10.8821C11.4132 10.8821 11.3625 10.8821 11.3119 10.8779H11.2992C10.4083 10.7934 9.70744 10.0419 9.70744 9.12988C9.70744 8.91454 9.74544 8.70765 9.81722 8.51343C10.5477 8.40365 11.1599 7.93499 11.4639 7.28899C11.7679 7.93499 12.3801 8.40365 13.1105 8.51343ZM15.0739 11.279C15.1499 11.4774 15.1879 11.6885 15.1879 11.9039C15.1879 12.875 14.3983 13.6603 13.4314 13.6603C12.4603 13.6603 11.675 12.8708 11.675 11.9039C11.675 11.6885 11.713 11.4774 11.789 11.279C12.5152 11.1692 13.1274 10.7005 13.4314 10.0545C13.7354 10.6963 14.3434 11.1692 15.0739 11.279Z" fill="#0000FD"/>
<path id="Vector_2" d="M13.2869 14.0695C13.3502 14.2552 13.384 14.4495 13.384 14.6521C13.384 15.5895 12.6451 16.3621 11.7162 16.4086H11.6275C10.6564 16.4086 9.87109 15.619 9.87109 14.6521C9.87109 14.4326 9.90909 14.2215 9.98932 14.0188C10.6438 13.8668 11.1884 13.4235 11.4671 12.8281C11.7922 13.5248 12.4804 14.0188 13.2869 14.0695Z" fill="#0000FD"/>
<path id="Vector_3" d="M11.5734 16.8243C11.6198 16.9847 11.6452 17.1494 11.6452 17.3225C11.6452 18.2936 10.8556 19.0789 9.88872 19.0789C8.92183 19.0789 8.13228 18.2894 8.13228 17.3225C8.13228 17.1325 8.16183 16.9425 8.22094 16.7609C8.8585 16.6005 9.38628 16.1614 9.66072 15.5787C10.0027 16.3007 10.7289 16.8032 11.5734 16.8243ZM9.45383 14.654C9.45383 15.5112 8.83739 16.2247 8.02672 16.3809C7.92117 16.402 7.80717 16.4105 7.69739 16.4105C6.7305 16.4105 5.94094 15.6209 5.94094 14.654C5.94094 14.4345 5.97894 14.2234 6.05917 14.0207C6.71361 13.8687 7.25828 13.4254 7.53694 12.83C7.86628 13.5267 8.5545 14.0207 9.35672 14.0714C9.42428 14.2614 9.45383 14.4556 9.45383 14.654ZM7.21605 11.2805C7.29205 11.4789 7.33005 11.69 7.33005 11.9054C7.33005 12.7709 6.70094 13.4929 5.87339 13.6365C5.77628 13.6534 5.67494 13.6618 5.57361 13.6618C4.60672 13.6618 3.81717 12.8723 3.81717 11.9054C3.81717 11.69 3.85517 11.4789 3.93117 11.2805C4.65739 11.1707 5.26961 10.702 5.57361 10.056C5.87339 10.702 6.48561 11.1707 7.21605 11.2805ZM5.25272 8.51493C5.32872 8.71338 5.3625 8.92026 5.3625 9.13137C5.3625 10.0434 4.66161 10.7992 3.77072 10.8794H3.75805C3.70739 10.8836 3.65672 10.8836 3.60605 10.8836C2.63494 10.8836 1.84961 10.094 1.84961 9.12715C1.84961 8.16026 2.63917 7.37071 3.60605 7.37071H3.64828C3.96494 7.97449 4.55605 8.40938 5.25272 8.51493ZM5.56939 4.60938C6.53628 4.60938 7.32583 5.39893 7.32583 6.36582C7.32583 7.28204 6.62494 8.0336 5.72983 8.11382H5.71716C5.6665 8.11804 5.61583 8.11804 5.56517 8.11804C5.5145 8.11804 5.46383 8.11382 5.41317 8.11382H5.4005C4.75872 8.05471 4.21828 7.64937 3.96072 7.08782C3.85939 6.86826 3.8045 6.61915 3.8045 6.3616C3.81294 5.39893 4.6025 4.60938 5.56939 4.60938ZM9.50028 4.60938C10.4714 4.60938 11.2567 5.39893 11.2567 6.36582C11.2567 7.28204 10.5558 8.0336 9.66072 8.11382H9.64805C9.59739 8.11804 9.54672 8.11804 9.49605 8.11804C9.44539 8.11804 9.39472 8.11382 9.34405 8.11382H9.33139C8.43628 8.0336 7.73539 7.27782 7.73539 6.36582C7.73539 5.6396 8.1745 5.01893 8.80361 4.74871C8.99783 4.66426 9.20894 4.61782 9.4285 4.60938H9.43272H9.50028ZM9.18361 8.51493C9.25961 8.71338 9.29339 8.92026 9.29339 9.13137C9.29339 10.0434 8.5925 10.7992 7.70161 10.8794H7.68894C7.63828 10.8836 7.58761 10.8836 7.53694 10.8836C7.48628 10.8836 7.43561 10.8836 7.38494 10.8794H7.37228C6.48139 10.7949 5.7805 10.0434 5.7805 9.13137C5.7805 8.91604 5.8185 8.70915 5.89028 8.51493C6.62072 8.40515 7.23294 7.93649 7.53694 7.29049C7.84094 7.93649 8.45317 8.40515 9.18361 8.51493Z" fill="#0000FD"/>
<path id="Vector_4" d="M11.143 11.2791C11.219 11.4776 11.257 11.6887 11.257 11.904C11.257 12.7696 10.6279 13.4916 9.80036 13.6351C9.70325 13.652 9.60192 13.6605 9.50059 13.6605C8.5337 13.6605 7.74414 12.8709 7.74414 11.904C7.74414 11.6887 7.78214 11.4776 7.85814 11.2791C8.58436 11.1694 9.19659 10.7007 9.50059 10.0547C9.80459 10.6965 10.4168 11.1694 11.143 11.2791Z" fill="#0000FD"/>
</g>
</g>
<defs>
<clipPath id="clip0_1236_8884">
<rect width="19" height="19" fill="white" transform="translate(0 0.5)"/>
</clipPath>
</defs>
</svg>
