<svg width="20" height="20" viewBox="0 0 20 20" fill="none" xmlns="http://www.w3.org/2000/svg">
<g id="Hazelnut" clip-path="url(#clip0_1248_21345)">
<g id="Group">
<path id="Vector" d="M17.3021 10.3948C18.6044 9.09249 18.6044 6.97384 17.3021 5.67153L16.5149 6.45873C17.3833 7.32705 17.3833 8.73932 16.5149 9.60757L15.3341 8.42682C13.8888 6.98149 11.4242 7.12714 10.1892 8.93915L9.92978 9.32008L17.6267 16.98L18.0077 16.7206C19.8054 15.4962 19.9807 13.0363 18.5201 11.5757L17.3021 10.3948ZM0.648463 8.36719H9.2319L9.26893 8.31282C9.84513 7.46732 10.659 6.87502 11.5939 6.57061C11.2656 4.98244 9.86395 3.87695 8.32851 3.87695H6.65859C6.65859 2.64897 7.65716 1.61328 8.88515 1.61328V0.5C7.04345 0.5 5.54531 2.03525 5.54531 3.87695H3.87538C2.93986 3.87695 2.03517 4.25421 1.39592 4.93858C0.661489 5.72626 0.357637 6.83424 0.562555 7.91438L0.648463 8.36719ZM1.61171 9.48047V10.4568C1.61171 13.1585 3.47909 15.5029 6.10195 16.1596V16.1602C6.17839 16.141 6.24708 16.1069 6.32215 16.0849C6.1955 14.1281 6.88429 12.1537 8.34643 10.6916L9.03681 10.0012L8.51602 9.48047H1.61171ZM9.82379 10.7882L9.13337 11.4787C7.22257 13.3894 6.85898 16.343 8.24928 18.6605L8.24961 18.6601C10.5686 20.0504 13.5577 19.6867 15.4681 17.7764L16.1586 17.0859L9.82379 10.7882Z" fill="#CA3C3D"/>
</g>
</g>
<defs>
<clipPath id="clip0_1248_21345">
<rect width="19" height="19" fill="white" transform="translate(0.5 0.5)"/>
</clipPath>
</defs>
</svg>
