<svg width="20" height="20" viewBox="0 0 20 20" fill="none" xmlns="http://www.w3.org/2000/svg">
<g id="Hemp-seeds">
<g id="Group">
<path id="Vector" d="M15.861 11.7262C15.8237 11.7404 15.7869 11.7558 15.7508 11.7725C15.1999 12.0326 14.8225 11.948 14.8225 11.948C14.9494 12.023 15.1999 12.0326 15.1999 12.0326C14.7441 12.2496 13.8792 12.181 13.8792 12.181C13.9878 12.2528 14.3667 12.2751 14.3667 12.2751C13.4852 12.5161 12.6488 12.2496 12.6488 12.2496C12.7406 12.39 12.9276 12.4634 12.9276 12.4634C12.026 12.5384 11.3215 12.2369 11.3215 12.2369C11.4033 12.3581 11.5936 12.5145 11.5936 12.5145C10.8273 12.457 10.283 12.0836 10.283 12.0836C10.283 12.1969 10.4183 12.3629 10.4183 12.3629C10.3716 12.3613 10.3281 12.3533 10.2814 12.347C10.3332 12.3789 10.3832 12.4156 10.4333 12.457C10.4333 12.457 10.2664 12.4443 10.1712 12.465C10.1712 12.465 10.6487 12.639 11.0344 13.0778C11.0344 13.0778 10.9091 13.0283 10.7989 13.0538C10.7989 13.0538 11.3182 13.3027 11.6137 13.8102C11.592 13.7926 11.4217 13.6506 11.3399 13.6363C11.3399 13.6363 11.7806 13.9921 11.8875 14.2985C11.8875 14.2985 11.7739 14.1963 11.6788 14.174C11.7222 14.2043 11.9025 14.3432 12.0194 14.6687C12.0227 14.6766 12.0244 14.6846 12.0277 14.6926C12.0812 14.825 11.9476 14.9543 11.8073 14.9032C11.799 14.9 11.7907 14.8968 11.7823 14.8953C11.4417 14.7836 11.2964 14.6097 11.2647 14.5698C11.2881 14.6591 11.3966 14.7692 11.3966 14.7692C11.0744 14.6671 10.7021 14.2458 10.7021 14.2458C10.7171 14.324 10.8657 14.4868 10.8841 14.5075C10.3532 14.2251 10.0927 13.7288 10.0927 13.7288C10.0677 13.8341 10.1194 13.9522 10.1194 13.9522C9.6603 13.5836 9.47666 13.1273 9.47666 13.1273C9.45494 13.2198 9.46831 13.3794 9.46831 13.3794C9.13774 13.0076 9.06595 12.5895 9.06595 12.5895C9.00918 12.6422 8.99081 12.781 8.99081 12.781C8.88228 12.6693 8.8222 12.5304 8.78546 12.3932L8.96244 15.5335C8.97578 15.7777 8.78046 15.9851 8.52502 15.9995C8.25122 16.0122 8.02249 15.7984 8.03752 15.5335L8.21451 12.3852C8.17611 12.5257 8.116 12.6677 8.0075 12.781C8.0075 12.781 7.98913 12.6422 7.93405 12.5895C7.93405 12.5895 7.86225 13.0076 7.53168 13.3794C7.53168 13.3794 7.54337 13.2198 7.52165 13.1273C7.52165 13.1273 7.33967 13.5836 6.88054 13.9522C6.88054 13.9522 6.9323 13.8342 6.90559 13.7288C6.90559 13.7288 6.64516 14.2251 6.11589 14.5075C6.13426 14.4868 6.28119 14.324 6.29622 14.2458C6.29622 14.2458 5.92559 14.6671 5.60336 14.7692C5.60336 14.7692 5.71021 14.6591 5.73526 14.5698C5.70355 14.6097 5.55662 14.7836 5.21771 14.8953C5.20768 14.8969 5.19934 14.9 5.191 14.9032C5.05241 14.9543 4.91885 14.8251 4.97061 14.6926L4.98064 14.6687C5.09752 14.3432 5.27782 14.2043 5.32124 14.174C5.22608 14.1963 5.11089 14.2985 5.11089 14.2985C5.21939 13.9921 5.6585 13.6363 5.6585 13.6363C5.57502 13.6506 5.40472 13.7926 5.3847 13.8102C5.68021 13.3027 6.20111 13.0538 6.20111 13.0538C6.08927 13.0283 5.9657 13.0778 5.9657 13.0778C6.3497 12.639 6.82886 12.465 6.82886 12.465C6.73201 12.4443 6.56674 12.457 6.56674 12.457C6.61682 12.4156 6.66693 12.3789 6.71867 12.347C6.67193 12.3533 6.62685 12.3613 6.58177 12.3629C6.58177 12.3629 6.71533 12.1969 6.71533 12.0836C6.71533 12.0836 6.17271 12.457 5.40472 12.5145C5.40472 12.5145 5.59505 12.3581 5.67687 12.2369C5.67687 12.2369 4.9723 12.5384 4.07075 12.4634C4.07075 12.4634 4.25942 12.39 4.34958 12.2496C4.34958 12.2496 3.5148 12.5161 2.63327 12.2751C2.63327 12.2751 3.01227 12.2528 3.12077 12.181C3.12077 12.181 2.25593 12.2496 1.79848 12.0326C1.79848 12.0326 2.05058 12.023 2.17579 11.948C2.17579 11.948 1.79848 12.0326 1.24919 11.7725C1.21413 11.7565 1.17739 11.7406 1.139 11.7278C0.953668 11.656 0.953668 11.4055 1.139 11.3353C1.1763 11.3211 1.21305 11.3057 1.24919 11.289C1.79845 11.0289 2.17579 11.1119 2.17579 11.1119C2.05058 11.0385 1.79848 11.0289 1.79848 11.0289C2.25593 10.8119 3.12077 10.8805 3.12077 10.8805C3.01224 10.8071 2.63327 10.7864 2.63327 10.7864C3.5148 10.5454 4.34958 10.8119 4.34958 10.8119C4.25942 10.6715 4.07075 10.5981 4.07075 10.5981C4.9723 10.5231 5.67687 10.8247 5.67687 10.8247C5.59505 10.7034 5.40472 10.547 5.40472 10.547C5.65681 10.5662 5.88054 10.6204 6.07255 10.6826L6.3931 10.5023C6.3931 10.5023 5.55999 10.3715 4.82206 9.76989C4.82206 9.76989 5.1376 9.79223 5.32293 9.75395C5.32293 9.75395 4.41469 9.42205 3.6801 8.58749C3.70181 8.59547 3.9255 8.68006 4.12755 8.63378C4.12755 8.63378 3.13583 8.16306 2.57822 7.19766C2.61827 7.23116 2.9405 7.49925 3.09746 7.52636C3.09746 7.52636 2.26102 6.85138 2.05567 6.26737C2.08404 6.29129 2.29773 6.47481 2.46972 6.51312C2.46972 6.51312 2.05401 6.26579 1.80523 5.56528C1.77352 5.47752 1.73178 5.38656 1.68501 5.29881C1.5915 5.11848 1.79186 4.9286 1.97884 5.01797C2.07235 5.06264 2.16583 5.10254 2.25765 5.13284C2.99224 5.37062 3.25102 5.76794 3.25102 5.76794C3.20928 5.60359 3.01727 5.39934 2.9939 5.3722C3.60327 5.56847 4.3095 6.36472 4.3095 6.36472C4.2811 6.21631 4.00064 5.90834 3.96559 5.86844C4.97733 6.40458 5.46817 7.35243 5.46817 7.35243C5.5166 7.15935 5.42809 6.94552 5.41975 6.92477C6.29293 7.62687 6.64019 8.49332 6.64019 8.49332C6.68024 8.3178 6.6569 8.0146 6.6569 8.0146C6.94739 8.34014 7.13272 8.6832 7.24791 8.96086C7.24791 8.93533 7.24291 8.913 7.24457 8.88747C7.24457 8.88747 7.49666 9.07577 7.6653 9.07577C7.6653 9.07577 7.10601 8.32577 7.01753 7.26945C7.01753 7.26945 7.2496 7.52956 7.43324 7.64123C7.41152 7.58698 6.98413 6.63755 7.09432 5.43121C7.09432 5.43121 7.20451 5.69132 7.41655 5.81577C7.41655 5.81577 7.01419 4.66688 7.37816 3.45256C7.37816 3.45256 7.40987 3.97275 7.52006 4.12435C7.52006 4.12435 7.41655 2.93079 7.74378 2.30209C7.74378 2.30209 7.75715 2.64518 7.86734 2.81908C7.859 2.77122 7.76215 2.26539 8.13446 1.54412C8.19623 1.42286 8.248 1.28721 8.29139 1.14839C8.35316 0.950537 8.64533 0.950537 8.7071 1.14839C8.7505 1.28721 8.80395 1.42283 8.86572 1.54412C9.23803 2.26539 9.14121 2.77122 9.13118 2.81908C9.24303 2.64515 9.2564 2.30209 9.2564 2.30209C9.58363 2.93079 9.48012 4.12435 9.48012 4.12435C9.59031 3.97278 9.62202 3.45256 9.62202 3.45256C9.98599 4.66688 9.58363 5.81577 9.58363 5.81577C9.79567 5.69132 9.90417 5.43121 9.90417 5.43121C10.016 6.63755 9.58862 7.58698 9.56694 7.64123C9.74893 7.52953 9.98265 7.26945 9.98265 7.26945C9.89417 8.3258 9.33319 9.07577 9.33319 9.07577C9.50349 9.07577 9.75558 8.88747 9.75558 8.88747C9.75558 8.91458 9.75058 8.94331 9.74724 8.96884C9.86412 8.68959 10.0494 8.34333 10.3433 8.0146C10.3433 8.0146 10.3183 8.3178 10.36 8.49332C10.36 8.49332 10.7072 7.62687 11.5788 6.92477C11.5704 6.94552 11.4819 7.15932 11.5303 7.35243C11.5303 7.35243 12.0228 6.40458 13.0346 5.86844C12.9995 5.90834 12.7174 6.21631 12.6907 6.36472C12.6907 6.36472 13.3969 5.56847 14.0063 5.3722C13.9829 5.39934 13.7892 5.60359 13.7492 5.76794C13.7492 5.76794 14.0079 5.37062 14.7425 5.13284C14.8344 5.10254 14.9279 5.06264 15.0213 5.01797C15.2083 4.9286 15.4087 5.11851 15.3135 5.29881C15.2677 5.38494 15.2281 5.47397 15.195 5.56528C14.9445 6.26579 14.5288 6.51312 14.5288 6.51312C14.7008 6.47484 14.9162 6.29132 14.9429 6.26737C14.7375 6.85141 13.9027 7.52636 13.9027 7.52636C14.0597 7.49925 14.3819 7.23116 14.422 7.19766C13.8644 8.16306 12.871 8.63378 12.871 8.63378C13.073 8.68006 13.2967 8.5955 13.3184 8.58749C12.5855 9.42205 11.6773 9.75395 11.6773 9.75395C11.8626 9.79223 12.1782 9.76989 12.1782 9.76989C11.4385 10.3715 10.6071 10.5023 10.6071 10.5023C10.7123 10.6029 10.9894 10.6364 10.9894 10.6364C10.9694 10.6539 10.9477 10.6667 10.926 10.6826C11.1197 10.6204 11.3434 10.5662 11.5938 10.547C11.5938 10.547 11.4035 10.7034 11.3217 10.8247C11.3217 10.8247 12.0262 10.5231 12.9278 10.5981C12.9278 10.5981 12.7408 10.6715 12.6489 10.8119C12.6489 10.8119 13.4854 10.5454 14.3669 10.7864C14.3669 10.7864 13.9879 10.8071 13.8794 10.8805C13.8794 10.8805 14.7443 10.8119 15.2 11.0289C15.2 11.0289 14.9496 11.0385 14.8227 11.1119C14.8227 11.1119 15.2 11.0289 15.7527 11.289C15.7877 11.305 15.8228 11.3209 15.8612 11.3337C16.0463 11.4055 16.0463 11.656 15.861 11.7262Z" fill="#CA3C3D"/>
</g>
</g>
</svg>
