<svg width="20" height="20" viewBox="0 0 20 20" fill="none" xmlns="http://www.w3.org/2000/svg">
<g id="Kale">
<g id="Group">
<path id="Vector" d="M12.9464 3.00123C13.2434 3.00094 13.5346 3.07757 13.7877 3.2226C14.0407 3.36763 14.2457 3.57536 14.3797 3.82266C14.476 4.01337 14.6247 4.17684 14.8108 4.29637C14.9969 4.4159 15.2136 4.48722 15.4389 4.50304C15.6947 4.5151 15.9438 4.58408 16.1653 4.70423C16.3868 4.82438 16.5744 4.99222 16.7123 5.19374C16.8501 5.39526 16.9344 5.62463 16.958 5.86271C16.9816 6.1008 16.9439 6.34071 16.848 6.56242C16.7651 6.76502 16.7407 6.9844 16.7774 7.19856C16.814 7.41271 16.9103 7.61411 17.0567 7.78254C17.3447 8.13167 17.5006 8.56006 17.5 9.00068C17.5016 9.44226 17.3441 9.87152 17.0529 10.2196C16.9166 10.3869 16.8287 10.5842 16.7978 10.7924C16.7668 11.0006 16.7938 11.2128 16.8761 11.4084C16.9589 11.6218 16.9846 11.8507 16.9509 12.0754C16.9173 12.2713 16.8404 12.4585 16.7251 12.6252C16.6099 12.7918 16.4587 12.9343 16.2813 13.0436L14.8779 13.756C13.838 14.2856 13.0281 15.1366 12.5873 16.1628L12.2292 17H11.3477C11.3882 16.3155 11.5993 15.6492 11.964 15.054C12.3287 14.4589 12.837 13.9513 13.4487 13.5716L13.6112 13.4715C13.9589 13.2576 14.232 12.9535 14.3969 12.5966L16.3045 11.4625L16.0168 11.041L14.5536 11.9096C14.5579 11.6846 14.5183 11.4608 14.4368 11.2491C14.3861 11.1277 14.3694 10.9962 14.3881 10.8671C14.4069 10.738 14.4605 10.6155 14.5439 10.5111C14.8579 10.1288 15.0452 9.66909 15.0826 9.18867L16.3059 8.46167L16.0182 8.0397L15.0563 8.61072C14.9874 8.19853 14.8078 7.80932 14.5343 7.47935C14.4457 7.37973 14.3863 7.26031 14.362 7.1328C14.3378 7.00529 14.3495 6.87409 14.3961 6.7521C14.4097 6.72135 14.4181 6.68888 14.4298 6.65713L15.7551 5.96944L15.4949 5.53248L14.5509 6.02244C14.5528 5.92039 14.5466 5.81835 14.5324 5.71715C14.3996 4.88838 13.7318 4.22241 12.8546 4.04386C12.7447 4.02272 12.6332 4.00933 12.5211 4.0038C12.3895 3.99183 12.2637 3.94761 12.1564 3.87563C12.049 3.80365 11.9639 3.70647 11.9098 3.59393C11.8806 3.54071 11.8456 3.49187 11.8121 3.44197C11.9606 3.30225 12.1373 3.19137 12.332 3.11571C12.5267 3.04006 12.7355 3.00117 12.9464 3.00123ZM8.56722 3.82085C8.70159 3.57388 8.90661 3.36646 9.15955 3.22158C9.41249 3.07669 9.70348 3 10.0003 3C10.2971 3 10.588 3.07669 10.841 3.22158C11.0939 3.36646 11.2989 3.57388 11.4333 3.82085C11.5294 4.0122 11.6783 4.17624 11.8647 4.29613C12.0512 4.41602 12.2685 4.48743 12.4943 4.50304C12.5792 4.50729 12.6636 4.51741 12.7468 4.53329C13.4034 4.66734 13.903 5.16592 14.0023 5.78624C14.0433 6.04903 14.0083 6.31745 13.9008 6.56339C13.8188 6.76636 13.7951 6.98578 13.8319 7.19994C13.8687 7.41411 13.9647 7.6156 14.1106 7.78448C14.6995 8.49804 14.7023 9.49152 14.1173 10.2079C13.9805 10.379 13.8919 10.5794 13.8597 10.7907C13.8275 11.002 13.8527 11.2175 13.9329 11.4174C14.0134 11.6281 14.0377 11.8538 14.004 12.0751C13.9695 12.2745 13.8903 12.4647 13.7715 12.6335C13.6527 12.8022 13.4971 12.9457 13.3147 13.0543L13.1521 13.1556C12.4668 13.5808 11.898 14.1502 11.4912 14.8178C11.0845 15.4855 10.8513 16.2329 10.8102 17H10.2678V14.1115L12.8578 11.9367L12.4994 11.5652L10.2679 13.439V11.1117L12.8577 8.93697L12.4993 8.56544L10.2678 10.4393V8.11454L12.3191 6.43962L11.9665 6.06465L10.2678 7.45079V4.25109H9.73213V7.45079L8.03342 6.06369L7.68082 6.43865L9.73213 8.11404V10.4388L7.50059 8.56397L7.14223 8.93538L9.73213 11.1117V13.439L7.50059 11.5642L7.14223 11.9356L9.73213 14.1115V17H9.18972C9.1488 16.233 8.91565 15.4856 8.50901 14.8179C8.10236 14.1502 7.53357 13.5809 6.84832 13.1556L6.68577 13.0543C6.50346 12.9457 6.34782 12.8023 6.22906 12.6336C6.11029 12.4649 6.03109 12.2746 5.99664 12.0754C5.96277 11.8539 5.98709 11.628 6.06752 11.4172C6.14778 11.2174 6.17296 11.0019 6.14076 10.7906C6.10856 10.5793 6.02001 10.3789 5.88324 10.2079C5.29837 9.49149 5.30099 8.49804 5.89007 7.78448C6.03586 7.61557 6.13189 7.41408 6.16865 7.19992C6.20542 6.98576 6.18165 6.76635 6.0997 6.56339C5.99226 6.31741 5.95722 6.0491 5.99821 5.78624C6.09732 5.16592 6.59711 4.6673 7.25366 4.53354C7.33689 4.5174 7.42132 4.50721 7.50621 4.50304C7.73203 4.48746 7.94933 4.41606 8.13579 4.29617C8.32225 4.17628 8.47115 4.01222 8.56719 3.82085H8.56722ZM2.94224 7.78376C3.08876 7.61579 3.18536 7.41482 3.22236 7.201C3.25936 6.98719 3.23546 6.76805 3.15305 6.56558C3.05543 6.34392 3.0163 6.10362 3.03898 5.86491C3.06165 5.62619 3.14545 5.39606 3.28333 5.19388C3.42124 4.99171 3.60919 4.82342 3.83134 4.70319C4.05349 4.58295 4.30334 4.51429 4.55986 4.50298C4.78539 4.48732 5.00242 4.41606 5.18878 4.29649C5.37514 4.17692 5.52415 4.01332 5.62057 3.82241C5.73511 3.61106 5.90175 3.4281 6.10681 3.28856C6.31186 3.14902 6.54947 3.05688 6.80011 3.01973C7.05073 2.98258 7.30723 3.00149 7.54849 3.07489C7.78976 3.14829 8.00892 3.27409 8.18794 3.44194C8.15446 3.49184 8.1194 3.5419 8.0902 3.5939C8.03604 3.70647 7.95095 3.80367 7.84355 3.87566C7.73615 3.94764 7.61026 3.99183 7.47866 4.00377C7.36657 4.00928 7.25508 4.02266 7.14514 4.0438C6.26791 4.2225 5.60038 4.88847 5.46763 5.71712C5.45345 5.81832 5.4473 5.92036 5.44921 6.02241L4.50515 5.53245L4.2449 5.96941L5.56991 6.6571C5.58197 6.68885 5.59034 6.72132 5.60393 6.75231C5.65052 6.87425 5.66229 7.00542 5.63807 7.13289C5.61386 7.26036 5.55449 7.37976 5.46582 7.47931C5.19223 7.80926 5.01261 8.19847 4.9437 8.61069L3.98317 8.03967L3.69546 8.46164L4.91886 9.18864C4.95617 9.66906 5.1434 10.1288 5.45745 10.511C5.54085 10.6154 5.59444 10.7379 5.61317 10.867C5.63191 10.996 5.61518 11.1274 5.56456 11.2488C5.48256 11.4605 5.44255 11.6845 5.44646 11.9096L3.98293 11.0397L3.69546 11.4611L5.60313 12.5951C5.76793 12.952 6.04103 13.2562 6.38878 13.47L6.55137 13.57C7.16321 13.9499 7.6717 14.4577 8.03643 15.0532C8.40116 15.6486 8.61209 16.3152 8.65247 17H7.77095L7.41196 16.162C6.97121 15.1359 6.16139 14.285 5.12156 13.7555L3.73888 13.0556C3.55705 12.9468 3.40172 12.8036 3.28296 12.6352C3.16421 12.4668 3.08466 12.2771 3.04949 12.0782C3.01549 11.8535 3.04085 11.6245 3.12338 11.411C3.2059 11.2151 3.23304 11.0028 3.20221 10.7943C3.17138 10.5858 3.08361 10.3882 2.94733 10.2205C2.65583 9.87228 2.49828 9.44264 2.50001 9.00072C2.49923 8.5606 2.65475 8.13266 2.94224 7.78379V7.78376Z" fill="#3DCA6C"/>
</g>
</g>
</svg>
