<svg width="20" height="20" viewBox="0 0 20 20" fill="none" xmlns="http://www.w3.org/2000/svg">
<g id="lemon 1">
<g id="Group">
<path id="Vector" d="M12.7691 7.74069C11.3748 7.74069 10.1085 6.91888 9.54314 5.64703L9.53804 5.63553L9.51971 5.59057L9.02963 4.26856L10.5347 3.59945C10.2981 3.21651 9.90846 2.78125 9.35978 2.78125C8.91739 2.78125 8.29848 3.06659 7.81029 4.39146C6.88791 4.76964 6.06486 5.49173 5.47652 6.44394C4.83768 7.47794 4.5 8.71183 4.5 10.0122C4.5 11.3146 4.8387 12.5501 5.47943 13.5849C6.06979 14.5385 6.89527 15.2603 7.82027 15.6368C8.30734 16.9396 8.92133 17.2203 9.35978 17.2203C9.79822 17.2203 10.4122 16.9396 10.8993 15.6368C11.8243 15.2604 12.6498 14.5385 13.2402 13.585C13.8809 12.5501 14.2196 11.3146 14.2196 10.0122C14.2196 9.1688 14.0728 8.3433 13.7955 7.58702C13.4629 7.68915 13.117 7.74094 12.7691 7.74069Z" fill="#FEDD4B"/>
<path id="Vector_2" d="M10.0625 4.70582L10.2812 5.29559L10.2897 5.3166C10.7379 6.32474 11.7302 6.92461 12.7683 6.92461C13.1353 6.92461 13.5081 6.84959 13.8645 6.69118L15.5001 5.96404L15.2359 5.3697C14.6293 4.00518 13.0256 3.38856 11.6611 3.99515L10.0625 4.70582Z" fill="#FEDD4B"/>
</g>
</g>
</svg>
