<svg width="19" height="20" viewBox="0 0 19 20" fill="none" xmlns="http://www.w3.org/2000/svg">
<g id="licorice 1" clip-path="url(#clip0_1248_21477)">
<g id="Group">
<path id="Vector" d="M18.4456 3.96763C18.4271 3.92215 18.4143 3.87451 18.4076 3.82583L18.2535 2.70285C18.2291 2.5255 18.1767 2.35315 18.0982 2.19224L8.77839 11.5121C9.01408 11.8653 9.16657 12.2673 9.22436 12.688L9.36925 13.7444L9.77239 14.732C9.86135 14.95 9.92247 15.1783 9.9543 15.4115L18.3711 6.98395C18.95 6.51345 19.1572 5.71074 18.8742 5.01748L18.4456 3.96763ZM4.76773 9.72736L5.75536 10.1305L6.81173 10.2754C7.23238 10.3332 7.63443 10.4857 7.98761 10.7214L17.3075 1.4015C17.1466 1.32301 16.9743 1.27058 16.7969 1.24617L15.6738 1.09211C15.6252 1.08546 15.5776 1.07269 15.5321 1.05413L14.4822 0.625564C13.7889 0.342526 12.9861 0.549744 12.5156 1.12875L4.09829 9.54609C4.32806 9.57868 4.55291 9.63956 4.76773 9.72736ZM5.03783 14.4619C4.87069 14.2948 4.65113 14.2112 4.43157 14.2112C4.21202 14.2112 3.9925 14.2947 3.82535 14.4619C3.74548 14.5413 3.68217 14.6358 3.63906 14.7399C3.59595 14.8439 3.57392 14.9555 3.57422 15.0681C3.57392 15.1808 3.59596 15.2924 3.63907 15.3964C3.68218 15.5005 3.74549 15.595 3.82535 15.6744C4.15964 16.0087 4.70358 16.0086 5.03783 15.6744C5.19976 15.5125 5.28896 15.2971 5.28896 15.0681C5.28896 14.8392 5.19976 14.6238 5.03783 14.4619Z" fill="#CA3C3D"/>
<path id="Vector_2" d="M8.30784 14.1052C8.28907 14.0593 8.27625 14.0112 8.26967 13.962L8.11583 12.8404C8.01236 12.0862 7.41337 11.4873 6.65916 11.3838L5.53617 11.2297C5.48852 11.2233 5.44185 11.2109 5.39725 11.1929L4.34449 10.7632C4.14022 10.6795 3.92158 10.6366 3.70085 10.6367C3.16996 10.6367 2.67899 10.8773 2.3538 11.2967L1.65908 12.1928C1.62936 12.2312 1.59499 12.2657 1.55676 12.2955L0.659035 12.9915C0.0570623 13.4583 -0.162345 14.2768 0.125539 14.9822L0.554177 16.0322C0.571883 16.0751 0.584781 16.1224 0.591677 16.1707L0.74615 17.2968C0.849628 18.051 1.44862 18.65 2.20279 18.7535L3.32603 18.9075C3.37464 18.9142 3.42195 18.9269 3.46716 18.9453L4.51749 19.374C4.72176 19.4577 4.9404 19.5007 5.16114 19.5005C5.69199 19.5005 6.18299 19.2599 6.50819 18.8405L7.20283 17.9446C7.23296 17.9056 7.2679 17.8707 7.30683 17.8405L8.20291 17.1458C8.805 16.679 9.0244 15.8604 8.73645 15.1551L8.30784 14.1052ZM5.82797 16.4656C5.44284 16.8508 4.93692 17.0434 4.43097 17.0434C3.92506 17.0434 3.41915 16.8508 3.03401 16.4656C2.66084 16.0925 2.45534 15.5964 2.45534 15.0686C2.45534 14.5409 2.66084 14.0448 3.03401 13.6716C3.80432 12.9014 5.0577 12.9014 5.82797 13.6716C6.20114 14.0448 6.40665 14.5409 6.40665 15.0686C6.40665 15.5964 6.20111 16.0925 5.82797 16.4656Z" fill="#CA3C3D"/>
</g>
</g>
<defs>
<clipPath id="clip0_1248_21477">
<rect width="19" height="19" fill="white" transform="translate(0 0.5)"/>
</clipPath>
</defs>
</svg>
