<svg width="20" height="20" viewBox="0 0 20 20" fill="none" xmlns="http://www.w3.org/2000/svg">
<g id="macadamia-nut 1" clip-path="url(#clip0_1248_21352)">
<g id="Group">
<path id="Vector" d="M11.3686 7.82864C9.9599 6.5474 8.6412 5.17063 7.42183 3.70809C7.19928 3.44105 6.78911 3.44105 6.56657 3.70809C5.34716 5.17063 4.02842 6.54741 2.61972 7.82864C1.27258 9.05325 0.5 10.7998 0.5 12.6204C0.5 15.9851 3.23748 18.7226 6.60223 18.7226H7.38602C10.7508 18.7226 13.4883 15.9851 13.4883 12.6204C13.4883 10.7998 12.7157 9.05329 11.3686 7.82864ZM7.3859 16.4961H6.60241C4.46529 16.4961 2.72656 14.7573 2.72656 12.6202C2.72656 11.4256 3.23348 10.2796 4.11738 9.47622C4.97284 8.6982 5.79706 7.88652 6.58809 7.04307C6.808 6.80858 7.18024 6.80858 7.40015 7.04307C8.19129 7.88666 9.01563 8.69847 9.87123 9.4766C10.7549 10.2798 11.2617 11.4256 11.2617 12.6202C11.2617 14.7573 9.523 16.4961 7.3859 16.4961Z" fill="#CA3C3D"/>
<path id="Vector_2" d="M9.12247 10.3004C8.39035 9.63461 7.68052 8.94473 6.99414 8.23188C6.30788 8.94461 5.59817 9.63438 4.86618 10.3001C4.21394 10.8929 3.83984 11.7386 3.83984 12.6202C3.83984 14.0881 4.99075 15.2918 6.4375 15.3774V13.7129C6.4375 13.4054 6.68673 13.1562 6.99414 13.1562C7.30155 13.1562 7.55078 13.4054 7.55078 13.7129V15.3774C8.99753 15.2918 10.1484 14.0881 10.1484 12.6202C10.1484 11.7386 9.77449 10.8931 9.12247 10.3004ZM19.1936 7.28525C18.6142 5.47133 18.1606 3.61966 17.8358 1.74338C17.7766 1.40082 17.4214 1.19575 17.0952 1.31576C15.3079 1.97267 13.4774 2.50562 11.6168 2.91084C10.7215 3.10562 9.88622 3.48781 9.16114 4.02026C10.0941 5.06581 11.0809 6.06207 12.1174 7.005C13.6961 8.44006 14.6016 10.4868 14.6016 12.6204C14.6016 13.6469 14.3856 14.6238 13.9975 15.5087C15.8686 15.3061 17.6225 14.2459 18.6334 12.4948C19.5437 10.9182 19.7479 9.01937 19.1936 7.28525Z" fill="#CA3C3D"/>
</g>
</g>
<defs>
<clipPath id="clip0_1248_21352">
<rect width="19" height="19" fill="white" transform="translate(0.5 0.5)"/>
</clipPath>
</defs>
</svg>
