<svg width="20" height="20" viewBox="0 0 20 20" fill="none" xmlns="http://www.w3.org/2000/svg">
<g id="mango 1">
<g id="Group">
<path id="Vector" d="M18.2459 4.74574C17.1507 3.48887 15.5827 3.13594 14.1252 4.21997C14.0537 3.79035 13.869 3.37956 13.5728 3L12.7723 3.56939C13.4145 4.39224 13.1175 5.2224 12.8627 5.66838C11.0231 4.76051 6.52304 4.22777 4.43719 9.51327C3.59413 11.6495 1.97511 12.281 1.60622 13.1949C0.647084 15.5711 6.35616 18.9258 11.7595 15.6109C16.6089 12.6356 15.9682 8.00104 13.6967 6.19418C13.7869 6.04359 13.8656 5.88694 13.932 5.72548C15.5217 7.05653 17.194 6.675 18.5 5.03736L18.2459 4.74574Z" fill="#FF7F01"/>
</g>
</g>
</svg>
