<svg width="14" height="14" viewBox="0 0 14 14" fill="none" xmlns="http://www.w3.org/2000/svg">
<g id="meditation 2" clip-path="url(#clip0_1797_3695)">
<g id="Group">
<path id="Vector" d="M13.1208 9.23817H12.6514C12.5775 9.23818 12.5046 9.22069 12.4387 9.18715C12.3728 9.15361 12.3158 9.10497 12.2723 9.04519L9.64243 5.43051C9.53874 5.29484 9.40516 5.1849 9.25208 5.10923C9.099 5.03355 8.93053 4.99419 8.75977 4.99418H8.18155C8.12156 4.99418 8.06403 4.97036 8.02162 4.92794C7.9792 4.88552 7.95537 4.828 7.95537 4.76801V4.23221C7.95537 4.12642 8.00947 4.02859 8.09787 3.9705C8.6477 3.60932 9.00863 2.98413 9.00035 2.27521C8.98759 1.18349 8.08459 0.2958 6.99278 0.300802C5.89346 0.305859 5.00383 1.19858 5.00383 2.2991C5.00383 2.99785 5.36247 3.61284 5.90574 3.97004C5.99438 4.02832 6.04895 4.12618 6.04895 4.23229V4.76801C6.04895 4.828 6.02512 4.88552 5.9827 4.92794C5.94029 4.97036 5.88276 4.99418 5.82277 4.99418H5.09117C4.9204 4.99419 4.75194 5.03355 4.59886 5.10923C4.44578 5.1849 4.3122 5.29484 4.20851 5.43051L1.5828 9.07416C1.53937 9.13444 1.48224 9.18353 1.41611 9.21738C1.34998 9.25124 1.27675 9.2689 1.20246 9.2689H0.879162C0.39363 9.26887 0 9.6625 0 10.1481C0 10.6336 0.393603 11.0272 0.879162 11.0272H1.74282C1.20998 11.3249 0.849448 11.8942 0.849448 12.5479C0.849448 13.5094 1.62894 14.2889 2.5905 14.2889H9.96633L4.17204 11.0784C3.71037 10.8991 3.21943 10.807 2.72417 10.8068H2.69002C2.75889 10.752 2.82026 10.6884 2.87257 10.6176L4.54203 8.13164V10.3228C4.55012 10.3267 4.55826 10.3303 4.56622 10.3347L7.01965 11.6945L9.30894 10.3211V8.13164L10.9827 10.5868C11.0373 10.6609 11.1018 10.727 11.1745 10.7835C10.5415 10.793 9.87309 10.9669 9.30894 11.2802V11.2774L7.84825 12.1537L11.5972 14.2315C12.3975 14.0746 13.0015 13.3696 13.0015 12.5233V12.515C13.0015 11.8582 12.6378 11.2906 12.101 10.9965H13.1208C13.6064 10.9965 14 10.6029 14 10.1174C14 9.63178 13.6064 9.23817 13.1208 9.23817Z" fill="#999999"/>
</g>
</g>
<defs>
<clipPath id="clip0_1797_3695">
<rect width="14" height="14" fill="white"/>
</clipPath>
</defs>
</svg>
