<svg width="18" height="18" viewBox="0 0 18 18" fill="none" xmlns="http://www.w3.org/2000/svg">
<g id="puzzle 1">
<g id="Group">
<path id="Vector" d="M7.4608 5.58365C7.49779 6.11673 8.10688 6.40863 8.54712 6.10578C8.93438 5.83917 9.46303 6.11685 9.46303 6.58738V8.52321H10.9133C10.6557 7.4715 11.4896 6.44691 12.5988 6.5235C13.5747 6.59113 14.2985 7.53086 14.0548 8.52321H15.5196C16.7454 6.66994 15.5109 3.98864 13.1223 3.86599C13.3924 2.43971 12.2927 1.125 10.8514 1.125C10.3308 1.125 9.84986 1.29806 9.46303 1.58959V4.4788C9.46303 4.94899 8.93478 5.22713 8.54706 4.9604C8.07598 4.63632 7.41997 4.99431 7.4608 5.58365Z" fill="#CA3C3D"/>
<path id="Vector_2" d="M4.46342 8.52173C4.9337 8.52173 5.21178 9.0501 4.94496 9.43776C4.62239 9.90647 4.97657 10.5645 5.56839 10.5237C6.10271 10.4866 6.39316 9.87705 6.09067 9.43764C5.82398 9.05016 6.10191 8.52173 6.57231 8.52173H8.53924V7.10178C7.54468 7.34611 6.60677 6.61963 6.53923 5.64596C6.46264 4.54142 7.48295 3.70201 8.53924 3.96064V1.58811C6.88331 0.340143 4.51109 1.7651 4.87447 3.83396C2.47162 3.96163 1.25563 6.64874 2.49199 8.52173H4.46342ZM15.5032 9.44459H13.5379C13.0674 9.44459 12.7896 8.91609 13.0563 8.52865C13.359 8.08905 13.0678 7.47969 12.534 7.44267C11.9423 7.40159 11.5879 8.05963 11.9106 8.52856C12.1773 8.91622 11.8994 9.44459 11.429 9.44459H9.46211V10.8637C10.5154 10.6058 11.5389 11.4418 11.4621 12.549C11.3945 13.5231 10.4564 14.249 9.46211 14.0049V16.409C11.118 17.657 13.4903 16.232 13.1269 14.1632C15.472 14.0385 16.7755 11.4076 15.5032 9.44459Z" fill="#CA3C3D"/>
<path id="Vector_3" d="M10.5412 12.4859C10.582 11.8968 9.92604 11.5385 9.45496 11.8627C9.06746 12.1292 8.53896 11.8517 8.53896 11.3811V9.44531H7.08794C7.33913 10.4675 6.56052 11.4491 5.51555 11.4491C4.46074 11.4491 3.699 10.4551 3.94643 9.44531H2.49187C1.25618 11.3181 2.4698 14.0096 4.87969 14.1334C4.60961 15.5596 5.70935 16.8744 7.15059 16.8744C7.67121 16.8744 8.15217 16.7013 8.53899 16.4098V13.4897C8.53899 13.0196 9.06728 12.7414 9.45487 13.0081C9.89423 13.3105 10.5041 13.0201 10.5412 12.4859Z" fill="#CA3C3D"/>
</g>
</g>
</svg>
