<svg width="14" height="14" viewBox="0 0 14 14" fill="none" xmlns="http://www.w3.org/2000/svg">
<g id="eye 1" clip-path="url(#clip0_1797_3654)">
<g id="Group">
<path id="Vector" d="M6.3368 4.65625C5.82142 4.65625 5.3551 4.88069 4.9508 5.32333C4.75947 5.53278 4.62516 5.74617 4.54688 5.88672C4.62519 6.02727 4.75947 6.24063 4.9508 6.45011C5.35513 6.89275 5.82145 7.11719 6.3368 7.11719C6.85214 7.11719 7.31846 6.89275 7.7228 6.45011C7.91415 6.24063 8.04843 6.02724 8.12675 5.88672C8.04857 5.74645 7.91423 5.53294 7.7228 5.32336C7.31849 4.88069 6.85217 4.65625 6.3368 4.65625ZM6.74695 6.29688H5.92664V5.47656H6.74695V6.29688Z" fill="#999999"/>
<path id="Vector_2" d="M12.9852 8.58132C12.4954 7.25348 12.0598 5.80732 11.6535 4.16013C11.3655 2.99275 10.6854 1.93591 9.73845 1.18439C8.76214 0.409555 7.58592 0 6.33697 0C3.3177 0 0.861328 2.45637 0.861328 5.47567C0.861328 6.75801 1.30987 7.99523 2.1277 8.97742V14H9.2799V12.274H11.3602L11.5784 9.43718L13.1388 8.99779L12.9852 8.58132ZM6.33697 7.93661C4.53436 7.93661 3.74295 6.12344 3.71016 6.04628L3.64197 5.88582L3.71016 5.72537C3.74298 5.64821 4.53439 3.83504 6.33697 3.83504C8.13955 3.83504 8.93096 5.64821 8.96377 5.72537L9.03197 5.88582L8.96377 6.04628C8.93099 6.12344 8.13958 7.93661 6.33697 7.93661ZM8.95915 4.24337C8.23733 3.43957 7.33059 3.01473 6.337 3.01473C5.34341 3.01473 4.43666 3.43957 3.71484 4.24337L3.10453 3.69526C3.98628 2.7134 5.10407 2.19442 6.33702 2.19442C7.57001 2.19442 8.68777 2.71338 9.56952 3.69526L8.95915 4.24337Z" fill="#999999"/>
</g>
</g>
<defs>
<clipPath id="clip0_1797_3654">
<rect width="14" height="14" fill="white"/>
</clipPath>
</defs>
</svg>
