<svg width="12" height="14" viewBox="0 0 12 14" fill="none" xmlns="http://www.w3.org/2000/svg">
<g id="Group">
<g id="Group_2">
<g id="Group_3">
<path id="Vector" d="M11.8232 3.41072L11.5572 3.21666C11.4732 3.16121 11.3612 3.17508 11.3052 3.25824L11.0812 3.57706L10.7872 3.35527C10.8572 3.11963 10.7872 2.85626 10.5632 2.71765C10.3532 2.57904 10.1012 2.5929 9.91921 2.73151L9.69521 2.56517L9.91921 2.24636C9.97521 2.16319 9.96121 2.0523 9.87721 1.99686L9.61121 1.8028C9.52721 1.74735 9.41521 1.76121 9.35921 1.84438L8.72921 2.70379C8.67321 2.78696 8.68721 2.89785 8.77121 2.95329L9.03721 3.14735C9.12121 3.2028 9.23321 3.18894 9.28921 3.10577L9.49921 2.81468L9.70921 2.96715C9.33121 3.50775 8.89721 4.11765 8.65921 4.39488C8.54721 4.31171 8.39321 4.20082 8.28121 4.11765C7.83321 3.77112 7.31521 3.36914 6.76921 3.36914H5.22921C4.68321 3.36914 4.16521 3.77112 3.71721 4.11765C3.60521 4.20082 3.45121 4.32557 3.33921 4.39488C3.10121 4.10379 2.66721 3.50775 2.28921 2.96715L2.49921 2.81468L2.70921 3.10577C2.76521 3.18894 2.87721 3.2028 2.96121 3.14735L3.22721 2.95329C3.31121 2.89785 3.32521 2.78696 3.26921 2.70379L2.63921 1.85824C2.58321 1.77508 2.47121 1.76121 2.38721 1.81666L2.12121 2.01072C2.03721 2.06616 2.02321 2.17706 2.07921 2.26022L2.30321 2.57904L2.07921 2.73151C1.89721 2.5929 1.63121 2.57904 1.43521 2.71765C1.22521 2.85626 1.14121 3.11963 1.21121 3.35527L0.917209 3.57706L0.693209 3.25824C0.637209 3.17508 0.525209 3.16121 0.441209 3.21666L0.175209 3.41072C0.0912093 3.46616 0.0772094 3.57706 0.133209 3.66022L0.763209 4.51963C0.819209 4.6028 0.931209 4.61666 1.01521 4.56121L1.28121 4.36716C1.36521 4.31171 1.37921 4.20082 1.32321 4.11765L1.09921 3.82656L1.36521 3.6325C1.79921 4.27013 2.48521 5.24042 2.79321 5.4622C2.93321 5.55923 3.08721 5.60082 3.22721 5.60082C3.61921 5.60082 4.02521 5.29587 4.40321 5.00478C4.47321 4.94933 4.57121 4.88003 4.66921 4.79686L4.73921 7.73547L4.10921 12.781C4.06721 13.1414 4.31921 13.4741 4.68321 13.5157C5.04721 13.5573 5.38321 13.3077 5.42521 12.9474L5.99921 8.35923L6.57321 12.9474C6.61521 13.28 6.89521 13.5157 7.23121 13.5157C7.25921 13.5157 7.28721 13.5157 7.31521 13.5157C7.67921 13.4741 7.93121 13.1414 7.88921 12.781L7.25921 7.73547L7.31521 4.81072C7.41321 4.88003 7.51121 4.96319 7.58121 5.01864C7.94521 5.29587 8.35121 5.61468 8.75721 5.61468C8.91121 5.61468 9.05121 5.5731 9.19121 5.47607C9.49921 5.25428 10.1852 4.29785 10.6192 3.64636L10.8852 3.84042L10.6752 4.13151C10.6192 4.21468 10.6332 4.32557 10.7172 4.38102L10.9832 4.57508C11.0672 4.63052 11.1792 4.61666 11.2352 4.53349L11.8652 3.67409C11.9212 3.57706 11.9072 3.46616 11.8232 3.41072Z" fill="#999999"/>
<path id="Vector_2" d="M5.99992 2.98132C6.73446 2.98132 7.32992 2.39175 7.32992 1.66449C7.32992 0.937222 6.73446 0.347656 5.99992 0.347656C5.26538 0.347656 4.66992 0.937222 4.66992 1.66449C4.66992 2.39175 5.26538 2.98132 5.99992 2.98132Z" fill="#999999"/>
</g>
</g>
</g>
</svg>
