<svg width="20" height="20" viewBox="0 0 20 20" fill="none" xmlns="http://www.w3.org/2000/svg">
<g id="Mustard-Seeds">
<g id="Group">
<path id="Vector" d="M7.96721 9.83495C7.84281 9.73487 7.72508 9.62676 7.61478 9.51132C7.34368 9.22701 7.20918 8.87036 7.23599 8.50718C7.25967 8.18693 7.40482 7.87838 7.64471 7.63849C8.10661 7.17659 8.89823 7.01802 9.51755 7.60851C9.62753 7.71344 9.73089 7.82511 9.82702 7.94287C9.59754 5.45484 7.49895 3.5 4.95204 3.5C4.1514 3.5 3.5 4.15137 3.5 4.95204C3.5 7.5086 5.46712 9.61394 7.96721 9.83495ZM10.6729 7.94303C10.7691 7.82521 10.8724 7.71348 10.9824 7.60848C11.2667 7.3374 11.6234 7.20303 11.9865 7.22972C12.3068 7.2534 12.6153 7.39855 12.8552 7.63846C13.3171 8.10034 13.4757 8.89196 12.8852 9.5113C12.7749 9.62676 12.6571 9.73488 12.5326 9.83495C15.0327 9.61405 17 7.50866 17 4.95204C17 4.15137 16.3486 3.5 15.548 3.5C13.001 3.5 10.9024 5.45494 10.6729 7.94303ZM9.82836 12.5424C9.73188 12.6609 9.62809 12.7733 9.51757 12.8789C9.25704 13.1273 8.93583 13.2611 8.60448 13.2611C8.5741 13.2611 8.54373 13.2599 8.51343 13.2577C8.19315 13.234 7.88463 13.0889 7.64474 12.849C7.18286 12.3871 7.02426 11.5955 7.61478 10.9761C7.72018 10.8659 7.83235 10.7623 7.95065 10.666C5.45892 10.8918 3.5 12.9921 3.5 15.5417V15.5479C3.5 16.3486 4.1514 17 4.95204 17C7.50399 17 9.6058 15.0374 9.82836 12.5424ZM12.5495 10.666C12.6677 10.7623 12.7799 10.8658 12.8852 10.9761C13.1563 11.2605 13.2908 11.6171 13.264 11.9803C13.2403 12.3006 13.0952 12.6091 12.8553 12.849C12.604 13.1002 12.2551 13.2617 11.8896 13.2617C11.5831 13.2617 11.2649 13.1482 10.9824 12.8789C10.8719 12.7735 10.7682 12.6612 10.6717 12.5428C10.8945 15.0377 12.9962 17 15.548 17C16.3486 17 17 16.3486 17 15.548V15.5417C17 12.9921 15.0411 10.8919 12.5495 10.666Z" fill="#CA3C3D"/>
<path id="Vector_2" d="M8.9725 8.17825C8.68877 7.90778 8.38161 8.01828 8.20482 8.19505C8.028 8.37187 7.91753 8.67899 8.18803 8.96273C8.29727 9.07723 8.4158 9.1825 8.5424 9.27745C8.71872 8.96634 8.97616 8.70891 9.28727 8.5326C9.19231 8.406 9.08703 8.28748 8.9725 8.17825ZM11.529 12.3037C11.8128 12.5742 12.1199 12.4637 12.2967 12.2869C12.4735 12.1101 12.584 11.8029 12.3135 11.5192C12.2042 11.4048 12.0856 11.2996 11.959 11.2047C11.7827 11.5157 11.5253 11.7731 11.2143 11.9493C11.3092 12.0759 11.4145 12.1945 11.529 12.3037ZM8.9725 12.3037C9.08693 12.1944 9.19213 12.0758 9.28701 11.9492C8.9761 11.7729 8.71881 11.5157 8.54253 11.2048C8.41589 11.2996 8.29732 11.4048 8.18803 11.5192C7.91753 11.8029 8.028 12.1101 8.20482 12.2869C8.38167 12.4637 8.68882 12.5742 8.9725 12.3037ZM11.529 8.17825C11.4145 8.28748 11.3092 8.40601 11.2143 8.53263C11.5253 8.70889 11.7827 8.96623 11.959 9.27724C12.0857 9.18236 12.2042 9.07717 12.3135 8.96273C12.584 8.67902 12.4735 8.37189 12.2967 8.19508C12.1199 8.01828 11.8128 7.90773 11.529 8.17825Z" fill="#CA3C3D"/>
<path id="Vector_3" d="M10.2503 11.4127C10.8971 11.4127 11.4215 10.8884 11.4215 10.2415C11.4215 9.59468 10.8971 9.07031 10.2503 9.07031C9.60347 9.07031 9.0791 9.59468 9.0791 10.2415C9.0791 10.8884 9.60347 11.4127 10.2503 11.4127Z" fill="#CA3C3D"/>
</g>
</g>
</svg>
