<svg width="18" height="18" viewBox="0 0 18 18" fill="none" xmlns="http://www.w3.org/2000/svg">
<g id="salad 2">
<g id="Group">
<path id="Vector" d="M2.21702 6.59795C2.76001 7.43795 3.35863 8.24065 4.00887 9.00067H4.49515C4.43386 8.64944 4.34672 8.30322 4.23443 7.96483C3.80508 6.70953 3.05654 5.58753 2.06234 4.70908L2.43977 4.29226C3.50587 5.23523 4.30814 6.43946 4.76768 7.78651C4.84193 8.00786 4.90296 8.23483 4.95724 8.46405C4.98256 8.41792 5.00871 8.37236 5.03093 8.32342C5.66402 6.91717 5.35634 4.67786 4.01084 3.90105C3.68782 3.73432 3.33435 3.63483 2.97179 3.60858C2.60924 3.58233 2.24512 3.62987 1.90146 3.74833C1.74467 3.78809 1.59771 3.85963 1.4697 3.95852C1.34168 4.05741 1.23535 4.18153 1.15727 4.3232C1.00793 4.70036 1.41799 5.36242 2.21702 6.59795ZM8.70265 6.26664C8.68137 6.09693 8.63894 5.93054 8.57637 5.77136C8.1379 4.65873 6.85821 4.03858 6.09152 4.26695C5.83981 4.35184 5.6226 4.51643 5.47277 4.7358C5.99078 5.86424 6.04948 7.14994 5.63646 8.32089C5.65249 8.3012 5.67162 8.28376 5.68737 8.26464C6.28485 7.492 6.6541 6.56752 6.7533 5.59586L7.31243 5.65717C7.20335 6.73426 6.79299 7.75881 6.12837 8.61339C6.02121 8.74895 5.90337 8.87636 5.78299 9.00151H7.08012L7.10346 8.99055C6.95596 8.41737 7.04145 7.8091 7.34125 7.2988C7.64104 6.78849 8.13074 6.41769 8.70321 6.26748L8.70265 6.26664ZM13.8386 9.00067H16.6553C16.4761 8.74113 16.2253 8.53941 15.9333 8.42017C15.7427 8.35589 15.5437 8.31988 15.3427 8.3133C15.0845 8.29417 14.7917 8.27223 14.6561 8.00139C14.5155 7.71733 14.7076 7.47798 14.8617 7.28533C15.0184 7.11511 15.133 6.9105 15.1961 6.68795C15.3351 6.08186 15.3368 5.06458 14.7698 4.74564C14.638 4.67839 14.4941 4.63835 14.3465 4.62792C14.1989 4.61748 14.0508 4.63686 13.9108 4.68489C13.4888 4.81164 13.1303 5.0935 12.9076 5.4738C12.6885 5.89736 12.8165 6.36705 12.9402 6.8207C13.064 7.27436 13.1934 7.75136 12.8525 8.07873C12.5063 8.41201 12.0006 8.27561 11.5109 8.14201C11.5523 8.4288 11.5345 8.72103 11.4586 9.00067H13.2668C13.3363 8.60205 13.4169 8.20543 13.5084 7.81126C13.6667 7.13783 13.8569 6.4723 14.0785 5.81692L14.6111 5.99692C14.3955 6.63548 14.2103 7.28393 14.0562 7.94008C13.9747 8.2917 13.9021 8.64534 13.8386 9.00067Z" fill="#999999"/>
<path id="Vector_2" d="M10.8721 9C10.9237 8.8545 10.9545 8.70243 10.9635 8.54831L10.4958 8.70412L10.318 8.16975L10.9036 7.97456C10.8157 7.66877 10.6432 7.394 10.4061 7.18185C10.169 6.9697 9.87681 6.82879 9.56315 6.77531V7.3125H9.00065V6.77531C8.73159 6.8213 8.47766 6.93177 8.26059 7.09726C8.04351 7.26276 7.86975 7.47837 7.75415 7.72566L8.24578 7.88963L8.06803 8.424L7.60312 8.26875C7.59741 8.32482 7.5945 8.38114 7.5944 8.4375C7.59402 8.62922 7.62695 8.81955 7.69172 9H10.8721ZM9.00065 7.875H9.56315V8.4375H9.00065V7.875ZM3.27806 9C2.96343 8.61675 2.66053 8.2215 2.36934 7.81425C2.11229 7.89982 1.86349 8.00845 1.626 8.13881C1.43313 8.22267 1.27619 8.37214 1.18303 8.56069C1.12566 8.69966 1.1104 8.85243 1.13915 9H3.27806ZM1.13072 9.5625C1.20572 11.5257 2.03779 13.3837 3.45252 14.7469C4.86724 16.1101 6.75476 16.8728 8.7194 16.875H9.2819C11.2466 16.8728 13.1341 16.1101 14.5488 14.7469C15.9635 13.3837 16.7956 11.5257 16.8706 9.5625H1.13072ZM5.78456 15.4406C4.45411 14.7985 3.33842 13.7843 2.57268 12.521L3.05362 12.229C3.76313 13.3995 4.79671 14.3392 6.02925 14.9344L5.78456 15.4406ZM7.0319 15.75H6.4694V15.1875H7.0319V15.75ZM13.2194 2.25V1.6875H12.0944C11.4977 1.6875 10.9254 1.92455 10.5034 2.34651C10.0815 2.76847 9.8444 3.34076 9.8444 3.9375V4.5H10.9694C11.5661 4.5 12.1384 4.26295 12.5604 3.84099C12.9824 3.41903 13.2194 2.84674 13.2194 2.25Z" fill="#999999"/>
<path id="Vector_3" d="M7.875 2.8125C8.18566 2.8125 8.4375 2.56066 8.4375 2.25C8.4375 1.93934 8.18566 1.6875 7.875 1.6875C7.56434 1.6875 7.3125 1.93934 7.3125 2.25C7.3125 2.56066 7.56434 2.8125 7.875 2.8125Z" fill="#999999"/>
<path id="Vector_4" d="M4.21875 1.96875C4.52941 1.96875 4.78125 1.71691 4.78125 1.40625C4.78125 1.09559 4.52941 0.84375 4.21875 0.84375C3.90809 0.84375 3.65625 1.09559 3.65625 1.40625C3.65625 1.71691 3.90809 1.96875 4.21875 1.96875Z" fill="#999999"/>
</g>
</g>
</svg>
