<svg width="20" height="20" viewBox="0 0 20 20" fill="none" xmlns="http://www.w3.org/2000/svg">
<g id="olives 1" clip-path="url(#clip0_1248_21326)">
<g id="Group">
<path id="Vector" d="M18.8908 1.02021C18.8811 0.982427 18.8641 0.946918 18.8407 0.915711C18.8173 0.884504 18.788 0.858211 18.7545 0.838334C18.7209 0.818457 18.6838 0.805384 18.6452 0.799864C18.6066 0.794344 18.5673 0.796484 18.5295 0.806162C14.9809 1.7149 12.5133 3.07132 10.7944 4.48207C10.2366 4.29147 7.3664 3.37769 4.53035 3.68555C3.36278 3.7859 2.23557 4.1613 1.24097 4.78102C1.20021 4.80752 1.16649 4.84352 1.14271 4.88592C1.11892 4.92832 1.10578 4.97586 1.10441 5.02446C1.02901 5.34894 2.45282 6.07362 5.0766 6.09915C6.65879 6.07422 8.23135 5.84766 9.75624 5.42494C7.68791 7.51524 7.1004 9.53607 6.95315 10.2248C5.18882 10.3958 3.7941 12.3359 3.7941 14.7056C3.98469 20.6727 10.423 20.6727 10.6133 14.7056C10.6133 12.3846 9.27738 10.4721 7.5659 10.2337C7.79182 9.35616 8.69847 6.77127 11.8379 4.46099C11.7965 4.89988 11.8361 5.34264 11.9546 5.76724C10.1196 6.59255 9.69063 9.06997 10.3046 10.9649C11.2985 14.428 15.4577 15.8841 16.8242 12.2445C17.9227 9.36269 15.518 5.04287 12.5231 5.5909C12.3659 5.05347 12.3826 4.48008 12.5709 3.95274C14.4526 2.76887 16.515 1.90036 18.6767 1.38151C18.7145 1.37185 18.75 1.35484 18.7812 1.33145C18.8124 1.30806 18.8387 1.27875 18.8586 1.2452C18.8785 1.21165 18.8916 1.17451 18.8971 1.13591C18.9026 1.0973 18.9005 1.05799 18.8908 1.02021Z" fill="#CA3C3D"/>
<path id="Vector_2" d="M2.73087 3.44986C4.64839 2.81306 7.28523 2.9998 9.10181 3.41424C7.24634 2.40486 4.33696 1.24408 1.67399 2.00111C1.08826 2.27305 1.7586 2.82316 2.73087 3.44986Z" fill="#CA3C3D"/>
</g>
</g>
<defs>
<clipPath id="clip0_1248_21326">
<rect width="19" height="19" fill="white" transform="translate(0.5 0.5)"/>
</clipPath>
</defs>
</svg>
