<svg width="20" height="20" viewBox="0 0 20 20" fill="none" xmlns="http://www.w3.org/2000/svg">
<g id="onion 1" clip-path="url(#clip0_1248_21395)">
<g id="Group">
<path id="Vector" d="M10.1351 3.02876C9.75937 3.63254 9.50604 4.33765 9.37937 4.7261H8.83471C8.85159 3.42565 8.45471 1.6101 8.29004 0.921875C8.64048 0.985208 8.99093 1.2301 9.32871 1.65232C9.68759 2.08721 9.95782 2.62343 10.1351 3.02876ZM16.6796 12.875C16.6796 15.4041 15.0456 17.5785 12.7065 18.5454C12.6643 18.4779 12.6136 18.4103 12.5587 18.347C13.1329 17.777 13.6143 17.0128 13.9563 16.1261C14.3363 15.1381 14.5389 14.015 14.5389 12.875C14.5389 11.7983 14.3574 10.7259 14.0154 9.7801C13.6818 8.86388 13.2005 8.06165 12.6178 7.4621C12.2927 7.04832 11.6974 6.22921 11.1738 5.13565H11.2456C12.1534 6.38121 13.2216 7.3101 13.7874 7.75765C13.7916 7.76188 13.8 7.7661 13.8043 7.77032C15.6029 8.93565 16.6796 10.8399 16.6796 12.875Z" fill="#CA3C3D"/>
<path id="Vector_2" d="M14.1251 12.8761C14.1251 14.9829 13.4327 16.9041 12.2631 18.0609C12.0267 17.8709 11.7395 17.7105 11.4187 17.5923C11.7775 16.3636 11.9844 14.6621 11.9844 12.8761C11.9844 10.7523 11.6931 8.75516 11.2075 7.53072C11.0724 7.1085 10.8191 6.26827 10.5995 5.13672H10.7178C11.2835 6.36539 11.9507 7.28161 12.3011 7.72916C12.3053 7.73339 12.3095 7.74183 12.3138 7.74605C13.4453 8.90716 14.1251 10.8241 14.1251 12.8761ZM12.3095 18.6985C11.5875 18.9476 10.8107 19.0785 9.99999 19.0785C9.18932 19.0785 8.41243 18.9434 7.69043 18.6985C7.74532 18.6267 7.80443 18.5549 7.87621 18.4874C8.12954 18.2425 8.48421 18.0483 8.89798 17.9174H8.90221C9.24843 17.8118 9.61576 17.7569 9.99999 17.7569C10.3842 17.7569 10.7558 17.8118 11.0978 17.9174C11.5115 18.0441 11.8662 18.2425 12.1195 18.4874C12.1955 18.5549 12.2547 18.6225 12.3095 18.6985Z" fill="#CA3C3D"/>
<path id="Vector_3" d="M11.5665 12.8769C11.5665 14.6207 11.368 16.28 11.0218 17.4707C10.6967 17.3905 10.3505 17.3483 10 17.3483C9.64959 17.3483 9.30337 17.3905 8.97826 17.4707C8.63204 16.28 8.43359 14.6207 8.43359 12.8769C8.43359 10.9854 8.66159 9.20782 9.06693 8.00871C9.07115 7.99182 9.09648 7.92426 9.13448 7.81026C9.25693 7.44715 9.56093 6.48026 9.81848 5.1376H10.1774C10.4054 6.33249 10.6714 7.2276 10.8149 7.66249C10.8149 7.66671 10.8191 7.67093 10.8191 7.67515C11.2878 8.85315 11.5665 10.7954 11.5665 12.8769ZM11.1274 4.72804H9.81426C9.94515 4.3396 10.1943 3.68937 10.5405 3.1616C10.8276 2.71826 11.1231 2.45226 11.4103 2.35938C11.2878 2.8196 11.0809 3.7316 11.1274 4.72804Z" fill="#CA3C3D"/>
<path id="Vector_4" d="M9.39633 5.13703C9.14722 6.41215 8.86011 7.32837 8.74189 7.67459C8.69967 7.79703 8.67433 7.86037 8.67433 7.86037C8.67433 7.86459 8.67433 7.86459 8.67011 7.86881C8.25633 9.11015 8.01567 10.9384 8.01567 12.8721C8.01567 14.6581 8.21833 16.3597 8.58144 17.5884C8.26056 17.7066 7.97344 17.867 7.737 18.057C6.56744 16.9001 5.875 14.979 5.875 12.8721C5.875 11.0059 6.42811 9.2537 7.395 8.06726C7.41189 8.05037 7.471 7.98281 7.56389 7.86881C7.86789 7.49726 8.63211 6.50926 9.26544 5.13281L9.39633 5.13703Z" fill="#CA3C3D"/>
<path id="Vector_5" d="M6.04365 16.1233C6.38565 17.0099 6.86698 17.7741 7.4412 18.3441C7.38631 18.4075 7.33565 18.475 7.29342 18.5426C4.95431 17.5757 3.32031 15.397 3.32031 12.8721C3.32031 11.0228 4.19853 9.28326 5.7312 8.10103C5.75231 8.08415 5.84942 8.01659 6.00142 7.90259C6.4912 7.53104 7.71565 6.52615 8.72898 5.13281H8.8092C8.21387 6.37415 7.52565 7.26504 7.24698 7.60704C7.14565 7.72948 7.08653 7.79281 7.08653 7.79281L7.07809 7.80126C6.05209 9.05948 5.46098 10.9088 5.46098 12.8721C5.4652 14.0164 5.66365 15.1395 6.04365 16.1233Z" fill="#CA3C3D"/>
</g>
</g>
<defs>
<clipPath id="clip0_1248_21395">
<rect width="19" height="19" fill="white" transform="translate(0.5 0.5)"/>
</clipPath>
</defs>
</svg>
