<svg width="20" height="20" viewBox="0 0 20 20" fill="none" xmlns="http://www.w3.org/2000/svg">
<g id="orange 1">
<g id="Group">
<path id="Vector" d="M9.64691 5.02305C9.59049 5.05432 9.53038 5.07841 9.46798 5.09476C8.44339 5.36503 7.3336 5.24876 6.43501 4.6884C5.53642 4.12804 5.03582 3.24056 4.9735 2.29245C4.9537 1.99145 5.17327 1.71366 5.49852 1.62778C6.52311 1.35733 7.63307 1.4736 8.53166 2.03379C9.32866 2.5308 9.81252 3.28546 9.95526 4.11131C10.3001 3.34061 10.8912 2.53029 11.861 1.85161C12.0094 1.74773 12.193 1.70706 12.3714 1.73853C12.5497 1.77001 12.7083 1.87106 12.8122 2.01945C12.9161 2.16784 12.9567 2.35141 12.9253 2.52979C12.8938 2.70817 12.7928 2.86674 12.6444 2.97062C11.4837 3.78299 11.0557 4.81287 10.932 5.55352C14.0791 6.00068 16.4991 8.70601 16.4991 11.9765C16.4991 15.5595 13.5943 18.4643 10.0111 18.4643C6.42818 18.4643 3.52344 15.5595 3.52344 11.9763C3.52344 8.54517 6.18693 5.73621 9.55932 5.50418C9.57913 5.3512 9.60764 5.19003 9.64691 5.02305Z" fill="#FF7F01"/>
</g>
</g>
</svg>
