<svg width="19" height="20" viewBox="0 0 19 20" fill="none" xmlns="http://www.w3.org/2000/svg">
<g id="oregano 1">
<g id="Group">
<g id="Group_2">
<path id="Vector" fill-rule="evenodd" clip-rule="evenodd" d="M6.08686 7.46647C6.119 8.07592 6.22981 8.67866 6.41654 9.25969C6.5849 9.77174 6.85458 10.2447 7.20952 10.6503C7.96812 10.6009 8.72907 10.6999 9.44979 10.9417C9.00665 10.3258 8.43671 9.8121 7.77834 9.43504C7.61591 9.34528 7.55577 9.14165 7.64337 8.97807C7.73096 8.8145 7.93379 8.75165 8.09851 8.83707C8.97402 9.3252 9.70373 10.0377 10.2126 10.9013C10.3319 10.8644 10.4523 10.8314 10.5738 10.8026C10.575 10.6763 10.5665 10.5501 10.5484 10.4251V10.419C10.4733 9.90556 10.2506 9.42499 9.90733 9.03585C9.62903 8.72225 9.29868 8.45903 8.93084 8.25779C8.04571 7.79177 7.07952 7.49956 6.08447 7.39695C6.08798 7.41755 6.08944 7.43847 6.08887 7.45936C6.08855 7.46207 6.08721 7.46411 6.08686 7.46647ZM6.42639 10.7568C6.19165 10.4231 5.99975 10.0612 5.85521 9.67961C4.87036 9.55569 3.87608 9.52424 2.88537 9.58567C2.8408 9.58926 2.79597 9.58389 2.75351 9.56989C2.71105 9.55589 2.67182 9.53354 2.63813 9.50414C2.60444 9.47475 2.57697 9.43892 2.55733 9.39875C2.5377 9.35858 2.5263 9.31489 2.52381 9.27025C2.51141 9.08365 2.65234 8.92224 2.83891 8.90936C3.76891 8.851 4.70219 8.87187 5.62865 8.97176C5.52864 8.56329 5.46328 8.14711 5.43329 7.72765C1.84782 7.36708 0.370712 8.9958 0 9.5168C1.25495 10.9729 3.18826 11.5468 4.32179 11.7655C4.93286 11.2663 5.65446 10.9204 6.42639 10.7568ZM9.20153 4.48442C9.24269 4.30493 9.41957 4.19109 9.59998 4.22792C9.78039 4.26475 9.89847 4.43882 9.86598 4.62006C9.66245 5.66341 9.52246 6.71816 9.44677 7.77848C9.72473 7.9484 9.98266 8.1491 10.2157 8.37679C10.7035 8.06281 11.2158 7.78865 11.7477 7.55699C12.284 4.25171 10.6284 2.52225 10.0987 2.06641C8.27539 3.01012 7.02451 4.78106 6.74455 6.81487C7.44934 6.93261 8.13672 7.1377 8.7908 7.4254C8.87348 6.43826 9.0106 5.45644 9.20153 4.48442ZM8.98818 12.1909C7.96727 12.7312 6.36533 13.7595 5.3963 15.2824C5.37322 15.3217 5.34247 15.3559 5.3059 15.383C5.26933 15.4101 5.22767 15.4295 5.18342 15.4402C5.13917 15.4508 5.09322 15.4525 5.04832 15.445C5.00341 15.4376 4.96047 15.4211 4.92206 15.3967C4.88364 15.3723 4.85052 15.3404 4.82469 15.3029C4.79886 15.2654 4.78084 15.2231 4.7717 15.1786C4.76255 15.134 4.76248 15.088 4.77149 15.0434C4.78049 14.9987 4.79838 14.9564 4.8241 14.9188C5.95221 13.1422 7.80886 12.0161 8.87794 11.4789C8.30332 11.3262 7.70616 11.2766 7.11421 11.3324C5.8562 11.4602 4.15388 12.1203 3.1896 14.5376C2.72805 15.611 2.47726 16.7632 2.45089 17.9314C4.09351 17.8636 6.34871 17.66 7.68166 17.0071C8.17729 16.7892 8.61631 16.4604 8.96494 16.0462C9.31357 15.6319 9.56252 15.1432 9.69264 14.6176C9.26803 14.1448 8.99942 13.5527 8.92338 12.9218C8.90268 12.6762 8.9246 12.4289 8.98818 12.1909ZM12.1839 8.10614C11.6532 8.32648 11.1425 8.59225 10.6576 8.90049C10.8619 9.19436 11.0176 9.51914 11.1189 9.86241C12.5257 9.15658 14.0638 8.75049 15.6357 8.66986H15.6421C15.8294 8.66788 15.9829 8.81816 15.9849 9.00546C15.9868 9.1928 15.8365 9.34623 15.6492 9.34821C14.1121 9.43768 12.6115 9.8526 11.2467 10.5655C11.2505 10.6208 11.2515 10.671 11.2525 10.7219C11.5751 10.7116 11.8953 10.7815 12.1842 10.9254C12.7225 11.2096 13.0474 11.7574 13.1502 12.5534C13.159 12.6213 13.1631 12.6864 13.1705 12.7539C13.2248 12.7386 13.2818 12.7254 13.3354 12.7091C14.0812 12.5025 14.8121 12.2453 15.5231 11.9395C18.0974 10.8056 18.8131 9.54696 19 9.05856C18.326 8.47417 15.8389 6.61344 12.1839 8.10614ZM14.2285 13.149C14.7638 13.551 15.2116 14.0579 15.5445 14.6387C15.6304 14.8052 15.5652 15.0098 15.3988 15.0957C15.2323 15.1817 15.0277 15.1165 14.9418 14.95C14.5619 14.3105 14.0265 13.7774 13.3853 13.4003C13.332 13.4156 13.2767 13.4302 13.2221 13.4451C13.2493 14.046 13.2169 14.6482 13.1252 15.2427C14.0713 15.8802 15.2002 16.1899 16.3392 16.1246C16.4749 14.3788 15.9556 13.2609 15.5431 12.6667C15.1264 12.839 14.6882 12.9998 14.2285 13.149ZM11.8678 11.5271C11.4754 11.3688 11.0398 11.3541 10.6376 11.4854C11.1157 12.0477 11.4991 12.684 11.7728 13.3695C11.8004 13.4528 11.7946 13.5435 11.7568 13.6226C11.7189 13.7018 11.6518 13.7631 11.5696 13.7938C11.4875 13.8246 11.3966 13.8223 11.3161 13.7874C11.2356 13.7526 11.1717 13.6879 11.1379 13.6069C10.8629 12.9245 10.4657 12.2981 9.96568 11.7584C9.83265 11.9108 9.73185 12.0885 9.66936 12.2808C9.60687 12.4732 9.58398 12.6762 9.60208 12.8777C9.66044 13.5326 10.1787 14.5854 12.3128 15.8828C12.3525 15.7278 12.3925 15.5463 12.4288 15.3442C12.4304 15.3219 12.4344 15.2998 12.4406 15.2784C12.584 14.4062 12.5965 13.5175 12.4776 12.6416C12.4037 12.0776 12.1988 11.7024 11.8678 11.5271Z" fill="#CA3C3D"/>
</g>
</g>
</g>
</svg>
