<svg width="19" height="20" viewBox="0 0 19 20" fill="none" xmlns="http://www.w3.org/2000/svg">
<g id="palm 1">
<g id="Group">
<path id="Vector" d="M8.41967 12.6143L10.0189 12.3857C11.4512 12.1811 12.8621 11.848 14.2346 11.3903C15.8064 10.8666 17.2347 9.98403 18.4062 8.8125H17.7234C15.0314 8.81234 12.4034 9.63332 10.1902 11.1658L8.72545 12.18L10.2066 10.0816L11.1533 8.96272C13.4131 6.29212 15.8354 3.7633 18.4062 1.39062C17.4744 1.39065 16.5534 1.59099 15.7058 1.97807C14.8581 2.36515 14.1036 2.92992 13.4933 3.63411C12.2209 5.10218 11.1243 6.71373 10.2256 8.43606L9.04281 10.7027L8.25075 11.8255L9.06181 8.90572C9.35252 7.85883 9.49992 6.77736 9.5 5.69086C9.50001 4.89223 9.34271 4.10141 9.03708 3.36358C8.73145 2.62574 8.28348 1.95533 7.71875 1.39062C7.52195 2.57113 7.50794 3.77489 7.67719 4.95966C7.90252 6.53664 8.01562 8.12764 8.01562 9.72064V12.1586L7.78763 12.4819L7.125 13.2769V11.0358C7.12504 9.85365 6.78219 8.69687 6.13802 7.70565C5.49384 6.71444 4.57599 5.93134 3.4957 5.45128L2.375 4.95312C2.76628 6.1275 3.40097 7.20609 4.23759 8.11841C5.54805 9.54805 6.48074 11.2823 6.95103 13.1638L7.01308 13.4114L6.30058 14.267C5.88944 13.5275 5.26468 12.9294 4.50805 12.5507L3.26355 11.9273C2.67932 11.6357 2.03522 11.484 1.38225 11.4844H0.59375C0.976177 12.4406 1.69633 13.2232 2.61755 13.6836L3.15667 13.9535C4.01966 14.385 4.95741 14.647 5.91909 14.7254L3.3345 17.8256L3.7905 18.2056L6.40627 15.0659C6.78736 15.7114 7.30392 16.2667 7.92033 16.6933L9.44627 17.7496C10.2547 18.3094 11.2147 18.6093 12.198 18.6094H12.7656C12.3801 17.6455 11.6946 16.8313 10.8104 16.2872L9.56175 15.5186C8.74495 15.016 7.80469 14.7499 6.84564 14.75H6.66959L7.30312 13.9891L8.28608 14.2563C9.48567 14.5837 10.7236 14.7498 11.967 14.75H12.901C14.5783 14.75 16.242 14.4484 17.8125 13.8594C16.4413 13.2718 14.9651 12.9688 13.4734 12.9688H11.5689C10.5898 12.9688 9.61515 13.0993 8.67053 13.3568L7.58308 13.6536L8.25817 12.8432L8.41967 12.6143Z" fill="#CA3C3D"/>
</g>
</g>
</svg>
