<svg width="20" height="20" viewBox="0 0 20 20" fill="none" xmlns="http://www.w3.org/2000/svg">
<g id="papaya 1">
<g id="Group">
<path id="Vector" d="M13.4172 6.40536C12.1927 7.35789 10.7369 8.03388 9.0904 8.41445C8.22883 8.61344 7.36056 9.11687 6.64539 9.83201C5.48057 10.9968 4.90609 12.5431 5.21585 13.6796C5.29749 13.9784 5.36295 14.2813 5.41193 14.5872C5.71772 14.6362 6.02065 14.7016 6.3194 14.7832C7.45598 15.093 9.00224 14.5186 10.1671 13.3537C10.8823 12.6385 11.3857 11.7702 11.5846 10.9086C11.9653 9.26213 12.6412 7.80639 13.5938 6.58181C13.6126 6.55758 13.6219 6.52735 13.62 6.49677C13.618 6.46619 13.605 6.43736 13.5834 6.41567C13.5617 6.39403 13.5329 6.38105 13.5023 6.37915C13.4717 6.37725 13.4414 6.38657 13.4172 6.40536ZM6.71055 13.9101C6.53893 14.0817 6.26069 14.0817 6.08907 13.9101C5.91745 13.7385 5.91745 13.4602 6.08907 13.2886C6.26069 13.117 6.53893 13.117 6.71055 13.2886C6.88217 13.4602 6.88217 13.7385 6.71055 13.9101ZM7.0213 12.1492C6.84968 12.3208 6.57145 12.3208 6.39982 12.1492C6.2282 11.9776 6.2282 11.6994 6.39982 11.5277C6.57145 11.3561 6.84968 11.3561 7.0213 11.5277C7.19292 11.6993 7.19292 11.9776 7.0213 12.1492ZM7.64278 10.2848C7.8144 10.1131 8.09263 10.1131 8.26425 10.2848C8.43587 10.4564 8.43587 10.7346 8.26425 10.9062C8.09263 11.0779 7.8144 11.0779 7.64278 10.9062C7.47115 10.7347 7.47115 10.4564 7.64278 10.2848ZM8.47141 13.5993C8.29979 13.771 8.02156 13.771 7.84993 13.5993C7.67831 13.4277 7.67831 13.1495 7.84993 12.9779C8.02156 12.8062 8.29979 12.8062 8.47141 12.9779C8.64303 13.1495 8.64303 13.4277 8.47141 13.5993ZM8.88573 9.04182C9.05735 8.87019 9.33558 8.87019 9.5072 9.04182C9.67883 9.21344 9.67883 9.49167 9.5072 9.66329C9.33558 9.83491 9.05735 9.83491 8.88573 9.66329C8.71414 9.49167 8.71414 9.21344 8.88573 9.04182ZM9.71439 12.3564C9.54277 12.528 9.26454 12.528 9.09292 12.3564C8.92129 12.1848 8.92129 11.9065 9.09292 11.7349C9.26454 11.5633 9.54277 11.5633 9.71439 11.7349C9.88601 11.9065 9.88601 12.1848 9.71439 12.3564ZM10.9573 11.1134C10.7857 11.285 10.5075 11.285 10.3359 11.1134C10.1642 10.9418 10.1642 10.6635 10.3359 10.4919C10.5075 10.3203 10.7857 10.3203 10.9573 10.4919C11.129 10.6635 11.129 10.9418 10.9573 11.1134ZM11.2681 9.35254C11.0965 9.52416 10.8182 9.52416 10.6466 9.35254C10.475 9.18092 10.475 8.90268 10.6466 8.73106C10.8182 8.55944 11.0965 8.55944 11.2681 8.73106C11.4397 8.90268 11.4397 9.18092 11.2681 9.35254Z" fill="#FF7F01"/>
<path id="Vector_2" d="M11.7986 4.32477C10.8782 5.04062 9.76736 5.55246 8.49687 5.84608C7.1604 6.15495 5.84075 6.90865 4.78105 7.96835C2.941 9.80843 2.11322 12.3226 2.67217 14.3737C2.89134 15.1779 2.93277 15.9578 2.79542 16.6918C2.73859 16.9955 3.00458 17.2615 3.30824 17.2046C4.04221 17.0673 4.82219 17.1087 5.62642 17.3279C7.67744 17.8868 10.1917 17.059 12.0317 15.219C13.0914 14.1593 13.8451 12.8396 14.154 11.5031C14.4476 10.2326 14.9595 9.12177 15.6753 8.2014C16.5289 7.10394 16.4312 5.53503 15.4481 4.55191C14.465 3.5688 12.8961 3.47121 11.7986 4.32477ZM14.2878 7.12213C13.4141 8.24532 12.7928 9.58609 12.4412 11.1072C12.2057 12.1271 11.6188 13.1459 10.7888 13.976C10.119 14.6458 9.32562 15.1584 8.49444 15.4584C7.63803 15.7675 6.80603 15.8275 6.08843 15.6319C5.71609 15.5304 5.34027 15.4571 4.97151 15.4141C4.87323 15.4026 4.78169 15.3583 4.71172 15.2883C4.64174 15.2184 4.59744 15.1268 4.58597 15.0285C4.54293 14.6596 4.4696 14.2838 4.36805 13.9116C4.17247 13.1939 4.2325 12.362 4.54164 11.5056C4.84167 10.6744 5.35428 9.88106 6.02406 9.21127C6.8541 8.38123 7.87288 7.79438 8.89267 7.55883C10.4139 7.20724 11.7547 6.58594 12.8778 5.71228C13.277 5.40188 13.8476 5.43744 14.2051 5.79492C14.5626 6.15241 14.5981 6.72299 14.2878 7.12213ZM17.3713 3.25019L16.7498 2.62872C16.5782 2.45709 16.3 2.45709 16.1283 2.62872L15.3727 3.3844C15.6262 3.53749 15.8602 3.72084 16.0696 3.93041C16.2791 4.13988 16.4622 4.37424 16.6148 4.62823L17.3713 3.87167C17.5429 3.70008 17.5429 3.42181 17.3713 3.25019Z" fill="#FF7F01"/>
</g>
</g>
</svg>
