<svg width="20" height="20" viewBox="0 0 20 20" fill="none" xmlns="http://www.w3.org/2000/svg">
<g id="passion-fruit 1">
<g id="Group">
<path id="Vector" d="M16.3956 4.74657C16.3299 4.67321 14.7631 2.94933 12.7682 2.94922C11.5652 2.94922 10.5181 3.576 9.86181 4.08978V3.36245C9.86181 3.13426 9.67679 2.94922 9.44858 2.94922C9.22037 2.94922 9.03535 3.13426 9.03535 3.36245V4.34869C9.17241 4.34048 9.31012 4.33585 9.44858 4.33585C11.2576 4.33585 12.9582 5.04027 14.2374 6.3194C14.3473 6.42932 14.4526 6.54254 14.5539 6.65847C15.6289 6.14251 16.3515 5.34724 16.3956 5.29793C16.5361 5.14101 16.5361 4.90349 16.3956 4.74657ZM12.4693 10.6587C12.4034 10.6376 12.3438 10.6003 12.296 10.5502C12.2483 10.5001 12.2138 10.4388 12.1959 10.372C12.178 10.3051 12.1772 10.2348 12.1935 10.1676C12.2099 10.1003 12.2428 10.0382 12.2894 9.987C12.3569 9.91311 12.3991 9.81961 12.4098 9.7201C12.4205 9.62058 12.3991 9.52026 12.3488 9.43371C12.2648 9.2882 12.108 9.19784 11.9394 9.19784C11.9059 9.19784 11.8724 9.20142 11.8398 9.20853C11.7722 9.22326 11.702 9.22076 11.6355 9.20125C11.5691 9.18175 11.5087 9.14586 11.4598 9.0969C11.4108 9.04797 11.375 8.98752 11.3555 8.9211C11.336 8.85469 11.3334 8.78445 11.3482 8.71682C11.3697 8.61907 11.3595 8.517 11.319 8.42546C11.2785 8.33392 11.2099 8.25769 11.1231 8.20786C11.0517 8.16655 10.9707 8.14473 10.8882 8.14458C10.7704 8.14435 10.6568 8.18814 10.5696 8.26736C10.5184 8.31393 10.4564 8.34688 10.3891 8.36321C10.3218 8.37953 10.2515 8.37869 10.1847 8.36077C10.1178 8.34285 10.0566 8.30843 10.0065 8.26065C9.95639 8.21288 9.91912 8.15329 9.89806 8.08736C9.83534 7.89105 9.6547 7.75917 9.44861 7.75917C9.24252 7.75917 9.06183 7.89108 8.9991 8.08741C8.97802 8.15334 8.94072 8.21291 8.89063 8.26066C8.84053 8.30842 8.77925 8.34282 8.7124 8.36073C8.64554 8.37864 8.57526 8.37947 8.50801 8.36314C8.44075 8.34682 8.37867 8.31387 8.32746 8.26731C8.2403 8.18811 8.12669 8.14434 8.00892 8.14458C7.92583 8.14458 7.84682 8.16584 7.7741 8.20786C7.68729 8.25771 7.61866 8.33395 7.57817 8.4255C7.53769 8.51704 7.52747 8.61912 7.549 8.71687C7.56371 8.7845 7.5612 8.85473 7.5417 8.92114C7.52221 8.98754 7.48634 9.04798 7.43741 9.09692C7.38847 9.14586 7.32803 9.18172 7.26163 9.20122C7.19523 9.22073 7.12499 9.22324 7.05736 9.20853C7.02463 9.20142 6.99122 9.19783 6.95772 9.19784C6.78915 9.19784 6.63229 9.28817 6.54838 9.43363C6.49809 9.52018 6.47674 9.62052 6.48742 9.72004C6.49811 9.81957 6.54027 9.91309 6.60777 9.987C6.65434 10.0382 6.6873 10.1003 6.70362 10.1675C6.71995 10.2348 6.71912 10.3051 6.70122 10.3719C6.68331 10.4388 6.6489 10.5001 6.60114 10.5502C6.55338 10.6003 6.49381 10.6376 6.42788 10.6587C6.33245 10.6889 6.24916 10.7488 6.19012 10.8296C6.13108 10.9104 6.09937 11.008 6.09961 11.1081C6.09935 11.2082 6.13103 11.3058 6.19005 11.3866C6.24907 11.4675 6.33235 11.5274 6.42777 11.5577C6.49369 11.5787 6.55326 11.616 6.60102 11.6661C6.64878 11.7162 6.6832 11.7775 6.70113 11.8443C6.71904 11.9111 6.71987 11.9814 6.70355 12.0487C6.68723 12.1159 6.65427 12.178 6.60772 12.2292C6.54021 12.3031 6.49803 12.3967 6.48733 12.4962C6.47663 12.5957 6.49796 12.6961 6.54821 12.7826C6.63226 12.9281 6.7891 13.0185 6.95761 13.0185C6.99111 13.0185 7.02461 13.0149 7.0572 13.0078C7.12483 12.9931 7.19506 12.9956 7.26147 13.0151C7.32787 13.0346 7.38831 13.0705 7.43725 13.1194C7.48619 13.1683 7.52206 13.2288 7.54157 13.2952C7.56107 13.3616 7.56359 13.4318 7.54889 13.4994C7.52735 13.5972 7.53757 13.6993 7.57806 13.7908C7.61855 13.8824 7.6872 13.9586 7.77401 14.0085C7.84541 14.0498 7.92642 14.0716 8.00892 14.0718C8.1273 14.0718 8.24038 14.0282 8.32744 13.949C8.37865 13.9025 8.44074 13.8695 8.50801 13.8532C8.57528 13.8369 8.64558 13.8377 8.71244 13.8556C8.7793 13.8735 8.8406 13.9079 8.89069 13.9557C8.94079 14.0035 8.97808 14.0631 8.99915 14.129C9.02938 14.2244 9.08928 14.3077 9.17012 14.3668C9.25096 14.4258 9.34854 14.4575 9.44864 14.4572C9.54872 14.4575 9.64628 14.4258 9.72711 14.3668C9.80795 14.3078 9.86783 14.2245 9.89806 14.1291C9.91913 14.0631 9.95641 14.0035 10.0065 13.9558C10.0566 13.908 10.1179 13.8736 10.1847 13.8557C10.2516 13.8377 10.3219 13.8369 10.3891 13.8532C10.4564 13.8695 10.5185 13.9025 10.5697 13.949C10.6569 14.0283 10.7705 14.0721 10.8883 14.0718C10.9713 14.0718 11.0503 14.0506 11.1231 14.0085C11.2099 13.9587 11.2785 13.8825 11.319 13.7909C11.3595 13.6994 11.3697 13.5973 11.3482 13.4996C11.3335 13.4319 11.336 13.3617 11.3555 13.2952C11.375 13.2288 11.4108 13.1684 11.4598 13.1194C11.5087 13.0705 11.5692 13.0346 11.6356 13.0151C11.702 12.9956 11.7722 12.9931 11.8399 13.0078C11.8725 13.0149 11.906 13.0186 11.9395 13.0186C12.108 13.0186 12.2649 12.9282 12.3488 12.7828C12.3991 12.6962 12.4205 12.5959 12.4098 12.4963C12.3991 12.3968 12.3569 12.3032 12.2894 12.2293C12.2428 12.1781 12.2099 12.116 12.1935 12.0488C12.1772 11.9815 12.178 11.9112 12.1959 11.8443C12.2138 11.7775 12.2483 11.7162 12.296 11.6661C12.3438 11.616 12.4034 11.5787 12.4693 11.5577C12.6657 11.495 12.7976 11.3143 12.7976 11.1082C12.7976 10.9021 12.6656 10.7214 12.4693 10.6587ZM8.30336 12.2302C8.2265 12.3073 8.11989 12.3514 8.0111 12.3514C7.9015 12.3511 7.79646 12.3075 7.71881 12.2302C7.64195 12.1533 7.59787 12.047 7.59787 11.9382C7.59787 11.8293 7.64195 11.7227 7.71881 11.6459C7.79594 11.569 7.90225 11.5249 8.0111 11.5249C8.11989 11.5249 8.2265 11.569 8.30336 11.6459C8.38022 11.7227 8.42433 11.8293 8.42433 11.9382C8.42401 12.0476 8.38054 12.1525 8.30336 12.2302ZM8.30336 10.5704C8.2265 10.6475 8.11989 10.6916 8.0111 10.6916C7.9015 10.6913 7.79646 10.6477 7.71881 10.5704C7.64195 10.4935 7.59787 10.3872 7.59787 10.2784C7.59787 10.1695 7.64195 10.0629 7.71881 9.98606C7.79594 9.9092 7.90225 9.86512 8.0111 9.86512C8.11989 9.86512 8.2265 9.9092 8.30336 9.98606C8.38022 10.0629 8.42433 10.1695 8.42433 10.2784C8.42401 10.3878 8.38054 10.4927 8.30336 10.5704ZM9.74082 13.0602C9.6631 13.1374 9.55809 13.1808 9.44855 13.1811C9.33974 13.1811 9.23337 13.137 9.15626 13.0602C9.07906 12.9825 9.03561 12.8774 9.03533 12.7679C9.03533 12.6591 9.0794 12.5527 9.15626 12.4759C9.2334 12.399 9.33974 12.3547 9.44855 12.3547C9.55734 12.3547 9.66374 12.399 9.74082 12.4759C9.8177 12.5527 9.86178 12.6591 9.86178 12.7679C9.86178 12.8767 9.8177 12.9833 9.74082 13.0602ZM9.74082 9.74058C9.66307 9.81773 9.55808 9.86118 9.44855 9.86152C9.33974 9.86152 9.23337 9.81744 9.15626 9.74058C9.07906 9.66285 9.03561 9.55783 9.03533 9.44829C9.03533 9.3395 9.0794 9.23313 9.15626 9.15627C9.2334 9.07914 9.33974 9.03509 9.44855 9.03509C9.55734 9.03509 9.66374 9.07916 9.74082 9.15627C9.8177 9.23313 9.86178 9.33947 9.86178 9.44829C9.86178 9.5571 9.8177 9.66372 9.74082 9.74058ZM11.1783 12.2302C11.1012 12.3073 10.9949 12.3514 10.886 12.3514C10.7764 12.3511 10.6714 12.3075 10.5938 12.2302C10.5169 12.1533 10.4728 12.047 10.4728 11.9382C10.4728 11.8293 10.5169 11.7227 10.5938 11.6459C10.6715 11.5687 10.7765 11.5252 10.886 11.5249C10.9949 11.5249 11.1012 11.569 11.1783 11.6459C11.2552 11.7227 11.2993 11.8293 11.2993 11.9382C11.2993 12.0469 11.2552 12.1533 11.1783 12.2302ZM11.1783 10.5704C11.1012 10.6475 10.9949 10.6916 10.886 10.6916C10.7764 10.6913 10.6714 10.6477 10.5938 10.5704C10.5169 10.4935 10.4728 10.3872 10.4728 10.2784C10.4728 10.1695 10.5169 10.0629 10.5938 9.98606C10.6715 9.90886 10.7765 9.86541 10.886 9.86512C10.9949 9.86512 11.1012 9.9092 11.1783 9.98606C11.2552 10.0629 11.2993 10.1695 11.2993 10.2784C11.2993 10.3871 11.2552 10.4935 11.1783 10.5704Z" fill="#FF7F01"/>
<path id="Vector_2" d="M9.44787 5.16016C7.85967 5.16016 6.36648 5.77862 5.24346 6.90167C4.12045 8.02471 3.50195 9.51785 3.50195 11.106C3.50195 12.6943 4.12042 14.1874 5.24346 15.3104C6.36651 16.4334 7.85967 17.0519 9.44787 17.0519C11.0361 17.0519 12.5293 16.4335 13.6523 15.3104C14.7753 14.1874 15.3938 12.6943 15.3938 11.106C15.3938 9.51785 14.7753 8.02468 13.6523 6.90167C12.5292 5.77865 11.0361 5.16016 9.44787 5.16016ZM13.1605 12.1008C13.2893 12.4535 13.2608 12.8527 13.0638 13.1938C12.8711 13.5276 12.5393 13.7561 12.1659 13.8227C12.1013 14.1929 11.877 14.5249 11.5356 14.722C11.3386 14.8359 11.1151 14.8959 10.8875 14.8961C10.736 14.8962 10.5856 14.8698 10.4431 14.8182C10.2021 15.1063 9.84193 15.2815 9.44787 15.2815C9.05376 15.2815 8.69359 15.1063 8.45254 14.8181C8.27445 14.8828 8.08437 14.9077 7.89564 14.8911C7.70691 14.8745 7.52409 14.8168 7.36002 14.722C7.01867 14.525 6.79431 14.193 6.72971 13.8227C6.3564 13.7561 6.02458 13.5277 5.83176 13.1938C5.63485 12.8528 5.60636 12.4535 5.7351 12.1008C5.44735 11.8597 5.27236 11.4997 5.27236 11.106C5.27231 10.7122 5.44732 10.3523 5.73515 10.1112C5.60642 9.75854 5.6349 9.35933 5.83185 9.01825C6.02455 8.68439 6.35643 8.45599 6.72982 8.38935C6.79442 8.01915 7.01875 7.6871 7.36008 7.48999C7.55712 7.37619 7.78061 7.31619 8.00816 7.316C8.16141 7.316 8.31158 7.34275 8.4526 7.39393C8.69368 7.1058 9.05387 6.93059 9.44787 6.93059C9.84193 6.93059 10.2021 7.10577 10.4431 7.39393C10.5856 7.34228 10.736 7.31591 10.8875 7.316C11.1151 7.3162 11.3386 7.3762 11.5356 7.48999C11.877 7.68708 12.1013 8.01912 12.1659 8.38935C12.5393 8.45599 12.8711 8.68442 13.0639 9.01833C13.2608 9.35936 13.2893 9.75856 13.1605 10.1112C13.4483 10.3523 13.6233 10.7122 13.6233 11.106C13.6233 11.4999 13.4483 11.8598 13.1605 12.1008Z" fill="#FF7F01"/>
</g>
</g>
</svg>
