<svg width="20" height="20" viewBox="0 0 20 20" fill="none" xmlns="http://www.w3.org/2000/svg">
<g id="peach 1">
<g id="Group">
<path id="Vector" d="M15.296 14.5388C13.6292 17.0102 10.8387 17.4456 10.0233 17.5205C10.008 17.5218 9.99272 17.5218 9.97749 17.5205C9.16207 17.4456 6.37159 17.0102 4.7047 14.5388C3.96139 13.4372 3.5576 12.3299 3.50399 11.2483C3.40793 9.30757 4.48509 7.65426 6.09132 6.86461C10.2735 4.80961 14.1841 10.1633 11.0936 14.1328C11.0002 14.2528 11.0305 14.3972 11.1218 14.478C11.2287 14.573 11.3936 14.5595 11.4836 14.4482C13.472 11.9972 12.8835 8.71192 10.8646 7.00255C10.7121 6.87339 10.7637 6.62673 10.9554 6.57017C14.354 5.56778 18.6213 9.61057 15.296 14.5388Z" fill="#FF7F01"/>
<path id="Vector_2" d="M11.3814 4.4714C10.7222 4.84723 10.3152 5.46828 10.2122 6.17015C10.1892 6.32677 10.0197 6.4265 9.85599 6.34812C9.75899 6.30169 9.70162 6.1987 9.71726 6.0923C9.72844 6.01607 9.74268 5.94032 9.75993 5.86523C8.95583 6.12644 8.02721 6.05208 7.3607 5.71162C6.32866 5.18431 5.92863 4.20085 5.78222 3.66163C5.67438 3.26536 5.88286 2.8575 6.2669 2.71297C6.78982 2.51578 7.82124 2.26373 8.85329 2.79104C9.04734 2.89042 9.99098 3.42682 10.3829 4.6454C10.5932 4.40463 10.8443 4.20023 11.1328 4.03564C11.2528 3.96698 11.4061 4.00899 11.4748 4.12937C11.4911 4.15796 11.5017 4.18949 11.5058 4.22215C11.51 4.25482 11.5077 4.28798 11.499 4.31975C11.4903 4.35151 11.4755 4.38125 11.4553 4.40728C11.4351 4.4333 11.41 4.45509 11.3814 4.4714Z" fill="#FF7F01"/>
</g>
</g>
</svg>
