<svg width="20" height="20" viewBox="0 0 20 20" fill="none" xmlns="http://www.w3.org/2000/svg">
<g id="pecan 1">
<g id="Group">
<path id="Vector" d="M15.627 8.51562H14.5564C14.0628 8.51549 13.5724 8.59499 13.1041 8.75105C12.9824 8.79202 12.8553 8.8125 12.7271 8.8125C12.451 8.8125 12.1746 8.87781 11.9276 9.00131L11.7127 9.10878C10.8537 9.10428 10.0153 8.84551 9.30323 8.36511L9.35578 8.33512C9.82946 8.06445 10.3655 7.92201 10.9111 7.92188H10.9173C11.7035 7.92188 12.4958 7.85627 13.2725 7.72683C13.6796 7.65926 14.0915 7.6252 14.5042 7.625C14.9664 7.625 15.401 7.80491 15.7276 8.13177L16.1474 7.71198C15.9322 7.49544 15.6761 7.32377 15.394 7.20692C15.112 7.09007 14.8095 7.03036 14.5042 7.03125C14.0604 7.03125 13.613 7.06836 13.1748 7.14139C12.4287 7.2654 11.6737 7.32785 10.9173 7.32812H10.9111C10.263 7.32812 9.62327 7.49794 9.06098 7.81945L8.80211 7.9673C8.60112 7.78744 8.41753 7.58904 8.25378 7.37473C8.14387 7.23137 8.01996 7.0993 7.88387 6.98048C8.15611 6.941 8.42508 6.87955 8.68781 6.79197C9.39212 6.55701 10.1298 6.43731 10.8722 6.4375C11.303 6.43747 11.7321 6.38463 12.15 6.28016C12.5209 6.1875 12.9017 6.14064 13.284 6.14062C14.3789 6.14062 15.4388 6.46155 16.3493 7.06866L16.8017 7.37028C16.7443 7.80251 16.5868 8.21535 16.3415 8.57589C16.1054 8.53646 15.8664 8.51631 15.627 8.51562ZM16.8047 6.65867L16.6785 6.57436C15.6737 5.90325 14.4923 5.54564 13.284 5.54688C12.8533 5.5469 12.4242 5.59974 12.0063 5.70422C11.6358 5.79684 11.2543 5.84375 10.8722 5.84375C10.0641 5.84375 9.26613 5.97348 8.49989 6.2288C8.08516 6.36726 7.65076 6.43773 7.21353 6.4375H7.01878C6.6967 6.2757 6.42084 6.03497 6.21692 5.73777C6.65422 5.80694 7.09745 5.84375 7.5392 5.84375C8.22731 5.84295 8.90588 5.68281 9.52173 5.37587C10.0779 5.09847 10.6907 4.95377 11.3122 4.95312C11.5912 4.95312 11.8673 4.99795 12.1325 5.08642C12.4584 5.19478 12.798 5.25 13.1412 5.25C13.9392 5.25 14.7114 4.98548 15.3435 4.50544C15.5017 4.61528 15.6573 4.72958 15.8069 4.85219C16.3597 5.3034 16.7171 5.95049 16.8047 6.65867ZM14.8008 4.16195C14.3069 4.48355 13.7305 4.65523 13.1412 4.65625C12.8621 4.65631 12.5848 4.6113 12.3201 4.52295C11.9951 4.41463 11.6548 4.3594 11.3122 4.35938C10.5985 4.36016 9.89472 4.52631 9.25603 4.84477C8.72272 5.11059 8.13509 5.24929 7.5392 5.25C7.02344 5.2499 6.50895 5.19899 6.00317 5.098L5.91916 5.08108C5.87031 4.90205 5.84496 4.71743 5.84375 4.53186V4.49148C7.4604 3.62547 9.26593 3.17218 11.0999 3.17188C12.402 3.17188 13.6801 3.51922 14.8008 4.16195ZM1.86177 9.61377C1.72628 9.57456 1.60714 9.4925 1.5222 9.3799C1.43726 9.26729 1.3911 9.13019 1.39062 8.98914C1.39062 8.78548 1.4877 8.59133 1.65039 8.46931C2.21867 8.04214 2.6803 7.48916 2.99909 6.85372C3.26348 6.32538 3.661 5.87507 4.15245 5.54717L4.8985 5.04991C5.02052 4.96856 5.14698 4.89672 5.27138 4.82042C5.3212 5.30383 5.49923 5.76515 5.78707 6.1567C6.07491 6.54825 6.46211 6.85581 6.90864 7.04758C7.25351 7.19556 7.55361 7.43128 7.77908 7.73128C8.44437 8.61834 9.39289 9.24653 10.4465 9.53123C10.3245 9.58873 10.213 9.6663 10.1167 9.76072L9.8572 10.0202C9.67848 10.1983 9.44098 10.2969 9.18864 10.2969C8.88479 10.2965 8.5877 10.3866 8.33512 10.5555C7.96807 10.8001 7.57656 11.006 7.16692 11.1697L7.01136 11.2317C6.8641 11.2917 6.72815 11.3763 6.60939 11.482C6.52508 11.4832 6.44077 11.4844 6.35675 11.4844C5.69502 11.4844 5.06059 11.281 4.52206 10.8966C3.71532 10.3197 2.81546 9.88584 1.86177 9.61377ZM6.73438 12.5178C6.73438 12.1924 6.92942 11.9039 7.23164 11.783L7.3872 11.721C7.835 11.5418 8.263 11.3166 8.66436 11.0492C8.81959 10.9456 9.00205 10.8904 9.18864 10.8906C9.39084 10.8912 9.59114 10.8517 9.77796 10.7743C9.96477 10.697 10.1344 10.5833 10.277 10.44L10.5365 10.1805C10.5935 10.1231 10.6614 10.0776 10.7361 10.0466C10.8109 10.0156 10.891 9.99977 10.972 10C11.1587 10 11.3457 9.95577 11.5129 9.87234L12.1927 9.53242C12.3587 9.44965 12.5416 9.40646 12.7271 9.40625C12.9195 9.40625 13.1098 9.37537 13.2923 9.31452C13.6414 9.19909 14.0048 9.13255 14.3721 9.1168C13.7903 9.36711 13.2319 9.66874 12.7036 10.0181C12.4138 10.2118 12.086 10.3414 11.7421 10.3984C10.9021 10.5367 10.1269 10.9356 9.52619 11.5387C9.29018 11.7748 9.084 12.0389 8.91225 12.3251C8.73927 12.6113 8.49555 12.8481 8.20454 13.0129C7.91354 13.1776 7.58503 13.2646 7.25064 13.2656H7.15416L6.96594 13.0777C6.89226 13.0043 6.83386 12.917 6.79412 12.8209C6.75437 12.7248 6.73406 12.6218 6.73438 12.5178ZM7.03125 14.8201C7.03125 14.4914 7.10072 14.1637 7.22659 13.8594H7.25094C7.3872 13.8594 7.52139 13.8445 7.65409 13.8229C7.72002 14.1555 7.89641 14.456 8.15462 14.6758L7.75384 15.3438H7.55494C7.4161 15.3436 7.28298 15.2884 7.18481 15.1902C7.08663 15.092 7.03141 14.9589 7.03125 14.8201ZM17.5 13.7478C17.3071 13.8759 17.1417 14.0412 17.0134 14.234C16.7765 14.5899 16.4152 14.8445 16.0004 14.948C15.6925 15.0249 15.394 15.1353 15.1101 15.2773L14.7087 15.4779C14.4228 15.6208 14.1619 15.8088 13.936 16.0349C13.8079 16.1622 13.6347 16.2339 13.4541 16.2344C13.2918 16.2343 13.131 16.2653 12.9803 16.3258C12.1507 16.6584 11.2649 16.8289 10.3711 16.8281H9.73252C9.03189 16.8281 8.42448 16.3513 8.2425 15.6831L8.36273 15.4827L8.58302 15.6587C9.04869 16.0308 9.62689 16.2338 10.223 16.2344C10.9242 16.2344 11.5835 15.9613 12.0793 15.4655C12.3695 15.1752 12.7364 14.9738 13.1371 14.8848L14.1298 14.6642C14.826 14.51 15.4636 14.16 15.9675 13.6554C16.5357 13.0862 17.241 12.673 18.0153 12.4555V12.7835C18.0157 12.9743 17.9688 13.1622 17.8789 13.3304C17.7889 13.4987 17.6588 13.642 17.5 13.7478ZM18.197 11.8005C17.1932 12.0112 16.2726 12.5098 15.5477 13.2353C15.1236 13.66 14.5869 13.9546 14.001 14.0844L13.0082 14.305C12.4973 14.4183 12.0292 14.6752 11.6592 15.0454C11.4711 15.2347 11.2473 15.3848 11.0008 15.487C10.7542 15.5892 10.4898 15.6414 10.223 15.6406C9.7618 15.64 9.31448 15.483 8.95411 15.1953L8.67119 14.9691L8.67267 14.9667C8.82166 15.0177 8.97776 15.0447 9.1352 15.0469C9.35663 15.0472 9.5754 14.9986 9.77593 14.9047C9.97646 14.8108 10.1538 14.6739 10.2954 14.5036L10.8476 13.8407C11.1757 13.4452 11.6218 13.1651 12.1206 13.0415C12.3864 12.9751 12.6292 12.8377 12.823 12.644C12.908 12.5584 13.0091 12.4906 13.1205 12.4445C13.2319 12.3983 13.3514 12.3747 13.472 12.375C13.728 12.3757 13.9816 12.3255 14.2182 12.2275C14.4547 12.1296 14.6695 11.9856 14.85 11.8041C15.0552 11.6001 15.3326 11.4852 15.6219 11.4844H16.5312V10.8906H15.6219C15.1751 10.8918 14.7468 11.0692 14.43 11.3843C14.3045 11.5106 14.1552 11.6107 13.9907 11.6788C13.8263 11.7469 13.65 11.7818 13.472 11.7812C13.2733 11.7807 13.0766 11.8196 12.8931 11.8956C12.7096 11.9717 12.543 12.0833 12.4029 12.2242C12.2852 12.3418 12.1377 12.4252 11.9763 12.4655C11.3551 12.6195 10.7995 12.9682 10.3907 13.4607L9.8385 14.1236C9.75267 14.2269 9.64511 14.31 9.5235 14.3669C9.40188 14.4239 9.2692 14.4533 9.13491 14.4531C8.67148 14.4531 8.29119 14.1058 8.23092 13.6581C8.7264 13.4501 9.14311 13.0902 9.42109 12.6303C9.56793 12.3857 9.7442 12.1599 9.94597 11.9582C10.4594 11.4429 11.1217 11.1021 11.8394 10.9838C12.269 10.9123 12.6707 10.7535 13.0332 10.5121C13.8626 9.95895 14.7697 9.53214 15.7246 9.24564L16.0788 9.13936C16.8169 9.22628 17.514 9.52498 18.086 9.99941C18.25 10.1359 18.3819 10.3068 18.4724 10.5001C18.5628 10.6933 18.6096 10.9041 18.6094 11.1174C18.6094 11.4066 18.4508 11.6652 18.197 11.8005Z" fill="#CA3C3D"/>
</g>
</g>
</svg>
