<svg width="19" height="20" viewBox="0 0 19 20" fill="none" xmlns="http://www.w3.org/2000/svg">
<g id="peppermint 1">
<g id="Group">
<path id="Vector" d="M4.31533 16.2751C4.29973 16.2633 4.28482 16.2506 4.27068 16.2371C4.18463 16.15 4.09965 16.0618 4.01577 15.9727C3.42088 16.4082 2.81003 16.8215 2.18448 17.2118C2.11318 17.2562 2.06243 17.3271 2.0434 17.4089C2.02436 17.4907 2.03861 17.5767 2.08299 17.648C2.12738 17.7193 2.19827 17.77 2.28008 17.7891C2.36188 17.8081 2.4479 17.7939 2.5192 17.7495C3.19773 17.326 3.85933 16.876 4.50248 16.4005C4.4401 16.3587 4.37867 16.3188 4.31533 16.2751Z" fill="#CA3C3D"/>
<path id="Vector_2" d="M2.23148 10.2789C2.19057 10.2919 2.15281 10.3132 2.12059 10.3416C2.08837 10.3699 2.0624 10.4047 2.04433 10.4436C1.9981 10.5392 0.993314 12.7625 4.01558 15.9739C4.79288 15.4059 5.54455 14.8036 6.26835 14.1688C7.67846 12.2296 7.30733 9.70923 7.30321 9.6839C7.29681 9.64279 7.29857 9.60083 7.30838 9.5604C7.31819 9.51997 7.33588 9.48187 7.36041 9.44827C7.38495 9.41468 7.41587 9.38625 7.4514 9.3646C7.48692 9.34295 7.52637 9.32851 7.56747 9.32211C7.60858 9.3157 7.65055 9.31746 7.69097 9.32727C7.7314 9.33709 7.7695 9.35477 7.8031 9.37931C7.83669 9.40385 7.86513 9.43476 7.88678 9.47029C7.90842 9.50582 7.92286 9.54526 7.92927 9.58637C7.94256 9.67313 8.17278 11.2454 7.6012 12.9373C8.54709 12.0156 9.44366 11.0447 10.2872 10.0284L10.2884 10.0256C11.2942 8.65822 11.0332 6.85385 11.0304 6.83548C11.0177 6.75252 11.0385 6.66793 11.0881 6.60026C11.1378 6.53259 11.2122 6.48736 11.2951 6.47448C11.3362 6.46809 11.3781 6.46985 11.4184 6.47966C11.4588 6.48948 11.4968 6.50715 11.5304 6.53168C11.5639 6.55621 11.5923 6.58711 11.6138 6.62261C11.6354 6.65812 11.6498 6.69752 11.6561 6.73858C11.6637 6.78672 11.7616 7.45773 11.6286 8.31875C12.2544 7.47676 12.8422 6.60716 13.3902 5.71258C13.4118 5.67705 13.4402 5.64612 13.4738 5.62157C13.5074 5.59701 13.5455 5.57931 13.5859 5.56948C13.6263 5.55964 13.6683 5.55786 13.7094 5.56424C13.7505 5.57062 13.7899 5.58503 13.8254 5.60666C13.861 5.62828 13.8919 5.65669 13.9165 5.69027C13.941 5.72385 13.9587 5.76193 13.9685 5.80235C13.9784 5.84277 13.9802 5.88473 13.9738 5.92583C13.9674 5.96694 13.953 6.00638 13.9314 6.04192C13.4529 6.82757 12.6663 8.03312 11.5773 9.43342C12.4433 9.23803 13.1818 9.37262 13.2261 9.38117C13.308 9.3975 13.3801 9.44547 13.4267 9.51465C13.4734 9.58383 13.4908 9.66863 13.4753 9.75061C13.4598 9.8326 13.4125 9.90515 13.3438 9.95248C13.2751 9.99982 13.1905 10.0181 13.1083 10.0034C13.0852 9.9993 11.7869 9.77193 10.7587 10.4512C9.9138 11.4677 9.01674 12.4397 8.07113 13.3633C9.45275 13.0298 10.6545 13.2524 10.7248 13.2664C10.8072 13.2825 10.8799 13.3307 10.9268 13.4004C10.9737 13.4701 10.9909 13.5555 10.9748 13.638C10.9587 13.7204 10.9105 13.793 10.8408 13.8399C10.7711 13.8868 10.6856 13.9041 10.6032 13.888C10.582 13.8839 8.41471 13.4829 6.70345 14.6293C5.99531 15.2513 5.26093 15.8427 4.5023 16.402C6.32281 17.6151 7.67688 17.9169 8.56482 17.9169C9.38181 17.9169 9.80615 17.6636 9.84066 17.6414C9.96448 17.5623 10.0212 17.4134 9.97367 17.2741L9.82483 16.8118C11.8198 17.4483 13.5523 16.1847 13.6315 16.1246C13.7233 16.0549 13.7705 15.9441 13.7547 15.8333C13.7492 15.7781 13.729 15.7255 13.6961 15.6809C13.6632 15.6363 13.6189 15.6014 13.5678 15.5799L12.9063 15.2918C14.1948 14.9213 15.1702 13.8509 15.224 13.7876C15.3 13.7053 15.3253 13.5881 15.2905 13.4836C15.2747 13.4308 15.2454 13.3832 15.2054 13.3454C15.1653 13.3076 15.1161 13.281 15.0625 13.2683L14.483 13.1321C15.4868 12.5621 15.9811 11.4664 16.0093 11.4031C16.0505 11.3081 16.0445 11.1973 15.9903 11.1117C15.9365 11.0231 15.8415 10.9661 15.7402 10.9598L15.3285 10.9344C16.0537 10.3549 16.4115 9.56958 16.4337 9.52208C16.4556 9.47343 16.4648 9.41999 16.4603 9.36681C16.4559 9.31362 16.438 9.26244 16.4083 9.21808C16.378 9.17322 16.3368 9.13669 16.2887 9.1118C16.2406 9.08691 16.187 9.07446 16.1328 9.07558L15.8922 9.08508C16.4052 8.55625 16.6398 7.93242 16.6525 7.89125C16.671 7.84319 16.677 7.79118 16.6697 7.74018C16.6624 7.68918 16.6422 7.64089 16.611 7.59992C16.582 7.55746 16.5427 7.52302 16.4968 7.49977C16.4509 7.47653 16.3999 7.46523 16.3485 7.46692L16.111 7.47325C16.896 6.83358 17.0417 6.14325 17.0512 6.10208C17.0611 6.05095 17.0582 5.99816 17.0427 5.94843C17.0272 5.8987 16.9997 5.85357 16.9625 5.81708C16.9255 5.77983 16.8797 5.75248 16.8293 5.73754C16.779 5.72261 16.7257 5.72056 16.6743 5.73158L16.4495 5.77908C16.9467 5.19325 17.1275 4.60742 17.1401 4.56942C17.1686 4.46175 17.143 4.34775 17.0702 4.26858C17.0343 4.22819 16.9887 4.19766 16.9377 4.17992C16.8867 4.16217 16.832 4.15781 16.7788 4.16725L15.9555 4.30975L16.4403 2.63458C16.478 2.50792 16.4305 2.37175 16.326 2.29258C16.2741 2.25441 16.212 2.23277 16.1476 2.23051C16.0833 2.22825 16.0197 2.24547 15.9653 2.27992L14.5748 3.17925L14.6318 2.42558C14.6364 2.36994 14.6259 2.31409 14.6013 2.26393C14.5768 2.21377 14.5392 2.17116 14.4925 2.14058C14.4464 2.10919 14.3928 2.0906 14.3372 2.08671C14.2815 2.08281 14.2259 2.09375 14.1758 2.11842C14.141 2.13425 13.5776 2.41608 13.0453 2.99242L13.0865 2.55542C13.096 2.43508 13.0393 2.32108 12.9377 2.25775C12.8332 2.19442 12.7033 2.19442 12.6023 2.25775C12.5672 2.27992 12.007 2.64092 11.5823 3.31542L11.5193 2.93858C11.5093 2.88527 11.4861 2.83531 11.4518 2.79327C11.4175 2.75123 11.3732 2.71845 11.323 2.69792C11.2725 2.67767 11.2177 2.67082 11.1638 2.67803C11.1099 2.68525 11.0588 2.70628 11.0155 2.73908C10.9743 2.77075 10.3347 3.25842 9.86948 3.93925L9.809 3.44842C9.7995 3.35342 9.74567 3.26792 9.66333 3.21725C9.58132 3.16658 9.47966 3.15708 9.391 3.18875C9.353 3.20142 8.707 3.44208 8.11166 4.43958V4.33825C8.11166 4.25275 8.07715 4.17042 8.0135 4.11025C7.95333 4.05325 7.86783 4.01842 7.78233 4.02158C7.66516 4.02792 6.76266 4.11342 6.066 5.79808L6.01881 5.59225C5.99348 5.48775 5.91716 5.40225 5.81266 5.36425C5.76208 5.3469 5.70791 5.34274 5.65527 5.35216C5.60263 5.36158 5.55326 5.38427 5.51183 5.41808C5.458 5.46242 4.39716 6.32058 4.16948 7.73608L3.9285 7.36558C3.90091 7.32218 3.86311 7.2862 3.81839 7.26081C3.77367 7.23541 3.7234 7.22137 3.672 7.21992C3.6208 7.21765 3.56985 7.22836 3.5239 7.25106C3.47795 7.27376 3.43848 7.30771 3.40916 7.34975C3.36515 7.40675 2.46898 8.65442 2.94398 10.5512L2.48165 10.3011C2.44372 10.2804 2.40193 10.2677 2.35888 10.2639C2.31583 10.2601 2.27246 10.2652 2.23148 10.2789Z" fill="#CA3C3D"/>
</g>
</g>
</svg>
