<svg width="18" height="18" viewBox="0 0 18 18" fill="none" xmlns="http://www.w3.org/2000/svg">
<g id="run 2" clip-path="url(#clip0_1797_1481)">
<g id="Group">
<path id="Vector" d="M17.4089 6.19699C17.0981 5.63755 16.3926 5.43596 15.8331 5.74678L13.9947 6.76818L12.7828 4.91474C12.7469 4.916 12.7111 4.91748 12.675 4.91748C11.4543 4.91748 10.403 4.18089 9.94057 3.12915L6.12141 3.12891C5.91403 3.12891 5.71046 3.18456 5.53192 3.29006C5.35338 3.39555 5.20642 3.54702 5.10638 3.72867L3.63861 6.39387C3.3299 6.95447 3.53405 7.65918 4.09462 7.96788C4.26543 8.0623 4.45741 8.11184 4.65258 8.11185C5.06127 8.11185 5.45755 7.89518 5.66863 7.51187L6.80611 5.44644H8.99459L5.65327 11.279H1.60214C0.962195 11.279 0.443359 11.7978 0.443359 12.4378C0.443359 13.0777 0.96216 13.5965 1.60214 13.5965H6.31452C6.51595 13.5965 6.7139 13.544 6.88885 13.4442C7.06379 13.3444 7.20969 13.2007 7.31215 13.0273L8.14455 11.6186L10.246 13.2744L8.98608 16.4089C8.74741 17.0027 9.03527 17.6776 9.62906 17.9163C9.7663 17.9716 9.91289 18.0001 10.0609 18.0002C10.5201 18.0002 10.9547 17.7254 11.1364 17.2733L12.7201 13.3334C12.9119 12.8561 12.7662 12.3094 12.3621 11.991L10.0319 10.1552L11.643 7.40644L12.645 8.9389C12.8662 9.27724 13.2363 9.46368 13.6157 9.46368C13.8124 9.46367 14.0058 9.41342 14.1776 9.31771L16.9587 7.77266C17.5181 7.46191 17.7197 6.75643 17.4089 6.19699Z" fill="#CA3C3D"/>
<path id="Vector_2" d="M12.6754 3.86262C13.7421 3.86262 14.6068 2.99794 14.6068 1.93131C14.6068 0.864676 13.7421 0 12.6754 0C11.6088 0 10.7441 0.864676 10.7441 1.93131C10.7441 2.99794 11.6088 3.86262 12.6754 3.86262Z" fill="#CA3C3D"/>
</g>
</g>
<defs>
<clipPath id="clip0_1797_1481">
<rect width="18" height="18" fill="white"/>
</clipPath>
</defs>
</svg>
