<svg width="20" height="20" viewBox="0 0 20 20" fill="none" xmlns="http://www.w3.org/2000/svg">
<g id="pineapple 1" clip-path="url(#clip0_1248_31590)">
<g id="Group">
<path id="Vector" d="M11.9588 3.55496C11.9017 3.56978 11.8412 3.56539 11.7868 3.54244C11.7324 3.5195 11.687 3.47929 11.6577 3.42801C11.6284 3.37673 11.6168 3.31723 11.6247 3.25869C11.6325 3.20016 11.6594 3.14584 11.7012 3.10411L13.7284 1.0769C12.7138 0.253186 11.2156 0.313414 10.2716 1.2574C10.2462 1.28308 10.2213 1.30929 10.197 1.336C10.1718 1.36339 10.1412 1.38526 10.1071 1.40023C10.073 1.41519 10.0362 1.42293 9.99899 1.42295C9.96178 1.42294 9.92494 1.41521 9.89087 1.40027C9.8568 1.38532 9.82619 1.36348 9.80098 1.33611C9.77661 1.30938 9.7517 1.28314 9.72627 1.2574C9.2378 0.768969 8.58843 0.5 7.89771 0.5C7.29754 0.5 6.72851 0.7031 6.26924 1.07675L8.29656 3.10408C8.3383 3.14583 8.36516 3.20014 8.37299 3.25865C8.38083 3.31716 8.36922 3.37663 8.33994 3.42789C8.31069 3.47919 8.26536 3.51942 8.21096 3.54238C8.15656 3.56534 8.09611 3.56975 8.03895 3.55492C6.90147 3.26101 5.68688 3.54067 4.79492 4.2849C5.14872 4.53798 5.7922 5.01154 6.42963 5.54817C7.4072 6.37119 8.01679 7.03734 8.27381 7.56555C8.81138 7.36564 9.39259 7.2561 9.99896 7.2561C10.6076 7.2561 11.1909 7.3665 11.7302 7.56785C11.9404 7.16176 12.4348 6.55146 13.5668 5.58447C14.208 5.03673 14.8551 4.54752 15.207 4.2882C14.3146 3.54145 13.0981 3.26071 11.9588 3.55496ZM14.4008 11.772L12.5197 13.6531L14.3996 15.5331C14.4151 15.3827 14.4232 15.2301 14.4232 15.0756V12.2187C14.4232 12.0679 14.4156 11.919 14.4008 11.772ZM5.597 11.7721C5.58203 11.9205 5.57453 12.0696 5.57452 12.2187V15.0756C5.57452 15.23 5.58261 15.3827 5.59815 15.5331L7.47808 13.6532L5.597 11.7721ZM7.03889 8.93359C6.40064 9.50915 5.93039 10.2674 5.71149 11.1253L7.85875 13.2725L9.61829 11.5129L7.03889 8.93359ZM9.99888 16.174L7.46999 18.7029C8.18735 19.2045 9.05905 19.5 9.99888 19.5C10.9387 19.5 11.8104 19.2045 12.5278 18.7029L9.99888 16.174ZM12.1391 14.0338L10.3795 15.7933L12.9525 18.3663C13.5916 17.7922 14.0634 17.0355 14.284 16.1787L12.1391 14.0338ZM8.23953 13.653L9.9991 11.8935L11.7587 13.6531L9.9991 15.4127L8.23953 13.653ZM12.9589 8.93359L10.3795 11.5129L12.1391 13.2725L14.2862 11.1253C14.0673 10.2674 13.5971 9.50923 12.9589 8.93359ZM7.85875 14.0338L5.71375 16.1788C5.93444 17.0355 6.40625 17.7922 7.04527 18.3663L9.61825 15.7933L7.85875 14.0338ZM9.99888 7.79437C9.05597 7.79437 8.18171 8.09184 7.46301 8.59645L9.99888 11.1323L12.5347 8.59645C11.8161 8.09184 10.9418 7.79437 9.99888 7.79437Z" fill="#FEDD4B"/>
</g>
</g>
<defs>
<clipPath id="clip0_1248_31590">
<rect width="19" height="19" fill="white" transform="translate(0.5 0.5)"/>
</clipPath>
</defs>
</svg>
