<svg width="20" height="20" viewBox="0 0 20 20" fill="none" xmlns="http://www.w3.org/2000/svg">
<g id="pistachio 1">
<g id="Group">
<path id="Vector" d="M8.26596 4.33521C7.79326 3.20434 7.20886 2.5625 6.64079 2.5625C6.07272 2.5625 5.48825 3.20427 5.01562 4.33514L6.64079 11.7353L8.26596 4.33521Z" fill="#CA3C3D"/>
<path id="Vector_2" d="M10.365 12.1633C10.5077 11.7559 10.641 11.3041 10.7647 10.8078C11.3406 8.49761 11.3261 4.44467 9.46554 3.08238L9.40357 2.91109L9.45129 2.7196C9.46708 2.65736 9.45749 2.5914 9.42464 2.53623C9.3918 2.48105 9.33838 2.44119 9.27613 2.4254C9.21389 2.40961 9.14793 2.4192 9.09276 2.45205C9.03758 2.4849 8.99772 2.53832 8.98193 2.60056L6.80072 12.5335H6.48158L4.30029 2.60056C4.29247 2.56974 4.27865 2.54076 4.25963 2.51528C4.24061 2.4898 4.21676 2.46832 4.18944 2.45206C4.16211 2.4358 4.13185 2.42508 4.10039 2.42051C4.06892 2.41594 4.03687 2.41762 4.00605 2.42544C3.97523 2.43326 3.94625 2.44707 3.92077 2.46609C3.89529 2.48511 3.87381 2.50897 3.85755 2.53629C3.84129 2.56361 3.83057 2.59387 3.826 2.62534C3.82143 2.6568 3.82311 2.68886 3.83093 2.71968L3.87865 2.91109L3.81668 3.08231C1.95616 4.44467 1.94162 8.49761 2.51755 10.8077C2.90742 12.3715 3.38613 13.4817 3.981 14.2016C4.57846 14.9246 5.31575 15.2761 6.23502 15.2761C6.36067 15.2761 6.49197 15.2694 6.62519 15.2565H6.65688C6.77751 15.2683 6.89861 15.2747 7.01981 15.2757C7.11207 15.0039 7.24059 14.7457 7.40189 14.5083C7.96632 13.6634 8.9892 12.8544 10.3651 12.1633H10.365Z" fill="#CA3C3D"/>
<path id="Vector_3" d="M17.7453 11.7135C17.5266 11.2659 16.8512 11.0195 15.8433 11.0195C14.363 11.0195 12.369 11.5448 10.6395 12.3904C9.24901 13.07 8.22316 13.8647 7.6729 14.6884C7.1832 15.4214 7.08739 16.1423 7.39584 16.7731C7.73368 17.4642 8.4775 17.8448 9.49029 17.8448C10.429 17.8448 11.5896 17.5199 12.8468 16.9053C14.3061 16.1919 15.6953 15.199 16.658 14.1812C17.6191 13.1652 18.0154 12.2657 17.7454 11.7134L17.7453 11.7135Z" fill="#CA3C3D"/>
</g>
</g>
</svg>
