<svg width="19" height="20" viewBox="0 0 19 20" fill="none" xmlns="http://www.w3.org/2000/svg">
<g id="plum 1" clip-path="url(#clip0_1236_9020)">
<g id="Group">
<g id="Group_2">
<path id="Vector" d="M11.4904 4.46281C11.8735 3.51207 12.555 2.71147 13.4323 2.1815C13.4693 2.15941 13.5102 2.14481 13.5528 2.13853C13.5953 2.13226 13.6387 2.13443 13.6805 2.14492C13.7222 2.15542 13.7615 2.17403 13.796 2.1997C13.8305 2.22536 13.8597 2.25758 13.8818 2.29452C13.9039 2.33145 13.9185 2.37237 13.9247 2.41494C13.931 2.45752 13.9288 2.50091 13.9183 2.54265C13.9079 2.58438 13.8892 2.62364 13.8636 2.65818C13.8379 2.69273 13.8057 2.72187 13.7688 2.74396C13.0538 3.17469 12.49 3.81638 12.1547 4.58074C12.3644 4.63872 12.5682 4.71636 12.7634 4.81202C12.9871 4.92471 13.1994 5.05803 13.3979 5.21069C13.6359 5.13395 13.861 5.02174 14.0655 4.87786C15.2576 4.01139 15.4555 2.08552 15.4883 1.41167C14.8373 1.23576 12.9445 0.833481 11.7538 1.70191C10.8038 2.39181 10.486 3.75981 10.3809 4.60433C10.7374 4.48293 11.1148 4.43479 11.4904 4.46281Z" fill="#0000FD"/>
<path id="Vector_2" d="M13.1406 5.84471C12.935 5.67064 12.7097 5.52123 12.4693 5.39952C12.1671 5.23622 11.8334 5.13928 11.4907 5.11516C11.148 5.09104 10.8041 5.14029 10.4819 5.25964C11.4217 6.06157 12.6158 7.82955 12.6158 11.6361C12.6158 11.723 12.5813 11.8063 12.5198 11.8677C12.4584 11.9292 12.3751 11.9637 12.2882 11.9637C12.2013 11.9637 12.118 11.9292 12.0565 11.8677C11.9951 11.8063 11.9606 11.723 11.9606 11.6361C11.9606 8.39562 11.0761 6.77898 10.2922 5.97967C10.2133 4.77022 9.77789 1.66471 7.51755 0.534533C7.47905 0.515304 7.43713 0.503846 7.3942 0.500814C7.35127 0.497782 7.30817 0.503236 7.26734 0.516864C7.22652 0.530492 7.18878 0.552027 7.15628 0.580239C7.12378 0.608452 7.09716 0.64279 7.07793 0.681292C7.0587 0.719794 7.04724 0.761707 7.04421 0.804637C7.04118 0.847567 7.04663 0.890674 7.06026 0.931497C7.07389 0.972319 7.09542 1.01006 7.12363 1.04256C7.15185 1.07506 7.18618 1.10168 7.22469 1.12091C8.89538 1.95691 9.42181 4.15764 9.58658 5.43326C9.21373 5.21286 8.7902 5.09268 8.35715 5.08438C6.11581 5.08438 3.44336 6.2781 3.44336 11.9637C3.44336 18.2206 8.09508 19.4982 9.33991 19.4982C10.5847 19.4982 15.2365 18.2206 15.2365 11.9637C15.2365 8.3052 14.0539 6.60896 13.1406 5.84471Z" fill="#0000FD"/>
</g>
</g>
</g>
<defs>
<clipPath id="clip0_1236_9020">
<rect width="19" height="19" fill="white" transform="translate(0 0.5)"/>
</clipPath>
</defs>
</svg>
