<svg width="19" height="20" viewBox="0 0 19 20" fill="none" xmlns="http://www.w3.org/2000/svg">
<g id="pomegranate 1">
<g id="Group">
<path id="Vector" d="M11.5404 5.29412C11.6532 4.45396 12.4043 3.99974 13.0248 3.58412C13.2385 2.62521 10.9021 3.52771 10.6053 3.82756C9.40291 0.511462 9.5751 0.561931 8.38463 3.82756C8.08776 3.53068 5.73651 2.61334 5.95026 3.57521C6.57963 3.99381 7.33666 4.45099 7.43463 5.28818C0.107757 7.68693 1.76135 18.5347 9.50088 18.609C17.2464 18.5347 18.894 7.66615 11.5404 5.29412ZM8.20057 7.07537C7.16039 7.36149 6.24293 7.98123 5.58914 8.83936C4.93535 9.6975 4.5814 10.7466 4.58166 11.8254C4.58166 11.9041 4.55039 11.9796 4.49471 12.0353C4.43904 12.091 4.36352 12.1222 4.28479 12.1222C4.20605 12.1222 4.13054 12.091 4.07487 12.0353C4.01919 11.9796 3.98791 11.9041 3.98791 11.8254C3.81869 7.44052 9.50088 5.46334 8.20057 7.0724V7.07537Z" fill="#CA3C3D"/>
</g>
</g>
</svg>
