<svg width="20" height="20" viewBox="0 0 20 20" fill="none" xmlns="http://www.w3.org/2000/svg">
<g id="potato 1">
<g id="Group">
<path id="Vector" d="M11.9642 7.81525C13.0224 7.95824 14.0025 8.10558 14.8661 8.34748C14.9646 8.04713 15.0321 7.73995 15.0656 7.43113C15.4242 4.11751 11.6966 2.31526 8.77129 4.13146C8.22649 4.46963 7.79477 4.87753 7.45144 5.37842C7.16699 5.79341 6.74266 6.10407 6.25662 6.25314C4.61623 6.75637 3.23389 7.94802 2.70787 9.55785C1.96879 11.8197 3.26922 13.9113 5.52039 14.3258C5.30714 13.8074 5.19652 13.2402 5.19652 12.6374C5.19655 9.54118 8.14264 7.29877 11.9642 7.81525ZM12.6372 6.92447C12.8799 6.92447 13.0766 7.12123 13.0766 7.36393C13.0766 7.60662 12.8799 7.80338 12.6372 7.80338C12.3945 7.80338 12.1978 7.60662 12.1978 7.36393C12.1978 7.12123 12.3945 6.92447 12.6372 6.92447ZM10.4402 5.16666C10.6828 5.16666 10.8796 5.36342 10.8796 5.60612C10.8796 5.84881 10.6829 6.04557 10.4402 6.04557C10.1975 6.04557 10.0007 5.84881 10.0007 5.60612C10.0007 5.36342 10.1975 5.16666 10.4402 5.16666ZM9.12194 6.92447C9.36461 6.92447 9.56137 7.12123 9.56137 7.36393C9.56137 7.60662 9.36464 7.80338 9.12194 7.80338C8.87928 7.80338 8.68252 7.60662 8.68252 7.36393C8.68252 7.12123 8.87925 6.92447 9.12194 6.92447ZM6.48549 8.24283C6.72816 8.24283 6.92491 8.43959 6.92491 8.68229C6.92491 8.92498 6.72819 9.12174 6.48549 9.12174C6.24282 9.12174 6.0461 8.92498 6.0461 8.68229C6.0461 8.43959 6.2428 8.24283 6.48549 8.24283ZM4.72783 11.319C4.48516 11.319 4.2884 11.1222 4.2884 10.8796C4.2884 10.6369 4.48513 10.4401 4.72783 10.4401C4.97049 10.4401 5.16725 10.6369 5.16725 10.8796C5.16725 11.1222 4.97052 11.319 4.72783 11.319Z" fill="#CA3C3D"/>
<path id="Vector_2" d="M11.8464 8.68638C8.65801 8.25551 6.0752 10.0009 6.0752 12.6375C6.0752 13.9326 6.68261 14.9841 7.83178 15.6785C8.82148 16.2765 10.1894 16.5926 11.7875 16.5926C13.3938 16.5926 14.7612 16.2823 15.7417 15.6952C16.8919 15.0066 17.4998 13.9493 17.4998 12.6375C17.4998 9.54085 14.9209 9.10189 11.8464 8.68638ZM8.68235 13.077C8.43969 13.077 8.24293 12.8802 8.24293 12.6375C8.24293 12.3948 8.43966 12.1981 8.68235 12.1981C8.92502 12.1981 9.12178 12.3948 9.12178 12.6375C9.12178 12.8802 8.92505 13.077 8.68235 13.077ZM10.0006 10.8797C10.0006 10.637 10.1973 10.4403 10.44 10.4403C10.6827 10.4403 10.8794 10.637 10.8794 10.8797C10.8794 11.1224 10.6827 11.3192 10.44 11.3192C10.1973 11.3192 10.0006 11.1224 10.0006 10.8797ZM10.8794 14.3953C10.6367 14.3953 10.44 14.1986 10.44 13.9559C10.44 13.7132 10.6367 13.5164 10.8794 13.5164C11.1221 13.5164 11.3188 13.7132 11.3188 13.9559C11.3188 14.1986 11.1221 14.3953 10.8794 14.3953ZM12.1976 12.6375C11.955 12.6375 11.7582 12.4408 11.7582 12.1981C11.7582 11.9554 11.9549 11.7586 12.1976 11.7586C12.4403 11.7586 12.637 11.9554 12.637 12.1981C12.637 12.4408 12.4403 12.6375 12.1976 12.6375ZM13.9553 14.3953C13.7126 14.3953 13.5158 14.1986 13.5158 13.9559C13.5158 13.7132 13.7126 13.5164 13.9553 13.5164C14.1979 13.5164 14.3947 13.7132 14.3947 13.9559C14.3947 14.1986 14.198 14.3953 13.9553 14.3953ZM14.8341 12.1981C14.5914 12.1981 14.3947 12.0013 14.3947 11.7586C14.3947 11.5159 14.5914 11.3192 14.8341 11.3192C15.0767 11.3192 15.2735 11.5159 15.2735 11.7586C15.2735 12.0013 15.0768 12.1981 14.8341 12.1981Z" fill="#CA3C3D"/>
</g>
</g>
</svg>
