<svg width="20" height="20" viewBox="0 0 20 20" fill="none" xmlns="http://www.w3.org/2000/svg">
<g id="Pumpkin-Seeds">
<g id="Group">
<g id="05-pumpkin">
<path id="Vector" d="M6.11011 12.0124C6.11011 10.5885 6.48276 9.24025 7.15947 8.21603C7.40675 7.83448 7.71129 7.49326 8.06238 7.20435C7.56585 6.80303 7.00472 6.58987 6.41873 6.58987C5.4868 6.58987 4.61768 7.12858 3.97144 8.10676C3.34507 9.05483 3 10.3109 3 11.6434C3 12.976 3.34492 14.2321 3.97144 15.1801C4.61768 16.1583 5.4868 16.697 6.41873 16.697C6.83439 16.6954 7.24294 16.5891 7.60668 16.3879C7.44317 16.2064 7.29367 16.0127 7.15947 15.8086C6.48276 14.7845 6.11011 13.4363 6.11011 12.0124ZM16.028 8.10673C15.3818 7.12855 14.5126 6.58984 13.5807 6.58984C12.9947 6.58984 12.4336 6.803 11.9371 7.20432C12.2882 7.49324 12.5927 7.83447 12.84 8.21603C13.5167 9.24025 13.8893 10.5885 13.8893 12.0124C13.8893 13.4363 13.5167 14.7845 12.84 15.8087C12.7058 16.0129 12.5563 16.2065 12.3928 16.388C12.7565 16.5892 13.1651 16.6955 13.5807 16.6971C14.5126 16.6971 15.3818 16.1584 16.028 15.1803C16.6544 14.2322 16.9994 12.9761 16.9994 11.6436C16.9994 10.311 16.6544 9.0548 16.028 8.10673Z" fill="#CA3C3D"/>
<path id="Vector_2" d="M13.4179 12.0094C13.4179 10.6768 13.073 9.42079 12.4465 8.4727C11.8002 7.49452 10.9311 6.95584 9.99919 6.95584C9.06728 6.95584 8.19814 7.49455 7.5519 8.4727C6.92553 9.42079 6.58046 10.6768 6.58046 12.0094C6.58046 13.342 6.92541 14.598 7.5519 15.5461C8.19826 16.5243 9.0674 17.063 9.99931 17.063C10.9312 17.063 11.8004 16.5243 12.4466 15.5461C13.073 14.598 13.4179 13.3421 13.4179 12.0094ZM11.3214 5.5844C11.4883 5.92777 11.6161 6.28888 11.7021 6.66088L11.7267 6.7675C12.2583 6.36253 12.8524 6.1408 13.4753 6.11837C12.9848 5.72979 12.4325 5.52344 11.8562 5.52344C11.6762 5.52364 11.4968 5.54409 11.3214 5.5844ZM8.66679 6.80986L8.67953 6.58749C8.6902 6.41735 8.6807 6.24654 8.65124 6.07863C8.61986 5.89957 8.57348 5.72346 8.51259 5.55217C8.39016 5.53305 8.26642 5.52345 8.1425 5.52344C7.56615 5.52344 7.01387 5.72974 6.52344 6.11837C7.2217 6.14351 7.88407 6.41863 8.46252 6.92219C8.52925 6.88234 8.59739 6.84487 8.66679 6.80986Z" fill="#CA3C3D"/>
<path id="Vector_3" d="M7.34893 3.8756C8.40868 4.22885 8.9209 4.92702 9.11518 5.9951C9.15133 6.19905 9.16319 6.40655 9.15051 6.61329C9.84256 6.4007 10.5891 6.45484 11.2433 6.76504C11.0971 6.14767 10.8293 5.56566 10.4554 5.0531H11.8838C12.1029 5.05285 12.3166 4.98482 12.4955 4.85832C12.6744 4.73183 12.8098 4.55308 12.883 4.3466H14.0034C14.1907 4.3466 14.3704 4.27216 14.5029 4.13967C14.6354 4.00717 14.7099 3.82747 14.7099 3.6401C14.7099 3.45272 14.6354 3.27302 14.5029 3.14052C14.3704 3.00803 14.1907 2.93359 14.0034 2.93359C13.9409 2.93359 13.881 2.95841 13.8368 3.00257C13.7927 3.04674 13.7679 3.10664 13.7679 3.16909C13.7679 3.23155 13.7927 3.29145 13.8368 3.33562C13.881 3.37978 13.9409 3.40459 14.0034 3.40459C14.0658 3.40459 14.1257 3.42941 14.1699 3.47357C14.214 3.51774 14.2389 3.57764 14.2389 3.6401C14.2389 3.70255 14.214 3.76245 14.1699 3.80662C14.1257 3.85078 14.0658 3.8756 14.0034 3.8756H12.9371C12.9078 3.61666 12.7843 3.37755 12.59 3.20383C12.3958 3.03011 12.1444 2.93392 11.8838 2.93359C11.6965 2.93359 11.5168 3.00803 11.3843 3.14052C11.2518 3.27302 11.1773 3.45272 11.1773 3.6401C11.1773 3.82747 11.2518 4.00717 11.3843 4.13967C11.5168 4.27216 11.6965 4.3466 11.8838 4.3466H12.3546C12.2998 4.41971 12.2287 4.47906 12.147 4.51993C12.0653 4.56081 11.9752 4.5821 11.8838 4.5821H10.0754C9.10241 3.50103 7.85031 2.93359 7.34893 2.93359C7.22401 2.93359 7.10421 2.98322 7.01588 3.07155C6.92755 3.15988 6.87793 3.27968 6.87793 3.40459C6.87793 3.52951 6.92755 3.64931 7.01588 3.73764C7.10421 3.82597 7.22401 3.8756 7.34893 3.8756ZM11.8838 3.8756C11.8214 3.8756 11.7615 3.85078 11.7173 3.80662C11.6732 3.76245 11.6483 3.70255 11.6483 3.6401C11.6483 3.57764 11.6732 3.51774 11.7173 3.47357C11.7615 3.42941 11.8214 3.40459 11.8838 3.40459C12.0195 3.40477 12.151 3.45171 12.2561 3.53751C12.3612 3.6233 12.4335 3.74271 12.4608 3.8756H11.8838Z" fill="#CA3C3D"/>
</g>
</g>
</g>
</svg>
