<svg width="20" height="20" viewBox="0 0 20 20" fill="none" xmlns="http://www.w3.org/2000/svg">
<g id="radish 1" clip-path="url(#clip0_1248_21402)">
<g id="Group">
<path id="Vector" d="M11.5349 5.65724C11.9401 6.22246 12.2738 6.83566 12.5284 7.48286C12.5837 7.35747 12.6403 7.23108 12.6946 7.10646C12.8712 6.6963 13.0373 6.28167 13.1926 5.86297C13.3864 5.33786 13.5514 4.80257 13.6868 4.25948C13.6758 4.22058 13.6719 4.18001 13.6753 4.13973C13.6868 3.89051 13.635 3.64244 13.5248 3.4186C13.4146 3.19476 13.2496 3.00242 13.0451 2.85946C12.8128 2.65972 12.536 2.51836 12.238 2.44713C11.94 2.3759 11.6292 2.37687 11.3317 2.44996C11.1945 2.48663 11.0678 2.55499 10.9618 2.64954C10.8558 2.74409 10.7735 2.8622 10.7215 2.99435C10.5133 3.54038 10.76 4.37767 11.0968 4.96545C11.2203 5.17949 11.3731 5.41176 11.5349 5.65724ZM17.9774 9.93081C17.953 9.68356 17.8712 9.44542 17.7385 9.2354C17.6058 9.02537 17.4258 8.84926 17.213 8.72112C16.7835 8.45238 16.3048 8.27195 15.8048 8.19037C15.3048 8.10878 14.7935 8.12769 14.3009 8.24598C14.2457 8.26253 14.1909 8.28042 14.1366 8.29964C14.7371 8.37301 15.3122 8.58546 15.8163 8.92009C16.3203 9.25473 16.7393 9.70233 17.04 10.2273C17.2935 10.7058 17.4446 10.6895 17.6156 10.6199C17.7378 10.5544 17.8376 10.4537 17.9021 10.3308C17.9666 10.208 17.9928 10.0687 17.9774 9.93081ZM13.0619 7.95705C14.312 7.26622 16.0593 6.01545 16.8657 4.12318C17.2491 3.22592 17.5552 1.5242 16.7455 0.775742C16.5496 0.595847 16.2927 0.497272 16.0268 0.500057C15.9362 0.500141 15.846 0.510474 15.7578 0.530858C15.5678 0.5719 15.3905 0.657927 15.2406 0.781714C15.0908 0.905501 14.9729 1.06343 14.8968 1.24224C14.7853 1.57383 14.7233 1.92002 14.7127 2.26969C14.6554 2.94263 14.5468 3.61022 14.3878 4.26664C14.2383 4.88791 14.0516 5.49965 13.8289 6.09858C13.6723 6.5209 13.505 6.93918 13.3272 7.35302C13.2345 7.5664 13.149 7.76322 13.0619 7.95705ZM12.5075 8.86589C12.4947 8.85238 12.4813 8.83954 12.4671 8.82744C12.4543 8.81721 12.4422 8.80602 12.431 8.79397L12.43 8.793L12.4297 8.79263L12.4207 8.78402L12.2958 8.67236C12.2901 8.66732 12.2866 8.66093 12.2813 8.65563C12.274 8.64835 12.268 8.64075 12.2615 8.63288C12.253 8.62401 12.245 8.61473 12.2373 8.60508L12.2335 8.60293C12.2261 8.60004 12.2203 8.59488 12.2132 8.5915C12.19 8.58179 12.168 8.56945 12.1476 8.55473C11.6226 8.14513 11.0168 7.85151 10.37 7.69324C9.72321 7.53497 9.05023 7.51565 8.39544 7.63654C7.74065 7.75743 7.11894 8.0158 6.57133 8.39459C6.02372 8.77338 5.56265 9.26398 5.21855 9.83403C6.37023 13.1702 8.63794 14.0828 8.66117 14.0916C8.73512 14.1201 8.79677 14.1735 8.83543 14.2427C8.8741 14.3119 8.88734 14.3924 8.87286 14.4703C8.85837 14.5482 8.81709 14.6186 8.75615 14.6693C8.69521 14.7199 8.61847 14.7477 8.53923 14.7477C8.49755 14.7476 8.45623 14.74 8.41729 14.7251C8.31728 14.6864 6.1196 13.8034 4.81539 10.6836C4.51849 11.517 4.46318 12.4174 4.65582 13.2808C4.83076 14.0571 4.80678 14.865 4.58609 15.6295C4.3654 16.3941 3.95516 17.0905 3.39344 17.6541L2.11551 18.9321C2.06937 18.9785 2.03791 19.0374 2.02505 19.1015C2.01219 19.1657 2.01851 19.2322 2.04321 19.2928C2.06792 19.3533 2.10991 19.4053 2.16395 19.4421C2.218 19.479 2.2817 19.4991 2.34711 19.5C2.43625 19.4983 2.52174 19.4643 2.58765 19.4042L3.84424 18.1475C4.39822 17.5833 5.08599 17.1685 5.84349 16.9417C6.60098 16.715 7.40355 16.6837 8.17641 16.8507C10.2771 17.3435 12.444 16.3465 13.4364 14.4306C12.6527 14.2613 11.1847 13.726 9.48915 12.0305C9.42693 11.9665 9.39237 11.8807 9.39297 11.7915C9.39356 11.7023 9.42926 11.6169 9.49234 11.5539C9.55541 11.4908 9.64079 11.4551 9.72998 11.4545C9.81918 11.4539 9.90503 11.4884 9.96894 11.5507C11.6691 13.2506 13.1029 13.682 13.7051 13.7918C14.3032 12.0569 13.8353 10.1326 12.5075 8.86589Z" fill="#CA3C3D"/>
</g>
</g>
<defs>
<clipPath id="clip0_1248_21402">
<rect width="19" height="19" fill="white" transform="translate(0.5 0.5)"/>
</clipPath>
</defs>
</svg>
