<svg width="19" height="20" viewBox="0 0 19 20" fill="none" xmlns="http://www.w3.org/2000/svg">
<g id="raspberry 1" clip-path="url(#clip0_1236_6388)">
<g id="Group">
<path id="Vector" d="M7.71875 13.6328C8.94845 13.6328 9.94531 12.6359 9.94531 11.4063C9.94531 10.1766 8.94845 9.17969 7.71875 9.17969C6.48905 9.17969 5.49219 10.1766 5.49219 11.4063C5.49219 12.6359 6.48905 13.6328 7.71875 13.6328Z" fill="#CA3C3D"/>
<path id="Vector_2" d="M9.49975 9.225C9.79202 8.98346 10.1307 8.80436 10.4948 8.69872C10.859 8.59308 11.2409 8.56314 11.6171 8.61076C11.7258 8.27656 11.7539 7.92136 11.699 7.57422C11.6441 7.22708 11.5079 6.89786 11.3013 6.61349C11.0948 6.32912 10.8239 6.09768 10.5108 5.93809C10.1977 5.77851 9.8512 5.69531 9.49975 5.69531C9.1483 5.69531 8.80184 5.77851 8.48871 5.93809C8.17558 6.09768 7.90468 6.32912 7.69816 6.61349C7.49164 6.89786 7.35537 7.22708 7.30049 7.57422C7.24562 7.92136 7.2737 8.27656 7.38243 8.61076C7.75859 8.56314 8.14052 8.59308 8.50467 8.69872C8.86882 8.80436 9.20747 8.98346 9.49975 9.225ZM4.156 8.5888C4.80547 8.58838 5.43499 8.81322 5.93725 9.225C6.19518 9.01495 6.48827 8.85223 6.80293 8.74436C6.68055 8.34541 6.6487 7.92419 6.70971 7.51138C6.77073 7.09856 6.92306 6.70456 7.15562 6.35808C6.79151 6.11799 6.36479 5.99038 5.92866 5.99115C5.49252 5.99192 5.06626 6.12103 4.70299 6.36239C4.33973 6.60375 4.05554 6.94669 3.88584 7.34846C3.71614 7.75023 3.66844 8.19306 3.74868 8.62175C3.88348 8.60091 4.01961 8.5899 4.156 8.5888ZM11.8439 6.35837C12.0764 6.70482 12.2287 7.09877 12.2897 7.51153C12.3507 7.92429 12.3189 8.34546 12.1966 8.74436C12.5112 8.85223 12.8043 9.01495 13.0622 9.225C13.3635 8.97512 13.7144 8.79211 14.0917 8.68811C14.469 8.58411 14.8641 8.56149 15.2508 8.62175C15.3299 8.19333 15.2814 7.75113 15.1114 7.35002C14.9414 6.94891 14.6573 6.60656 14.2945 6.36546C13.9316 6.12437 13.5059 5.99514 13.0703 5.99383C12.6346 5.99252 12.2082 6.11947 11.8439 6.35837ZM7.7185 16.936C7.37319 17.2203 6.96463 17.4174 6.52724 17.5107C6.08984 17.6041 5.63642 17.591 5.20515 17.4725C5.25352 18.0183 5.50162 18.5271 5.90191 18.9013C6.3022 19.2755 6.82651 19.4889 7.37436 19.5004C7.92221 19.512 8.45505 19.3209 8.87075 18.9639C9.28646 18.6069 9.55578 18.109 9.62711 17.5657C9.58465 17.5678 9.54279 17.5722 9.49975 17.5722C8.85027 17.5727 8.22074 17.3478 7.7185 16.936ZM11.281 16.936C10.9722 17.1876 10.6135 17.3708 10.2286 17.4734C10.1998 17.9017 10.073 18.3177 9.85807 18.6894C10.1387 19.0308 10.5146 19.281 10.9379 19.4081C11.3612 19.5351 11.8127 19.5332 12.2349 19.4027C12.6572 19.2722 13.031 19.0189 13.3088 18.6751C13.5865 18.3314 13.7557 17.9127 13.7946 17.4725C13.3633 17.591 12.9098 17.6042 12.4724 17.5108C12.0349 17.4174 11.6263 17.2203 11.281 16.936ZM9.49975 16.9785C9.8393 16.9797 10.1746 16.9029 10.4798 16.7541C10.785 16.6053 11.052 16.3884 11.2603 16.1202C11.4685 15.852 11.6123 15.5395 11.6808 15.2069C11.7492 14.8743 11.7404 14.5305 11.6551 14.2018C11.2732 14.2564 10.8842 14.2304 10.513 14.1256C10.1418 14.0208 9.79666 13.8394 9.49975 13.5932C9.20283 13.8394 8.85768 14.0208 8.48649 14.1256C8.11529 14.2304 7.72627 14.2564 7.34443 14.2018C7.25906 14.5305 7.25026 14.8743 7.31871 15.2069C7.38716 15.5395 7.53103 15.852 7.73924 16.1202C7.94745 16.3884 8.21445 16.6053 8.51967 16.7541C8.82489 16.9029 9.16019 16.9797 9.49975 16.9785ZM7.29901 16.5109C7.02594 16.172 6.83564 15.7741 6.74324 15.3488C6.65084 14.9235 6.65888 14.4825 6.76671 14.0608C6.46573 13.9532 6.18525 13.7952 5.93725 13.5935C5.64031 13.8397 5.29515 14.0209 4.92395 14.1257C4.55276 14.2305 4.16375 14.2564 3.78193 14.2018C3.66638 14.6509 3.69419 15.125 3.86146 15.5575C4.02874 15.9901 4.32711 16.3595 4.71478 16.614C5.10246 16.8685 5.56004 16.9954 6.02343 16.9769C6.48683 16.9585 6.93284 16.7955 7.29901 16.5109ZM14.8435 14.2294C14.194 14.2298 13.5645 14.005 13.0622 13.5932C12.8142 13.7949 12.5338 13.9529 12.2328 14.0605C12.3407 14.4822 12.3487 14.9233 12.2563 15.3486C12.1639 15.774 11.9736 16.172 11.7005 16.5109C12.0664 16.7967 12.5127 16.9606 12.9765 16.9797C13.4404 16.9987 13.8987 16.8719 14.2868 16.6171C14.6749 16.3623 14.9734 15.9923 15.1403 15.5591C15.3073 15.1258 15.3343 14.6512 15.2176 14.2018C15.0936 14.2193 14.9687 14.2285 14.8435 14.2294ZM14.8435 9.18255C14.3502 9.18239 13.8709 9.34695 13.4817 9.65012C13.8826 10.1487 14.1011 10.7693 14.1011 11.4091C14.1011 12.0489 13.8826 12.6695 13.4817 13.1681C13.7617 13.3849 14.0895 13.5317 14.4376 13.5964C14.7858 13.6611 15.1444 13.6418 15.4836 13.5401C15.8228 13.4384 16.1328 13.2571 16.388 13.0115C16.6431 12.7659 16.8359 12.4629 16.9504 12.1278C17.0649 11.7927 17.0978 11.4351 17.0463 11.0847C16.9948 10.7344 16.8605 10.4013 16.6544 10.1133C16.4484 9.82528 16.1766 9.59058 15.8616 9.42869C15.5467 9.26681 15.1976 9.18243 14.8435 9.18255ZM5.51746 13.1681C5.11659 12.6695 4.89805 12.0489 4.89805 11.4091C4.89805 10.7693 5.11659 10.1487 5.51746 9.65012C5.18834 9.39469 4.79415 9.23673 4.3797 9.19418C3.96526 9.15164 3.5472 9.22623 3.17304 9.40947C2.79889 9.59271 2.48365 9.87725 2.26316 10.2307C2.04267 10.5842 1.92578 10.9925 1.92578 11.4091C1.92578 11.8257 2.04267 12.234 2.26316 12.5875C2.48365 12.941 2.79889 13.2255 3.17304 13.4087C3.5472 13.592 3.96526 13.6666 4.3797 13.624C4.79415 13.5815 5.18834 13.4235 5.51746 13.1681Z" fill="#CA3C3D"/>
<path id="Vector_3" d="M13.5079 11.4073C13.5084 10.9908 13.392 10.5826 13.1719 10.2291C12.9518 9.87551 12.6368 9.59088 12.2629 9.40757C11.8889 9.22426 11.471 9.14964 11.0567 9.1922C10.6424 9.23477 10.2484 9.3928 9.91957 9.64832C10.3204 10.1469 10.539 10.7675 10.539 11.4073C10.539 12.0471 10.3204 12.6677 9.91957 13.1663C10.2484 13.4218 10.6424 13.5798 11.0567 13.6224C11.471 13.665 11.8889 13.5903 12.2629 13.407C12.6368 13.2237 12.9518 12.9391 13.1719 12.5856C13.392 12.232 13.5084 11.8238 13.5079 11.4073ZM9.50009 5.10168C9.79764 5.10194 10.0933 5.14955 10.3759 5.24269C10.7508 4.67962 10.9616 4.02325 10.9845 3.34715C10.9845 2.10086 10.1265 1.0339 9.71532 0.59363C9.68779 0.564088 9.65447 0.540529 9.61744 0.524421C9.58041 0.508313 9.54047 0.5 9.50009 0.5C9.4597 0.5 9.41976 0.508313 9.38273 0.524421C9.3457 0.540529 9.31238 0.564088 9.28485 0.59363C8.87338 1.0339 8.01571 2.10086 8.01571 3.34715C8.03861 4.02325 8.24935 4.67962 8.6243 5.24269C8.90691 5.14955 9.20253 5.10194 9.50009 5.10168ZM10.92 5.4891C11.1163 5.60375 11.2982 5.7416 11.4615 5.89968C11.8512 5.62888 12.3032 5.46145 12.7752 5.4131C12.8334 5.36382 12.894 5.3181 12.9486 5.26347C13.83 4.38205 13.9779 3.02118 13.998 2.41911C13.9994 2.37877 13.9925 2.33857 13.9777 2.30102C13.963 2.26346 13.9406 2.22935 13.912 2.20081C13.8835 2.17227 13.8494 2.1499 13.8118 2.13511C13.7743 2.12031 13.7341 2.11341 13.6937 2.11482C12.9328 2.13191 12.1858 2.32249 11.5096 2.67205C11.5543 2.89434 11.5772 3.12043 11.5782 3.34715C11.5576 4.10769 11.3301 4.84822 10.92 5.4891ZM6.22496 5.4131C6.69701 5.46154 7.14903 5.62907 7.53863 5.89997C7.702 5.7418 7.88381 5.60385 8.08013 5.4891C7.67011 4.84822 7.44256 4.10769 7.42196 3.34715C7.42293 3.12043 7.4459 2.89434 7.49054 2.67205C6.81441 2.32247 6.06739 2.13189 5.30643 2.11482C5.26609 2.11341 5.22589 2.12031 5.18833 2.13511C5.15078 2.1499 5.11667 2.17227 5.08812 2.20081C5.05958 2.22935 5.03722 2.26346 5.02242 2.30102C5.00763 2.33857 5.00072 2.37877 5.00213 2.41911C5.02232 3.02118 5.17016 4.38235 6.05159 5.26347C6.10621 5.3184 6.16677 5.36382 6.22496 5.4131Z" fill="#CA3C3D"/>
</g>
</g>
<defs>
<clipPath id="clip0_1236_6388">
<rect width="19" height="19" fill="white" transform="translate(0 0.5)"/>
</clipPath>
</defs>
</svg>
