<svg width="14" height="14" viewBox="0 0 14 14" fill="none" xmlns="http://www.w3.org/2000/svg">
<g id="recipe 1" clip-path="url(#clip0_1797_104)">
<g id="Group">
<path id="Vector" d="M10.4228 0H2.33386C2.07615 0 1.86719 0.208934 1.86719 0.466676V12.2889C1.86719 12.5466 2.07612 12.7556 2.33386 12.7556H3.11163V13.5334C3.11163 13.7911 3.32056 14 3.5783 14C3.83602 14 4.04498 13.7911 4.04498 13.5334V12.7556H10.4227C11.3662 12.7556 12.1339 11.988 12.1339 11.0445V1.71112C12.1339 0.767594 11.3663 0 10.4228 0ZM6.8761 5.28888C6.8761 5.95249 6.39047 6.50442 5.7561 6.60868V9.92444C5.7561 10.1822 5.54716 10.3911 5.28942 10.3911C5.03168 10.3911 4.82275 10.1822 4.82275 9.92444V6.60311C4.20366 6.48616 3.73386 5.94158 3.73386 5.28905V2.83112C3.73386 2.5734 3.9428 2.36444 4.20054 2.36444C4.45825 2.36444 4.66722 2.57337 4.66722 2.83112V4.82223H4.82277V2.83112C4.82277 2.5734 5.03171 2.36444 5.28945 2.36444C5.54719 2.36444 5.75612 2.57337 5.75612 2.83112V4.82223H5.9428V2.83112C5.9428 2.5734 6.15173 2.36444 6.40948 2.36444C6.66719 2.36444 6.87615 2.57337 6.87615 2.83112V5.28888H6.8761ZM10.2672 9.92444C10.2672 10.1822 10.0583 10.3911 9.80054 10.3911C9.5428 10.3911 9.33386 10.1822 9.33386 9.92444V8.52444H7.96498C7.70727 8.52444 7.49831 8.31551 7.49831 8.05777V4.66145C7.49831 3.39489 8.52873 2.36447 9.79534 2.36447H9.80054C10.0583 2.36447 10.2672 2.5734 10.2672 2.83114V9.92444Z" fill="#CA3C3D"/>
</g>
</g>
<defs>
<clipPath id="clip0_1797_104">
<rect width="14" height="14" fill="white"/>
</clipPath>
</defs>
</svg>
