<svg width="19" height="20" viewBox="0 0 19 20" fill="none" xmlns="http://www.w3.org/2000/svg">
<g id="red-pepper 1">
<g id="Group">
<path id="Vector" d="M8.86386 3.91974V6.31374C9.24531 6.26222 9.63158 6.25681 10.0143 6.29762V4.60765C10.0143 4.19747 9.93353 3.79131 9.77655 3.41235C9.61958 3.0334 9.38949 2.68908 9.09944 2.39905C8.80938 2.10903 8.46504 1.87897 8.08607 1.72203C7.7071 1.56509 7.30093 1.48434 6.89075 1.48438C6.8785 1.48434 6.86637 1.48671 6.85505 1.49137C6.84372 1.49603 6.83342 1.50288 6.82475 1.51152C6.81608 1.52017 6.8092 1.53044 6.8045 1.54175C6.7998 1.55306 6.79739 1.56519 6.79739 1.57744V1.85357C6.79739 1.94818 6.83497 2.03892 6.90187 2.10582C6.96877 2.17272 7.05951 2.2103 7.15412 2.2103C7.60717 2.21158 8.04131 2.39213 8.36167 2.71249C8.68203 3.03285 8.86257 3.46668 8.86386 3.91974ZM8.54241 6.37456V5.69669C7.99621 5.40443 6.84574 4.98323 6.13867 6.00537C6.61433 6.23995 7.04422 6.55769 7.40805 6.94357C7.73843 6.67085 8.12623 6.47613 8.54241 6.37456Z" fill="#CA3C3D"/>
<path id="Vector_2" d="M15.2327 6.48757C14.2109 5.53569 12.5967 6.39056 11.8327 7.14994C12.0719 7.39713 12.2608 7.68839 12.389 8.00754C12.3976 8.02692 12.4022 8.04785 12.4024 8.06905C12.4027 8.09026 12.3986 8.11129 12.3905 8.13087C12.3823 8.15046 12.3703 8.16817 12.3551 8.18294C12.3399 8.19771 12.3218 8.20922 12.302 8.21678C12.2826 8.22504 12.2617 8.22935 12.2406 8.22944C12.2196 8.22953 12.1987 8.2254 12.1792 8.21729C12.1597 8.20919 12.1421 8.19727 12.1273 8.18225C12.1125 8.16722 12.1008 8.14939 12.093 8.1298C11.5815 6.77222 9.94568 6.40394 8.71584 6.66457C6.75885 7.09185 6.38266 9.36694 6.37627 9.39279C6.37295 9.41348 6.36557 9.43332 6.35456 9.45114C6.34355 9.46898 6.32912 9.48445 6.31211 9.49669C6.29509 9.50893 6.27583 9.51768 6.25542 9.52245C6.23502 9.52722 6.21387 9.52791 6.19319 9.52448C6.15119 9.51773 6.11352 9.49476 6.08827 9.46053C6.06302 9.42629 6.05221 9.38352 6.05817 9.3414C6.21765 8.52509 6.60163 7.76943 7.16697 7.15936C6.79494 6.75816 6.3428 6.43956 5.83981 6.22421C5.56384 6.10413 5.26277 6.05309 4.96264 6.0755C4.66252 6.09791 4.37237 6.19311 4.1173 6.35285C4.05282 6.37201 2.55231 6.87988 3.14686 9.1197C3.54039 10.3027 4.33292 12.0377 4.25871 13.3004C4.24533 14.2106 4.21309 15.3742 4.55766 16.1828C4.9378 17.3102 5.99096 18.4713 7.23753 17.4424L7.46258 17.253C7.24941 16.862 7.07297 16.4522 6.93554 16.0286C6.9251 15.9883 6.93067 15.9455 6.95108 15.9092C6.97148 15.8729 7.00514 15.8459 7.04501 15.8339C7.08488 15.8219 7.12785 15.8257 7.16493 15.8447C7.20201 15.8636 7.23031 15.8962 7.24392 15.9355C7.64048 17.2031 8.76815 19.3149 10.3547 18.2012C10.3675 18.1945 12.0964 16.8899 12.4723 14.033C12.4794 13.9922 12.5021 13.9557 12.5354 13.9312C12.5688 13.9067 12.6104 13.8961 12.6515 13.9015C12.6925 13.9069 12.7299 13.928 12.7558 13.9603C12.7817 13.9926 12.7941 14.0337 12.7904 14.075C12.6524 15.2187 12.2497 16.3145 11.6144 17.2755C11.8168 17.4772 12.0675 17.6235 12.3426 17.7006C12.6177 17.7777 12.908 17.783 13.1857 17.7158C14.6029 17.1052 14.7124 14.724 14.7124 14.6984L14.7763 13.0112C14.7571 11.9702 15.5466 10.1954 15.8626 9.20971C16.1585 8.29128 15.9909 7.09094 15.233 6.48787L15.2327 6.48757Z" fill="#CA3C3D"/>
<path id="Vector_3" d="M13.0367 5.96915C12.7215 5.57115 12.3017 5.26888 11.8243 5.09627C11.3469 4.92367 10.8308 4.88757 10.334 4.99202V6.35142C10.7933 6.44336 11.2248 6.64144 11.5939 6.92985C12.0176 6.53091 12.5053 6.20635 13.0367 5.96915Z" fill="#CA3C3D"/>
</g>
</g>
</svg>
