<svg width="19" height="20" viewBox="0 0 19 20" fill="none" xmlns="http://www.w3.org/2000/svg">
<g id="rooibos 1" clip-path="url(#clip0_1248_21489)">
<g id="Group">
<path id="Vector" d="M16.4079 5.49219C15.2163 6.60011 13.6757 7.77796 12.2755 8.53524C13.9422 8.64026 18.9168 8.67022 18.9443 6.99259C18.9604 6.01696 17.3807 5.66479 16.4079 5.49219ZM2.59319 15.2936C1.62486 15.4654 0.0407049 15.8172 0.0567617 16.794C0.0843676 18.4722 5.05983 18.4418 6.72576 18.3367C5.32382 17.5786 3.78322 16.4001 2.59319 15.2936Z" fill="#CA3C3D"/>
<path id="Vector_2" d="M10.0599 14.224V8.18621C12.2162 7.96126 19.159 2.48975 17.8054 0.823745C16.6187 -0.636945 11.6952 3.38968 10.0599 5.28278V0.5H8.94226V7.08745C7.239 5.11577 2.36453 1.19119 1.19681 2.62848C-0.155501 4.29277 6.77976 9.76529 8.94226 9.99091V15.0842C7.239 13.1125 2.36446 9.18781 1.19681 10.6252C-0.149466 12.282 6.76747 17.7608 8.94226 17.9876V19.5H10.0599C10.0603 18.8771 10.0589 17.5649 10.0614 17.1272C12.2182 16.9005 19.1588 11.4307 17.8054 9.76492C16.6187 8.30423 11.6952 12.3309 10.0599 14.224Z" fill="#CA3C3D"/>
</g>
</g>
<defs>
<clipPath id="clip0_1248_21489">
<rect width="19" height="19" fill="white" transform="translate(0 0.5)"/>
</clipPath>
</defs>
</svg>
