<svg width="19" height="20" viewBox="0 0 19 20" fill="none" xmlns="http://www.w3.org/2000/svg">
<g id="rosemary 1" clip-path="url(#clip0_1248_21493)">
<g id="Group">
<path id="Vector" d="M12.4022 9.9358C12.433 9.82077 12.4645 9.70684 12.4968 9.5944C14.6744 9.13573 16.4938 7.23239 16.8297 5.05741C16.8497 4.92826 16.777 4.80246 16.6549 4.75533C16.5328 4.70821 16.3948 4.75237 16.3224 4.86147C15.9717 5.39213 15.6088 5.94098 15.1664 6.39594C14.7074 6.86797 14.006 7.27914 13.1978 7.55746C13.6264 6.52248 14.1322 5.61887 14.7352 4.80135C15.5223 4.44584 16.0686 3.63834 16.1012 2.77332C16.1087 2.5759 16.0905 2.38479 16.073 2.19998C16.0604 2.06453 16.0482 1.93651 16.0463 1.80959C16.0426 1.59436 16.0741 1.29971 16.2434 1.11825C16.3346 1.02065 16.3436 0.871839 16.2649 0.764222C16.2268 0.711889 16.1716 0.674502 16.1088 0.658513C16.0461 0.642524 15.9798 0.648937 15.9212 0.676644C15.2087 1.01323 14.6313 1.62553 14.3363 2.35696C14.0621 3.0368 14.035 3.81313 14.2576 4.51153C14.0132 4.84586 13.7853 5.19201 13.5748 5.54873C13.5648 5.52202 13.5552 5.49567 13.5451 5.46932C13.3047 4.82696 13.0557 4.16233 13.0071 3.50438C12.9369 2.55104 13.1674 1.70754 13.6568 1.12938C13.7014 1.07659 13.7248 1.0091 13.7224 0.940027C13.72 0.870958 13.692 0.805251 13.6438 0.755687C13.5444 0.652894 13.383 0.642874 13.2709 0.731937C12.3298 1.48006 11.7446 2.64455 11.7056 3.8469C11.6667 5.0433 12.086 6.15696 12.8608 6.93254C12.6308 7.44539 12.4207 7.98942 12.2285 8.57055C11.5405 7.46395 11.1876 6.13246 11.2507 4.83475C11.2541 4.7652 11.2313 4.69691 11.1867 4.64337C11.1422 4.58984 11.0792 4.55497 11.0102 4.54567C10.9412 4.53621 10.8711 4.55306 10.8139 4.59286C10.7567 4.63266 10.7166 4.69251 10.7014 4.76053C10.2584 6.73141 10.6428 8.8036 11.7297 10.3262C11.6782 10.5422 11.6288 10.7578 11.5806 10.9693C11.4447 11.5664 11.3052 12.1787 11.1119 12.7665C10.9245 12.5943 10.7527 12.4058 10.5979 12.2036C11.0069 11.3812 11.1905 10.5926 11.1605 9.7985C11.1582 9.73768 11.136 9.6793 11.0973 9.63231C11.0586 9.58532 11.0056 9.55231 10.9464 9.53836C10.8246 9.50942 10.6988 9.56545 10.6384 9.67493C10.3983 10.1121 10.1333 10.5184 9.88355 10.8802C9.57629 10.0108 9.51246 9.05446 9.74365 8.16828C9.77928 8.03246 9.70766 7.89145 9.5774 7.8395C9.55922 7.83207 9.54029 7.82725 9.52174 7.82391C9.54437 7.70182 9.56812 7.5801 9.59447 7.46024C9.62379 7.32813 9.65645 7.19231 9.68799 7.06131C9.79338 6.62491 9.90248 6.17366 9.91176 5.70385C9.924 5.10008 9.77074 4.50485 9.4683 3.98198C9.4379 3.92947 9.39118 3.88833 9.33524 3.86482C9.27931 3.8413 9.21722 3.83671 9.15844 3.85172C9.09962 3.86673 9.04733 3.90057 9.00954 3.94807C8.97175 3.99558 8.95054 4.05414 8.94914 4.11483C8.89904 6.2668 8.29527 8.43139 7.23246 10.3114C7.22764 9.97403 7.21836 9.63633 7.20389 9.29864C7.21836 9.27823 7.23023 9.25559 7.23877 9.23073C7.99469 7.05797 8.31865 4.69596 8.17504 2.4C8.16539 2.25008 8.03848 2.13467 7.88967 2.13912C7.73975 2.14321 7.61988 2.2653 7.61877 2.41522C7.60986 3.65356 7.34713 4.88373 6.85357 6.01705C6.78566 5.76063 6.6992 5.50977 6.58639 5.26744C6.58713 5.26077 6.5875 5.25409 6.5875 5.24741C6.5875 5.23108 6.58602 5.21475 6.58342 5.19916L6.57934 5.15871C6.41049 3.47135 6.28877 2.25231 5.50762 0.655863C5.48304 0.60597 5.44413 0.564552 5.39587 0.536916C5.3476 0.50928 5.29219 0.496685 5.23672 0.500745C5.1813 0.505008 5.12842 0.525723 5.08485 0.560235C5.04128 0.594748 5.009 0.641485 4.99217 0.694456C4.73982 1.49379 4.71199 2.3666 4.91238 3.21789C5.09719 4.00573 5.46531 4.72194 5.98002 5.30196C6.19896 5.69903 6.32736 6.13989 6.41049 6.5993C5.44973 6.082 4.96434 5.0266 4.75096 4.39871C4.38172 3.31067 4.35537 2.12539 4.32977 0.979456C4.32877 0.93509 4.31718 0.891605 4.29597 0.852623C4.27477 0.81364 4.24455 0.780289 4.20785 0.755347C4.17114 0.730405 4.12901 0.714594 4.08496 0.709231C4.0409 0.703868 3.99621 0.709108 3.95459 0.724515C3.62246 0.848089 3.34785 1.15461 3.21982 1.54463C3.11258 1.87194 3.11221 2.20926 3.12742 2.52543C3.24988 5.06965 4.54277 7.59532 6.5849 9.28119C6.60457 9.29752 6.62572 9.31051 6.64799 9.32053C6.67322 9.91651 6.68324 10.5121 6.67805 11.107C6.58045 10.9322 6.47728 10.7615 6.37375 10.5952C5.95924 9.9295 5.42189 9.35653 4.90236 8.80211C4.71088 8.59838 4.51309 8.38723 4.32643 8.17645C3.75197 7.52852 3.0725 6.65162 2.91701 5.6133C2.90953 5.56256 2.88812 5.51489 2.85517 5.47558C2.82222 5.43627 2.77901 5.40687 2.73035 5.39065C2.6309 5.35725 2.52143 5.38248 2.44684 5.45596C1.96775 5.92651 2.22826 6.69133 2.31361 6.94256C3.18531 9.502 4.64965 11.8718 6.54891 13.797V13.7974C6.50141 14.3466 6.44055 14.8951 6.36596 15.4421L3.45139 11.2818C3.3742 11.1719 3.22984 11.1326 3.10775 11.1882C2.98566 11.2439 2.92072 11.3786 2.95338 11.5089C3.48887 13.656 4.56504 15.6432 6.06945 17.2645C5.94901 17.8983 5.81091 18.5285 5.65531 19.1545C5.64512 19.1956 5.64441 19.2384 5.65325 19.2798C5.66209 19.3211 5.68023 19.3599 5.70631 19.3932C5.73239 19.4265 5.76571 19.4535 5.80375 19.472C5.84179 19.4905 5.88354 19.5001 5.92584 19.5C6.05053 19.5 6.16408 19.4154 6.19563 19.2889C6.30176 18.8617 6.39973 18.4331 6.48953 18.003C7.71822 17.6542 8.83559 16.9803 9.73846 16.0718C9.82158 16.0748 9.90508 16.0763 9.98895 16.0763C11.0384 16.0763 12.1057 15.8525 13.0961 15.4232C14.1957 14.9463 15.175 14.2275 15.9279 13.3436C16.0177 13.2382 16.0166 13.0831 15.9253 12.9795C15.8344 12.8756 15.6804 12.8545 15.5646 12.9294C13.9867 13.9544 12.1869 14.4732 10.8028 14.7355C11.035 14.3682 11.236 13.982 11.4036 13.5811C11.405 13.5773 11.4065 13.574 11.408 13.5703C13.344 12.9161 14.9616 11.4005 15.7405 9.50905C15.7884 9.39252 15.752 9.25819 15.6518 9.18174C15.603 9.14459 15.5432 9.1246 15.4818 9.12487C15.4204 9.12514 15.3608 9.14565 15.3123 9.18323C14.6811 9.67381 13.9997 10.174 13.341 10.6576C12.8954 10.9853 12.4389 11.32 11.9936 11.6555C12.0381 11.4673 12.0812 11.2795 12.1235 11.0932C12.2103 10.7114 12.3001 10.3169 12.4022 9.9358ZM7.19238 12.5375C7.81434 12.27 8.24963 11.7942 8.5491 11.3129C8.55875 11.4131 8.57174 11.513 8.58695 11.6128C8.62555 11.8628 8.68097 12.1098 8.75283 12.3524C8.19211 13.0137 7.64215 13.5811 7.08291 14.0735C7.13078 13.5625 7.16752 13.0504 7.19238 12.5375ZM6.61348 17.3825C6.69104 16.9777 6.7608 16.5717 6.82352 16.165C7.74049 15.4777 8.67861 14.7652 9.46385 13.8898C9.66053 14.1908 9.88578 14.4735 10.1366 14.7329C9.2668 15.9731 8.02846 16.9131 6.61348 17.3825Z" fill="#CA3C3D"/>
</g>
</g>
<defs>
<clipPath id="clip0_1248_21493">
<rect width="19" height="19" fill="white" transform="translate(0 0.5)"/>
</clipPath>
</defs>
</svg>
