<svg width="19" height="20" viewBox="0 0 19 20" fill="none" xmlns="http://www.w3.org/2000/svg">
<g id="sage 1" clip-path="url(#clip0_1248_21496)">
<g id="Group">
<g id="44 Maple">
<path id="Vector" d="M6.18076 10.748L6.85214 4.03182C6.86242 3.92897 6.91313 3.83442 6.99312 3.76896C7.07311 3.7035 7.17583 3.6725 7.27868 3.68277C7.38153 3.69305 7.47608 3.74376 7.54154 3.82375C7.607 3.90374 7.638 4.00646 7.62773 4.10931L6.95015 10.8873C7.57865 9.89346 8.04018 8.80339 8.31644 7.66038C8.57489 6.57728 8.67879 5.46306 8.62504 4.35085C8.53761 2.41178 8.0373 1.08831 8.01608 1.03294C8.00523 1.00467 7.9869 0.979884 7.96305 0.961231C7.93919 0.942578 7.91072 0.930761 7.88067 0.927044C7.85062 0.923327 7.82013 0.927851 7.79245 0.940131C7.76477 0.95241 7.74095 0.971984 7.72354 0.996758C6.94148 2.10686 6.37607 3.35465 6.05704 4.67456C5.79854 5.75765 5.69465 6.87187 5.74843 7.98408C5.78855 8.91866 5.93357 9.84577 6.18076 10.748ZM2.36276 11.2813C2.63741 12.1884 3.01493 13.0611 3.48795 13.8824L2.60579 7.05C2.59867 6.99899 2.60173 6.94707 2.6148 6.89725C2.62787 6.84743 2.65069 6.80069 2.68193 6.75974C2.71318 6.71879 2.75224 6.68445 2.79684 6.65869C2.84145 6.63293 2.89071 6.61627 2.9418 6.60968C2.99288 6.60308 3.04477 6.60668 3.09445 6.62026C3.14414 6.63385 3.19063 6.65715 3.23126 6.68881C3.27188 6.72048 3.30582 6.75989 3.33112 6.80476C3.35641 6.84963 3.37256 6.89907 3.37863 6.95021L4.25942 13.7718C4.61858 12.6616 4.79406 11.5002 4.77895 10.3334C4.76128 9.22013 4.5855 8.11505 4.2569 7.05126C3.69024 5.19453 2.87468 4.03609 2.84025 3.9877C2.82272 3.96306 2.79884 3.94365 2.77115 3.93152C2.74345 3.9194 2.71299 3.91502 2.683 3.91885C2.65301 3.92268 2.62463 3.93458 2.60087 3.95328C2.57712 3.97198 2.55889 3.99678 2.54812 4.02503C2.06321 5.29312 1.82318 6.64166 1.84074 7.99919C1.85841 9.11242 2.03417 10.2175 2.36276 11.2813ZM13.8571 5.40717C13.9342 5.40717 14.0095 5.43003 14.0736 5.47284C14.1376 5.51566 14.1876 5.57652 14.2171 5.64772C14.2466 5.71892 14.2543 5.79727 14.2392 5.87285C14.2242 5.94844 14.1871 6.01786 14.1326 6.07236L9.5425 10.6623C10.635 10.2571 11.654 9.67607 12.5592 8.94232C13.4149 8.24427 14.1661 7.42718 14.79 6.51596C15.8809 4.93351 16.2696 3.58892 16.2855 3.53237C16.2938 3.50337 16.294 3.47269 16.2862 3.44357C16.2784 3.41445 16.2629 3.38799 16.2412 3.36699C16.2196 3.34599 16.1927 3.33123 16.1634 3.32428C16.134 3.31733 16.1034 3.31845 16.0746 3.32752C14.783 3.73231 13.5797 4.37782 12.5281 5.22997C11.6724 5.92803 10.9211 6.74512 10.2972 7.65633C9.76519 8.42438 9.32375 9.25138 8.9817 10.1208L13.5815 5.52128C13.6176 5.48496 13.6605 5.45617 13.7078 5.43658C13.7552 5.417 13.8059 5.407 13.8571 5.40717ZM11.7207 11.3285C10.5787 11.6076 9.48986 12.0709 8.49694 12.7002L15.4248 11.9124C15.5275 11.9007 15.6306 11.9303 15.7115 11.9947C15.7923 12.059 15.8443 12.1528 15.856 12.2555C15.8677 12.3582 15.8381 12.4613 15.7738 12.5422C15.7094 12.6231 15.6156 12.675 15.5129 12.6867L8.64486 13.4677C9.53887 13.7104 10.4573 13.8518 11.383 13.8893C11.5601 13.8969 11.7366 13.9006 11.9125 13.9004C12.844 13.9025 13.7724 13.7927 14.6777 13.5734C15.9949 13.2513 17.24 12.685 18.3484 11.9038C18.3732 11.8863 18.3928 11.8625 18.405 11.8348C18.4173 11.8071 18.4218 11.7766 18.4181 11.7466C18.4144 11.7165 18.4025 11.6881 18.3839 11.6642C18.3652 11.6404 18.3404 11.6221 18.3121 11.6112C18.2572 11.5901 16.944 11.0947 15.0154 11.0126C13.9078 10.962 12.7985 11.0684 11.7207 11.3285ZM12.5329 16.9303C12.5179 16.9303 12.5028 16.9294 12.4878 16.9276L6.01711 16.173C6.82482 16.6283 7.68138 16.9909 8.57049 17.2539C9.63092 17.5737 10.7312 17.7421 11.8388 17.7539C11.8667 17.7542 11.8945 17.7543 11.9223 17.7543C13.2498 17.7542 14.5661 17.511 15.8059 17.0365C15.8342 17.0258 15.8591 17.0075 15.8778 16.9836C15.8965 16.9598 15.9084 16.9313 15.9121 16.9012C15.9159 16.8712 15.9114 16.8407 15.8992 16.8129C15.8869 16.7852 15.8673 16.7614 15.8426 16.7439C15.7946 16.7101 14.6456 15.9099 12.7985 15.359C11.738 15.0391 10.6377 14.8708 9.53014 14.859C8.35738 14.8494 7.19086 15.0306 6.07622 15.3953L12.5778 16.1536C12.6766 16.165 12.7672 16.2138 12.8312 16.29C12.8952 16.3661 12.9276 16.4638 12.9219 16.5631C12.9161 16.6624 12.8726 16.7557 12.8003 16.824C12.728 16.8922 12.6323 16.9303 12.5328 16.9303H12.5329Z" fill="#CA3C3D"/>
<path id="Vector_2" d="M0.748988 19.0727C0.770922 19.0727 0.792644 19.0684 0.812909 19.06C0.833173 19.0516 0.851579 19.0393 0.86707 19.0238L4.15841 15.7325L12.5138 16.7069C12.5357 16.7097 12.558 16.7081 12.5793 16.7022C12.6005 16.6964 12.6204 16.6864 12.6378 16.6727C12.6552 16.6591 12.6697 16.6422 12.6805 16.623C12.6913 16.6037 12.6982 16.5825 12.7008 16.5606C12.7033 16.5387 12.7015 16.5165 12.6954 16.4952C12.6893 16.474 12.6791 16.4542 12.6653 16.437C12.6515 16.4197 12.6345 16.4054 12.6151 16.3948C12.5957 16.3842 12.5745 16.3775 12.5525 16.3752L4.45955 15.4313L6.39047 13.5004L15.4882 12.4659C15.532 12.4606 15.5719 12.4383 15.5992 12.4037C15.6265 12.3691 15.639 12.3251 15.6341 12.2813C15.6291 12.2375 15.607 12.1974 15.5726 12.1699C15.5382 12.1423 15.4943 12.1294 15.4505 12.1341L6.76969 13.1212L13.9755 5.91536C14.0068 5.88405 14.0244 5.84158 14.0244 5.79729C14.0244 5.753 14.0069 5.71052 13.9755 5.6792C13.9442 5.64788 13.9018 5.63028 13.8575 5.63027C13.8132 5.63026 13.7707 5.64785 13.7394 5.67916L6.52632 12.8923L7.40648 4.08762C7.41026 4.04389 7.39668 4.00044 7.36867 3.96666C7.34066 3.93288 7.30048 3.91148 7.25681 3.90709C7.21315 3.9027 7.16951 3.91567 7.13534 3.94321C7.10117 3.97074 7.07921 4.01062 7.07421 4.05422L6.15337 13.2651L4.2196 15.1989L3.15828 6.97914C3.15547 6.95739 3.1484 6.93641 3.13748 6.91739C3.12656 6.89837 3.11201 6.88169 3.09464 6.8683C3.05957 6.84125 3.01519 6.82924 2.97126 6.83491C2.92734 6.84059 2.88747 6.86348 2.86042 6.89855C2.83337 6.93362 2.82136 6.978 2.82704 7.02193L3.92136 15.4972L0.630943 18.7876C0.607591 18.811 0.591687 18.8407 0.585242 18.8731C0.578797 18.9055 0.582101 18.9391 0.594736 18.9696C0.607371 19.0001 0.628769 19.0262 0.656225 19.0446C0.683682 19.0629 0.715963 19.0727 0.748988 19.0727Z" fill="#CA3C3D"/>
</g>
</g>
</g>
<defs>
<clipPath id="clip0_1248_21496">
<rect width="19" height="19" fill="white" transform="translate(0 0.5)"/>
</clipPath>
</defs>
</svg>
