<svg width="20" height="20" viewBox="0 0 20 20" fill="none" xmlns="http://www.w3.org/2000/svg">
<g id="Sesame-Seeds">
<g id="Group">
<path id="Vector" d="M3.24639 12.6456C3.24639 12.6456 2.77137 14.9032 3.87089 16.0028C4.97042 17.1023 7.22814 16.6273 7.22814 16.6273C7.22814 16.6273 7.70316 14.3696 6.6036 13.2701C5.50411 12.1705 3.24639 12.6456 3.24639 12.6456ZM6.08479 10.272C6.08479 10.272 6.55982 8.01426 5.46029 6.91473C4.36076 5.8152 2.10304 6.29023 2.10304 6.29023C2.10304 6.29023 1.62802 8.54794 2.72755 9.64747C3.82707 10.747 6.08479 10.272 6.08479 10.272ZM11.7229 10.0797C11.7229 8.52469 9.79054 7.26416 9.79054 7.26416C9.79054 7.26416 7.8582 8.52473 7.8582 10.0797C7.8582 11.6347 9.79054 12.8952 9.79054 12.8952C9.79054 12.8952 11.7229 11.6347 11.7229 10.0797ZM15.1845 7.45527C16.7395 7.45527 18.0001 5.52294 18.0001 5.52294C18.0001 5.52294 16.7395 3.59061 15.1845 3.59061C13.6296 3.59061 12.369 5.52294 12.369 5.52294C12.369 5.52294 13.6296 7.45527 15.1845 7.45527ZM10.409 4.98664C11.5085 3.88711 11.0335 1.6294 11.0335 1.6294C11.0335 1.6294 8.7758 1.1544 7.67624 2.25393C6.57671 3.35346 7.05173 5.61118 7.05173 5.61118C7.05173 5.61118 9.30945 6.08617 10.409 4.98664ZM12.1484 14.6068C10.5934 14.6068 9.33287 16.5391 9.33287 16.5391C9.33287 16.5391 10.5934 18.4714 12.1484 18.4714C13.7034 18.4714 14.9639 16.5391 14.9639 16.5391C14.9639 16.5391 13.7034 14.6068 12.1484 14.6068ZM14.3432 9.63254C13.2436 10.7321 13.7187 12.9898 13.7187 12.9898C13.7187 12.9898 15.9764 13.4648 17.0759 12.3652C18.1754 11.2657 17.7004 9.008 17.7004 9.008C17.7004 9.008 15.4427 8.53301 14.3432 9.63254Z" fill="#CA3C3D"/>
</g>
</g>
</svg>
