<svg width="20" height="20" viewBox="0 0 20 20" fill="none" xmlns="http://www.w3.org/2000/svg">
<g id="Sunflower-Seeds">
<g id="Group">
<path id="Vector" d="M5.11247 11.4347C5.38107 11.4364 5.64923 11.4129 5.91345 11.3646C5.61215 10.4779 5.61215 9.51652 5.91345 8.62983C5.64922 8.58156 5.38106 8.55807 5.11247 8.55968C3.12869 8.55968 2.24749 9.61971 1.99707 9.9972C2.24662 10.3741 3.12639 11.4347 5.11247 11.4347ZM2.6083 6.93615C2.72427 7.44155 2.96215 7.91089 3.30119 8.30323C3.87993 8.0855 4.49417 7.97747 5.11247 7.98467H5.14495L5.12195 7.96311C4.67899 7.53112 4.32048 7.02031 4.0648 6.45688C3.54738 6.49497 3.04724 6.65955 2.6083 6.93615ZM14.8781 7.96397L14.8551 7.98554H14.8876C15.5059 7.9782 16.1201 8.08613 16.6989 8.3038C17.0381 7.91132 17.2757 7.44145 17.3906 6.93557C16.9516 6.66003 16.4519 6.49608 15.935 6.45803C15.6793 7.02132 15.3209 7.53202 14.8781 7.96397ZM3.30119 11.6915C2.9603 12.0827 2.72218 12.5526 2.6083 13.0588C3.04748 13.335 3.54768 13.4993 4.06509 13.5372C4.32093 12.9736 4.67964 12.4626 5.12282 12.0304L5.14553 12.0089H5.11304C4.49462 12.0166 3.88017 11.9089 3.30119 11.6915ZM14.8876 8.55968C14.619 8.55807 14.3509 8.58156 14.0866 8.62983C14.3879 9.51652 14.3879 10.4779 14.0866 11.3646C14.3509 11.4129 14.619 11.4363 14.8876 11.4347C16.8728 11.4347 17.7526 10.3747 18.003 9.9972C17.7535 9.62057 16.8737 8.55968 14.8876 8.55968ZM7.98751 14.852C7.98003 14.8598 7.97342 14.8675 7.96566 14.8753C7.53377 15.3187 7.02334 15.6782 6.46029 15.9353C6.49835 16.4516 6.66242 16.9507 6.93812 17.3889C7.4438 17.273 7.91345 17.0352 8.30606 16.6961C8.08834 16.1173 7.98031 15.5031 7.98751 14.8848V14.852ZM6.93783 2.60604C6.66204 3.04494 6.49798 3.54472 6.46 4.06168C7.02371 4.31742 7.53473 4.67614 7.96681 5.11941L7.98837 5.14212V5.10963C7.98103 4.49134 8.08896 3.8771 8.30664 3.29835C7.9141 2.95875 7.444 2.72099 6.93783 2.60604ZM4.33994 4.33711C4.25024 4.78044 4.12288 6.15356 5.52848 7.55715C5.71772 7.7487 5.92502 7.92153 6.14748 8.07323C6.56607 7.23949 7.24255 6.56311 8.07635 6.14465C7.92417 5.92267 7.75086 5.71594 7.55884 5.52737C6.15726 4.12062 4.78442 4.24712 4.33994 4.33711ZM11.9237 6.14465C12.7583 6.56323 13.4353 7.24017 13.854 8.07466C14.076 7.92289 14.2828 7.75007 14.4716 7.55859C15.8766 6.15557 15.7498 4.78331 15.6601 4.33854C15.2165 4.24856 13.8431 4.12148 12.4401 5.52709C12.2485 5.71588 12.0756 5.92269 11.9237 6.14465ZM11.694 3.29835C11.9117 3.8771 12.0198 4.49133 12.0126 5.10963V5.14212L12.0344 5.11912C12.4659 4.6761 12.9762 4.31748 13.5392 4.06168C13.5016 3.54439 13.3373 3.0443 13.0608 2.60547C12.5555 2.72157 12.0863 2.95943 11.694 3.29835ZM6.14748 11.9209C5.92551 12.0732 5.71871 12.2465 5.52992 12.4384C4.12345 13.84 4.24995 15.2128 4.33994 15.6573C4.78327 15.7476 6.15668 15.8744 7.55999 14.469C7.75191 14.2802 7.92521 14.0733 8.0775 13.8512C7.24297 13.4325 6.56602 12.7555 6.14748 11.9209ZM10 14.3098C9.535 14.3092 9.07316 14.2329 8.63267 14.0838C8.58437 14.348 8.56088 14.6162 8.56252 14.8848C8.56252 16.87 9.62255 17.7498 10 18.0002C10.377 17.7506 11.4376 16.8709 11.4376 14.8848C11.4392 14.6162 11.4157 14.348 11.3674 14.0838C10.9269 14.2329 10.4651 14.3092 10 14.3098ZM13.0617 17.3895C13.3372 16.9511 13.5013 16.452 13.5398 15.9356C12.9762 15.6785 12.4654 15.3188 12.0333 14.875L12.0117 14.8523V14.8848C12.019 15.5031 11.9111 16.1173 11.6934 16.6961C12.0848 17.0373 12.5551 17.2756 13.0617 17.3895ZM14.8876 12.0097H14.8548C14.8626 12.0172 14.8704 12.0238 14.8781 12.0316C15.321 12.4634 15.6795 12.974 15.9353 13.5372C16.4526 13.4996 16.9528 13.3354 17.3918 13.0591C17.2759 12.5534 17.038 12.0838 16.6989 11.6912C16.1201 11.9089 15.5059 12.0169 14.8876 12.0097ZM13.854 11.9209C13.4354 12.7555 12.7584 13.4326 11.9237 13.8512C12.076 14.0732 12.2493 14.28 12.4412 14.4688C13.844 15.8735 15.2165 15.7473 15.6613 15.6573C15.751 15.214 15.8784 13.8408 14.473 12.4373C14.2837 12.2457 14.0765 12.0728 13.854 11.9209Z" fill="#CA3C3D"/>
<path id="Vector_2" d="M10.0003 13.7368C12.0644 13.7368 13.7378 12.0635 13.7378 9.99927C13.7378 7.93508 12.0644 6.26172 10.0003 6.26172C7.93606 6.26172 6.2627 7.93508 6.2627 9.99927C6.2627 12.0635 7.93606 13.7368 10.0003 13.7368Z" fill="#CA3C3D"/>
<path id="Vector_3" d="M11.3675 5.91248C11.4158 5.64825 11.4393 5.38009 11.4376 5.11149C11.4376 3.12771 10.3776 2.24651 10.0001 1.99609C9.62318 2.24565 8.56258 3.12541 8.56258 5.11149C8.56094 5.38009 8.58443 5.64825 8.63273 5.91248C9.51941 5.61117 10.4808 5.61117 11.3675 5.91248Z" fill="#CA3C3D"/>
</g>
</g>
</svg>
