<svg width="20" height="20" viewBox="0 0 20 20" fill="none" xmlns="http://www.w3.org/2000/svg">
<g id="sweet-potato 1">
<g id="Group">
<path id="Vector" d="M14.7771 12.386L12.8719 10.4808C12.7003 10.3092 12.7003 10.031 12.8719 9.85937C13.0435 9.68775 13.3218 9.68775 13.4934 9.85937L15.2651 11.6311C16.0259 10.3274 16.4672 8.91805 16.8032 7.70662L15.3865 6.28989C15.2149 6.11828 15.2149 5.84006 15.3865 5.66845C15.5581 5.49684 15.8363 5.49684 16.008 5.66845L17.0696 6.73009C17.0965 6.63329 17.1231 6.53873 17.1492 6.44615C17.3429 5.75844 17.4959 5.21525 17.4999 4.7012C17.5047 4.09634 17.2969 3.60467 16.8462 3.1539C16.3954 2.7031 15.9038 2.49511 15.299 2.50009C14.785 2.50407 14.2418 2.65705 13.5542 2.85075C13.3852 2.89836 13.2105 2.94758 13.0255 2.99755L12.9102 3.02866C12.2347 3.21097 11.4698 3.41742 10.6801 3.69335L11.817 4.83025C11.9886 5.00186 11.9886 5.28008 11.817 5.45169C11.7312 5.5375 11.6187 5.58042 11.5063 5.58042C11.3938 5.58042 11.2813 5.53753 11.1956 5.45169L9.78095 4.03707C8.64751 4.51166 7.51275 5.16029 6.56044 6.1126C6.53264 6.1404 6.50513 6.16837 6.47757 6.19632L9.30244 9.02119C9.47405 9.19281 9.47405 9.47103 9.30244 9.64264C9.21663 9.72844 9.10417 9.77136 8.99173 9.77136C8.87929 9.77136 8.7668 9.72847 8.68102 9.64264L5.8761 6.83772C4.94969 7.87759 4.19463 8.98144 3.64719 10.0714L5.11152 11.5357C5.28313 11.7074 5.28313 11.9856 5.11152 12.1572C5.07076 12.198 5.02233 12.2305 4.96901 12.2525C4.91569 12.2746 4.85853 12.286 4.80081 12.2859C4.74309 12.286 4.68593 12.2747 4.63261 12.2526C4.57928 12.2305 4.53085 12.1981 4.4901 12.1572L3.25914 10.9262C2.75086 12.1827 2.53809 13.3923 2.67865 14.4312C2.74246 14.9028 2.70466 15.3998 2.56633 15.9085C2.42425 16.4309 2.51211 16.8847 2.8137 17.1863C3.02109 17.3937 3.30039 17.5 3.62454 17.5C3.77178 17.5 3.92831 17.4781 4.09148 17.4337C4.60014 17.2953 5.09711 17.2575 5.56879 17.3214C7.20565 17.5428 9.26614 16.8871 11.2661 15.5805L8.68102 12.9954C8.50941 12.8237 8.50941 12.5455 8.68102 12.3739C8.85261 12.2023 9.13085 12.2023 9.30247 12.3739L11.9988 15.0703C12.6469 14.5909 13.2821 14.0448 13.8874 13.4396C14.219 13.1079 14.5137 12.7541 14.7771 12.386Z" fill="#CA3C3D"/>
</g>
</g>
</svg>
