<svg width="19" height="20" viewBox="0 0 19 20" fill="none" xmlns="http://www.w3.org/2000/svg">
<g id="thyme 1" clip-path="url(#clip0_1248_21501)">
<g id="Group">
<path id="Vector" d="M18.7889 5.80042L18.5995 5.61101C18.2087 5.21973 17.7286 4.92933 17.2006 4.76481C16.6726 4.6003 16.1126 4.56661 15.5687 4.66665L16.8847 3.35001C16.9361 3.30253 16.9773 3.24517 17.0059 3.18137C17.0345 3.11758 17.05 3.04866 17.0514 2.97874C17.0527 2.90883 17.04 2.83936 17.0138 2.7745C16.9877 2.70964 16.9487 2.65072 16.8993 2.60127C16.8498 2.55182 16.7909 2.51287 16.7261 2.48674C16.6612 2.46061 16.5917 2.44784 16.5218 2.4492C16.4519 2.45056 16.383 2.46602 16.3192 2.49466C16.2554 2.52329 16.198 2.56451 16.1506 2.61584L14.8339 3.93189C14.934 3.38799 14.9003 2.82793 14.7358 2.29995C14.5712 1.77197 14.2808 1.2919 13.8896 0.901091L13.7001 0.711388C13.6122 0.623554 13.493 0.574219 13.3687 0.574219C13.2444 0.574219 13.1252 0.623554 13.0372 0.711388L12.8478 0.901091C12.5305 1.21815 12.2789 1.59461 12.1071 2.00898C11.9354 2.42334 11.847 2.86748 11.847 3.31602C11.847 3.76456 11.9354 4.2087 12.1071 4.62306C12.2789 5.03743 12.5305 5.4139 12.8478 5.73095L12.9413 5.82447L11.2652 7.50062C11.3652 6.95673 11.3315 6.39667 11.167 5.86868C11.0025 5.3407 10.7121 4.86063 10.3208 4.46983L10.1314 4.28012C10.0435 4.19229 9.92425 4.14295 9.79995 4.14295C9.67565 4.14295 9.55644 4.19229 9.46849 4.28012L9.27908 4.46983C8.96181 4.78688 8.71012 5.16335 8.53841 5.57771C8.36669 5.99208 8.2783 6.43622 8.2783 6.88476C8.2783 7.33329 8.36669 7.77743 8.53841 8.1918C8.71012 8.60616 8.96181 8.98263 9.27908 9.29969L9.3726 9.3932L7.69644 11.0688C7.79648 10.5249 7.76279 9.9649 7.59828 9.43696C7.43377 8.90903 7.14336 8.42901 6.75208 8.03826L6.56268 7.84886C6.51917 7.80529 6.4675 7.77074 6.41062 7.74716C6.35375 7.72358 6.29278 7.71144 6.23121 7.71144C6.16965 7.71144 6.10868 7.72358 6.05181 7.74716C5.99493 7.77074 5.94326 7.80529 5.89975 7.84886L5.71035 8.03826C5.39303 8.35532 5.14131 8.73181 4.96956 9.1462C4.79782 9.56059 4.70942 10.0048 4.70942 10.4533C4.70942 10.9019 4.79782 11.3461 4.96956 11.7605C5.14131 12.1749 5.39303 12.5514 5.71035 12.8684L5.80386 12.9616L4.12919 14.6363C4.22786 14.0934 4.19334 13.5346 4.0286 13.008C3.86386 12.4814 3.57381 12.0025 3.18335 11.6126L2.99394 11.4232C2.90599 11.3354 2.78678 11.2861 2.66248 11.2861C2.53818 11.2861 2.41897 11.3354 2.33102 11.4232L2.14161 11.6126C1.8243 11.9297 1.57257 12.3062 1.40083 12.7206C1.22908 13.135 1.14069 13.5791 1.14069 14.0277C1.14069 14.4763 1.22908 14.9205 1.40083 15.3349C1.57257 15.7492 1.8243 16.1257 2.14161 16.4428L2.23216 16.5319L0.22677 18.5387C0.131737 18.6367 0.0790525 18.7681 0.0800933 18.9046C0.081134 19.0411 0.135816 19.1717 0.232332 19.2682C0.328848 19.3647 0.459453 19.4194 0.595943 19.4205C0.732433 19.4215 0.863856 19.3688 0.961832 19.2738L2.9693 17.2654L3.06282 17.3589C3.70339 17.9994 4.5721 18.3591 5.47789 18.3591C6.38369 18.3591 7.2524 17.9994 7.89297 17.3589L8.08238 17.1692C8.12594 17.1257 8.1605 17.0741 8.18408 17.0172C8.20766 16.9603 8.21979 16.8994 8.21979 16.8378C8.21979 16.7762 8.20766 16.7153 8.18408 16.6584C8.1605 16.6015 8.12594 16.5498 8.08238 16.5063L7.89297 16.3169C7.50214 15.9259 7.02213 15.6357 6.49427 15.4713C5.9664 15.307 5.4065 15.2734 4.86277 15.3734L6.53863 13.6976L6.63214 13.7911C6.94921 14.1084 7.32569 14.3601 7.74008 14.5319C8.15448 14.7036 8.59865 14.792 9.04722 14.792C9.4958 14.792 9.93997 14.7036 10.3544 14.5319C10.7688 14.3601 11.1452 14.1084 11.4623 13.7911L11.6517 13.6017C11.7395 13.5138 11.7889 13.3945 11.7889 13.2702C11.7889 13.1459 11.7395 13.0267 11.6517 12.9388L11.4623 12.7494C11.0715 12.3581 10.5915 12.0676 10.0636 11.9029C9.53575 11.7382 8.97575 11.7042 8.4318 11.8038L10.1077 10.128L10.2012 10.2215C10.5182 10.5388 10.8947 10.7904 11.3091 10.9622C11.7234 11.1339 12.1676 11.2223 12.6161 11.2223C13.0646 11.2223 13.5088 11.1339 13.9231 10.9622C14.3375 10.7904 14.714 10.5388 15.031 10.2215L15.2204 10.0321C15.264 9.98857 15.2986 9.9369 15.3221 9.88002C15.3457 9.82315 15.3579 9.76218 15.3579 9.70061C15.3579 9.63905 15.3457 9.57808 15.3221 9.52121C15.2986 9.46433 15.264 9.41266 15.2204 9.36915L15.031 9.17975C14.6402 8.78847 14.1602 8.49806 13.6322 8.33355C13.1042 8.16904 12.5441 8.13535 12.0002 8.23539L13.6764 6.55923L13.7699 6.65275C14.087 6.97002 14.4634 7.22171 14.8778 7.39342C15.2922 7.56514 15.7363 7.65353 16.1848 7.65353C16.6334 7.65353 17.0775 7.56514 17.4919 7.39342C17.9062 7.22171 18.2827 6.97002 18.5998 6.65275L18.7892 6.46334C18.8327 6.41981 18.8673 6.36813 18.8908 6.31124C18.9144 6.25436 18.9265 6.19339 18.9264 6.13182C18.9264 6.07025 18.9143 6.00929 18.8906 5.95243C18.867 5.89556 18.8325 5.84391 18.7889 5.80042Z" fill="#CA3C3D"/>
</g>
</g>
<defs>
<clipPath id="clip0_1248_21501">
<rect width="19" height="19" fill="white" transform="translate(0 0.5)"/>
</clipPath>
</defs>
</svg>
