<svg width="19" height="20" viewBox="0 0 19 20" fill="none" xmlns="http://www.w3.org/2000/svg">
<g id="tomato 1">
<g id="Group">
<path id="Vector" d="M14.2607 5.43356C13.9438 5.3996 13.6193 5.44111 13.2948 5.55053C13.2231 5.57695 13.1476 5.60336 13.076 5.63732C12.6156 5.84485 12.3289 6.12784 12.3175 6.13916C12.276 6.18067 12.2572 6.23726 12.2647 6.29764C12.2723 6.35423 12.31 6.40706 12.359 6.43347C12.9439 6.74665 13.0231 7.61072 13.0118 8.13143C12.2194 7.45602 10.8045 7.37301 10.7365 7.37301C10.7064 7.37301 10.6762 7.37678 10.646 7.39188C10.2649 7.57299 9.86115 8.04087 9.43855 8.78043C9.3744 8.89362 9.31403 9.00682 9.25743 9.11247C9.17819 8.27481 8.96689 7.37678 8.95557 7.32773C8.93671 7.24849 8.86879 7.19189 8.78578 7.18435C8.7405 7.18057 8.69145 7.18057 8.64617 7.18057C8.34054 7.18057 8.01981 7.2334 7.69908 7.33528C7.40477 7.42961 7.10669 7.56544 6.81237 7.73901C6.55579 7.88994 6.34449 8.04465 6.20488 8.16162C6.20111 8.05219 6.22375 7.9239 6.28035 7.78052C6.3709 7.55035 6.53693 7.28622 6.77464 6.99569C7.1897 6.4863 7.68022 6.07879 7.68776 6.07501C7.73682 6.03728 7.75946 5.97691 7.75568 5.91654C7.75191 5.85617 7.71418 5.79957 7.66135 5.77316C7.23875 5.53921 6.54447 5.42979 6.00867 5.38074C5.85397 5.36565 5.71059 5.35433 5.58984 5.35055C5.88793 5.11284 6.47278 4.94304 7.29535 4.8638C8.16319 4.78079 8.98953 4.82985 8.99708 4.82985C9.08009 4.83362 9.15556 4.78457 9.18197 4.70533C9.19329 4.67137 9.45741 3.89031 9.12537 3.32055C9.00085 3.10548 8.81219 2.95077 8.55938 2.86021L9.06122 1.88672C9.72531 2.15085 10.1894 2.70174 10.4385 3.5243C10.646 4.20349 10.6196 4.8223 10.6196 4.82607C10.6158 4.89022 10.646 4.95059 10.6988 4.98832C10.7516 5.02228 10.8196 5.02983 10.8799 5.00341C11.8723 4.5544 12.8118 4.56195 13.6759 5.02983C13.9098 5.15812 14.1023 5.3015 14.2607 5.43356Z" fill="#CA3C3D"/>
<path id="Vector_2" d="M13.3442 5.93112C13.3064 5.94621 13.2687 5.9613 13.231 5.98017C13.031 6.07073 12.8687 6.17638 12.7556 6.26316C13.5857 6.96121 13.363 8.5422 13.3517 8.61389C13.3404 8.68935 13.2838 8.74973 13.2083 8.76859C13.1329 8.78368 13.0574 8.7535 13.0159 8.68935C12.5216 7.93093 11.0538 7.77623 10.7708 7.75359C10.152 8.09318 9.48415 9.45532 9.27663 9.96093C9.24644 10.0326 9.17852 10.0741 9.10683 10.0741C9.09174 10.0741 9.08042 10.0741 9.06532 10.0704C8.97854 10.0515 8.91817 9.96848 8.92194 9.87792C8.96722 9.14969 8.72573 7.96112 8.63518 7.55361C7.35227 7.56115 6.25803 8.61012 6.24672 8.62143C6.20521 8.65917 6.15238 8.67803 6.09579 8.67049C6.03919 8.66294 5.99013 8.63275 5.95995 8.5837C5.80147 8.32712 5.7977 8.01394 5.94108 7.64417C6.04673 7.37627 6.23162 7.07818 6.49575 6.75745C6.75988 6.43673 7.04287 6.15751 7.2353 5.98394C6.88062 5.85942 6.41651 5.78773 6.02032 5.75C3.53753 6.88952 1.99805 9.11196 1.99805 11.5608C1.99805 15.1756 5.36378 18.1149 9.49925 18.1149C13.6347 18.1149 17.0004 15.1756 17.0004 11.5608C17.0004 9.26289 15.6006 7.11214 13.3442 5.93112Z" fill="#CA3C3D"/>
</g>
</g>
</svg>
