<svg width="20" height="20" viewBox="0 0 20 20" fill="none" xmlns="http://www.w3.org/2000/svg">
<g id="Turmeric" clip-path="url(#clip0_1248_21412)">
<g id="Group">
<path id="Vector" d="M9.63825 18.0513C8.26919 18.0513 7.14499 16.9383 7.14499 15.5692V13.51C8.21353 13.3431 9.34886 13.4321 9.66052 13.7438C9.86087 13.9441 10.1169 14.0443 10.4397 14.0443C11.0852 14.0443 12.3207 13.4433 13.5228 12.6085L14.1684 13.3431C14.4356 13.6436 14.5357 14.0443 14.469 14.4673C14.3799 14.9904 14.0349 15.4802 13.5785 15.7473C13.1333 16.0033 12.5767 16.0478 12.0981 15.8697C11.9534 17.0941 10.9071 18.0513 9.63825 18.0513ZM7.14499 12.909V11.718L6.44376 11.0057C9.60486 7.56629 9.15964 9.59206 12.7548 9.75902L12.1204 10.3935V10.9945L13.1333 12.1521C11.7531 13.1093 10.4174 13.6659 10.0835 13.332C9.62712 12.8645 8.41388 12.7309 7.14499 12.909ZM6.0208 10.5827L5.64235 10.2042H5.4754C5.7314 9.2804 5.66462 8.16734 5.0413 7.55515C4.85208 7.3548 4.76303 7.16558 4.77417 6.96523C4.80756 6.64244 5.37522 5.99686 5.92062 5.60729L7.14499 6.83166V6.45322C7.14499 5.08415 8.26919 3.97109 9.63825 3.97109C10.7068 3.97109 11.6418 4.67232 11.9868 5.65182L13.0665 4.57214C13.4895 4.96172 13.9792 5.5739 14.046 5.87443C14.1573 6.28626 14.6136 7.23237 15.07 8.03377H14.4912L13.3448 9.18023C9.13738 9.22475 9.64938 6.64244 6.0208 10.5827ZM4.86321 10.2042H2.22525C1.27914 10.2042 0.5 9.4251 0.5 8.479C0.5 7.52176 1.27914 6.75375 2.22525 6.75375H2.34769C2.05829 6.1193 2.1696 5.34016 2.69274 4.81702C3.01552 4.49423 3.44962 4.31614 3.91711 4.31614C4.37346 4.31614 4.80756 4.49423 5.13035 4.81702L5.49766 5.18433C4.81869 5.68521 4.22876 6.41983 4.18424 6.92071C4.15085 7.29915 4.30668 7.6442 4.62947 7.97812C5.11922 8.46787 5.09695 9.4251 4.87434 10.1597C4.86321 10.182 4.86321 10.1931 4.86321 10.2042ZM13.4895 4.14918L15.1924 2.44619C15.5152 2.1234 15.9493 1.94531 16.4057 1.94531C16.8732 1.94531 17.3073 2.1234 17.6301 2.44619C17.9528 2.76898 18.1309 3.20307 18.1309 3.67056C18.1309 3.99335 18.0419 4.31614 17.8749 4.58327C18.7765 4.63893 19.5 5.38468 19.5 6.30852C19.5 7.25463 18.7209 8.03377 17.7748 8.03377H15.7601C15.2815 7.2435 14.7361 6.13043 14.6248 5.7186C14.5246 5.3179 13.9903 4.6278 13.4895 4.14918Z" fill="#CA3C3D"/>
</g>
</g>
<defs>
<clipPath id="clip0_1248_21412">
<rect width="19" height="19" fill="white" transform="translate(0.5 0.5)"/>
</clipPath>
</defs>
</svg>
