<svg width="20" height="20" viewBox="0 0 20 20" fill="none" xmlns="http://www.w3.org/2000/svg">
<g id="Turnips">
<g id="Group">
<path id="Vector" d="M9.99644 6.5597C11.0129 6.5597 11.8996 6.64836 12.6564 6.81936C12.9414 6.6642 13.1916 6.49636 13.3658 6.3222C14.2398 5.4482 14.4456 4.28603 13.8344 3.6717C13.2961 3.1302 12.3303 3.22836 11.5133 3.8522C11.3803 2.83253 10.7628 2.08203 9.99644 2.08203C9.23644 2.08203 8.61893 2.83253 8.48277 3.85536C7.6626 3.22836 6.69994 3.13336 6.15844 3.6717C5.54727 4.28603 5.7531 5.4482 6.6271 6.3222C6.7981 6.4932 7.03877 6.6547 7.31427 6.8067C8.3846 6.5597 9.4391 6.5597 9.99644 6.5597ZM6.44977 10.404H4.64477C4.64477 10.4357 4.6416 10.4642 4.6416 10.4959C4.6416 11.791 4.97727 12.8044 5.47127 13.5929H7.5486C7.72594 13.5929 7.86527 13.7354 7.86527 13.9095C7.86527 14.0837 7.72594 14.2262 7.5486 14.2262H5.93677C6.46877 14.8437 7.0926 15.2839 7.6721 15.591C8.5366 16.0502 9.23327 16.7722 9.68927 17.6874L9.71777 17.7412C9.74408 17.7934 9.78435 17.8373 9.83409 17.8681C9.88384 17.8988 9.94112 17.9152 9.9996 17.9154H10.0028C10.1199 17.9154 10.2308 17.8457 10.2846 17.738L10.3099 17.6842C10.7659 16.7722 11.4658 16.0502 12.3303 15.591C12.3683 15.572 12.4063 15.5499 12.4411 15.5277H10.8609C10.6868 15.5277 10.5443 15.3852 10.5443 15.211C10.5443 15.0369 10.6868 14.8944 10.8609 14.8944H13.3784C14.2081 14.2135 14.9586 13.2129 15.2404 11.7594H13.5083C13.3341 11.7594 13.1916 11.6169 13.1916 11.4427C13.1916 11.2654 13.3341 11.126 13.5083 11.126H15.3291C15.3481 10.9234 15.3608 10.7144 15.3608 10.4959C15.3608 7.19303 11.3264 7.19303 9.9996 7.19303C8.78044 7.19303 5.2686 7.1962 4.7176 9.7707H6.44977C6.62394 9.7707 6.76644 9.9132 6.76644 10.0874C6.76644 10.2647 6.62394 10.404 6.44977 10.404Z" fill="#CA3C3D"/>
</g>
</g>
</svg>
