<svg width="20" height="20" viewBox="0 0 20 20" fill="none" xmlns="http://www.w3.org/2000/svg">
<g id="walnut 1" clip-path="url(#clip0_1248_21356)">
<g id="Group">
<path id="Vector" d="M9.83028 1.59983C9.32116 1.43355 8.86431 1.17464 8.47238 0.829825C7.97237 0.389992 7.21781 0.389992 6.71701 0.830221C6.32547 1.17464 5.86862 1.43355 5.35911 1.59983C-1.11589 3.71181 -1.11858 14.9098 5.3599 17.024C5.86862 17.1899 6.32547 17.4492 6.7178 17.794C7.21381 18.2311 7.9694 18.2365 8.47277 17.7937C8.48817 17.7801 8.50365 17.7667 8.51925 17.7535C8.56091 17.7182 8.5926 17.6726 8.61115 17.6212C8.62971 17.5699 8.63448 17.5146 8.62499 17.4608C8.60722 17.3614 8.59627 17.2609 8.59221 17.16C8.58821 17.0608 8.53651 16.9689 8.45476 16.9125C7.77534 16.4439 7.37193 15.6649 7.40752 14.8363C7.4108 14.7602 7.38412 14.6874 7.33772 14.6269C7.30443 14.5837 7.28292 14.5325 7.27528 14.4785C7.26765 14.4245 7.27416 14.3694 7.29417 14.3186C7.31849 14.2561 7.34013 14.1926 7.35902 14.1282C7.3819 14.0505 7.3724 13.9666 7.33424 13.8951C6.95917 13.192 6.91555 12.4263 7.15126 11.7408C7.16957 11.6871 7.17242 11.6293 7.15949 11.5741C6.9859 10.8272 7.02746 9.91317 7.28467 9.2457C7.58634 8.46287 7.53923 7.49881 7.30724 6.89927C6.95272 5.98303 6.99334 4.83669 7.29219 4.07936C7.32418 4.00278 7.38492 3.9418 7.46137 3.90952C7.53782 3.87723 7.62389 3.87623 7.70108 3.90671C7.77826 3.93719 7.84042 3.99673 7.87419 4.07254C7.90795 4.14834 7.91064 4.23437 7.88167 4.31214C7.64568 4.90958 7.59172 5.8736 7.8983 6.67164C8.19344 7.43994 8.23002 8.56054 7.87534 9.47374C7.81168 9.63763 7.76489 9.82228 7.73341 10.0169C7.6884 10.2952 7.99727 10.4884 8.22903 10.3279C8.25832 10.3076 8.28799 10.2878 8.31802 10.2686C8.35692 10.2437 8.39001 10.2107 8.41507 10.172C8.44012 10.1332 8.45655 10.0895 8.46323 10.0438C8.71553 8.33678 10.102 8.0776 10.8547 8.04454C11.0739 8.03492 11.2201 7.81144 11.1354 7.60902C10.9839 7.24662 10.8947 6.87924 10.8947 6.40049C10.8947 5.47609 10.3975 4.61503 9.59702 4.15303C9.44539 4.06554 9.39353 3.87195 9.48102 3.72033C9.56851 3.5687 9.7625 3.51684 9.91373 3.60433C10.9094 4.1792 11.5282 5.25083 11.5282 6.40049C11.5282 6.72494 11.5891 7.04651 11.7077 7.34849C11.7746 7.51868 11.9694 7.59861 12.1357 7.52248C12.7357 7.24769 13.4079 7.16305 14.0287 7.29144C14.2557 7.33839 14.4514 7.12734 14.3954 6.90248C13.7883 4.46186 12.2544 2.39117 9.83028 1.59983ZM3.86305 10.6095C4.14599 11.1003 4.29506 11.6569 4.29536 12.2235C4.29536 13.1479 4.79259 14.009 5.59308 14.471C5.66576 14.513 5.71875 14.5823 5.74043 14.6634C5.7621 14.7445 5.75069 14.8309 5.70868 14.9037C5.66672 14.9764 5.59761 15.0294 5.51654 15.0512C5.43547 15.0729 5.34909 15.0616 5.27637 15.0197C4.28071 14.4444 3.66194 13.3732 3.66194 12.2235C3.66194 11.7686 3.54198 11.3201 3.31435 10.9262C2.73952 9.93051 2.73952 8.69336 3.31435 7.6977C3.54202 7.30324 3.66189 6.85582 3.66194 6.40037C3.66194 5.25071 4.28071 4.17904 5.27637 3.60421C5.4276 3.51672 5.62158 3.56898 5.70868 3.72021C5.79617 3.87183 5.74431 4.06542 5.59308 4.15291C4.79259 4.61492 4.29536 5.47597 4.29536 6.40037C4.29536 6.9661 4.14571 7.5243 3.86305 8.01441C3.40065 8.8149 3.40065 9.80901 3.86305 10.6095Z" fill="#CA3C3D"/>
<path id="Vector_2" d="M15.2651 9.22843L12.9956 14.0284C12.9403 14.1451 12.7777 14.1493 12.7137 14.0371C12.3799 13.4525 11.7649 13.1106 11.0843 13.0704C10.9097 13.0613 10.7597 13.1931 10.7494 13.3677C10.7391 13.5427 10.8721 13.6923 11.0467 13.7026C11.2339 13.7141 11.7042 13.781 12.0316 14.163C12.3641 14.5515 12.433 15.1322 12.2233 15.6603C12.2197 15.6692 12.304 15.4897 10.9027 18.4543C10.891 18.4792 10.8731 18.5005 10.8507 18.5163C10.8283 18.5322 10.8021 18.5419 10.7749 18.5447C9.76966 18.6418 9.06078 17.708 9.25603 16.7551C9.27092 16.6825 9.23121 16.6086 9.16276 16.5803C8.26069 16.2069 7.76706 15.198 8.20245 14.178C8.21372 14.1516 8.21749 14.1226 8.21337 14.0941C8.20924 14.0657 8.19737 14.039 8.17906 14.0168C7.16681 12.7963 7.67434 11.205 8.9719 10.633C9.00028 10.6204 9.0243 10.5997 9.04094 10.5735C9.05758 10.5473 9.06609 10.5167 9.06541 10.4857C9.04491 9.3881 9.97869 8.40249 11.2715 8.74137C11.4372 8.785 11.6048 8.85665 11.7201 8.91754C11.766 8.94181 11.8936 9.03568 12.0031 9.16062C12.3986 9.61158 12.4278 10.2448 12.0364 10.7319C11.7701 11.0642 12.264 11.4574 12.5261 11.1345C13.185 10.3219 13.0768 9.11691 12.1815 8.46552C12.0899 8.39889 12.0977 8.25799 12.1962 8.20201C13.3256 7.55968 14.8314 7.81369 15.2728 9.11141C15.2858 9.14965 15.2824 9.19193 15.2651 9.22843ZM15.8372 9.4993C15.8545 9.46276 15.885 9.43323 15.9229 9.41905C17.2085 8.93662 18.3566 9.94127 18.5775 11.2162C18.597 11.3287 18.4946 11.4251 18.3839 11.3973C17.3727 11.143 16.3284 11.7384 16.1034 12.8202C16.0177 13.2311 16.6385 13.3615 16.7229 12.9528C16.8436 12.3687 17.3311 11.956 17.9597 11.977C18.276 11.9872 18.4172 12.067 18.6804 12.2297C18.7587 12.2782 18.9217 12.4056 19.0365 12.5269C19.7601 13.2912 19.5987 14.457 18.8002 15.088C18.7756 15.1072 18.7573 15.1332 18.7475 15.1627C18.7377 15.1923 18.7369 15.2241 18.7451 15.2541C19.1208 16.6045 18.2354 18.0228 16.6325 18.0142C16.6038 18.0141 16.5756 18.0219 16.551 18.0368C16.5263 18.0516 16.5063 18.073 16.493 18.0985C15.9868 19.0722 14.897 19.3455 14.0271 18.8804C13.9952 18.8635 13.9584 18.8581 13.923 18.8653C13.8876 18.8724 13.8558 18.8915 13.8329 18.9194C13.2216 19.6745 12.0531 19.7223 11.4863 18.8813C11.471 18.8585 11.4619 18.8321 11.4598 18.8048C11.4578 18.7774 11.4629 18.75 11.4747 18.7252C12.2161 17.1579 12.1596 17.2693 12.185 17.2431C12.5781 16.8364 13.1923 16.7713 13.608 17.2205C13.8922 17.5274 14.3581 17.0979 14.0728 16.7897C13.752 16.4434 13.326 16.2644 12.8842 16.2771C12.7673 16.2805 12.6895 16.1566 12.7395 16.0508C13.0088 15.4812 13.6854 14.0504 13.6874 14.0468C13.9627 13.5491 14.4551 13.2343 14.9667 13.2442C15.1397 13.2481 15.2862 13.1092 15.2897 12.9342C15.2933 12.7596 15.1547 12.6147 14.9798 12.6111C14.8629 12.6085 14.746 12.6171 14.6307 12.6367C14.5037 12.6582 14.4043 12.5297 14.4594 12.4132L15.8372 9.4993Z" fill="#CA3C3D"/>
</g>
</g>
<defs>
<clipPath id="clip0_1248_21356">
<rect width="19" height="19" fill="white" transform="translate(0.5 0.5)"/>
</clipPath>
</defs>
</svg>
