<svg width="19" height="20" viewBox="0 0 19 20" fill="none" xmlns="http://www.w3.org/2000/svg">
<g id="watermelon 1">
<g id="Group">
<path id="Vector" d="M16.9348 14.1659L16.1874 12.9531C15.9526 13.1077 13.7236 15.7492 9.50032 15.7492C5.29534 15.7492 3.03694 13.1008 2.81217 12.9536L2.06527 14.1656C2.01132 14.2531 1.98981 14.3569 2.0045 14.4586C2.0192 14.5604 2.06915 14.6538 2.14566 14.7226C6.32376 18.4777 12.7916 18.3744 16.8544 14.7228C16.9309 14.6541 16.9809 14.5607 16.9956 14.459C17.0103 14.3572 16.9887 14.2535 16.9348 14.1659Z" fill="#CA3C3D"/>
<path id="Vector_2" d="M9.50137 14.87C13.4112 14.87 15.4387 12.3765 15.7183 12.1897L9.87599 2.70891C9.70449 2.43064 9.29822 2.43009 9.12645 2.70891L3.2832 12.1907C3.56826 12.3804 5.6062 14.87 9.50137 14.87ZM12.1414 11.1716C12.1414 10.9289 12.3384 10.7322 12.5814 10.7322C12.8244 10.7322 13.0214 10.9289 13.0214 11.1716V12.0506C13.0214 12.2933 12.8244 12.49 12.5814 12.49C12.3384 12.49 12.1414 12.2933 12.1414 12.0506V11.1716ZM10.3812 8.5349C10.3812 8.2922 10.5782 8.09545 10.8212 8.09545C11.0642 8.09545 11.2612 8.2922 11.2612 8.5349V9.41382C11.2612 9.65651 11.0642 9.85327 10.8212 9.85327C10.5782 9.85327 10.3812 9.65651 10.3812 9.41382V8.5349ZM9.06103 5.89819C9.06103 5.65549 9.25806 5.45873 9.50108 5.45873C9.7441 5.45873 9.94112 5.65549 9.94112 5.89819V6.7771C9.94112 7.0198 9.7441 7.21656 9.50108 7.21656C9.25806 7.21656 9.06103 7.0198 9.06103 6.7771V5.89819ZM9.06103 11.1716C9.06103 10.9289 9.25806 10.7322 9.50108 10.7322C9.7441 10.7322 9.94112 10.9289 9.94112 11.1716V12.0506C9.94112 12.2933 9.7441 12.49 9.50108 12.49C9.25806 12.49 9.06103 12.2933 9.06103 12.0506V11.1716ZM7.74088 8.5349C7.74088 8.2922 7.9379 8.09545 8.18092 8.09545C8.42394 8.09545 8.62096 8.2922 8.62096 8.5349V9.41382C8.62096 9.65651 8.42394 9.85327 8.18092 9.85327C7.9379 9.85327 7.74088 9.65651 7.74088 9.41382V8.5349ZM5.98068 11.1716C5.98068 10.9289 6.1777 10.7322 6.42072 10.7322C6.66374 10.7322 6.86076 10.9289 6.86076 11.1716V12.0506C6.86076 12.2933 6.66374 12.49 6.42072 12.49C6.1777 12.49 5.98068 12.2933 5.98068 12.0506V11.1716Z" fill="#CA3C3D"/>
</g>
</g>
</svg>
