<svg width="20" height="20" viewBox="0 0 20 20" fill="none" xmlns="http://www.w3.org/2000/svg">
<g id="yellow 1">
<g id="Group">
<path id="Vector" d="M9.99968 17.5984C7.66856 17.5561 5.7129 15.4913 5.7129 13.1503C5.71197 12.5064 5.85675 11.8705 6.13641 11.2904C6.17232 11.2161 6.21241 11.1441 6.25573 11.0738C7.02086 9.81984 7.63835 8.63747 7.96287 7.59874C8.05258 7.30394 8.09347 6.99645 8.08391 6.68845V6.64171C8.08391 6.13346 8.2858 5.64603 8.64519 5.28665C9.00457 4.92727 9.492 4.72537 10.0002 4.72537C10.5085 4.72537 10.9959 4.92727 11.3553 5.28665C11.7147 5.64603 11.9166 6.13346 11.9166 6.64171V6.68845C11.907 6.99645 11.9479 7.30394 12.0376 7.59874C12.3621 8.63747 12.9796 9.81946 13.7448 11.0738C13.7877 11.1441 13.8282 11.2161 13.8641 11.2904C14.1438 11.8706 14.2886 12.5066 14.2876 13.1507C14.2865 15.4913 12.3308 17.5561 9.99968 17.5984ZM9.99968 4.34518C10.3216 4.34482 10.64 4.41255 10.9339 4.54392V3.28859C10.9339 3.17169 10.9109 3.05594 10.8661 2.94794C10.8214 2.83994 10.7558 2.74181 10.6732 2.65916C10.5905 2.5765 10.4924 2.51093 10.3844 2.4662C10.2764 2.42146 10.1607 2.39844 10.0438 2.39844H9.9556C9.71951 2.39844 9.4931 2.49222 9.32616 2.65916C9.15923 2.82609 9.06544 3.05251 9.06544 3.28859V4.54392C9.35936 4.41255 9.67774 4.34482 9.99968 4.34518Z" fill="#FEDD4B"/>
</g>
</g>
</svg>
