<svg width="14" height="14" viewBox="0 0 14 14" fill="none" xmlns="http://www.w3.org/2000/svg">
<g id="yoga 1" clip-path="url(#clip0_1797_2066)">
<g id="Group">
<path id="Vector" d="M6.99546 2.38935C7.65526 2.38935 8.19013 1.85448 8.19013 1.19468C8.19013 0.534875 7.65526 0 6.99546 0C6.33566 0 5.80078 0.534875 5.80078 1.19468C5.80078 1.85448 6.33566 2.38935 6.99546 2.38935Z" fill="#999999"/>
<path id="Vector_2" d="M13.7558 2.0768C13.6446 1.80489 13.334 1.6746 13.0621 1.78584L10.7469 2.73286L8.51634 2.83165H5.46322L3.25377 2.73286L0.938543 1.78581C0.666664 1.67463 0.356039 1.80487 0.244805 2.07677C0.133598 2.34868 0.263863 2.65928 0.535769 2.77051L2.93507 3.75193C2.99072 3.77469 3.04981 3.78785 3.10986 3.79087L5.46322 3.90872V7.13039L3.67267 9.05569C3.33011 9.42398 3.48375 10.024 3.96046 10.1829C7.27516 11.2876 7.04391 11.2169 7.14549 11.2295V13.3077C7.14549 13.6897 7.45516 13.9994 7.83715 13.9994C8.21914 13.9994 8.52255 13.6897 8.52255 13.3077V3.90976L10.8907 3.79087C10.9508 3.78787 11.0099 3.7747 11.0655 3.75193L13.4648 2.77051C13.7368 2.65928 13.867 2.34871 13.7558 2.0768ZM7.14552 9.78626L5.41786 9.21048C6.77589 7.75025 6.68543 7.85399 6.73432 7.77907H7.14555V9.78626H7.14552Z" fill="#999999"/>
</g>
</g>
<defs>
<clipPath id="clip0_1797_2066">
<rect width="14" height="14" fill="white"/>
</clipPath>
</defs>
</svg>
